<?xml version="1.0" encoding="utf-8" standalone="no"?>
<!DOCTYPE svg PUBLIC "-//W3C//DTD SVG 1.1//EN"
  "http://www.w3.org/Graphics/SVG/1.1/DTD/svg11.dtd">
<!-- Created with matplotlib (https://matplotlib.org/) -->
<svg height="686.74875pt" version="1.1" viewBox="0 0 1130.543125 686.74875" width="1130.543125pt" xmlns="http://www.w3.org/2000/svg" xmlns:xlink="http://www.w3.org/1999/xlink">
 <metadata>
  <rdf:RDF xmlns:cc="http://creativecommons.org/ns#" xmlns:dc="http://purl.org/dc/elements/1.1/" xmlns:rdf="http://www.w3.org/1999/02/22-rdf-syntax-ns#">
   <cc:Work>
    <dc:type rdf:resource="http://purl.org/dc/dcmitype/StillImage"/>
    <dc:date>2023-02-21T10:15:58.457645</dc:date>
    <dc:format>image/svg+xml</dc:format>
    <dc:creator>
     <cc:Agent>
      <dc:title>Matplotlib v3.3.4, https://matplotlib.org/</dc:title>
     </cc:Agent>
    </dc:creator>
   </cc:Work>
  </rdf:RDF>
 </metadata>
 <defs>
  <style type="text/css">*{stroke-linecap:butt;stroke-linejoin:round;}</style>
 </defs>
 <g id="figure_1">
  <g id="patch_1">
   <path d="M 0 686.74875 
L 1130.543125 686.74875 
L 1130.543125 0 
L 0 0 
z
" style="fill:#ffffff;"/>
  </g>
  <g id="axes_1">
   <g id="patch_2">
    <path d="M 75.915 629.83625 
L 912.915 629.83625 
L 912.915 75.43625 
L 75.915 75.43625 
z
" style="fill:#ffffff;"/>
   </g>
   <g id="matplotlib.axis_1">
    <g id="xtick_1">
     <g id="line2d_1">
      <defs>
       <path d="M 0 0 
L 0 3.5 
" id="m0e9b614251" style="stroke:#000000;stroke-width:0.8;"/>
      </defs>
      <g>
       <use style="stroke:#000000;stroke-width:0.8;" x="152.005909" xlink:href="#m0e9b614251" y="629.83625"/>
      </g>
     </g>
     <g id="text_1">
      <!-- 20 -->
      <g transform="translate(139.280909 652.033125)scale(0.2 -0.2)">
       <defs>
        <path d="M 19.1875 8.296875 
L 53.609375 8.296875 
L 53.609375 0 
L 7.328125 0 
L 7.328125 8.296875 
Q 12.9375 14.109375 22.625 23.890625 
Q 32.328125 33.6875 34.8125 36.53125 
Q 39.546875 41.84375 41.421875 45.53125 
Q 43.3125 49.21875 43.3125 52.78125 
Q 43.3125 58.59375 39.234375 62.25 
Q 35.15625 65.921875 28.609375 65.921875 
Q 23.96875 65.921875 18.8125 64.3125 
Q 13.671875 62.703125 7.8125 59.421875 
L 7.8125 69.390625 
Q 13.765625 71.78125 18.9375 73 
Q 24.125 74.21875 28.421875 74.21875 
Q 39.75 74.21875 46.484375 68.546875 
Q 53.21875 62.890625 53.21875 53.421875 
Q 53.21875 48.921875 51.53125 44.890625 
Q 49.859375 40.875 45.40625 35.40625 
Q 44.1875 33.984375 37.640625 27.21875 
Q 31.109375 20.453125 19.1875 8.296875 
z
" id="DejaVuSans-50"/>
        <path d="M 31.78125 66.40625 
Q 24.171875 66.40625 20.328125 58.90625 
Q 16.5 51.421875 16.5 36.375 
Q 16.5 21.390625 20.328125 13.890625 
Q 24.171875 6.390625 31.78125 6.390625 
Q 39.453125 6.390625 43.28125 13.890625 
Q 47.125 21.390625 47.125 36.375 
Q 47.125 51.421875 43.28125 58.90625 
Q 39.453125 66.40625 31.78125 66.40625 
z
M 31.78125 74.21875 
Q 44.046875 74.21875 50.515625 64.515625 
Q 56.984375 54.828125 56.984375 36.375 
Q 56.984375 17.96875 50.515625 8.265625 
Q 44.046875 -1.421875 31.78125 -1.421875 
Q 19.53125 -1.421875 13.0625 8.265625 
Q 6.59375 17.96875 6.59375 36.375 
Q 6.59375 54.828125 13.0625 64.515625 
Q 19.53125 74.21875 31.78125 74.21875 
z
" id="DejaVuSans-48"/>
       </defs>
       <use xlink:href="#DejaVuSans-50"/>
       <use x="63.623047" xlink:href="#DejaVuSans-48"/>
      </g>
     </g>
    </g>
    <g id="xtick_2">
     <g id="line2d_2">
      <g>
       <use style="stroke:#000000;stroke-width:0.8;" x="342.233182" xlink:href="#m0e9b614251" y="629.83625"/>
      </g>
     </g>
     <g id="text_2">
      <!-- 15 -->
      <g transform="translate(329.508182 652.033125)scale(0.2 -0.2)">
       <defs>
        <path d="M 12.40625 8.296875 
L 28.515625 8.296875 
L 28.515625 63.921875 
L 10.984375 60.40625 
L 10.984375 69.390625 
L 28.421875 72.90625 
L 38.28125 72.90625 
L 38.28125 8.296875 
L 54.390625 8.296875 
L 54.390625 0 
L 12.40625 0 
z
" id="DejaVuSans-49"/>
        <path d="M 10.796875 72.90625 
L 49.515625 72.90625 
L 49.515625 64.59375 
L 19.828125 64.59375 
L 19.828125 46.734375 
Q 21.96875 47.46875 24.109375 47.828125 
Q 26.265625 48.1875 28.421875 48.1875 
Q 40.625 48.1875 47.75 41.5 
Q 54.890625 34.8125 54.890625 23.390625 
Q 54.890625 11.625 47.5625 5.09375 
Q 40.234375 -1.421875 26.90625 -1.421875 
Q 22.3125 -1.421875 17.546875 -0.640625 
Q 12.796875 0.140625 7.71875 1.703125 
L 7.71875 11.625 
Q 12.109375 9.234375 16.796875 8.0625 
Q 21.484375 6.890625 26.703125 6.890625 
Q 35.15625 6.890625 40.078125 11.328125 
Q 45.015625 15.765625 45.015625 23.390625 
Q 45.015625 31 40.078125 35.4375 
Q 35.15625 39.890625 26.703125 39.890625 
Q 22.75 39.890625 18.8125 39.015625 
Q 14.890625 38.140625 10.796875 36.28125 
z
" id="DejaVuSans-53"/>
       </defs>
       <use xlink:href="#DejaVuSans-49"/>
       <use x="63.623047" xlink:href="#DejaVuSans-53"/>
      </g>
     </g>
    </g>
    <g id="xtick_3">
     <g id="line2d_3">
      <g>
       <use style="stroke:#000000;stroke-width:0.8;" x="532.460455" xlink:href="#m0e9b614251" y="629.83625"/>
      </g>
     </g>
     <g id="text_3">
      <!-- 10 -->
      <g transform="translate(519.735455 652.033125)scale(0.2 -0.2)">
       <use xlink:href="#DejaVuSans-49"/>
       <use x="63.623047" xlink:href="#DejaVuSans-48"/>
      </g>
     </g>
    </g>
    <g id="xtick_4">
     <g id="line2d_4">
      <g>
       <use style="stroke:#000000;stroke-width:0.8;" x="722.687727" xlink:href="#m0e9b614251" y="629.83625"/>
      </g>
     </g>
     <g id="text_4">
      <!-- 5 -->
      <g transform="translate(716.325227 652.033125)scale(0.2 -0.2)">
       <use xlink:href="#DejaVuSans-53"/>
      </g>
     </g>
    </g>
    <g id="xtick_5">
     <g id="line2d_5">
      <g>
       <use style="stroke:#000000;stroke-width:0.8;" x="912.915" xlink:href="#m0e9b614251" y="629.83625"/>
      </g>
     </g>
     <g id="text_5">
      <!-- 0 -->
      <g transform="translate(906.5525 652.033125)scale(0.2 -0.2)">
       <use xlink:href="#DejaVuSans-48"/>
      </g>
     </g>
    </g>
    <g id="xtick_6">
     <g id="line2d_6">
      <path clip-path="url(#p18abae75e2)" d="M 75.915 629.83625 
L 75.915 75.43625 
" style="fill:none;stroke:#b0b0b0;stroke-linecap:square;stroke-opacity:0.2;stroke-width:2;"/>
     </g>
     <g id="line2d_7">
      <defs>
       <path d="M 0 0 
L 0 2 
" id="ma35c60fb01" style="stroke:#000000;stroke-width:0.6;"/>
      </defs>
      <g>
       <use style="stroke:#000000;stroke-width:0.6;" x="75.915" xlink:href="#ma35c60fb01" y="629.83625"/>
      </g>
     </g>
    </g>
    <g id="xtick_7">
     <g id="line2d_8">
      <path clip-path="url(#p18abae75e2)" d="M 113.960455 629.83625 
L 113.960455 75.43625 
" style="fill:none;stroke:#b0b0b0;stroke-linecap:square;stroke-opacity:0.2;stroke-width:2;"/>
     </g>
     <g id="line2d_9">
      <g>
       <use style="stroke:#000000;stroke-width:0.6;" x="113.960455" xlink:href="#ma35c60fb01" y="629.83625"/>
      </g>
     </g>
    </g>
    <g id="xtick_8">
     <g id="line2d_10">
      <path clip-path="url(#p18abae75e2)" d="M 190.051364 629.83625 
L 190.051364 75.43625 
" style="fill:none;stroke:#b0b0b0;stroke-linecap:square;stroke-opacity:0.2;stroke-width:2;"/>
     </g>
     <g id="line2d_11">
      <g>
       <use style="stroke:#000000;stroke-width:0.6;" x="190.051364" xlink:href="#ma35c60fb01" y="629.83625"/>
      </g>
     </g>
    </g>
    <g id="xtick_9">
     <g id="line2d_12">
      <path clip-path="url(#p18abae75e2)" d="M 228.096818 629.83625 
L 228.096818 75.43625 
" style="fill:none;stroke:#b0b0b0;stroke-linecap:square;stroke-opacity:0.2;stroke-width:2;"/>
     </g>
     <g id="line2d_13">
      <g>
       <use style="stroke:#000000;stroke-width:0.6;" x="228.096818" xlink:href="#ma35c60fb01" y="629.83625"/>
      </g>
     </g>
    </g>
    <g id="xtick_10">
     <g id="line2d_14">
      <path clip-path="url(#p18abae75e2)" d="M 266.142273 629.83625 
L 266.142273 75.43625 
" style="fill:none;stroke:#b0b0b0;stroke-linecap:square;stroke-opacity:0.2;stroke-width:2;"/>
     </g>
     <g id="line2d_15">
      <g>
       <use style="stroke:#000000;stroke-width:0.6;" x="266.142273" xlink:href="#ma35c60fb01" y="629.83625"/>
      </g>
     </g>
    </g>
    <g id="xtick_11">
     <g id="line2d_16">
      <path clip-path="url(#p18abae75e2)" d="M 304.187727 629.83625 
L 304.187727 75.43625 
" style="fill:none;stroke:#b0b0b0;stroke-linecap:square;stroke-opacity:0.2;stroke-width:2;"/>
     </g>
     <g id="line2d_17">
      <g>
       <use style="stroke:#000000;stroke-width:0.6;" x="304.187727" xlink:href="#ma35c60fb01" y="629.83625"/>
      </g>
     </g>
    </g>
    <g id="xtick_12">
     <g id="line2d_18">
      <path clip-path="url(#p18abae75e2)" d="M 380.278636 629.83625 
L 380.278636 75.43625 
" style="fill:none;stroke:#b0b0b0;stroke-linecap:square;stroke-opacity:0.2;stroke-width:2;"/>
     </g>
     <g id="line2d_19">
      <g>
       <use style="stroke:#000000;stroke-width:0.6;" x="380.278636" xlink:href="#ma35c60fb01" y="629.83625"/>
      </g>
     </g>
    </g>
    <g id="xtick_13">
     <g id="line2d_20">
      <path clip-path="url(#p18abae75e2)" d="M 418.324091 629.83625 
L 418.324091 75.43625 
" style="fill:none;stroke:#b0b0b0;stroke-linecap:square;stroke-opacity:0.2;stroke-width:2;"/>
     </g>
     <g id="line2d_21">
      <g>
       <use style="stroke:#000000;stroke-width:0.6;" x="418.324091" xlink:href="#ma35c60fb01" y="629.83625"/>
      </g>
     </g>
    </g>
    <g id="xtick_14">
     <g id="line2d_22">
      <path clip-path="url(#p18abae75e2)" d="M 456.369545 629.83625 
L 456.369545 75.43625 
" style="fill:none;stroke:#b0b0b0;stroke-linecap:square;stroke-opacity:0.2;stroke-width:2;"/>
     </g>
     <g id="line2d_23">
      <g>
       <use style="stroke:#000000;stroke-width:0.6;" x="456.369545" xlink:href="#ma35c60fb01" y="629.83625"/>
      </g>
     </g>
    </g>
    <g id="xtick_15">
     <g id="line2d_24">
      <path clip-path="url(#p18abae75e2)" d="M 494.415 629.83625 
L 494.415 75.43625 
" style="fill:none;stroke:#b0b0b0;stroke-linecap:square;stroke-opacity:0.2;stroke-width:2;"/>
     </g>
     <g id="line2d_25">
      <g>
       <use style="stroke:#000000;stroke-width:0.6;" x="494.415" xlink:href="#ma35c60fb01" y="629.83625"/>
      </g>
     </g>
    </g>
    <g id="xtick_16">
     <g id="line2d_26">
      <path clip-path="url(#p18abae75e2)" d="M 570.505909 629.83625 
L 570.505909 75.43625 
" style="fill:none;stroke:#b0b0b0;stroke-linecap:square;stroke-opacity:0.2;stroke-width:2;"/>
     </g>
     <g id="line2d_27">
      <g>
       <use style="stroke:#000000;stroke-width:0.6;" x="570.505909" xlink:href="#ma35c60fb01" y="629.83625"/>
      </g>
     </g>
    </g>
    <g id="xtick_17">
     <g id="line2d_28">
      <path clip-path="url(#p18abae75e2)" d="M 608.551364 629.83625 
L 608.551364 75.43625 
" style="fill:none;stroke:#b0b0b0;stroke-linecap:square;stroke-opacity:0.2;stroke-width:2;"/>
     </g>
     <g id="line2d_29">
      <g>
       <use style="stroke:#000000;stroke-width:0.6;" x="608.551364" xlink:href="#ma35c60fb01" y="629.83625"/>
      </g>
     </g>
    </g>
    <g id="xtick_18">
     <g id="line2d_30">
      <path clip-path="url(#p18abae75e2)" d="M 646.596818 629.83625 
L 646.596818 75.43625 
" style="fill:none;stroke:#b0b0b0;stroke-linecap:square;stroke-opacity:0.2;stroke-width:2;"/>
     </g>
     <g id="line2d_31">
      <g>
       <use style="stroke:#000000;stroke-width:0.6;" x="646.596818" xlink:href="#ma35c60fb01" y="629.83625"/>
      </g>
     </g>
    </g>
    <g id="xtick_19">
     <g id="line2d_32">
      <path clip-path="url(#p18abae75e2)" d="M 684.642273 629.83625 
L 684.642273 75.43625 
" style="fill:none;stroke:#b0b0b0;stroke-linecap:square;stroke-opacity:0.2;stroke-width:2;"/>
     </g>
     <g id="line2d_33">
      <g>
       <use style="stroke:#000000;stroke-width:0.6;" x="684.642273" xlink:href="#ma35c60fb01" y="629.83625"/>
      </g>
     </g>
    </g>
    <g id="xtick_20">
     <g id="line2d_34">
      <path clip-path="url(#p18abae75e2)" d="M 760.733182 629.83625 
L 760.733182 75.43625 
" style="fill:none;stroke:#b0b0b0;stroke-linecap:square;stroke-opacity:0.2;stroke-width:2;"/>
     </g>
     <g id="line2d_35">
      <g>
       <use style="stroke:#000000;stroke-width:0.6;" x="760.733182" xlink:href="#ma35c60fb01" y="629.83625"/>
      </g>
     </g>
    </g>
    <g id="xtick_21">
     <g id="line2d_36">
      <path clip-path="url(#p18abae75e2)" d="M 798.778636 629.83625 
L 798.778636 75.43625 
" style="fill:none;stroke:#b0b0b0;stroke-linecap:square;stroke-opacity:0.2;stroke-width:2;"/>
     </g>
     <g id="line2d_37">
      <g>
       <use style="stroke:#000000;stroke-width:0.6;" x="798.778636" xlink:href="#ma35c60fb01" y="629.83625"/>
      </g>
     </g>
    </g>
    <g id="xtick_22">
     <g id="line2d_38">
      <path clip-path="url(#p18abae75e2)" d="M 836.824091 629.83625 
L 836.824091 75.43625 
" style="fill:none;stroke:#b0b0b0;stroke-linecap:square;stroke-opacity:0.2;stroke-width:2;"/>
     </g>
     <g id="line2d_39">
      <g>
       <use style="stroke:#000000;stroke-width:0.6;" x="836.824091" xlink:href="#ma35c60fb01" y="629.83625"/>
      </g>
     </g>
    </g>
    <g id="xtick_23">
     <g id="line2d_40">
      <path clip-path="url(#p18abae75e2)" d="M 874.869545 629.83625 
L 874.869545 75.43625 
" style="fill:none;stroke:#b0b0b0;stroke-linecap:square;stroke-opacity:0.2;stroke-width:2;"/>
     </g>
     <g id="line2d_41">
      <g>
       <use style="stroke:#000000;stroke-width:0.6;" x="874.869545" xlink:href="#ma35c60fb01" y="629.83625"/>
      </g>
     </g>
    </g>
    <g id="text_6">
     <!-- tumor burden -->
     <g transform="translate(425.547812 675.389375)scale(0.2 -0.2)">
      <defs>
       <path d="M 18.3125 70.21875 
L 18.3125 54.6875 
L 36.8125 54.6875 
L 36.8125 47.703125 
L 18.3125 47.703125 
L 18.3125 18.015625 
Q 18.3125 11.328125 20.140625 9.421875 
Q 21.96875 7.515625 27.59375 7.515625 
L 36.8125 7.515625 
L 36.8125 0 
L 27.59375 0 
Q 17.1875 0 13.234375 3.875 
Q 9.28125 7.765625 9.28125 18.015625 
L 9.28125 47.703125 
L 2.6875 47.703125 
L 2.6875 54.6875 
L 9.28125 54.6875 
L 9.28125 70.21875 
z
" id="DejaVuSans-116"/>
       <path d="M 8.5 21.578125 
L 8.5 54.6875 
L 17.484375 54.6875 
L 17.484375 21.921875 
Q 17.484375 14.15625 20.5 10.265625 
Q 23.53125 6.390625 29.59375 6.390625 
Q 36.859375 6.390625 41.078125 11.03125 
Q 45.3125 15.671875 45.3125 23.6875 
L 45.3125 54.6875 
L 54.296875 54.6875 
L 54.296875 0 
L 45.3125 0 
L 45.3125 8.40625 
Q 42.046875 3.421875 37.71875 1 
Q 33.40625 -1.421875 27.6875 -1.421875 
Q 18.265625 -1.421875 13.375 4.4375 
Q 8.5 10.296875 8.5 21.578125 
z
M 31.109375 56 
z
" id="DejaVuSans-117"/>
       <path d="M 52 44.1875 
Q 55.375 50.25 60.0625 53.125 
Q 64.75 56 71.09375 56 
Q 79.640625 56 84.28125 50.015625 
Q 88.921875 44.046875 88.921875 33.015625 
L 88.921875 0 
L 79.890625 0 
L 79.890625 32.71875 
Q 79.890625 40.578125 77.09375 44.375 
Q 74.3125 48.1875 68.609375 48.1875 
Q 61.625 48.1875 57.5625 43.546875 
Q 53.515625 38.921875 53.515625 30.90625 
L 53.515625 0 
L 44.484375 0 
L 44.484375 32.71875 
Q 44.484375 40.625 41.703125 44.40625 
Q 38.921875 48.1875 33.109375 48.1875 
Q 26.21875 48.1875 22.15625 43.53125 
Q 18.109375 38.875 18.109375 30.90625 
L 18.109375 0 
L 9.078125 0 
L 9.078125 54.6875 
L 18.109375 54.6875 
L 18.109375 46.1875 
Q 21.1875 51.21875 25.484375 53.609375 
Q 29.78125 56 35.6875 56 
Q 41.65625 56 45.828125 52.96875 
Q 50 49.953125 52 44.1875 
z
" id="DejaVuSans-109"/>
       <path d="M 30.609375 48.390625 
Q 23.390625 48.390625 19.1875 42.75 
Q 14.984375 37.109375 14.984375 27.296875 
Q 14.984375 17.484375 19.15625 11.84375 
Q 23.34375 6.203125 30.609375 6.203125 
Q 37.796875 6.203125 41.984375 11.859375 
Q 46.1875 17.53125 46.1875 27.296875 
Q 46.1875 37.015625 41.984375 42.703125 
Q 37.796875 48.390625 30.609375 48.390625 
z
M 30.609375 56 
Q 42.328125 56 49.015625 48.375 
Q 55.71875 40.765625 55.71875 27.296875 
Q 55.71875 13.875 49.015625 6.21875 
Q 42.328125 -1.421875 30.609375 -1.421875 
Q 18.84375 -1.421875 12.171875 6.21875 
Q 5.515625 13.875 5.515625 27.296875 
Q 5.515625 40.765625 12.171875 48.375 
Q 18.84375 56 30.609375 56 
z
" id="DejaVuSans-111"/>
       <path d="M 41.109375 46.296875 
Q 39.59375 47.171875 37.8125 47.578125 
Q 36.03125 48 33.890625 48 
Q 26.265625 48 22.1875 43.046875 
Q 18.109375 38.09375 18.109375 28.8125 
L 18.109375 0 
L 9.078125 0 
L 9.078125 54.6875 
L 18.109375 54.6875 
L 18.109375 46.1875 
Q 20.953125 51.171875 25.484375 53.578125 
Q 30.03125 56 36.53125 56 
Q 37.453125 56 38.578125 55.875 
Q 39.703125 55.765625 41.0625 55.515625 
z
" id="DejaVuSans-114"/>
       <path id="DejaVuSans-32"/>
       <path d="M 48.6875 27.296875 
Q 48.6875 37.203125 44.609375 42.84375 
Q 40.53125 48.484375 33.40625 48.484375 
Q 26.265625 48.484375 22.1875 42.84375 
Q 18.109375 37.203125 18.109375 27.296875 
Q 18.109375 17.390625 22.1875 11.75 
Q 26.265625 6.109375 33.40625 6.109375 
Q 40.53125 6.109375 44.609375 11.75 
Q 48.6875 17.390625 48.6875 27.296875 
z
M 18.109375 46.390625 
Q 20.953125 51.265625 25.265625 53.625 
Q 29.59375 56 35.59375 56 
Q 45.5625 56 51.78125 48.09375 
Q 58.015625 40.1875 58.015625 27.296875 
Q 58.015625 14.40625 51.78125 6.484375 
Q 45.5625 -1.421875 35.59375 -1.421875 
Q 29.59375 -1.421875 25.265625 0.953125 
Q 20.953125 3.328125 18.109375 8.203125 
L 18.109375 0 
L 9.078125 0 
L 9.078125 75.984375 
L 18.109375 75.984375 
z
" id="DejaVuSans-98"/>
       <path d="M 45.40625 46.390625 
L 45.40625 75.984375 
L 54.390625 75.984375 
L 54.390625 0 
L 45.40625 0 
L 45.40625 8.203125 
Q 42.578125 3.328125 38.25 0.953125 
Q 33.9375 -1.421875 27.875 -1.421875 
Q 17.96875 -1.421875 11.734375 6.484375 
Q 5.515625 14.40625 5.515625 27.296875 
Q 5.515625 40.1875 11.734375 48.09375 
Q 17.96875 56 27.875 56 
Q 33.9375 56 38.25 53.625 
Q 42.578125 51.265625 45.40625 46.390625 
z
M 14.796875 27.296875 
Q 14.796875 17.390625 18.875 11.75 
Q 22.953125 6.109375 30.078125 6.109375 
Q 37.203125 6.109375 41.296875 11.75 
Q 45.40625 17.390625 45.40625 27.296875 
Q 45.40625 37.203125 41.296875 42.84375 
Q 37.203125 48.484375 30.078125 48.484375 
Q 22.953125 48.484375 18.875 42.84375 
Q 14.796875 37.203125 14.796875 27.296875 
z
" id="DejaVuSans-100"/>
       <path d="M 56.203125 29.59375 
L 56.203125 25.203125 
L 14.890625 25.203125 
Q 15.484375 15.921875 20.484375 11.0625 
Q 25.484375 6.203125 34.421875 6.203125 
Q 39.59375 6.203125 44.453125 7.46875 
Q 49.3125 8.734375 54.109375 11.28125 
L 54.109375 2.78125 
Q 49.265625 0.734375 44.1875 -0.34375 
Q 39.109375 -1.421875 33.890625 -1.421875 
Q 20.796875 -1.421875 13.15625 6.1875 
Q 5.515625 13.8125 5.515625 26.8125 
Q 5.515625 40.234375 12.765625 48.109375 
Q 20.015625 56 32.328125 56 
Q 43.359375 56 49.78125 48.890625 
Q 56.203125 41.796875 56.203125 29.59375 
z
M 47.21875 32.234375 
Q 47.125 39.59375 43.09375 43.984375 
Q 39.0625 48.390625 32.421875 48.390625 
Q 24.90625 48.390625 20.390625 44.140625 
Q 15.875 39.890625 15.1875 32.171875 
z
" id="DejaVuSans-101"/>
       <path d="M 54.890625 33.015625 
L 54.890625 0 
L 45.90625 0 
L 45.90625 32.71875 
Q 45.90625 40.484375 42.875 44.328125 
Q 39.84375 48.1875 33.796875 48.1875 
Q 26.515625 48.1875 22.3125 43.546875 
Q 18.109375 38.921875 18.109375 30.90625 
L 18.109375 0 
L 9.078125 0 
L 9.078125 54.6875 
L 18.109375 54.6875 
L 18.109375 46.1875 
Q 21.34375 51.125 25.703125 53.5625 
Q 30.078125 56 35.796875 56 
Q 45.21875 56 50.046875 50.171875 
Q 54.890625 44.34375 54.890625 33.015625 
z
" id="DejaVuSans-110"/>
      </defs>
      <use xlink:href="#DejaVuSans-116"/>
      <use x="39.208984" xlink:href="#DejaVuSans-117"/>
      <use x="102.587891" xlink:href="#DejaVuSans-109"/>
      <use x="200" xlink:href="#DejaVuSans-111"/>
      <use x="261.181641" xlink:href="#DejaVuSans-114"/>
      <use x="302.294922" xlink:href="#DejaVuSans-32"/>
      <use x="334.082031" xlink:href="#DejaVuSans-98"/>
      <use x="397.558594" xlink:href="#DejaVuSans-117"/>
      <use x="460.9375" xlink:href="#DejaVuSans-114"/>
      <use x="500.300781" xlink:href="#DejaVuSans-100"/>
      <use x="563.777344" xlink:href="#DejaVuSans-101"/>
      <use x="625.300781" xlink:href="#DejaVuSans-110"/>
     </g>
    </g>
   </g>
   <g id="matplotlib.axis_2">
    <g id="ytick_1">
     <g id="line2d_42">
      <defs>
       <path d="M 0 0 
L -3.5 0 
" id="m0169ec6277" style="stroke:#000000;stroke-width:0.8;"/>
      </defs>
      <g>
       <use style="stroke:#000000;stroke-width:0.8;" x="75.915" xlink:href="#m0169ec6277" y="629.83625"/>
      </g>
     </g>
     <g id="text_7">
      <!-- 0.0 -->
      <g transform="translate(37.10875 637.434688)scale(0.2 -0.2)">
       <defs>
        <path d="M 10.6875 12.40625 
L 21 12.40625 
L 21 0 
L 10.6875 0 
z
" id="DejaVuSans-46"/>
       </defs>
       <use xlink:href="#DejaVuSans-48"/>
       <use x="63.623047" xlink:href="#DejaVuSans-46"/>
       <use x="95.410156" xlink:href="#DejaVuSans-48"/>
      </g>
     </g>
    </g>
    <g id="ytick_2">
     <g id="line2d_43">
      <g>
       <use style="stroke:#000000;stroke-width:0.8;" x="75.915" xlink:href="#m0169ec6277" y="518.95625"/>
      </g>
     </g>
     <g id="text_8">
      <!-- 0.1 -->
      <g transform="translate(37.10875 526.554688)scale(0.2 -0.2)">
       <use xlink:href="#DejaVuSans-48"/>
       <use x="63.623047" xlink:href="#DejaVuSans-46"/>
       <use x="95.410156" xlink:href="#DejaVuSans-49"/>
      </g>
     </g>
    </g>
    <g id="ytick_3">
     <g id="line2d_44">
      <g>
       <use style="stroke:#000000;stroke-width:0.8;" x="75.915" xlink:href="#m0169ec6277" y="408.07625"/>
      </g>
     </g>
     <g id="text_9">
      <!-- 0.2 -->
      <g transform="translate(37.10875 415.674688)scale(0.2 -0.2)">
       <use xlink:href="#DejaVuSans-48"/>
       <use x="63.623047" xlink:href="#DejaVuSans-46"/>
       <use x="95.410156" xlink:href="#DejaVuSans-50"/>
      </g>
     </g>
    </g>
    <g id="ytick_4">
     <g id="line2d_45">
      <g>
       <use style="stroke:#000000;stroke-width:0.8;" x="75.915" xlink:href="#m0169ec6277" y="297.19625"/>
      </g>
     </g>
     <g id="text_10">
      <!-- 0.3 -->
      <g transform="translate(37.10875 304.794688)scale(0.2 -0.2)">
       <defs>
        <path d="M 40.578125 39.3125 
Q 47.65625 37.796875 51.625 33 
Q 55.609375 28.21875 55.609375 21.1875 
Q 55.609375 10.40625 48.1875 4.484375 
Q 40.765625 -1.421875 27.09375 -1.421875 
Q 22.515625 -1.421875 17.65625 -0.515625 
Q 12.796875 0.390625 7.625 2.203125 
L 7.625 11.71875 
Q 11.71875 9.328125 16.59375 8.109375 
Q 21.484375 6.890625 26.8125 6.890625 
Q 36.078125 6.890625 40.9375 10.546875 
Q 45.796875 14.203125 45.796875 21.1875 
Q 45.796875 27.640625 41.28125 31.265625 
Q 36.765625 34.90625 28.71875 34.90625 
L 20.21875 34.90625 
L 20.21875 43.015625 
L 29.109375 43.015625 
Q 36.375 43.015625 40.234375 45.921875 
Q 44.09375 48.828125 44.09375 54.296875 
Q 44.09375 59.90625 40.109375 62.90625 
Q 36.140625 65.921875 28.71875 65.921875 
Q 24.65625 65.921875 20.015625 65.03125 
Q 15.375 64.15625 9.8125 62.3125 
L 9.8125 71.09375 
Q 15.4375 72.65625 20.34375 73.4375 
Q 25.25 74.21875 29.59375 74.21875 
Q 40.828125 74.21875 47.359375 69.109375 
Q 53.90625 64.015625 53.90625 55.328125 
Q 53.90625 49.265625 50.4375 45.09375 
Q 46.96875 40.921875 40.578125 39.3125 
z
" id="DejaVuSans-51"/>
       </defs>
       <use xlink:href="#DejaVuSans-48"/>
       <use x="63.623047" xlink:href="#DejaVuSans-46"/>
       <use x="95.410156" xlink:href="#DejaVuSans-51"/>
      </g>
     </g>
    </g>
    <g id="ytick_5">
     <g id="line2d_46">
      <g>
       <use style="stroke:#000000;stroke-width:0.8;" x="75.915" xlink:href="#m0169ec6277" y="186.31625"/>
      </g>
     </g>
     <g id="text_11">
      <!-- 0.4 -->
      <g transform="translate(37.10875 193.914688)scale(0.2 -0.2)">
       <defs>
        <path d="M 37.796875 64.3125 
L 12.890625 25.390625 
L 37.796875 25.390625 
z
M 35.203125 72.90625 
L 47.609375 72.90625 
L 47.609375 25.390625 
L 58.015625 25.390625 
L 58.015625 17.1875 
L 47.609375 17.1875 
L 47.609375 0 
L 37.796875 0 
L 37.796875 17.1875 
L 4.890625 17.1875 
L 4.890625 26.703125 
z
" id="DejaVuSans-52"/>
       </defs>
       <use xlink:href="#DejaVuSans-48"/>
       <use x="63.623047" xlink:href="#DejaVuSans-46"/>
       <use x="95.410156" xlink:href="#DejaVuSans-52"/>
      </g>
     </g>
    </g>
    <g id="ytick_6">
     <g id="line2d_47">
      <g>
       <use style="stroke:#000000;stroke-width:0.8;" x="75.915" xlink:href="#m0169ec6277" y="75.43625"/>
      </g>
     </g>
     <g id="text_12">
      <!-- 0.5 -->
      <g transform="translate(37.10875 83.034688)scale(0.2 -0.2)">
       <use xlink:href="#DejaVuSans-48"/>
       <use x="63.623047" xlink:href="#DejaVuSans-46"/>
       <use x="95.410156" xlink:href="#DejaVuSans-53"/>
      </g>
     </g>
    </g>
    <g id="text_13">
     <!-- AUPRC score -->
     <g transform="translate(28.949375 416.300313)rotate(-90)scale(0.2 -0.2)">
      <defs>
       <path d="M 34.1875 63.1875 
L 20.796875 26.90625 
L 47.609375 26.90625 
z
M 28.609375 72.90625 
L 39.796875 72.90625 
L 67.578125 0 
L 57.328125 0 
L 50.6875 18.703125 
L 17.828125 18.703125 
L 11.1875 0 
L 0.78125 0 
z
" id="DejaVuSans-65"/>
       <path d="M 8.6875 72.90625 
L 18.609375 72.90625 
L 18.609375 28.609375 
Q 18.609375 16.890625 22.84375 11.734375 
Q 27.09375 6.59375 36.625 6.59375 
Q 46.09375 6.59375 50.34375 11.734375 
Q 54.59375 16.890625 54.59375 28.609375 
L 54.59375 72.90625 
L 64.5 72.90625 
L 64.5 27.390625 
Q 64.5 13.140625 57.4375 5.859375 
Q 50.390625 -1.421875 36.625 -1.421875 
Q 22.796875 -1.421875 15.734375 5.859375 
Q 8.6875 13.140625 8.6875 27.390625 
z
" id="DejaVuSans-85"/>
       <path d="M 19.671875 64.796875 
L 19.671875 37.40625 
L 32.078125 37.40625 
Q 38.96875 37.40625 42.71875 40.96875 
Q 46.484375 44.53125 46.484375 51.125 
Q 46.484375 57.671875 42.71875 61.234375 
Q 38.96875 64.796875 32.078125 64.796875 
z
M 9.8125 72.90625 
L 32.078125 72.90625 
Q 44.34375 72.90625 50.609375 67.359375 
Q 56.890625 61.8125 56.890625 51.125 
Q 56.890625 40.328125 50.609375 34.8125 
Q 44.34375 29.296875 32.078125 29.296875 
L 19.671875 29.296875 
L 19.671875 0 
L 9.8125 0 
z
" id="DejaVuSans-80"/>
       <path d="M 44.390625 34.1875 
Q 47.5625 33.109375 50.5625 29.59375 
Q 53.5625 26.078125 56.59375 19.921875 
L 66.609375 0 
L 56 0 
L 46.6875 18.703125 
Q 43.0625 26.03125 39.671875 28.421875 
Q 36.28125 30.8125 30.421875 30.8125 
L 19.671875 30.8125 
L 19.671875 0 
L 9.8125 0 
L 9.8125 72.90625 
L 32.078125 72.90625 
Q 44.578125 72.90625 50.734375 67.671875 
Q 56.890625 62.453125 56.890625 51.90625 
Q 56.890625 45.015625 53.6875 40.46875 
Q 50.484375 35.9375 44.390625 34.1875 
z
M 19.671875 64.796875 
L 19.671875 38.921875 
L 32.078125 38.921875 
Q 39.203125 38.921875 42.84375 42.21875 
Q 46.484375 45.515625 46.484375 51.90625 
Q 46.484375 58.296875 42.84375 61.546875 
Q 39.203125 64.796875 32.078125 64.796875 
z
" id="DejaVuSans-82"/>
       <path d="M 64.40625 67.28125 
L 64.40625 56.890625 
Q 59.421875 61.53125 53.78125 63.8125 
Q 48.140625 66.109375 41.796875 66.109375 
Q 29.296875 66.109375 22.65625 58.46875 
Q 16.015625 50.828125 16.015625 36.375 
Q 16.015625 21.96875 22.65625 14.328125 
Q 29.296875 6.6875 41.796875 6.6875 
Q 48.140625 6.6875 53.78125 8.984375 
Q 59.421875 11.28125 64.40625 15.921875 
L 64.40625 5.609375 
Q 59.234375 2.09375 53.4375 0.328125 
Q 47.65625 -1.421875 41.21875 -1.421875 
Q 24.65625 -1.421875 15.125 8.703125 
Q 5.609375 18.84375 5.609375 36.375 
Q 5.609375 53.953125 15.125 64.078125 
Q 24.65625 74.21875 41.21875 74.21875 
Q 47.75 74.21875 53.53125 72.484375 
Q 59.328125 70.75 64.40625 67.28125 
z
" id="DejaVuSans-67"/>
       <path d="M 44.28125 53.078125 
L 44.28125 44.578125 
Q 40.484375 46.53125 36.375 47.5 
Q 32.28125 48.484375 27.875 48.484375 
Q 21.1875 48.484375 17.84375 46.4375 
Q 14.5 44.390625 14.5 40.28125 
Q 14.5 37.15625 16.890625 35.375 
Q 19.28125 33.59375 26.515625 31.984375 
L 29.59375 31.296875 
Q 39.15625 29.25 43.1875 25.515625 
Q 47.21875 21.78125 47.21875 15.09375 
Q 47.21875 7.46875 41.1875 3.015625 
Q 35.15625 -1.421875 24.609375 -1.421875 
Q 20.21875 -1.421875 15.453125 -0.5625 
Q 10.6875 0.296875 5.421875 2 
L 5.421875 11.28125 
Q 10.40625 8.6875 15.234375 7.390625 
Q 20.0625 6.109375 24.8125 6.109375 
Q 31.15625 6.109375 34.5625 8.28125 
Q 37.984375 10.453125 37.984375 14.40625 
Q 37.984375 18.0625 35.515625 20.015625 
Q 33.0625 21.96875 24.703125 23.78125 
L 21.578125 24.515625 
Q 13.234375 26.265625 9.515625 29.90625 
Q 5.8125 33.546875 5.8125 39.890625 
Q 5.8125 47.609375 11.28125 51.796875 
Q 16.75 56 26.8125 56 
Q 31.78125 56 36.171875 55.265625 
Q 40.578125 54.546875 44.28125 53.078125 
z
" id="DejaVuSans-115"/>
       <path d="M 48.78125 52.59375 
L 48.78125 44.1875 
Q 44.96875 46.296875 41.140625 47.34375 
Q 37.3125 48.390625 33.40625 48.390625 
Q 24.65625 48.390625 19.8125 42.84375 
Q 14.984375 37.3125 14.984375 27.296875 
Q 14.984375 17.28125 19.8125 11.734375 
Q 24.65625 6.203125 33.40625 6.203125 
Q 37.3125 6.203125 41.140625 7.25 
Q 44.96875 8.296875 48.78125 10.40625 
L 48.78125 2.09375 
Q 45.015625 0.34375 40.984375 -0.53125 
Q 36.96875 -1.421875 32.421875 -1.421875 
Q 20.0625 -1.421875 12.78125 6.34375 
Q 5.515625 14.109375 5.515625 27.296875 
Q 5.515625 40.671875 12.859375 48.328125 
Q 20.21875 56 33.015625 56 
Q 37.15625 56 41.109375 55.140625 
Q 45.0625 54.296875 48.78125 52.59375 
z
" id="DejaVuSans-99"/>
      </defs>
      <use xlink:href="#DejaVuSans-65"/>
      <use x="68.408203" xlink:href="#DejaVuSans-85"/>
      <use x="141.601562" xlink:href="#DejaVuSans-80"/>
      <use x="201.904297" xlink:href="#DejaVuSans-82"/>
      <use x="266.386719" xlink:href="#DejaVuSans-67"/>
      <use x="336.210938" xlink:href="#DejaVuSans-32"/>
      <use x="367.998047" xlink:href="#DejaVuSans-115"/>
      <use x="420.097656" xlink:href="#DejaVuSans-99"/>
      <use x="475.078125" xlink:href="#DejaVuSans-111"/>
      <use x="536.259766" xlink:href="#DejaVuSans-114"/>
      <use x="575.123047" xlink:href="#DejaVuSans-101"/>
     </g>
    </g>
   </g>
   <g id="line2d_48"/>
   <g id="line2d_49"/>
   <g id="line2d_50"/>
   <g id="line2d_51"/>
   <g id="line2d_52"/>
   <g id="line2d_53"/>
   <g id="line2d_54"/>
   <g id="line2d_55"/>
   <g id="line2d_56">
    <path clip-path="url(#p18abae75e2)" d="M 169.126364 606.266288 
L 381.42 616.172546 
L 594.094091 618.510962 
L 700.240909 619.759413 
L 806.768182 620.264755 
L 859.651364 620.486102 
" style="fill:none;stroke:#1f77b4;stroke-linecap:square;stroke-width:2;"/>
    <defs>
     <path d="M 0 7.5 
C 1.989023 7.5 3.896849 6.709753 5.303301 5.303301 
C 6.709753 3.896849 7.5 1.989023 7.5 0 
C 7.5 -1.989023 6.709753 -3.896849 5.303301 -5.303301 
C 3.896849 -6.709753 1.989023 -7.5 0 -7.5 
C -1.989023 -7.5 -3.896849 -6.709753 -5.303301 -5.303301 
C -6.709753 -3.896849 -7.5 -1.989023 -7.5 0 
C -7.5 1.989023 -6.709753 3.896849 -5.303301 5.303301 
C -3.896849 6.709753 -1.989023 7.5 0 7.5 
z
" id="me758554ed4" style="stroke:#1f77b4;"/>
    </defs>
    <g clip-path="url(#p18abae75e2)">
     <use style="fill:#1f77b4;stroke:#1f77b4;" x="169.126364" xlink:href="#me758554ed4" y="606.266288"/>
     <use style="fill:#1f77b4;stroke:#1f77b4;" x="381.42" xlink:href="#me758554ed4" y="616.172546"/>
     <use style="fill:#1f77b4;stroke:#1f77b4;" x="594.094091" xlink:href="#me758554ed4" y="618.510962"/>
     <use style="fill:#1f77b4;stroke:#1f77b4;" x="700.240909" xlink:href="#me758554ed4" y="619.759413"/>
     <use style="fill:#1f77b4;stroke:#1f77b4;" x="806.768182" xlink:href="#me758554ed4" y="620.264755"/>
     <use style="fill:#1f77b4;stroke:#1f77b4;" x="859.651364" xlink:href="#me758554ed4" y="620.486102"/>
    </g>
   </g>
   <g id="line2d_57">
    <path clip-path="url(#p18abae75e2)" d="M 169.126364 493.701848 
L 381.42 521.66383 
L 594.094091 569.437503 
L 700.240909 581.266253 
L 806.768182 595.886929 
L 859.651364 601.31742 
" style="fill:none;stroke:#ff7f0e;stroke-linecap:square;stroke-width:2;"/>
    <defs>
     <path d="M 0 7.5 
C 1.989023 7.5 3.896849 6.709753 5.303301 5.303301 
C 6.709753 3.896849 7.5 1.989023 7.5 0 
C 7.5 -1.989023 6.709753 -3.896849 5.303301 -5.303301 
C 3.896849 -6.709753 1.989023 -7.5 0 -7.5 
C -1.989023 -7.5 -3.896849 -6.709753 -5.303301 -5.303301 
C -6.709753 -3.896849 -7.5 -1.989023 -7.5 0 
C -7.5 1.989023 -6.709753 3.896849 -5.303301 5.303301 
C -3.896849 6.709753 -1.989023 7.5 0 7.5 
z
" id="m1772146fad" style="stroke:#ff7f0e;"/>
    </defs>
    <g clip-path="url(#p18abae75e2)">
     <use style="fill:#ff7f0e;stroke:#ff7f0e;" x="169.126364" xlink:href="#m1772146fad" y="493.701848"/>
     <use style="fill:#ff7f0e;stroke:#ff7f0e;" x="381.42" xlink:href="#m1772146fad" y="521.66383"/>
     <use style="fill:#ff7f0e;stroke:#ff7f0e;" x="594.094091" xlink:href="#m1772146fad" y="569.437503"/>
     <use style="fill:#ff7f0e;stroke:#ff7f0e;" x="700.240909" xlink:href="#m1772146fad" y="581.266253"/>
     <use style="fill:#ff7f0e;stroke:#ff7f0e;" x="806.768182" xlink:href="#m1772146fad" y="595.886929"/>
     <use style="fill:#ff7f0e;stroke:#ff7f0e;" x="859.651364" xlink:href="#m1772146fad" y="601.31742"/>
    </g>
   </g>
   <g id="line2d_58">
    <path clip-path="url(#p18abae75e2)" d="M 169.126364 328.00883 
L 381.42 398.714761 
L 594.094091 498.767162 
L 700.240909 565.90324 
L 806.768182 600.151165 
L 859.651364 621.020961 
" style="fill:none;stroke:#2ca02c;stroke-linecap:square;stroke-width:2;"/>
    <defs>
     <path d="M 0 7.5 
C 1.989023 7.5 3.896849 6.709753 5.303301 5.303301 
C 6.709753 3.896849 7.5 1.989023 7.5 0 
C 7.5 -1.989023 6.709753 -3.896849 5.303301 -5.303301 
C 3.896849 -6.709753 1.989023 -7.5 0 -7.5 
C -1.989023 -7.5 -3.896849 -6.709753 -5.303301 -5.303301 
C -6.709753 -3.896849 -7.5 -1.989023 -7.5 0 
C -7.5 1.989023 -6.709753 3.896849 -5.303301 5.303301 
C -3.896849 6.709753 -1.989023 7.5 0 7.5 
z
" id="m0f6bffdbba" style="stroke:#2ca02c;"/>
    </defs>
    <g clip-path="url(#p18abae75e2)">
     <use style="fill:#2ca02c;stroke:#2ca02c;" x="169.126364" xlink:href="#m0f6bffdbba" y="328.00883"/>
     <use style="fill:#2ca02c;stroke:#2ca02c;" x="381.42" xlink:href="#m0f6bffdbba" y="398.714761"/>
     <use style="fill:#2ca02c;stroke:#2ca02c;" x="594.094091" xlink:href="#m0f6bffdbba" y="498.767162"/>
     <use style="fill:#2ca02c;stroke:#2ca02c;" x="700.240909" xlink:href="#m0f6bffdbba" y="565.90324"/>
     <use style="fill:#2ca02c;stroke:#2ca02c;" x="806.768182" xlink:href="#m0f6bffdbba" y="600.151165"/>
     <use style="fill:#2ca02c;stroke:#2ca02c;" x="859.651364" xlink:href="#m0f6bffdbba" y="621.020961"/>
    </g>
   </g>
   <g id="line2d_59">
    <path clip-path="url(#p18abae75e2)" d="M 169.126364 487.12674 
L 381.42 540.600888 
L 594.094091 582.440618 
L 700.240909 600.345261 
L 806.768182 609.12918 
L 859.651364 612.252683 
" style="fill:none;stroke:#d62728;stroke-linecap:square;stroke-width:2;"/>
    <defs>
     <path d="M 0 7.5 
C 1.989023 7.5 3.896849 6.709753 5.303301 5.303301 
C 6.709753 3.896849 7.5 1.989023 7.5 0 
C 7.5 -1.989023 6.709753 -3.896849 5.303301 -5.303301 
C 3.896849 -6.709753 1.989023 -7.5 0 -7.5 
C -1.989023 -7.5 -3.896849 -6.709753 -5.303301 -5.303301 
C -6.709753 -3.896849 -7.5 -1.989023 -7.5 0 
C -7.5 1.989023 -6.709753 3.896849 -5.303301 5.303301 
C -3.896849 6.709753 -1.989023 7.5 0 7.5 
z
" id="mfa4f28f064" style="stroke:#d62728;"/>
    </defs>
    <g clip-path="url(#p18abae75e2)">
     <use style="fill:#d62728;stroke:#d62728;" x="169.126364" xlink:href="#mfa4f28f064" y="487.12674"/>
     <use style="fill:#d62728;stroke:#d62728;" x="381.42" xlink:href="#mfa4f28f064" y="540.600888"/>
     <use style="fill:#d62728;stroke:#d62728;" x="594.094091" xlink:href="#mfa4f28f064" y="582.440618"/>
     <use style="fill:#d62728;stroke:#d62728;" x="700.240909" xlink:href="#mfa4f28f064" y="600.345261"/>
     <use style="fill:#d62728;stroke:#d62728;" x="806.768182" xlink:href="#mfa4f28f064" y="609.12918"/>
     <use style="fill:#d62728;stroke:#d62728;" x="859.651364" xlink:href="#mfa4f28f064" y="612.252683"/>
    </g>
   </g>
   <g id="line2d_60">
    <path clip-path="url(#p18abae75e2)" d="M 169.126364 535.862275 
L 381.42 565.123407 
L 594.094091 583.133961 
L 700.240909 594.732715 
L 806.768182 602.483306 
L 859.651364 605.985632 
" style="fill:none;stroke:#9467bd;stroke-linecap:square;stroke-width:2;"/>
    <defs>
     <path d="M 0 7.5 
C 1.989023 7.5 3.896849 6.709753 5.303301 5.303301 
C 6.709753 3.896849 7.5 1.989023 7.5 0 
C 7.5 -1.989023 6.709753 -3.896849 5.303301 -5.303301 
C 3.896849 -6.709753 1.989023 -7.5 0 -7.5 
C -1.989023 -7.5 -3.896849 -6.709753 -5.303301 -5.303301 
C -6.709753 -3.896849 -7.5 -1.989023 -7.5 0 
C -7.5 1.989023 -6.709753 3.896849 -5.303301 5.303301 
C -3.896849 6.709753 -1.989023 7.5 0 7.5 
z
" id="m8003bf9026" style="stroke:#9467bd;"/>
    </defs>
    <g clip-path="url(#p18abae75e2)">
     <use style="fill:#9467bd;stroke:#9467bd;" x="169.126364" xlink:href="#m8003bf9026" y="535.862275"/>
     <use style="fill:#9467bd;stroke:#9467bd;" x="381.42" xlink:href="#m8003bf9026" y="565.123407"/>
     <use style="fill:#9467bd;stroke:#9467bd;" x="594.094091" xlink:href="#m8003bf9026" y="583.133961"/>
     <use style="fill:#9467bd;stroke:#9467bd;" x="700.240909" xlink:href="#m8003bf9026" y="594.732715"/>
     <use style="fill:#9467bd;stroke:#9467bd;" x="806.768182" xlink:href="#m8003bf9026" y="602.483306"/>
     <use style="fill:#9467bd;stroke:#9467bd;" x="859.651364" xlink:href="#m8003bf9026" y="605.985632"/>
    </g>
   </g>
   <g id="line2d_61">
    <path clip-path="url(#p18abae75e2)" d="M 169.126364 346.163646 
L 381.42 376.294413 
L 594.094091 464.169672 
L 700.240909 538.835479 
L 806.768182 591.210617 
L 859.651364 628.496271 
" style="fill:none;stroke:#bcbd22;stroke-linecap:square;stroke-width:2;"/>
    <defs>
     <path d="M 0 7.5 
C 1.989023 7.5 3.896849 6.709753 5.303301 5.303301 
C 6.709753 3.896849 7.5 1.989023 7.5 0 
C 7.5 -1.989023 6.709753 -3.896849 5.303301 -5.303301 
C 3.896849 -6.709753 1.989023 -7.5 0 -7.5 
C -1.989023 -7.5 -3.896849 -6.709753 -5.303301 -5.303301 
C -6.709753 -3.896849 -7.5 -1.989023 -7.5 0 
C -7.5 1.989023 -6.709753 3.896849 -5.303301 5.303301 
C -3.896849 6.709753 -1.989023 7.5 0 7.5 
z
" id="m3d90e9c150" style="stroke:#bcbd22;"/>
    </defs>
    <g clip-path="url(#p18abae75e2)">
     <use style="fill:#bcbd22;stroke:#bcbd22;" x="169.126364" xlink:href="#m3d90e9c150" y="346.163646"/>
     <use style="fill:#bcbd22;stroke:#bcbd22;" x="381.42" xlink:href="#m3d90e9c150" y="376.294413"/>
     <use style="fill:#bcbd22;stroke:#bcbd22;" x="594.094091" xlink:href="#m3d90e9c150" y="464.169672"/>
     <use style="fill:#bcbd22;stroke:#bcbd22;" x="700.240909" xlink:href="#m3d90e9c150" y="538.835479"/>
     <use style="fill:#bcbd22;stroke:#bcbd22;" x="806.768182" xlink:href="#m3d90e9c150" y="591.210617"/>
     <use style="fill:#bcbd22;stroke:#bcbd22;" x="859.651364" xlink:href="#m3d90e9c150" y="628.496271"/>
    </g>
   </g>
   <g id="line2d_62">
    <path clip-path="url(#p18abae75e2)" d="M 169.126364 474.531383 
L 381.42 526.878768 
L 594.094091 576.879409 
L 700.240909 612.432388 
L 806.768182 626.250421 
L 859.651364 629.383829 
" style="fill:none;stroke:#8c564b;stroke-linecap:square;stroke-width:2;"/>
    <defs>
     <path d="M 0 7.5 
C 1.989023 7.5 3.896849 6.709753 5.303301 5.303301 
C 6.709753 3.896849 7.5 1.989023 7.5 0 
C 7.5 -1.989023 6.709753 -3.896849 5.303301 -5.303301 
C 3.896849 -6.709753 1.989023 -7.5 0 -7.5 
C -1.989023 -7.5 -3.896849 -6.709753 -5.303301 -5.303301 
C -6.709753 -3.896849 -7.5 -1.989023 -7.5 0 
C -7.5 1.989023 -6.709753 3.896849 -5.303301 5.303301 
C -3.896849 6.709753 -1.989023 7.5 0 7.5 
z
" id="m332b929611" style="stroke:#8c564b;"/>
    </defs>
    <g clip-path="url(#p18abae75e2)">
     <use style="fill:#8c564b;stroke:#8c564b;" x="169.126364" xlink:href="#m332b929611" y="474.531383"/>
     <use style="fill:#8c564b;stroke:#8c564b;" x="381.42" xlink:href="#m332b929611" y="526.878768"/>
     <use style="fill:#8c564b;stroke:#8c564b;" x="594.094091" xlink:href="#m332b929611" y="576.879409"/>
     <use style="fill:#8c564b;stroke:#8c564b;" x="700.240909" xlink:href="#m332b929611" y="612.432388"/>
     <use style="fill:#8c564b;stroke:#8c564b;" x="806.768182" xlink:href="#m332b929611" y="626.250421"/>
     <use style="fill:#8c564b;stroke:#8c564b;" x="859.651364" xlink:href="#m332b929611" y="629.383829"/>
    </g>
   </g>
   <g id="line2d_63">
    <path clip-path="url(#p18abae75e2)" d="M 169.126364 615.231199 
L 381.42 619.144458 
L 594.094091 622.838147 
L 700.240909 623.460094 
L 806.768182 624.438369 
L 859.651364 624.787692 
" style="fill:none;stroke:#e377c2;stroke-linecap:square;stroke-width:2;"/>
    <defs>
     <path d="M 0 7.5 
C 1.989023 7.5 3.896849 6.709753 5.303301 5.303301 
C 6.709753 3.896849 7.5 1.989023 7.5 0 
C 7.5 -1.989023 6.709753 -3.896849 5.303301 -5.303301 
C 3.896849 -6.709753 1.989023 -7.5 0 -7.5 
C -1.989023 -7.5 -3.896849 -6.709753 -5.303301 -5.303301 
C -6.709753 -3.896849 -7.5 -1.989023 -7.5 0 
C -7.5 1.989023 -6.709753 3.896849 -5.303301 5.303301 
C -3.896849 6.709753 -1.989023 7.5 0 7.5 
z
" id="m617c7fec52" style="stroke:#e377c2;"/>
    </defs>
    <g clip-path="url(#p18abae75e2)">
     <use style="fill:#e377c2;stroke:#e377c2;" x="169.126364" xlink:href="#m617c7fec52" y="615.231199"/>
     <use style="fill:#e377c2;stroke:#e377c2;" x="381.42" xlink:href="#m617c7fec52" y="619.144458"/>
     <use style="fill:#e377c2;stroke:#e377c2;" x="594.094091" xlink:href="#m617c7fec52" y="622.838147"/>
     <use style="fill:#e377c2;stroke:#e377c2;" x="700.240909" xlink:href="#m617c7fec52" y="623.460094"/>
     <use style="fill:#e377c2;stroke:#e377c2;" x="806.768182" xlink:href="#m617c7fec52" y="624.438369"/>
     <use style="fill:#e377c2;stroke:#e377c2;" x="859.651364" xlink:href="#m617c7fec52" y="624.787692"/>
    </g>
   </g>
   <g id="line2d_64"/>
   <g id="line2d_65"/>
   <g id="line2d_66"/>
   <g id="line2d_67"/>
   <g id="line2d_68"/>
   <g id="line2d_69"/>
   <g id="line2d_70"/>
   <g id="line2d_71"/>
   <g id="patch_3">
    <path d="M 75.915 629.83625 
L 75.915 75.43625 
" style="fill:none;stroke:#000000;stroke-linecap:square;stroke-linejoin:miter;stroke-width:0.8;"/>
   </g>
   <g id="patch_4">
    <path d="M 912.915 629.83625 
L 912.915 75.43625 
" style="fill:none;stroke:#000000;stroke-linecap:square;stroke-linejoin:miter;stroke-width:0.8;"/>
   </g>
   <g id="patch_5">
    <path d="M 75.915 629.83625 
L 912.915 629.83625 
" style="fill:none;stroke:#000000;stroke-linecap:square;stroke-linejoin:miter;stroke-width:0.8;"/>
   </g>
   <g id="patch_6">
    <path d="M 75.915 75.43625 
L 912.915 75.43625 
" style="fill:none;stroke:#000000;stroke-linecap:square;stroke-linejoin:miter;stroke-width:0.8;"/>
   </g>
   <g id="text_14">
    <!-- AUPRC score for SNV calling in chrall with ref inundilutedsamplebyatleast5callers -->
    <g transform="translate(7.2 25.43625)scale(0.24 -0.24)">
     <defs>
      <path d="M 37.109375 75.984375 
L 37.109375 68.5 
L 28.515625 68.5 
Q 23.6875 68.5 21.796875 66.546875 
Q 19.921875 64.59375 19.921875 59.515625 
L 19.921875 54.6875 
L 34.71875 54.6875 
L 34.71875 47.703125 
L 19.921875 47.703125 
L 19.921875 0 
L 10.890625 0 
L 10.890625 47.703125 
L 2.296875 47.703125 
L 2.296875 54.6875 
L 10.890625 54.6875 
L 10.890625 58.5 
Q 10.890625 67.625 15.140625 71.796875 
Q 19.390625 75.984375 28.609375 75.984375 
z
" id="DejaVuSans-102"/>
      <path d="M 53.515625 70.515625 
L 53.515625 60.890625 
Q 47.90625 63.578125 42.921875 64.890625 
Q 37.9375 66.21875 33.296875 66.21875 
Q 25.25 66.21875 20.875 63.09375 
Q 16.5 59.96875 16.5 54.203125 
Q 16.5 49.359375 19.40625 46.890625 
Q 22.3125 44.4375 30.421875 42.921875 
L 36.375 41.703125 
Q 47.40625 39.59375 52.65625 34.296875 
Q 57.90625 29 57.90625 20.125 
Q 57.90625 9.515625 50.796875 4.046875 
Q 43.703125 -1.421875 29.984375 -1.421875 
Q 24.8125 -1.421875 18.96875 -0.25 
Q 13.140625 0.921875 6.890625 3.21875 
L 6.890625 13.375 
Q 12.890625 10.015625 18.65625 8.296875 
Q 24.421875 6.59375 29.984375 6.59375 
Q 38.421875 6.59375 43.015625 9.90625 
Q 47.609375 13.234375 47.609375 19.390625 
Q 47.609375 24.75 44.3125 27.78125 
Q 41.015625 30.8125 33.5 32.328125 
L 27.484375 33.5 
Q 16.453125 35.6875 11.515625 40.375 
Q 6.59375 45.0625 6.59375 53.421875 
Q 6.59375 63.09375 13.40625 68.65625 
Q 20.21875 74.21875 32.171875 74.21875 
Q 37.3125 74.21875 42.625 73.28125 
Q 47.953125 72.359375 53.515625 70.515625 
z
" id="DejaVuSans-83"/>
      <path d="M 9.8125 72.90625 
L 23.09375 72.90625 
L 55.421875 11.921875 
L 55.421875 72.90625 
L 64.984375 72.90625 
L 64.984375 0 
L 51.703125 0 
L 19.390625 60.984375 
L 19.390625 0 
L 9.8125 0 
z
" id="DejaVuSans-78"/>
      <path d="M 28.609375 0 
L 0.78125 72.90625 
L 11.078125 72.90625 
L 34.1875 11.53125 
L 57.328125 72.90625 
L 67.578125 72.90625 
L 39.796875 0 
z
" id="DejaVuSans-86"/>
      <path d="M 34.28125 27.484375 
Q 23.390625 27.484375 19.1875 25 
Q 14.984375 22.515625 14.984375 16.5 
Q 14.984375 11.71875 18.140625 8.90625 
Q 21.296875 6.109375 26.703125 6.109375 
Q 34.1875 6.109375 38.703125 11.40625 
Q 43.21875 16.703125 43.21875 25.484375 
L 43.21875 27.484375 
z
M 52.203125 31.203125 
L 52.203125 0 
L 43.21875 0 
L 43.21875 8.296875 
Q 40.140625 3.328125 35.546875 0.953125 
Q 30.953125 -1.421875 24.3125 -1.421875 
Q 15.921875 -1.421875 10.953125 3.296875 
Q 6 8.015625 6 15.921875 
Q 6 25.140625 12.171875 29.828125 
Q 18.359375 34.515625 30.609375 34.515625 
L 43.21875 34.515625 
L 43.21875 35.40625 
Q 43.21875 41.609375 39.140625 45 
Q 35.0625 48.390625 27.6875 48.390625 
Q 23 48.390625 18.546875 47.265625 
Q 14.109375 46.140625 10.015625 43.890625 
L 10.015625 52.203125 
Q 14.9375 54.109375 19.578125 55.046875 
Q 24.21875 56 28.609375 56 
Q 40.484375 56 46.34375 49.84375 
Q 52.203125 43.703125 52.203125 31.203125 
z
" id="DejaVuSans-97"/>
      <path d="M 9.421875 75.984375 
L 18.40625 75.984375 
L 18.40625 0 
L 9.421875 0 
z
" id="DejaVuSans-108"/>
      <path d="M 9.421875 54.6875 
L 18.40625 54.6875 
L 18.40625 0 
L 9.421875 0 
z
M 9.421875 75.984375 
L 18.40625 75.984375 
L 18.40625 64.59375 
L 9.421875 64.59375 
z
" id="DejaVuSans-105"/>
      <path d="M 45.40625 27.984375 
Q 45.40625 37.75 41.375 43.109375 
Q 37.359375 48.484375 30.078125 48.484375 
Q 22.859375 48.484375 18.828125 43.109375 
Q 14.796875 37.75 14.796875 27.984375 
Q 14.796875 18.265625 18.828125 12.890625 
Q 22.859375 7.515625 30.078125 7.515625 
Q 37.359375 7.515625 41.375 12.890625 
Q 45.40625 18.265625 45.40625 27.984375 
z
M 54.390625 6.78125 
Q 54.390625 -7.171875 48.1875 -13.984375 
Q 42 -20.796875 29.203125 -20.796875 
Q 24.46875 -20.796875 20.265625 -20.09375 
Q 16.0625 -19.390625 12.109375 -17.921875 
L 12.109375 -9.1875 
Q 16.0625 -11.328125 19.921875 -12.34375 
Q 23.78125 -13.375 27.78125 -13.375 
Q 36.625 -13.375 41.015625 -8.765625 
Q 45.40625 -4.15625 45.40625 5.171875 
L 45.40625 9.625 
Q 42.625 4.78125 38.28125 2.390625 
Q 33.9375 0 27.875 0 
Q 17.828125 0 11.671875 7.65625 
Q 5.515625 15.328125 5.515625 27.984375 
Q 5.515625 40.671875 11.671875 48.328125 
Q 17.828125 56 27.875 56 
Q 33.9375 56 38.28125 53.609375 
Q 42.625 51.21875 45.40625 46.390625 
L 45.40625 54.6875 
L 54.390625 54.6875 
z
" id="DejaVuSans-103"/>
      <path d="M 54.890625 33.015625 
L 54.890625 0 
L 45.90625 0 
L 45.90625 32.71875 
Q 45.90625 40.484375 42.875 44.328125 
Q 39.84375 48.1875 33.796875 48.1875 
Q 26.515625 48.1875 22.3125 43.546875 
Q 18.109375 38.921875 18.109375 30.90625 
L 18.109375 0 
L 9.078125 0 
L 9.078125 75.984375 
L 18.109375 75.984375 
L 18.109375 46.1875 
Q 21.34375 51.125 25.703125 53.5625 
Q 30.078125 56 35.796875 56 
Q 45.21875 56 50.046875 50.171875 
Q 54.890625 44.34375 54.890625 33.015625 
z
" id="DejaVuSans-104"/>
      <path d="M 4.203125 54.6875 
L 13.1875 54.6875 
L 24.421875 12.015625 
L 35.59375 54.6875 
L 46.1875 54.6875 
L 57.421875 12.015625 
L 68.609375 54.6875 
L 77.59375 54.6875 
L 63.28125 0 
L 52.6875 0 
L 40.921875 44.828125 
L 29.109375 0 
L 18.5 0 
z
" id="DejaVuSans-119"/>
      <path d="M 18.109375 8.203125 
L 18.109375 -20.796875 
L 9.078125 -20.796875 
L 9.078125 54.6875 
L 18.109375 54.6875 
L 18.109375 46.390625 
Q 20.953125 51.265625 25.265625 53.625 
Q 29.59375 56 35.59375 56 
Q 45.5625 56 51.78125 48.09375 
Q 58.015625 40.1875 58.015625 27.296875 
Q 58.015625 14.40625 51.78125 6.484375 
Q 45.5625 -1.421875 35.59375 -1.421875 
Q 29.59375 -1.421875 25.265625 0.953125 
Q 20.953125 3.328125 18.109375 8.203125 
z
M 48.6875 27.296875 
Q 48.6875 37.203125 44.609375 42.84375 
Q 40.53125 48.484375 33.40625 48.484375 
Q 26.265625 48.484375 22.1875 42.84375 
Q 18.109375 37.203125 18.109375 27.296875 
Q 18.109375 17.390625 22.1875 11.75 
Q 26.265625 6.109375 33.40625 6.109375 
Q 40.53125 6.109375 44.609375 11.75 
Q 48.6875 17.390625 48.6875 27.296875 
z
" id="DejaVuSans-112"/>
      <path d="M 32.171875 -5.078125 
Q 28.375 -14.84375 24.75 -17.8125 
Q 21.140625 -20.796875 15.09375 -20.796875 
L 7.90625 -20.796875 
L 7.90625 -13.28125 
L 13.1875 -13.28125 
Q 16.890625 -13.28125 18.9375 -11.515625 
Q 21 -9.765625 23.484375 -3.21875 
L 25.09375 0.875 
L 2.984375 54.6875 
L 12.5 54.6875 
L 29.59375 11.921875 
L 46.6875 54.6875 
L 56.203125 54.6875 
z
" id="DejaVuSans-121"/>
     </defs>
     <use xlink:href="#DejaVuSans-65"/>
     <use x="68.408203" xlink:href="#DejaVuSans-85"/>
     <use x="141.601562" xlink:href="#DejaVuSans-80"/>
     <use x="201.904297" xlink:href="#DejaVuSans-82"/>
     <use x="266.386719" xlink:href="#DejaVuSans-67"/>
     <use x="336.210938" xlink:href="#DejaVuSans-32"/>
     <use x="367.998047" xlink:href="#DejaVuSans-115"/>
     <use x="420.097656" xlink:href="#DejaVuSans-99"/>
     <use x="475.078125" xlink:href="#DejaVuSans-111"/>
     <use x="536.259766" xlink:href="#DejaVuSans-114"/>
     <use x="575.123047" xlink:href="#DejaVuSans-101"/>
     <use x="636.646484" xlink:href="#DejaVuSans-32"/>
     <use x="668.433594" xlink:href="#DejaVuSans-102"/>
     <use x="703.638672" xlink:href="#DejaVuSans-111"/>
     <use x="764.820312" xlink:href="#DejaVuSans-114"/>
     <use x="805.933594" xlink:href="#DejaVuSans-32"/>
     <use x="837.720703" xlink:href="#DejaVuSans-83"/>
     <use x="901.197266" xlink:href="#DejaVuSans-78"/>
     <use x="976.001953" xlink:href="#DejaVuSans-86"/>
     <use x="1044.410156" xlink:href="#DejaVuSans-32"/>
     <use x="1076.197266" xlink:href="#DejaVuSans-99"/>
     <use x="1131.177734" xlink:href="#DejaVuSans-97"/>
     <use x="1192.457031" xlink:href="#DejaVuSans-108"/>
     <use x="1220.240234" xlink:href="#DejaVuSans-108"/>
     <use x="1248.023438" xlink:href="#DejaVuSans-105"/>
     <use x="1275.806641" xlink:href="#DejaVuSans-110"/>
     <use x="1339.185547" xlink:href="#DejaVuSans-103"/>
     <use x="1402.662109" xlink:href="#DejaVuSans-32"/>
     <use x="1434.449219" xlink:href="#DejaVuSans-105"/>
     <use x="1462.232422" xlink:href="#DejaVuSans-110"/>
     <use x="1525.611328" xlink:href="#DejaVuSans-32"/>
     <use x="1557.398438" xlink:href="#DejaVuSans-99"/>
     <use x="1612.378906" xlink:href="#DejaVuSans-104"/>
     <use x="1675.757812" xlink:href="#DejaVuSans-114"/>
     <use x="1716.871094" xlink:href="#DejaVuSans-97"/>
     <use x="1778.150391" xlink:href="#DejaVuSans-108"/>
     <use x="1805.933594" xlink:href="#DejaVuSans-108"/>
     <use x="1833.716797" xlink:href="#DejaVuSans-32"/>
     <use x="1865.503906" xlink:href="#DejaVuSans-119"/>
     <use x="1947.291016" xlink:href="#DejaVuSans-105"/>
     <use x="1975.074219" xlink:href="#DejaVuSans-116"/>
     <use x="2014.283203" xlink:href="#DejaVuSans-104"/>
     <use x="2077.662109" xlink:href="#DejaVuSans-32"/>
     <use x="2109.449219" xlink:href="#DejaVuSans-114"/>
     <use x="2148.3125" xlink:href="#DejaVuSans-101"/>
     <use x="2209.835938" xlink:href="#DejaVuSans-102"/>
     <use x="2245.041016" xlink:href="#DejaVuSans-32"/>
     <use x="2276.828125" xlink:href="#DejaVuSans-105"/>
     <use x="2304.611328" xlink:href="#DejaVuSans-110"/>
     <use x="2367.990234" xlink:href="#DejaVuSans-117"/>
     <use x="2431.369141" xlink:href="#DejaVuSans-110"/>
     <use x="2494.748047" xlink:href="#DejaVuSans-100"/>
     <use x="2558.224609" xlink:href="#DejaVuSans-105"/>
     <use x="2586.007812" xlink:href="#DejaVuSans-108"/>
     <use x="2613.791016" xlink:href="#DejaVuSans-117"/>
     <use x="2677.169922" xlink:href="#DejaVuSans-116"/>
     <use x="2716.378906" xlink:href="#DejaVuSans-101"/>
     <use x="2777.902344" xlink:href="#DejaVuSans-100"/>
     <use x="2841.378906" xlink:href="#DejaVuSans-115"/>
     <use x="2893.478516" xlink:href="#DejaVuSans-97"/>
     <use x="2954.757812" xlink:href="#DejaVuSans-109"/>
     <use x="3052.169922" xlink:href="#DejaVuSans-112"/>
     <use x="3115.646484" xlink:href="#DejaVuSans-108"/>
     <use x="3143.429688" xlink:href="#DejaVuSans-101"/>
     <use x="3204.953125" xlink:href="#DejaVuSans-98"/>
     <use x="3268.429688" xlink:href="#DejaVuSans-121"/>
     <use x="3327.609375" xlink:href="#DejaVuSans-97"/>
     <use x="3388.888672" xlink:href="#DejaVuSans-116"/>
     <use x="3428.097656" xlink:href="#DejaVuSans-108"/>
     <use x="3455.880859" xlink:href="#DejaVuSans-101"/>
     <use x="3517.404297" xlink:href="#DejaVuSans-97"/>
     <use x="3578.683594" xlink:href="#DejaVuSans-115"/>
     <use x="3630.783203" xlink:href="#DejaVuSans-116"/>
     <use x="3669.992188" xlink:href="#DejaVuSans-53"/>
     <use x="3733.615234" xlink:href="#DejaVuSans-99"/>
     <use x="3788.595703" xlink:href="#DejaVuSans-97"/>
     <use x="3849.875" xlink:href="#DejaVuSans-108"/>
     <use x="3877.658203" xlink:href="#DejaVuSans-108"/>
     <use x="3905.441406" xlink:href="#DejaVuSans-101"/>
     <use x="3966.964844" xlink:href="#DejaVuSans-114"/>
     <use x="4008.078125" xlink:href="#DejaVuSans-115"/>
    </g>
   </g>
   <g id="legend_1">
    <g id="patch_7">
     <path d="M 926.915 414.355 
L 1119.343125 414.355 
Q 1123.343125 414.355 1123.343125 410.355 
L 1123.343125 89.43625 
Q 1123.343125 85.43625 1119.343125 85.43625 
L 926.915 85.43625 
Q 922.915 85.43625 922.915 89.43625 
L 922.915 410.355 
Q 922.915 414.355 926.915 414.355 
z
" style="fill:#ffffff;opacity:0.8;stroke:#cccccc;stroke-linejoin:miter;"/>
    </g>
    <g id="line2d_72">
     <path d="M 930.915 101.633125 
L 970.915 101.633125 
" style="fill:none;stroke:#1f77b4;stroke-linecap:square;stroke-width:2;"/>
    </g>
    <g id="line2d_73"/>
    <g id="text_15">
     <!-- freebayes -->
     <g transform="translate(986.915 108.633125)scale(0.2 -0.2)">
      <use xlink:href="#DejaVuSans-102"/>
      <use x="35.205078" xlink:href="#DejaVuSans-114"/>
      <use x="74.068359" xlink:href="#DejaVuSans-101"/>
      <use x="135.591797" xlink:href="#DejaVuSans-101"/>
      <use x="197.115234" xlink:href="#DejaVuSans-98"/>
      <use x="260.591797" xlink:href="#DejaVuSans-97"/>
      <use x="321.871094" xlink:href="#DejaVuSans-121"/>
      <use x="381.050781" xlink:href="#DejaVuSans-101"/>
      <use x="442.574219" xlink:href="#DejaVuSans-115"/>
     </g>
    </g>
    <g id="line2d_74">
     <path d="M 930.915 130.989375 
L 970.915 130.989375 
" style="fill:none;stroke:#ff7f0e;stroke-linecap:square;stroke-width:2;"/>
    </g>
    <g id="line2d_75"/>
    <g id="text_16">
     <!-- mutect2 -->
     <g transform="translate(986.915 137.989375)scale(0.2 -0.2)">
      <use xlink:href="#DejaVuSans-109"/>
      <use x="97.412109" xlink:href="#DejaVuSans-117"/>
      <use x="160.791016" xlink:href="#DejaVuSans-116"/>
      <use x="200" xlink:href="#DejaVuSans-101"/>
      <use x="261.523438" xlink:href="#DejaVuSans-99"/>
      <use x="316.503906" xlink:href="#DejaVuSans-116"/>
      <use x="355.712891" xlink:href="#DejaVuSans-50"/>
     </g>
    </g>
    <g id="line2d_76">
     <path d="M 930.915 160.345625 
L 970.915 160.345625 
" style="fill:none;stroke:#2ca02c;stroke-linecap:square;stroke-width:2;"/>
    </g>
    <g id="line2d_77"/>
    <g id="text_17">
     <!-- strelka2 -->
     <g transform="translate(986.915 167.345625)scale(0.2 -0.2)">
      <defs>
       <path d="M 9.078125 75.984375 
L 18.109375 75.984375 
L 18.109375 31.109375 
L 44.921875 54.6875 
L 56.390625 54.6875 
L 27.390625 29.109375 
L 57.625 0 
L 45.90625 0 
L 18.109375 26.703125 
L 18.109375 0 
L 9.078125 0 
z
" id="DejaVuSans-107"/>
      </defs>
      <use xlink:href="#DejaVuSans-115"/>
      <use x="52.099609" xlink:href="#DejaVuSans-116"/>
      <use x="91.308594" xlink:href="#DejaVuSans-114"/>
      <use x="130.171875" xlink:href="#DejaVuSans-101"/>
      <use x="191.695312" xlink:href="#DejaVuSans-108"/>
      <use x="219.478516" xlink:href="#DejaVuSans-107"/>
      <use x="275.638672" xlink:href="#DejaVuSans-97"/>
      <use x="336.917969" xlink:href="#DejaVuSans-50"/>
     </g>
    </g>
    <g id="line2d_78">
     <path d="M 930.915 189.701875 
L 970.915 189.701875 
" style="fill:none;stroke:#d62728;stroke-linecap:square;stroke-width:2;"/>
    </g>
    <g id="line2d_79"/>
    <g id="text_18">
     <!-- vardict -->
     <g transform="translate(986.915 196.701875)scale(0.2 -0.2)">
      <defs>
       <path d="M 2.984375 54.6875 
L 12.5 54.6875 
L 29.59375 8.796875 
L 46.6875 54.6875 
L 56.203125 54.6875 
L 35.6875 0 
L 23.484375 0 
z
" id="DejaVuSans-118"/>
      </defs>
      <use xlink:href="#DejaVuSans-118"/>
      <use x="59.179688" xlink:href="#DejaVuSans-97"/>
      <use x="120.458984" xlink:href="#DejaVuSans-114"/>
      <use x="159.822266" xlink:href="#DejaVuSans-100"/>
      <use x="223.298828" xlink:href="#DejaVuSans-105"/>
      <use x="251.082031" xlink:href="#DejaVuSans-99"/>
      <use x="306.0625" xlink:href="#DejaVuSans-116"/>
     </g>
    </g>
    <g id="line2d_80">
     <path d="M 930.915 219.058125 
L 970.915 219.058125 
" style="fill:none;stroke:#9467bd;stroke-linecap:square;stroke-width:2;"/>
    </g>
    <g id="line2d_81"/>
    <g id="text_19">
     <!-- varscan -->
     <g transform="translate(986.915 226.058125)scale(0.2 -0.2)">
      <use xlink:href="#DejaVuSans-118"/>
      <use x="59.179688" xlink:href="#DejaVuSans-97"/>
      <use x="120.458984" xlink:href="#DejaVuSans-114"/>
      <use x="161.572266" xlink:href="#DejaVuSans-115"/>
      <use x="213.671875" xlink:href="#DejaVuSans-99"/>
      <use x="268.652344" xlink:href="#DejaVuSans-97"/>
      <use x="329.931641" xlink:href="#DejaVuSans-110"/>
     </g>
    </g>
    <g id="line2d_82">
     <path d="M 930.915 248.414375 
L 970.915 248.414375 
" style="fill:none;stroke:#bcbd22;stroke-linecap:square;stroke-width:2;"/>
    </g>
    <g id="line2d_83"/>
    <g id="text_20">
     <!-- smurf -->
     <g transform="translate(986.915 255.414375)scale(0.2 -0.2)">
      <use xlink:href="#DejaVuSans-115"/>
      <use x="52.099609" xlink:href="#DejaVuSans-109"/>
      <use x="149.511719" xlink:href="#DejaVuSans-117"/>
      <use x="212.890625" xlink:href="#DejaVuSans-114"/>
      <use x="254.003906" xlink:href="#DejaVuSans-102"/>
     </g>
    </g>
    <g id="line2d_84">
     <path d="M 930.915 277.770625 
L 970.915 277.770625 
" style="fill:none;stroke:#8c564b;stroke-linecap:square;stroke-width:2;"/>
    </g>
    <g id="line2d_85"/>
    <g id="text_21">
     <!-- abemus -->
     <g transform="translate(986.915 284.770625)scale(0.2 -0.2)">
      <use xlink:href="#DejaVuSans-97"/>
      <use x="61.279297" xlink:href="#DejaVuSans-98"/>
      <use x="124.755859" xlink:href="#DejaVuSans-101"/>
      <use x="186.279297" xlink:href="#DejaVuSans-109"/>
      <use x="283.691406" xlink:href="#DejaVuSans-117"/>
      <use x="347.070312" xlink:href="#DejaVuSans-115"/>
     </g>
    </g>
    <g id="line2d_86">
     <path d="M 930.915 307.126875 
L 970.915 307.126875 
" style="fill:none;stroke:#e377c2;stroke-linecap:square;stroke-width:2;"/>
    </g>
    <g id="line2d_87"/>
    <g id="text_22">
     <!-- sinvict -->
     <g transform="translate(986.915 314.126875)scale(0.2 -0.2)">
      <use xlink:href="#DejaVuSans-115"/>
      <use x="52.099609" xlink:href="#DejaVuSans-105"/>
      <use x="79.882812" xlink:href="#DejaVuSans-110"/>
      <use x="143.261719" xlink:href="#DejaVuSans-118"/>
      <use x="202.441406" xlink:href="#DejaVuSans-105"/>
      <use x="230.224609" xlink:href="#DejaVuSans-99"/>
      <use x="285.205078" xlink:href="#DejaVuSans-116"/>
     </g>
    </g>
    <g id="line2d_88"/>
    <g id="line2d_89">
     <defs>
      <path d="M 0 -7.5 
L -7.5 7.5 
L 7.5 7.5 
z
" id="m1250f6a758" style="stroke:#1a1a1a;stroke-linejoin:miter;"/>
     </defs>
     <g>
      <use style="fill:#1a1a1a;stroke:#1a1a1a;stroke-linejoin:miter;" x="950.915" xlink:href="#m1250f6a758" y="336.483125"/>
     </g>
    </g>
    <g id="text_23">
     <!-- patient 1014 -->
     <g transform="translate(986.915 343.483125)scale(0.2 -0.2)">
      <use xlink:href="#DejaVuSans-112"/>
      <use x="63.476562" xlink:href="#DejaVuSans-97"/>
      <use x="124.755859" xlink:href="#DejaVuSans-116"/>
      <use x="163.964844" xlink:href="#DejaVuSans-105"/>
      <use x="191.748047" xlink:href="#DejaVuSans-101"/>
      <use x="253.271484" xlink:href="#DejaVuSans-110"/>
      <use x="316.650391" xlink:href="#DejaVuSans-116"/>
      <use x="355.859375" xlink:href="#DejaVuSans-32"/>
      <use x="387.646484" xlink:href="#DejaVuSans-49"/>
      <use x="451.269531" xlink:href="#DejaVuSans-48"/>
      <use x="514.892578" xlink:href="#DejaVuSans-49"/>
      <use x="578.515625" xlink:href="#DejaVuSans-52"/>
     </g>
    </g>
    <g id="line2d_90"/>
    <g id="line2d_91">
     <defs>
      <path d="M 0 7.5 
C 1.989023 7.5 3.896849 6.709753 5.303301 5.303301 
C 6.709753 3.896849 7.5 1.989023 7.5 0 
C 7.5 -1.989023 6.709753 -3.896849 5.303301 -5.303301 
C 3.896849 -6.709753 1.989023 -7.5 0 -7.5 
C -1.989023 -7.5 -3.896849 -6.709753 -5.303301 -5.303301 
C -6.709753 -3.896849 -7.5 -1.989023 -7.5 0 
C -7.5 1.989023 -6.709753 3.896849 -5.303301 5.303301 
C -3.896849 6.709753 -1.989023 7.5 0 7.5 
z
" id="m9603ac9873" style="stroke:#1a1a1a;"/>
     </defs>
     <g>
      <use style="fill:#1a1a1a;stroke:#1a1a1a;" x="950.915" xlink:href="#m9603ac9873" y="365.839375"/>
     </g>
    </g>
    <g id="text_24">
     <!-- patient 986 -->
     <g transform="translate(986.915 372.839375)scale(0.2 -0.2)">
      <defs>
       <path d="M 10.984375 1.515625 
L 10.984375 10.5 
Q 14.703125 8.734375 18.5 7.8125 
Q 22.3125 6.890625 25.984375 6.890625 
Q 35.75 6.890625 40.890625 13.453125 
Q 46.046875 20.015625 46.78125 33.40625 
Q 43.953125 29.203125 39.59375 26.953125 
Q 35.25 24.703125 29.984375 24.703125 
Q 19.046875 24.703125 12.671875 31.3125 
Q 6.296875 37.9375 6.296875 49.421875 
Q 6.296875 60.640625 12.9375 67.421875 
Q 19.578125 74.21875 30.609375 74.21875 
Q 43.265625 74.21875 49.921875 64.515625 
Q 56.59375 54.828125 56.59375 36.375 
Q 56.59375 19.140625 48.40625 8.859375 
Q 40.234375 -1.421875 26.421875 -1.421875 
Q 22.703125 -1.421875 18.890625 -0.6875 
Q 15.09375 0.046875 10.984375 1.515625 
z
M 30.609375 32.421875 
Q 37.25 32.421875 41.125 36.953125 
Q 45.015625 41.5 45.015625 49.421875 
Q 45.015625 57.28125 41.125 61.84375 
Q 37.25 66.40625 30.609375 66.40625 
Q 23.96875 66.40625 20.09375 61.84375 
Q 16.21875 57.28125 16.21875 49.421875 
Q 16.21875 41.5 20.09375 36.953125 
Q 23.96875 32.421875 30.609375 32.421875 
z
" id="DejaVuSans-57"/>
       <path d="M 31.78125 34.625 
Q 24.75 34.625 20.71875 30.859375 
Q 16.703125 27.09375 16.703125 20.515625 
Q 16.703125 13.921875 20.71875 10.15625 
Q 24.75 6.390625 31.78125 6.390625 
Q 38.8125 6.390625 42.859375 10.171875 
Q 46.921875 13.96875 46.921875 20.515625 
Q 46.921875 27.09375 42.890625 30.859375 
Q 38.875 34.625 31.78125 34.625 
z
M 21.921875 38.8125 
Q 15.578125 40.375 12.03125 44.71875 
Q 8.5 49.078125 8.5 55.328125 
Q 8.5 64.0625 14.71875 69.140625 
Q 20.953125 74.21875 31.78125 74.21875 
Q 42.671875 74.21875 48.875 69.140625 
Q 55.078125 64.0625 55.078125 55.328125 
Q 55.078125 49.078125 51.53125 44.71875 
Q 48 40.375 41.703125 38.8125 
Q 48.828125 37.15625 52.796875 32.3125 
Q 56.78125 27.484375 56.78125 20.515625 
Q 56.78125 9.90625 50.3125 4.234375 
Q 43.84375 -1.421875 31.78125 -1.421875 
Q 19.734375 -1.421875 13.25 4.234375 
Q 6.78125 9.90625 6.78125 20.515625 
Q 6.78125 27.484375 10.78125 32.3125 
Q 14.796875 37.15625 21.921875 38.8125 
z
M 18.3125 54.390625 
Q 18.3125 48.734375 21.84375 45.5625 
Q 25.390625 42.390625 31.78125 42.390625 
Q 38.140625 42.390625 41.71875 45.5625 
Q 45.3125 48.734375 45.3125 54.390625 
Q 45.3125 60.0625 41.71875 63.234375 
Q 38.140625 66.40625 31.78125 66.40625 
Q 25.390625 66.40625 21.84375 63.234375 
Q 18.3125 60.0625 18.3125 54.390625 
z
" id="DejaVuSans-56"/>
       <path d="M 33.015625 40.375 
Q 26.375 40.375 22.484375 35.828125 
Q 18.609375 31.296875 18.609375 23.390625 
Q 18.609375 15.53125 22.484375 10.953125 
Q 26.375 6.390625 33.015625 6.390625 
Q 39.65625 6.390625 43.53125 10.953125 
Q 47.40625 15.53125 47.40625 23.390625 
Q 47.40625 31.296875 43.53125 35.828125 
Q 39.65625 40.375 33.015625 40.375 
z
M 52.59375 71.296875 
L 52.59375 62.3125 
Q 48.875 64.0625 45.09375 64.984375 
Q 41.3125 65.921875 37.59375 65.921875 
Q 27.828125 65.921875 22.671875 59.328125 
Q 17.53125 52.734375 16.796875 39.40625 
Q 19.671875 43.65625 24.015625 45.921875 
Q 28.375 48.1875 33.59375 48.1875 
Q 44.578125 48.1875 50.953125 41.515625 
Q 57.328125 34.859375 57.328125 23.390625 
Q 57.328125 12.15625 50.6875 5.359375 
Q 44.046875 -1.421875 33.015625 -1.421875 
Q 20.359375 -1.421875 13.671875 8.265625 
Q 6.984375 17.96875 6.984375 36.375 
Q 6.984375 53.65625 15.1875 63.9375 
Q 23.390625 74.21875 37.203125 74.21875 
Q 40.921875 74.21875 44.703125 73.484375 
Q 48.484375 72.75 52.59375 71.296875 
z
" id="DejaVuSans-54"/>
      </defs>
      <use xlink:href="#DejaVuSans-112"/>
      <use x="63.476562" xlink:href="#DejaVuSans-97"/>
      <use x="124.755859" xlink:href="#DejaVuSans-116"/>
      <use x="163.964844" xlink:href="#DejaVuSans-105"/>
      <use x="191.748047" xlink:href="#DejaVuSans-101"/>
      <use x="253.271484" xlink:href="#DejaVuSans-110"/>
      <use x="316.650391" xlink:href="#DejaVuSans-116"/>
      <use x="355.859375" xlink:href="#DejaVuSans-32"/>
      <use x="387.646484" xlink:href="#DejaVuSans-57"/>
      <use x="451.269531" xlink:href="#DejaVuSans-56"/>
      <use x="514.892578" xlink:href="#DejaVuSans-54"/>
     </g>
    </g>
    <g id="line2d_92"/>
    <g id="line2d_93">
     <defs>
      <path d="M -3.75 7.5 
L 0 3.75 
L 3.75 7.5 
L 7.5 3.75 
L 3.75 0 
L 7.5 -3.75 
L 3.75 -7.5 
L 0 -3.75 
L -3.75 -7.5 
L -7.5 -3.75 
L -3.75 0 
L -7.5 3.75 
z
" id="m2cf5f63cfc" style="stroke:#1a1a1a;stroke-linejoin:miter;"/>
     </defs>
     <g>
      <use style="fill:#1a1a1a;stroke:#1a1a1a;stroke-linejoin:miter;" x="950.915" xlink:href="#m2cf5f63cfc" y="395.195625"/>
     </g>
    </g>
    <g id="text_25">
     <!-- patient 123 -->
     <g transform="translate(986.915 402.195625)scale(0.2 -0.2)">
      <use xlink:href="#DejaVuSans-112"/>
      <use x="63.476562" xlink:href="#DejaVuSans-97"/>
      <use x="124.755859" xlink:href="#DejaVuSans-116"/>
      <use x="163.964844" xlink:href="#DejaVuSans-105"/>
      <use x="191.748047" xlink:href="#DejaVuSans-101"/>
      <use x="253.271484" xlink:href="#DejaVuSans-110"/>
      <use x="316.650391" xlink:href="#DejaVuSans-116"/>
      <use x="355.859375" xlink:href="#DejaVuSans-32"/>
      <use x="387.646484" xlink:href="#DejaVuSans-49"/>
      <use x="451.269531" xlink:href="#DejaVuSans-50"/>
      <use x="514.892578" xlink:href="#DejaVuSans-51"/>
     </g>
    </g>
   </g>
  </g>
 </g>
 <defs>
  <clipPath id="p18abae75e2">
   <rect height="554.4" width="837" x="75.915" y="75.43625"/>
  </clipPath>
 </defs>
</svg>
