<?xml version="1.0" encoding="utf-8" standalone="no"?>
<!DOCTYPE svg PUBLIC "-//W3C//DTD SVG 1.1//EN"
  "http://www.w3.org/Graphics/SVG/1.1/DTD/svg11.dtd">
<!-- Created with matplotlib (https://matplotlib.org/) -->
<svg height="573.450625pt" version="1.1" viewBox="0 0 1530.05625 573.450625" width="1530.05625pt" xmlns="http://www.w3.org/2000/svg" xmlns:xlink="http://www.w3.org/1999/xlink">
 <metadata>
  <rdf:RDF xmlns:cc="http://creativecommons.org/ns#" xmlns:dc="http://purl.org/dc/elements/1.1/" xmlns:rdf="http://www.w3.org/1999/02/22-rdf-syntax-ns#">
   <cc:Work>
    <dc:type rdf:resource="http://purl.org/dc/dcmitype/StillImage"/>
    <dc:date>2023-02-02T11:03:13.007019</dc:date>
    <dc:format>image/svg+xml</dc:format>
    <dc:creator>
     <cc:Agent>
      <dc:title>Matplotlib v3.3.4, https://matplotlib.org/</dc:title>
     </cc:Agent>
    </dc:creator>
   </cc:Work>
  </rdf:RDF>
 </metadata>
 <defs>
  <style type="text/css">*{stroke-linecap:butt;stroke-linejoin:round;}</style>
 </defs>
 <g id="figure_1">
  <g id="patch_1">
   <path d="M 0 573.450625 
L 1530.05625 573.450625 
L 1530.05625 0 
L 0 0 
z
" style="fill:#ffffff;"/>
  </g>
  <g id="axes_1">
   <g id="patch_2">
    <path d="M 64.290625 518.19125 
L 1291.890625 518.19125 
L 1291.890625 74.67125 
L 64.290625 74.67125 
z
" style="fill:#ffffff;"/>
   </g>
   <g id="matplotlib.axis_1">
    <g id="xtick_1">
     <g id="line2d_1">
      <path clip-path="url(#p960861b20c)" d="M 1095.306899 518.19125 
L 1095.306899 74.67125 
" style="fill:none;stroke:#cccccc;stroke-linecap:round;stroke-width:2;"/>
     </g>
     <g id="text_1">
      <!-- 0.013 -->
      <g style="fill:#262626;" transform="translate(1070.285024 539.506875)scale(0.2 -0.2)">
       <defs>
        <path d="M 4.15625 35.296875 
Q 4.15625 48 6.765625 55.734375 
Q 9.375 63.484375 14.515625 67.671875 
Q 19.671875 71.875 27.484375 71.875 
Q 33.25 71.875 37.59375 69.546875 
Q 41.9375 67.234375 44.765625 62.859375 
Q 47.609375 58.5 49.21875 52.21875 
Q 50.828125 45.953125 50.828125 35.296875 
Q 50.828125 22.703125 48.234375 14.96875 
Q 45.65625 7.234375 40.5 3 
Q 35.359375 -1.21875 27.484375 -1.21875 
Q 17.140625 -1.21875 11.234375 6.203125 
Q 4.15625 15.140625 4.15625 35.296875 
z
M 13.1875 35.296875 
Q 13.1875 17.671875 17.3125 11.828125 
Q 21.4375 6 27.484375 6 
Q 33.546875 6 37.671875 11.859375 
Q 41.796875 17.71875 41.796875 35.296875 
Q 41.796875 52.984375 37.671875 58.78125 
Q 33.546875 64.59375 27.390625 64.59375 
Q 21.34375 64.59375 17.71875 59.46875 
Q 13.1875 52.9375 13.1875 35.296875 
z
" id="ArialMT-48"/>
        <path d="M 9.078125 0 
L 9.078125 10.015625 
L 19.09375 10.015625 
L 19.09375 0 
z
" id="ArialMT-46"/>
        <path d="M 37.25 0 
L 28.46875 0 
L 28.46875 56 
Q 25.296875 52.984375 20.140625 49.953125 
Q 14.984375 46.921875 10.890625 45.40625 
L 10.890625 53.90625 
Q 18.265625 57.375 23.78125 62.296875 
Q 29.296875 67.234375 31.59375 71.875 
L 37.25 71.875 
z
" id="ArialMT-49"/>
        <path d="M 4.203125 18.890625 
L 12.984375 20.0625 
Q 14.5 12.59375 18.140625 9.296875 
Q 21.78125 6 27 6 
Q 33.203125 6 37.46875 10.296875 
Q 41.75 14.59375 41.75 20.953125 
Q 41.75 27 37.796875 30.921875 
Q 33.84375 34.859375 27.734375 34.859375 
Q 25.25 34.859375 21.53125 33.890625 
L 22.515625 41.609375 
Q 23.390625 41.5 23.921875 41.5 
Q 29.546875 41.5 34.03125 44.421875 
Q 38.53125 47.359375 38.53125 53.46875 
Q 38.53125 58.296875 35.25 61.46875 
Q 31.984375 64.65625 26.8125 64.65625 
Q 21.6875 64.65625 18.265625 61.421875 
Q 14.84375 58.203125 13.875 51.765625 
L 5.078125 53.328125 
Q 6.6875 62.15625 12.390625 67.015625 
Q 18.109375 71.875 26.609375 71.875 
Q 32.46875 71.875 37.390625 69.359375 
Q 42.328125 66.84375 44.9375 62.5 
Q 47.5625 58.15625 47.5625 53.265625 
Q 47.5625 48.640625 45.0625 44.828125 
Q 42.578125 41.015625 37.703125 38.765625 
Q 44.046875 37.3125 47.5625 32.6875 
Q 51.078125 28.078125 51.078125 21.140625 
Q 51.078125 11.765625 44.234375 5.25 
Q 37.40625 -1.265625 26.953125 -1.265625 
Q 17.53125 -1.265625 11.296875 4.34375 
Q 5.078125 9.96875 4.203125 18.890625 
z
" id="ArialMT-51"/>
       </defs>
       <use xlink:href="#ArialMT-48"/>
       <use x="55.615234" xlink:href="#ArialMT-46"/>
       <use x="83.398438" xlink:href="#ArialMT-48"/>
       <use x="139.013672" xlink:href="#ArialMT-49"/>
       <use x="194.628906" xlink:href="#ArialMT-51"/>
      </g>
     </g>
    </g>
    <g id="xtick_2">
     <g id="line2d_2">
      <path clip-path="url(#p960861b20c)" d="M 973.375321 518.19125 
L 973.375321 74.67125 
" style="fill:none;stroke:#cccccc;stroke-linecap:round;stroke-width:2;"/>
     </g>
     <g id="text_2">
      <!-- 0.021 -->
      <g style="fill:#262626;" transform="translate(948.353446 539.506875)scale(0.2 -0.2)">
       <defs>
        <path d="M 50.34375 8.453125 
L 50.34375 0 
L 3.03125 0 
Q 2.9375 3.171875 4.046875 6.109375 
Q 5.859375 10.9375 9.828125 15.625 
Q 13.8125 20.3125 21.34375 26.46875 
Q 33.015625 36.03125 37.109375 41.625 
Q 41.21875 47.21875 41.21875 52.203125 
Q 41.21875 57.421875 37.46875 61 
Q 33.734375 64.59375 27.734375 64.59375 
Q 21.390625 64.59375 17.578125 60.78125 
Q 13.765625 56.984375 13.71875 50.25 
L 4.6875 51.171875 
Q 5.609375 61.28125 11.65625 66.578125 
Q 17.71875 71.875 27.9375 71.875 
Q 38.234375 71.875 44.234375 66.15625 
Q 50.25 60.453125 50.25 52 
Q 50.25 47.703125 48.484375 43.546875 
Q 46.734375 39.40625 42.65625 34.8125 
Q 38.578125 30.21875 29.109375 22.21875 
Q 21.1875 15.578125 18.9375 13.203125 
Q 16.703125 10.84375 15.234375 8.453125 
z
" id="ArialMT-50"/>
       </defs>
       <use xlink:href="#ArialMT-48"/>
       <use x="55.615234" xlink:href="#ArialMT-46"/>
       <use x="83.398438" xlink:href="#ArialMT-48"/>
       <use x="139.013672" xlink:href="#ArialMT-50"/>
       <use x="194.628906" xlink:href="#ArialMT-49"/>
      </g>
     </g>
    </g>
    <g id="xtick_3">
     <g id="line2d_3">
      <path clip-path="url(#p960861b20c)" d="M 882.690625 518.19125 
L 882.690625 74.67125 
" style="fill:none;stroke:#cccccc;stroke-linecap:round;stroke-width:2;"/>
     </g>
     <g id="text_3">
      <!-- 0.030 -->
      <g style="fill:#262626;" transform="translate(857.66875 539.506875)scale(0.2 -0.2)">
       <use xlink:href="#ArialMT-48"/>
       <use x="55.615234" xlink:href="#ArialMT-46"/>
       <use x="83.398438" xlink:href="#ArialMT-48"/>
       <use x="139.013672" xlink:href="#ArialMT-51"/>
       <use x="194.628906" xlink:href="#ArialMT-48"/>
      </g>
     </g>
    </g>
    <g id="xtick_4">
     <g id="line2d_4">
      <path clip-path="url(#p960861b20c)" d="M 809.547385 518.19125 
L 809.547385 74.67125 
" style="fill:none;stroke:#cccccc;stroke-linecap:round;stroke-width:2;"/>
     </g>
     <g id="text_4">
      <!-- 0.040 -->
      <g style="fill:#262626;" transform="translate(784.52551 539.506875)scale(0.2 -0.2)">
       <defs>
        <path d="M 32.328125 0 
L 32.328125 17.140625 
L 1.265625 17.140625 
L 1.265625 25.203125 
L 33.9375 71.578125 
L 41.109375 71.578125 
L 41.109375 25.203125 
L 50.78125 25.203125 
L 50.78125 17.140625 
L 41.109375 17.140625 
L 41.109375 0 
z
M 32.328125 25.203125 
L 32.328125 57.46875 
L 9.90625 25.203125 
z
" id="ArialMT-52"/>
       </defs>
       <use xlink:href="#ArialMT-48"/>
       <use x="55.615234" xlink:href="#ArialMT-46"/>
       <use x="83.398438" xlink:href="#ArialMT-48"/>
       <use x="139.013672" xlink:href="#ArialMT-52"/>
       <use x="194.628906" xlink:href="#ArialMT-48"/>
      </g>
     </g>
    </g>
    <g id="xtick_5">
     <g id="line2d_5">
      <path clip-path="url(#p960861b20c)" d="M 809.547385 518.19125 
L 809.547385 74.67125 
" style="fill:none;stroke:#cccccc;stroke-linecap:round;stroke-width:2;"/>
     </g>
     <g id="text_5">
      <!-- 0.040 -->
      <g style="fill:#262626;" transform="translate(784.52551 539.506875)scale(0.2 -0.2)">
       <use xlink:href="#ArialMT-48"/>
       <use x="55.615234" xlink:href="#ArialMT-46"/>
       <use x="83.398438" xlink:href="#ArialMT-48"/>
       <use x="139.013672" xlink:href="#ArialMT-52"/>
       <use x="194.628906" xlink:href="#ArialMT-48"/>
      </g>
     </g>
    </g>
    <g id="xtick_6">
     <g id="line2d_6">
      <path clip-path="url(#p960861b20c)" d="M 752.81308 518.19125 
L 752.81308 74.67125 
" style="fill:none;stroke:#cccccc;stroke-linecap:round;stroke-width:2;"/>
     </g>
     <g id="text_6">
      <!-- 0.050 -->
      <g style="fill:#262626;" transform="translate(727.791205 539.506875)scale(0.2 -0.2)">
       <defs>
        <path d="M 4.15625 18.75 
L 13.375 19.53125 
Q 14.40625 12.796875 18.140625 9.390625 
Q 21.875 6 27.15625 6 
Q 33.5 6 37.890625 10.78125 
Q 42.28125 15.578125 42.28125 23.484375 
Q 42.28125 31 38.0625 35.34375 
Q 33.84375 39.703125 27 39.703125 
Q 22.75 39.703125 19.328125 37.765625 
Q 15.921875 35.84375 13.96875 32.765625 
L 5.71875 33.84375 
L 12.640625 70.609375 
L 48.25 70.609375 
L 48.25 62.203125 
L 19.671875 62.203125 
L 15.828125 42.96875 
Q 22.265625 47.46875 29.34375 47.46875 
Q 38.71875 47.46875 45.15625 40.96875 
Q 51.609375 34.46875 51.609375 24.265625 
Q 51.609375 14.546875 45.953125 7.46875 
Q 39.0625 -1.21875 27.15625 -1.21875 
Q 17.390625 -1.21875 11.203125 4.25 
Q 5.03125 9.71875 4.15625 18.75 
z
" id="ArialMT-53"/>
       </defs>
       <use xlink:href="#ArialMT-48"/>
       <use x="55.615234" xlink:href="#ArialMT-46"/>
       <use x="83.398438" xlink:href="#ArialMT-48"/>
       <use x="139.013672" xlink:href="#ArialMT-53"/>
       <use x="194.628906" xlink:href="#ArialMT-48"/>
      </g>
     </g>
    </g>
    <g id="xtick_7">
     <g id="line2d_7">
      <path clip-path="url(#p960861b20c)" d="M 706.457777 518.19125 
L 706.457777 74.67125 
" style="fill:none;stroke:#cccccc;stroke-linecap:round;stroke-width:2;"/>
     </g>
     <g id="text_7">
      <!-- 0.060 -->
      <g style="fill:#262626;" transform="translate(681.435902 539.506875)scale(0.2 -0.2)">
       <defs>
        <path d="M 49.75 54.046875 
L 41.015625 53.375 
Q 39.84375 58.546875 37.703125 60.890625 
Q 34.125 64.65625 28.90625 64.65625 
Q 24.703125 64.65625 21.53125 62.3125 
Q 17.390625 59.28125 14.984375 53.46875 
Q 12.59375 47.65625 12.5 36.921875 
Q 15.671875 41.75 20.265625 44.09375 
Q 24.859375 46.4375 29.890625 46.4375 
Q 38.671875 46.4375 44.84375 39.96875 
Q 51.03125 33.5 51.03125 23.25 
Q 51.03125 16.5 48.125 10.71875 
Q 45.21875 4.9375 40.140625 1.859375 
Q 35.0625 -1.21875 28.609375 -1.21875 
Q 17.625 -1.21875 10.6875 6.859375 
Q 3.765625 14.9375 3.765625 33.5 
Q 3.765625 54.25 11.421875 63.671875 
Q 18.109375 71.875 29.4375 71.875 
Q 37.890625 71.875 43.28125 67.140625 
Q 48.6875 62.40625 49.75 54.046875 
z
M 13.875 23.1875 
Q 13.875 18.65625 15.796875 14.5 
Q 17.71875 10.359375 21.1875 8.171875 
Q 24.65625 6 28.46875 6 
Q 34.03125 6 38.03125 10.484375 
Q 42.046875 14.984375 42.046875 22.703125 
Q 42.046875 30.125 38.078125 34.390625 
Q 34.125 38.671875 28.125 38.671875 
Q 22.171875 38.671875 18.015625 34.390625 
Q 13.875 30.125 13.875 23.1875 
z
" id="ArialMT-54"/>
       </defs>
       <use xlink:href="#ArialMT-48"/>
       <use x="55.615234" xlink:href="#ArialMT-46"/>
       <use x="83.398438" xlink:href="#ArialMT-48"/>
       <use x="139.013672" xlink:href="#ArialMT-54"/>
       <use x="194.628906" xlink:href="#ArialMT-48"/>
      </g>
     </g>
    </g>
    <g id="xtick_8">
     <g id="line2d_8">
      <path clip-path="url(#p960861b20c)" d="M 633.314537 518.19125 
L 633.314537 74.67125 
" style="fill:none;stroke:#cccccc;stroke-linecap:round;stroke-width:2;"/>
     </g>
     <g id="text_8">
      <!-- 0.080 -->
      <g style="fill:#262626;" transform="translate(608.292662 539.506875)scale(0.2 -0.2)">
       <defs>
        <path d="M 17.671875 38.8125 
Q 12.203125 40.828125 9.5625 44.53125 
Q 6.9375 48.25 6.9375 53.421875 
Q 6.9375 61.234375 12.546875 66.546875 
Q 18.171875 71.875 27.484375 71.875 
Q 36.859375 71.875 42.578125 66.421875 
Q 48.296875 60.984375 48.296875 53.171875 
Q 48.296875 48.1875 45.671875 44.5 
Q 43.0625 40.828125 37.75 38.8125 
Q 44.34375 36.671875 47.78125 31.875 
Q 51.21875 27.09375 51.21875 20.453125 
Q 51.21875 11.28125 44.71875 5.03125 
Q 38.234375 -1.21875 27.640625 -1.21875 
Q 17.046875 -1.21875 10.546875 5.046875 
Q 4.046875 11.328125 4.046875 20.703125 
Q 4.046875 27.6875 7.59375 32.390625 
Q 11.140625 37.109375 17.671875 38.8125 
z
M 15.921875 53.71875 
Q 15.921875 48.640625 19.1875 45.40625 
Q 22.46875 42.1875 27.6875 42.1875 
Q 32.765625 42.1875 36.015625 45.375 
Q 39.265625 48.578125 39.265625 53.21875 
Q 39.265625 58.0625 35.90625 61.359375 
Q 32.5625 64.65625 27.59375 64.65625 
Q 22.5625 64.65625 19.234375 61.421875 
Q 15.921875 58.203125 15.921875 53.71875 
z
M 13.09375 20.65625 
Q 13.09375 16.890625 14.875 13.375 
Q 16.65625 9.859375 20.171875 7.921875 
Q 23.6875 6 27.734375 6 
Q 34.03125 6 38.125 10.046875 
Q 42.234375 14.109375 42.234375 20.359375 
Q 42.234375 26.703125 38.015625 30.859375 
Q 33.796875 35.015625 27.4375 35.015625 
Q 21.234375 35.015625 17.15625 30.90625 
Q 13.09375 26.8125 13.09375 20.65625 
z
" id="ArialMT-56"/>
       </defs>
       <use xlink:href="#ArialMT-48"/>
       <use x="55.615234" xlink:href="#ArialMT-46"/>
       <use x="83.398438" xlink:href="#ArialMT-48"/>
       <use x="139.013672" xlink:href="#ArialMT-56"/>
       <use x="194.628906" xlink:href="#ArialMT-48"/>
      </g>
     </g>
    </g>
    <g id="xtick_9">
     <g id="line2d_9">
      <path clip-path="url(#p960861b20c)" d="M 576.580232 518.19125 
L 576.580232 74.67125 
" style="fill:none;stroke:#cccccc;stroke-linecap:round;stroke-width:2;"/>
     </g>
     <g id="text_9">
      <!-- 0.100 -->
      <g style="fill:#262626;" transform="translate(551.558357 539.506875)scale(0.2 -0.2)">
       <use xlink:href="#ArialMT-48"/>
       <use x="55.615234" xlink:href="#ArialMT-46"/>
       <use x="83.398438" xlink:href="#ArialMT-49"/>
       <use x="139.013672" xlink:href="#ArialMT-48"/>
       <use x="194.628906" xlink:href="#ArialMT-48"/>
      </g>
     </g>
    </g>
    <g id="xtick_10">
     <g id="line2d_10">
      <path clip-path="url(#p960861b20c)" d="M 387.942473 518.19125 
L 387.942473 74.67125 
" style="fill:none;stroke:#cccccc;stroke-linecap:round;stroke-width:2;"/>
     </g>
     <g id="text_10">
      <!-- 0.210 -->
      <g style="fill:#262626;" transform="translate(362.920598 539.506875)scale(0.2 -0.2)">
       <use xlink:href="#ArialMT-48"/>
       <use x="55.615234" xlink:href="#ArialMT-46"/>
       <use x="83.398438" xlink:href="#ArialMT-50"/>
       <use x="139.013672" xlink:href="#ArialMT-49"/>
       <use x="194.628906" xlink:href="#ArialMT-48"/>
      </g>
     </g>
    </g>
    <g id="xtick_11"/>
    <g id="xtick_12"/>
    <g id="xtick_13"/>
    <g id="xtick_14"/>
    <g id="xtick_15"/>
    <g id="xtick_16"/>
    <g id="xtick_17"/>
    <g id="xtick_18"/>
    <g id="xtick_19"/>
    <g id="xtick_20"/>
    <g id="xtick_21"/>
    <g id="xtick_22"/>
    <g id="xtick_23"/>
    <g id="text_11">
     <!-- Variant Allele Frequency (VAF) -->
     <g style="fill:#262626;" transform="translate(542.290625 562.04125)scale(0.2 -0.2)">
      <defs>
       <path d="M 28.171875 0 
L 0.4375 71.578125 
L 10.6875 71.578125 
L 29.296875 19.578125 
Q 31.546875 13.328125 33.0625 7.859375 
Q 34.71875 13.71875 36.921875 19.578125 
L 56.25 71.578125 
L 65.921875 71.578125 
L 37.890625 0 
z
" id="ArialMT-86"/>
       <path d="M 40.4375 6.390625 
Q 35.546875 2.25 31.03125 0.53125 
Q 26.515625 -1.171875 21.34375 -1.171875 
Q 12.796875 -1.171875 8.203125 3 
Q 3.609375 7.171875 3.609375 13.671875 
Q 3.609375 17.484375 5.34375 20.625 
Q 7.078125 23.78125 9.890625 25.6875 
Q 12.703125 27.59375 16.21875 28.5625 
Q 18.796875 29.25 24.03125 29.890625 
Q 34.671875 31.15625 39.703125 32.90625 
Q 39.75 34.71875 39.75 35.203125 
Q 39.75 40.578125 37.25 42.78125 
Q 33.890625 45.75 27.25 45.75 
Q 21.046875 45.75 18.09375 43.578125 
Q 15.140625 41.40625 13.71875 35.890625 
L 5.125 37.0625 
Q 6.296875 42.578125 8.984375 45.96875 
Q 11.671875 49.359375 16.75 51.1875 
Q 21.828125 53.03125 28.515625 53.03125 
Q 35.15625 53.03125 39.296875 51.46875 
Q 43.453125 49.90625 45.40625 47.53125 
Q 47.359375 45.171875 48.140625 41.546875 
Q 48.578125 39.3125 48.578125 33.453125 
L 48.578125 21.734375 
Q 48.578125 9.46875 49.140625 6.21875 
Q 49.703125 2.984375 51.375 0 
L 42.1875 0 
Q 40.828125 2.734375 40.4375 6.390625 
z
M 39.703125 26.03125 
Q 34.90625 24.078125 25.34375 22.703125 
Q 19.921875 21.921875 17.671875 20.9375 
Q 15.4375 19.96875 14.203125 18.09375 
Q 12.984375 16.21875 12.984375 13.921875 
Q 12.984375 10.40625 15.640625 8.0625 
Q 18.3125 5.71875 23.4375 5.71875 
Q 28.515625 5.71875 32.46875 7.9375 
Q 36.421875 10.15625 38.28125 14.015625 
Q 39.703125 17 39.703125 22.796875 
z
" id="ArialMT-97"/>
       <path d="M 6.5 0 
L 6.5 51.859375 
L 14.40625 51.859375 
L 14.40625 44 
Q 17.4375 49.515625 20 51.265625 
Q 22.5625 53.03125 25.640625 53.03125 
Q 30.078125 53.03125 34.671875 50.203125 
L 31.640625 42.046875 
Q 28.421875 43.953125 25.203125 43.953125 
Q 22.3125 43.953125 20.015625 42.21875 
Q 17.71875 40.484375 16.75 37.40625 
Q 15.28125 32.71875 15.28125 27.15625 
L 15.28125 0 
z
" id="ArialMT-114"/>
       <path d="M 6.640625 61.46875 
L 6.640625 71.578125 
L 15.4375 71.578125 
L 15.4375 61.46875 
z
M 6.640625 0 
L 6.640625 51.859375 
L 15.4375 51.859375 
L 15.4375 0 
z
" id="ArialMT-105"/>
       <path d="M 6.59375 0 
L 6.59375 51.859375 
L 14.5 51.859375 
L 14.5 44.484375 
Q 20.21875 53.03125 31 53.03125 
Q 35.6875 53.03125 39.625 51.34375 
Q 43.5625 49.65625 45.515625 46.921875 
Q 47.46875 44.1875 48.25 40.4375 
Q 48.734375 37.984375 48.734375 31.890625 
L 48.734375 0 
L 39.9375 0 
L 39.9375 31.546875 
Q 39.9375 36.921875 38.90625 39.578125 
Q 37.890625 42.234375 35.28125 43.8125 
Q 32.671875 45.40625 29.15625 45.40625 
Q 23.53125 45.40625 19.453125 41.84375 
Q 15.375 38.28125 15.375 28.328125 
L 15.375 0 
z
" id="ArialMT-110"/>
       <path d="M 25.78125 7.859375 
L 27.046875 0.09375 
Q 23.34375 -0.6875 20.40625 -0.6875 
Q 15.625 -0.6875 12.984375 0.828125 
Q 10.359375 2.34375 9.28125 4.8125 
Q 8.203125 7.28125 8.203125 15.1875 
L 8.203125 45.015625 
L 1.765625 45.015625 
L 1.765625 51.859375 
L 8.203125 51.859375 
L 8.203125 64.703125 
L 16.9375 69.96875 
L 16.9375 51.859375 
L 25.78125 51.859375 
L 25.78125 45.015625 
L 16.9375 45.015625 
L 16.9375 14.703125 
Q 16.9375 10.9375 17.40625 9.859375 
Q 17.875 8.796875 18.921875 8.15625 
Q 19.96875 7.515625 21.921875 7.515625 
Q 23.390625 7.515625 25.78125 7.859375 
z
" id="ArialMT-116"/>
       <path id="ArialMT-32"/>
       <path d="M -0.140625 0 
L 27.34375 71.578125 
L 37.546875 71.578125 
L 66.84375 0 
L 56.0625 0 
L 47.703125 21.6875 
L 17.78125 21.6875 
L 9.90625 0 
z
M 20.515625 29.390625 
L 44.78125 29.390625 
L 37.3125 49.21875 
Q 33.890625 58.25 32.234375 64.0625 
Q 30.859375 57.171875 28.375 50.390625 
z
" id="ArialMT-65"/>
       <path d="M 6.390625 0 
L 6.390625 71.578125 
L 15.1875 71.578125 
L 15.1875 0 
z
" id="ArialMT-108"/>
       <path d="M 42.09375 16.703125 
L 51.171875 15.578125 
Q 49.03125 7.625 43.21875 3.21875 
Q 37.40625 -1.171875 28.375 -1.171875 
Q 17 -1.171875 10.328125 5.828125 
Q 3.65625 12.84375 3.65625 25.484375 
Q 3.65625 38.578125 10.390625 45.796875 
Q 17.140625 53.03125 27.875 53.03125 
Q 38.28125 53.03125 44.875 45.953125 
Q 51.46875 38.875 51.46875 26.03125 
Q 51.46875 25.25 51.421875 23.6875 
L 12.75 23.6875 
Q 13.234375 15.140625 17.578125 10.59375 
Q 21.921875 6.0625 28.421875 6.0625 
Q 33.25 6.0625 36.671875 8.59375 
Q 40.09375 11.140625 42.09375 16.703125 
z
M 13.234375 30.90625 
L 42.1875 30.90625 
Q 41.609375 37.453125 38.875 40.71875 
Q 34.671875 45.796875 27.984375 45.796875 
Q 21.921875 45.796875 17.796875 41.75 
Q 13.671875 37.703125 13.234375 30.90625 
z
" id="ArialMT-101"/>
       <path d="M 8.203125 0 
L 8.203125 71.578125 
L 56.5 71.578125 
L 56.5 63.140625 
L 17.671875 63.140625 
L 17.671875 40.96875 
L 51.265625 40.96875 
L 51.265625 32.515625 
L 17.671875 32.515625 
L 17.671875 0 
z
" id="ArialMT-70"/>
       <path d="M 39.65625 -19.875 
L 39.65625 5.515625 
Q 37.59375 2.640625 33.90625 0.734375 
Q 30.21875 -1.171875 26.078125 -1.171875 
Q 16.84375 -1.171875 10.171875 6.203125 
Q 3.515625 13.578125 3.515625 26.421875 
Q 3.515625 34.234375 6.21875 40.421875 
Q 8.9375 46.625 14.078125 49.828125 
Q 19.234375 53.03125 25.390625 53.03125 
Q 35.015625 53.03125 40.53125 44.921875 
L 40.53125 51.859375 
L 48.4375 51.859375 
L 48.4375 -19.875 
z
M 12.546875 26.078125 
Q 12.546875 16.0625 16.75 11.0625 
Q 20.953125 6.0625 26.8125 6.0625 
Q 32.421875 6.0625 36.46875 10.8125 
Q 40.53125 15.578125 40.53125 25.296875 
Q 40.53125 35.640625 36.25 40.859375 
Q 31.984375 46.09375 26.21875 46.09375 
Q 20.515625 46.09375 16.53125 41.234375 
Q 12.546875 36.375 12.546875 26.078125 
z
" id="ArialMT-113"/>
       <path d="M 40.578125 0 
L 40.578125 7.625 
Q 34.515625 -1.171875 24.125 -1.171875 
Q 19.53125 -1.171875 15.546875 0.578125 
Q 11.578125 2.34375 9.640625 5 
Q 7.71875 7.671875 6.9375 11.53125 
Q 6.390625 14.109375 6.390625 19.734375 
L 6.390625 51.859375 
L 15.1875 51.859375 
L 15.1875 23.09375 
Q 15.1875 16.21875 15.71875 13.8125 
Q 16.546875 10.359375 19.234375 8.375 
Q 21.921875 6.390625 25.875 6.390625 
Q 29.828125 6.390625 33.296875 8.421875 
Q 36.765625 10.453125 38.203125 13.9375 
Q 39.65625 17.4375 39.65625 24.078125 
L 39.65625 51.859375 
L 48.4375 51.859375 
L 48.4375 0 
z
" id="ArialMT-117"/>
       <path d="M 40.4375 19 
L 49.078125 17.875 
Q 47.65625 8.9375 41.8125 3.875 
Q 35.984375 -1.171875 27.484375 -1.171875 
Q 16.84375 -1.171875 10.375 5.78125 
Q 3.90625 12.75 3.90625 25.734375 
Q 3.90625 34.125 6.6875 40.421875 
Q 9.46875 46.734375 15.15625 49.875 
Q 20.84375 53.03125 27.546875 53.03125 
Q 35.984375 53.03125 41.359375 48.75 
Q 46.734375 44.484375 48.25 36.625 
L 39.703125 35.296875 
Q 38.484375 40.53125 35.375 43.15625 
Q 32.28125 45.796875 27.875 45.796875 
Q 21.234375 45.796875 17.078125 41.03125 
Q 12.9375 36.28125 12.9375 25.984375 
Q 12.9375 15.53125 16.9375 10.796875 
Q 20.953125 6.0625 27.390625 6.0625 
Q 32.5625 6.0625 36.03125 9.234375 
Q 39.5 12.40625 40.4375 19 
z
" id="ArialMT-99"/>
       <path d="M 6.203125 -19.96875 
L 5.21875 -11.71875 
Q 8.109375 -12.5 10.25 -12.5 
Q 13.1875 -12.5 14.9375 -11.515625 
Q 16.703125 -10.546875 17.828125 -8.796875 
Q 18.65625 -7.46875 20.515625 -2.25 
Q 20.75 -1.515625 21.296875 -0.09375 
L 1.609375 51.859375 
L 11.078125 51.859375 
L 21.875 21.828125 
Q 23.96875 16.109375 25.640625 9.8125 
Q 27.15625 15.875 29.25 21.625 
L 40.328125 51.859375 
L 49.125 51.859375 
L 29.390625 -0.875 
Q 26.21875 -9.421875 24.46875 -12.640625 
Q 22.125 -17 19.09375 -19.015625 
Q 16.0625 -21.046875 11.859375 -21.046875 
Q 9.328125 -21.046875 6.203125 -19.96875 
z
" id="ArialMT-121"/>
       <path d="M 23.390625 -21.046875 
Q 16.109375 -11.859375 11.078125 0.4375 
Q 6.0625 12.75 6.0625 25.921875 
Q 6.0625 37.546875 9.8125 48.1875 
Q 14.203125 60.546875 23.390625 72.796875 
L 29.6875 72.796875 
Q 23.78125 62.640625 21.875 58.296875 
Q 18.890625 51.5625 17.1875 44.234375 
Q 15.09375 35.109375 15.09375 25.875 
Q 15.09375 2.390625 29.6875 -21.046875 
z
" id="ArialMT-40"/>
       <path d="M 12.359375 -21.046875 
L 6.0625 -21.046875 
Q 20.65625 2.390625 20.65625 25.875 
Q 20.65625 35.0625 18.5625 44.09375 
Q 16.890625 51.421875 13.921875 58.15625 
Q 12.015625 62.546875 6.0625 72.796875 
L 12.359375 72.796875 
Q 21.53125 60.546875 25.921875 48.1875 
Q 29.6875 37.546875 29.6875 25.921875 
Q 29.6875 12.75 24.625 0.4375 
Q 19.578125 -11.859375 12.359375 -21.046875 
z
" id="ArialMT-41"/>
      </defs>
      <use xlink:href="#ArialMT-86"/>
      <use x="59.324219" xlink:href="#ArialMT-97"/>
      <use x="114.939453" xlink:href="#ArialMT-114"/>
      <use x="148.240234" xlink:href="#ArialMT-105"/>
      <use x="170.457031" xlink:href="#ArialMT-97"/>
      <use x="226.072266" xlink:href="#ArialMT-110"/>
      <use x="281.6875" xlink:href="#ArialMT-116"/>
      <use x="309.470703" xlink:href="#ArialMT-32"/>
      <use x="331.753906" xlink:href="#ArialMT-65"/>
      <use x="398.453125" xlink:href="#ArialMT-108"/>
      <use x="420.669922" xlink:href="#ArialMT-108"/>
      <use x="442.886719" xlink:href="#ArialMT-101"/>
      <use x="498.501953" xlink:href="#ArialMT-108"/>
      <use x="520.71875" xlink:href="#ArialMT-101"/>
      <use x="576.333984" xlink:href="#ArialMT-32"/>
      <use x="604.117188" xlink:href="#ArialMT-70"/>
      <use x="665.201172" xlink:href="#ArialMT-114"/>
      <use x="698.501953" xlink:href="#ArialMT-101"/>
      <use x="754.117188" xlink:href="#ArialMT-113"/>
      <use x="809.732422" xlink:href="#ArialMT-117"/>
      <use x="865.347656" xlink:href="#ArialMT-101"/>
      <use x="920.962891" xlink:href="#ArialMT-110"/>
      <use x="976.578125" xlink:href="#ArialMT-99"/>
      <use x="1026.578125" xlink:href="#ArialMT-121"/>
      <use x="1076.578125" xlink:href="#ArialMT-32"/>
      <use x="1104.361328" xlink:href="#ArialMT-40"/>
      <use x="1137.662109" xlink:href="#ArialMT-86"/>
      <use x="1196.986328" xlink:href="#ArialMT-65"/>
      <use x="1263.685547" xlink:href="#ArialMT-70"/>
      <use x="1324.769531" xlink:href="#ArialMT-41"/>
     </g>
    </g>
   </g>
   <g id="matplotlib.axis_2">
    <g id="ytick_1">
     <g id="line2d_11">
      <path clip-path="url(#p960861b20c)" d="M 64.290625 498.280869 
L 1291.890625 498.280869 
" style="fill:none;stroke:#cccccc;stroke-linecap:round;stroke-width:2;"/>
     </g>
     <g id="text_12">
      <!-- 0.0 -->
      <g style="fill:#262626;" transform="translate(29.490625 505.438682)scale(0.2 -0.2)">
       <use xlink:href="#ArialMT-48"/>
       <use x="55.615234" xlink:href="#ArialMT-46"/>
       <use x="83.398438" xlink:href="#ArialMT-48"/>
      </g>
     </g>
    </g>
    <g id="ytick_2">
     <g id="line2d_12">
      <path clip-path="url(#p960861b20c)" d="M 64.290625 411.744563 
L 1291.890625 411.744563 
" style="fill:none;stroke:#cccccc;stroke-linecap:round;stroke-width:2;"/>
     </g>
     <g id="text_13">
      <!-- 0.2 -->
      <g style="fill:#262626;" transform="translate(29.490625 418.902376)scale(0.2 -0.2)">
       <use xlink:href="#ArialMT-48"/>
       <use x="55.615234" xlink:href="#ArialMT-46"/>
       <use x="83.398438" xlink:href="#ArialMT-50"/>
      </g>
     </g>
    </g>
    <g id="ytick_3">
     <g id="line2d_13">
      <path clip-path="url(#p960861b20c)" d="M 64.290625 325.208257 
L 1291.890625 325.208257 
" style="fill:none;stroke:#cccccc;stroke-linecap:round;stroke-width:2;"/>
     </g>
     <g id="text_14">
      <!-- 0.4 -->
      <g style="fill:#262626;" transform="translate(29.490625 332.36607)scale(0.2 -0.2)">
       <use xlink:href="#ArialMT-48"/>
       <use x="55.615234" xlink:href="#ArialMT-46"/>
       <use x="83.398438" xlink:href="#ArialMT-52"/>
      </g>
     </g>
    </g>
    <g id="ytick_4">
     <g id="line2d_14">
      <path clip-path="url(#p960861b20c)" d="M 64.290625 238.671951 
L 1291.890625 238.671951 
" style="fill:none;stroke:#cccccc;stroke-linecap:round;stroke-width:2;"/>
     </g>
     <g id="text_15">
      <!-- 0.6 -->
      <g style="fill:#262626;" transform="translate(29.490625 245.829764)scale(0.2 -0.2)">
       <use xlink:href="#ArialMT-48"/>
       <use x="55.615234" xlink:href="#ArialMT-46"/>
       <use x="83.398438" xlink:href="#ArialMT-54"/>
      </g>
     </g>
    </g>
    <g id="ytick_5">
     <g id="line2d_15">
      <path clip-path="url(#p960861b20c)" d="M 64.290625 152.135645 
L 1291.890625 152.135645 
" style="fill:none;stroke:#cccccc;stroke-linecap:round;stroke-width:2;"/>
     </g>
     <g id="text_16">
      <!-- 0.8 -->
      <g style="fill:#262626;" transform="translate(29.490625 159.293458)scale(0.2 -0.2)">
       <use xlink:href="#ArialMT-48"/>
       <use x="55.615234" xlink:href="#ArialMT-46"/>
       <use x="83.398438" xlink:href="#ArialMT-56"/>
      </g>
     </g>
    </g>
    <g id="text_17">
     <!-- AUPRC score -->
     <g style="fill:#262626;" transform="translate(21.515625 358.667188)rotate(-90)scale(0.2 -0.2)">
      <defs>
       <path d="M 54.6875 71.578125 
L 64.15625 71.578125 
L 64.15625 30.21875 
Q 64.15625 19.4375 61.71875 13.078125 
Q 59.28125 6.734375 52.90625 2.75 
Q 46.53125 -1.21875 36.1875 -1.21875 
Q 26.125 -1.21875 19.71875 2.25 
Q 13.328125 5.71875 10.59375 12.28125 
Q 7.859375 18.84375 7.859375 30.21875 
L 7.859375 71.578125 
L 17.328125 71.578125 
L 17.328125 30.28125 
Q 17.328125 20.953125 19.0625 16.53125 
Q 20.796875 12.109375 25.015625 9.71875 
Q 29.25 7.328125 35.359375 7.328125 
Q 45.796875 7.328125 50.234375 12.0625 
Q 54.6875 16.796875 54.6875 30.28125 
z
" id="ArialMT-85"/>
       <path d="M 7.71875 0 
L 7.71875 71.578125 
L 34.71875 71.578125 
Q 41.84375 71.578125 45.609375 70.90625 
Q 50.875 70.015625 54.4375 67.546875 
Q 58.015625 65.09375 60.1875 60.640625 
Q 62.359375 56.203125 62.359375 50.875 
Q 62.359375 41.75 56.546875 35.421875 
Q 50.734375 29.109375 35.546875 29.109375 
L 17.1875 29.109375 
L 17.1875 0 
z
M 17.1875 37.546875 
L 35.6875 37.546875 
Q 44.875 37.546875 48.734375 40.96875 
Q 52.59375 44.390625 52.59375 50.59375 
Q 52.59375 55.078125 50.3125 58.265625 
Q 48.046875 61.46875 44.34375 62.5 
Q 41.9375 63.140625 35.5 63.140625 
L 17.1875 63.140625 
z
" id="ArialMT-80"/>
       <path d="M 7.859375 0 
L 7.859375 71.578125 
L 39.59375 71.578125 
Q 49.171875 71.578125 54.140625 69.640625 
Q 59.125 67.71875 62.109375 62.828125 
Q 65.09375 57.953125 65.09375 52.046875 
Q 65.09375 44.4375 60.15625 39.203125 
Q 55.21875 33.984375 44.921875 32.5625 
Q 48.6875 30.765625 50.640625 29 
Q 54.78125 25.203125 58.5 19.484375 
L 70.953125 0 
L 59.03125 0 
L 49.5625 14.890625 
Q 45.40625 21.34375 42.71875 24.75 
Q 40.046875 28.171875 37.921875 29.53125 
Q 35.796875 30.90625 33.59375 31.453125 
Q 31.984375 31.78125 28.328125 31.78125 
L 17.328125 31.78125 
L 17.328125 0 
z
M 17.328125 39.984375 
L 37.703125 39.984375 
Q 44.1875 39.984375 47.84375 41.328125 
Q 51.515625 42.671875 53.421875 45.625 
Q 55.328125 48.578125 55.328125 52.046875 
Q 55.328125 57.125 51.640625 60.390625 
Q 47.953125 63.671875 39.984375 63.671875 
L 17.328125 63.671875 
z
" id="ArialMT-82"/>
       <path d="M 58.796875 25.09375 
L 68.265625 22.703125 
Q 65.28125 11.03125 57.546875 4.90625 
Q 49.8125 -1.21875 38.625 -1.21875 
Q 27.046875 -1.21875 19.796875 3.484375 
Q 12.546875 8.203125 8.765625 17.140625 
Q 4.984375 26.078125 4.984375 36.328125 
Q 4.984375 47.515625 9.25 55.828125 
Q 13.53125 64.15625 21.40625 68.46875 
Q 29.296875 72.796875 38.765625 72.796875 
Q 49.515625 72.796875 56.828125 67.328125 
Q 64.15625 61.859375 67.046875 51.953125 
L 57.71875 49.75 
Q 55.21875 57.5625 50.484375 61.125 
Q 45.75 64.703125 38.578125 64.703125 
Q 30.328125 64.703125 24.78125 60.734375 
Q 19.234375 56.78125 16.984375 50.109375 
Q 14.75 43.453125 14.75 36.375 
Q 14.75 27.25 17.40625 20.4375 
Q 20.0625 13.625 25.671875 10.25 
Q 31.296875 6.890625 37.84375 6.890625 
Q 45.796875 6.890625 51.3125 11.46875 
Q 56.84375 16.0625 58.796875 25.09375 
z
" id="ArialMT-67"/>
       <path d="M 3.078125 15.484375 
L 11.765625 16.84375 
Q 12.5 11.625 15.84375 8.84375 
Q 19.1875 6.0625 25.203125 6.0625 
Q 31.25 6.0625 34.171875 8.515625 
Q 37.109375 10.984375 37.109375 14.3125 
Q 37.109375 17.28125 34.515625 19 
Q 32.71875 20.171875 25.53125 21.96875 
Q 15.875 24.421875 12.140625 26.203125 
Q 8.40625 27.984375 6.46875 31.125 
Q 4.546875 34.28125 4.546875 38.09375 
Q 4.546875 41.546875 6.125 44.5 
Q 7.71875 47.46875 10.453125 49.421875 
Q 12.5 50.921875 16.03125 51.96875 
Q 19.578125 53.03125 23.640625 53.03125 
Q 29.734375 53.03125 34.34375 51.265625 
Q 38.96875 49.515625 41.15625 46.5 
Q 43.359375 43.5 44.1875 38.484375 
L 35.59375 37.3125 
Q 35.015625 41.3125 32.203125 43.546875 
Q 29.390625 45.796875 24.265625 45.796875 
Q 18.21875 45.796875 15.625 43.796875 
Q 13.03125 41.796875 13.03125 39.109375 
Q 13.03125 37.40625 14.109375 36.03125 
Q 15.1875 34.625 17.484375 33.6875 
Q 18.796875 33.203125 25.25 31.453125 
Q 34.578125 28.953125 38.25 27.359375 
Q 41.9375 25.78125 44.03125 22.75 
Q 46.140625 19.734375 46.140625 15.234375 
Q 46.140625 10.84375 43.578125 6.953125 
Q 41.015625 3.078125 36.171875 0.953125 
Q 31.34375 -1.171875 25.25 -1.171875 
Q 15.140625 -1.171875 9.84375 3.03125 
Q 4.546875 7.234375 3.078125 15.484375 
z
" id="ArialMT-115"/>
       <path d="M 3.328125 25.921875 
Q 3.328125 40.328125 11.328125 47.265625 
Q 18.015625 53.03125 27.640625 53.03125 
Q 38.328125 53.03125 45.109375 46.015625 
Q 51.90625 39.015625 51.90625 26.65625 
Q 51.90625 16.65625 48.90625 10.90625 
Q 45.90625 5.171875 40.15625 2 
Q 34.421875 -1.171875 27.640625 -1.171875 
Q 16.75 -1.171875 10.03125 5.8125 
Q 3.328125 12.796875 3.328125 25.921875 
z
M 12.359375 25.921875 
Q 12.359375 15.96875 16.703125 11.015625 
Q 21.046875 6.0625 27.640625 6.0625 
Q 34.1875 6.0625 38.53125 11.03125 
Q 42.875 16.015625 42.875 26.21875 
Q 42.875 35.84375 38.5 40.796875 
Q 34.125 45.75 27.640625 45.75 
Q 21.046875 45.75 16.703125 40.8125 
Q 12.359375 35.890625 12.359375 25.921875 
z
" id="ArialMT-111"/>
      </defs>
      <use xlink:href="#ArialMT-65"/>
      <use x="66.699219" xlink:href="#ArialMT-85"/>
      <use x="138.916016" xlink:href="#ArialMT-80"/>
      <use x="205.615234" xlink:href="#ArialMT-82"/>
      <use x="277.832031" xlink:href="#ArialMT-67"/>
      <use x="350.048828" xlink:href="#ArialMT-32"/>
      <use x="377.832031" xlink:href="#ArialMT-115"/>
      <use x="427.832031" xlink:href="#ArialMT-99"/>
      <use x="477.832031" xlink:href="#ArialMT-111"/>
      <use x="533.447266" xlink:href="#ArialMT-114"/>
      <use x="566.748047" xlink:href="#ArialMT-101"/>
     </g>
    </g>
   </g>
   <g id="line2d_16">
    <path clip-path="url(#p960861b20c)" d="M 1187.539329 498.03125 
L 1028.419084 497.843621 
L 933.579669 497.711292 
L 865.12369 497.650732 
L 806.460753 497.531911 
L 753.263871 497.160502 
L 708.915238 496.294483 
L 666.519171 495.915495 
L 605.054226 490.714985 
L 465.316207 489.940902 
" style="fill:none;stroke:#1f77b4;stroke-linecap:round;stroke-width:1.5;"/>
    <defs>
     <path d="M 0 5 
C 1.326016 5 2.597899 4.473168 3.535534 3.535534 
C 4.473168 2.597899 5 1.326016 5 0 
C 5 -1.326016 4.473168 -2.597899 3.535534 -3.535534 
C 2.597899 -4.473168 1.326016 -5 0 -5 
C -1.326016 -5 -2.597899 -4.473168 -3.535534 -3.535534 
C -4.473168 -2.597899 -5 -1.326016 -5 0 
C -5 1.326016 -4.473168 2.597899 -3.535534 3.535534 
C -2.597899 4.473168 -1.326016 5 0 5 
z
" id="m82ea0018af" style="stroke:#1f77b4;"/>
    </defs>
    <g clip-path="url(#p960861b20c)">
     <use style="fill:#1f77b4;stroke:#1f77b4;" x="1187.539329" xlink:href="#m82ea0018af" y="498.03125"/>
     <use style="fill:#1f77b4;stroke:#1f77b4;" x="1028.419084" xlink:href="#m82ea0018af" y="497.843621"/>
     <use style="fill:#1f77b4;stroke:#1f77b4;" x="933.579669" xlink:href="#m82ea0018af" y="497.711292"/>
     <use style="fill:#1f77b4;stroke:#1f77b4;" x="865.12369" xlink:href="#m82ea0018af" y="497.650732"/>
     <use style="fill:#1f77b4;stroke:#1f77b4;" x="806.460753" xlink:href="#m82ea0018af" y="497.531911"/>
     <use style="fill:#1f77b4;stroke:#1f77b4;" x="753.263871" xlink:href="#m82ea0018af" y="497.160502"/>
     <use style="fill:#1f77b4;stroke:#1f77b4;" x="708.915238" xlink:href="#m82ea0018af" y="496.294483"/>
     <use style="fill:#1f77b4;stroke:#1f77b4;" x="666.519171" xlink:href="#m82ea0018af" y="495.915495"/>
     <use style="fill:#1f77b4;stroke:#1f77b4;" x="605.054226" xlink:href="#m82ea0018af" y="490.714985"/>
     <use style="fill:#1f77b4;stroke:#1f77b4;" x="465.316207" xlink:href="#m82ea0018af" y="489.940902"/>
    </g>
   </g>
   <g id="line2d_17">
    <path clip-path="url(#p960861b20c)" d="M 1187.539329 497.970222 
L 1028.419084 495.462706 
L 933.579669 492.108921 
L 865.12369 493.302903 
L 806.460753 493.315699 
L 753.263871 493.030078 
L 708.915238 491.145168 
L 666.519171 490.387284 
L 605.054226 491.242093 
L 465.316207 491.24876 
" style="fill:none;stroke:#ff7f0e;stroke-linecap:round;stroke-width:1.5;"/>
    <defs>
     <path d="M 0 5 
C 1.326016 5 2.597899 4.473168 3.535534 3.535534 
C 4.473168 2.597899 5 1.326016 5 0 
C 5 -1.326016 4.473168 -2.597899 3.535534 -3.535534 
C 2.597899 -4.473168 1.326016 -5 0 -5 
C -1.326016 -5 -2.597899 -4.473168 -3.535534 -3.535534 
C -4.473168 -2.597899 -5 -1.326016 -5 0 
C -5 1.326016 -4.473168 2.597899 -3.535534 3.535534 
C -2.597899 4.473168 -1.326016 5 0 5 
z
" id="md6a4722f5d" style="stroke:#ff7f0e;"/>
    </defs>
    <g clip-path="url(#p960861b20c)">
     <use style="fill:#ff7f0e;stroke:#ff7f0e;" x="1187.539329" xlink:href="#md6a4722f5d" y="497.970222"/>
     <use style="fill:#ff7f0e;stroke:#ff7f0e;" x="1028.419084" xlink:href="#md6a4722f5d" y="495.462706"/>
     <use style="fill:#ff7f0e;stroke:#ff7f0e;" x="933.579669" xlink:href="#md6a4722f5d" y="492.108921"/>
     <use style="fill:#ff7f0e;stroke:#ff7f0e;" x="865.12369" xlink:href="#md6a4722f5d" y="493.302903"/>
     <use style="fill:#ff7f0e;stroke:#ff7f0e;" x="806.460753" xlink:href="#md6a4722f5d" y="493.315699"/>
     <use style="fill:#ff7f0e;stroke:#ff7f0e;" x="753.263871" xlink:href="#md6a4722f5d" y="493.030078"/>
     <use style="fill:#ff7f0e;stroke:#ff7f0e;" x="708.915238" xlink:href="#md6a4722f5d" y="491.145168"/>
     <use style="fill:#ff7f0e;stroke:#ff7f0e;" x="666.519171" xlink:href="#md6a4722f5d" y="490.387284"/>
     <use style="fill:#ff7f0e;stroke:#ff7f0e;" x="605.054226" xlink:href="#md6a4722f5d" y="491.242093"/>
     <use style="fill:#ff7f0e;stroke:#ff7f0e;" x="465.316207" xlink:href="#md6a4722f5d" y="491.24876"/>
    </g>
   </g>
   <g id="line2d_18">
    <path clip-path="url(#p960861b20c)" d="M 1187.539329 488.424449 
L 1028.419084 449.212255 
L 933.579669 447.997452 
L 865.12369 429.877414 
L 806.460753 417.746411 
L 753.263871 381.066568 
L 708.915238 249.782013 
L 666.519171 242.596726 
L 605.054226 167.647835 
L 465.316207 94.83125 
" style="fill:none;stroke:#2ca02c;stroke-linecap:round;stroke-width:1.5;"/>
    <defs>
     <path d="M 0 5 
C 1.326016 5 2.597899 4.473168 3.535534 3.535534 
C 4.473168 2.597899 5 1.326016 5 0 
C 5 -1.326016 4.473168 -2.597899 3.535534 -3.535534 
C 2.597899 -4.473168 1.326016 -5 0 -5 
C -1.326016 -5 -2.597899 -4.473168 -3.535534 -3.535534 
C -4.473168 -2.597899 -5 -1.326016 -5 0 
C -5 1.326016 -4.473168 2.597899 -3.535534 3.535534 
C -2.597899 4.473168 -1.326016 5 0 5 
z
" id="mb256fcef1b" style="stroke:#2ca02c;"/>
    </defs>
    <g clip-path="url(#p960861b20c)">
     <use style="fill:#2ca02c;stroke:#2ca02c;" x="1187.539329" xlink:href="#mb256fcef1b" y="488.424449"/>
     <use style="fill:#2ca02c;stroke:#2ca02c;" x="1028.419084" xlink:href="#mb256fcef1b" y="449.212255"/>
     <use style="fill:#2ca02c;stroke:#2ca02c;" x="933.579669" xlink:href="#mb256fcef1b" y="447.997452"/>
     <use style="fill:#2ca02c;stroke:#2ca02c;" x="865.12369" xlink:href="#mb256fcef1b" y="429.877414"/>
     <use style="fill:#2ca02c;stroke:#2ca02c;" x="806.460753" xlink:href="#mb256fcef1b" y="417.746411"/>
     <use style="fill:#2ca02c;stroke:#2ca02c;" x="753.263871" xlink:href="#mb256fcef1b" y="381.066568"/>
     <use style="fill:#2ca02c;stroke:#2ca02c;" x="708.915238" xlink:href="#mb256fcef1b" y="249.782013"/>
     <use style="fill:#2ca02c;stroke:#2ca02c;" x="666.519171" xlink:href="#mb256fcef1b" y="242.596726"/>
     <use style="fill:#2ca02c;stroke:#2ca02c;" x="605.054226" xlink:href="#mb256fcef1b" y="167.647835"/>
     <use style="fill:#2ca02c;stroke:#2ca02c;" x="465.316207" xlink:href="#mb256fcef1b" y="94.83125"/>
    </g>
   </g>
   <g id="line2d_19">
    <path clip-path="url(#p960861b20c)" d="M 1187.539329 497.845131 
L 1028.419084 494.995053 
L 933.579669 490.342251 
L 865.12369 483.630745 
L 806.460753 477.387849 
L 753.263871 473.609192 
L 708.915238 457.278883 
L 666.519171 453.329259 
L 605.054226 451.761028 
L 465.316207 471.729201 
" style="fill:none;stroke:#d62728;stroke-linecap:round;stroke-width:1.5;"/>
    <defs>
     <path d="M 0 5 
C 1.326016 5 2.597899 4.473168 3.535534 3.535534 
C 4.473168 2.597899 5 1.326016 5 0 
C 5 -1.326016 4.473168 -2.597899 3.535534 -3.535534 
C 2.597899 -4.473168 1.326016 -5 0 -5 
C -1.326016 -5 -2.597899 -4.473168 -3.535534 -3.535534 
C -4.473168 -2.597899 -5 -1.326016 -5 0 
C -5 1.326016 -4.473168 2.597899 -3.535534 3.535534 
C -2.597899 4.473168 -1.326016 5 0 5 
z
" id="m78a0a63f61" style="stroke:#d62728;"/>
    </defs>
    <g clip-path="url(#p960861b20c)">
     <use style="fill:#d62728;stroke:#d62728;" x="1187.539329" xlink:href="#m78a0a63f61" y="497.845131"/>
     <use style="fill:#d62728;stroke:#d62728;" x="1028.419084" xlink:href="#m78a0a63f61" y="494.995053"/>
     <use style="fill:#d62728;stroke:#d62728;" x="933.579669" xlink:href="#m78a0a63f61" y="490.342251"/>
     <use style="fill:#d62728;stroke:#d62728;" x="865.12369" xlink:href="#m78a0a63f61" y="483.630745"/>
     <use style="fill:#d62728;stroke:#d62728;" x="806.460753" xlink:href="#m78a0a63f61" y="477.387849"/>
     <use style="fill:#d62728;stroke:#d62728;" x="753.263871" xlink:href="#m78a0a63f61" y="473.609192"/>
     <use style="fill:#d62728;stroke:#d62728;" x="708.915238" xlink:href="#m78a0a63f61" y="457.278883"/>
     <use style="fill:#d62728;stroke:#d62728;" x="666.519171" xlink:href="#m78a0a63f61" y="453.329259"/>
     <use style="fill:#d62728;stroke:#d62728;" x="605.054226" xlink:href="#m78a0a63f61" y="451.761028"/>
     <use style="fill:#d62728;stroke:#d62728;" x="465.316207" xlink:href="#m78a0a63f61" y="471.729201"/>
    </g>
   </g>
   <g id="line2d_20">
    <path clip-path="url(#p960861b20c)" d="M 1187.539329 497.135374 
L 1028.419084 495.346102 
L 933.579669 491.976635 
L 865.12369 487.534419 
L 806.460753 484.883005 
L 753.263871 483.694275 
L 708.915238 476.967485 
L 666.519171 475.435096 
L 605.054226 482.131665 
L 465.316207 484.842961 
" style="fill:none;stroke:#9467bd;stroke-linecap:round;stroke-width:1.5;"/>
    <defs>
     <path d="M 0 5 
C 1.326016 5 2.597899 4.473168 3.535534 3.535534 
C 4.473168 2.597899 5 1.326016 5 0 
C 5 -1.326016 4.473168 -2.597899 3.535534 -3.535534 
C 2.597899 -4.473168 1.326016 -5 0 -5 
C -1.326016 -5 -2.597899 -4.473168 -3.535534 -3.535534 
C -4.473168 -2.597899 -5 -1.326016 -5 0 
C -5 1.326016 -4.473168 2.597899 -3.535534 3.535534 
C -2.597899 4.473168 -1.326016 5 0 5 
z
" id="m13c65e3365" style="stroke:#9467bd;"/>
    </defs>
    <g clip-path="url(#p960861b20c)">
     <use style="fill:#9467bd;stroke:#9467bd;" x="1187.539329" xlink:href="#m13c65e3365" y="497.135374"/>
     <use style="fill:#9467bd;stroke:#9467bd;" x="1028.419084" xlink:href="#m13c65e3365" y="495.346102"/>
     <use style="fill:#9467bd;stroke:#9467bd;" x="933.579669" xlink:href="#m13c65e3365" y="491.976635"/>
     <use style="fill:#9467bd;stroke:#9467bd;" x="865.12369" xlink:href="#m13c65e3365" y="487.534419"/>
     <use style="fill:#9467bd;stroke:#9467bd;" x="806.460753" xlink:href="#m13c65e3365" y="484.883005"/>
     <use style="fill:#9467bd;stroke:#9467bd;" x="753.263871" xlink:href="#m13c65e3365" y="483.694275"/>
     <use style="fill:#9467bd;stroke:#9467bd;" x="708.915238" xlink:href="#m13c65e3365" y="476.967485"/>
     <use style="fill:#9467bd;stroke:#9467bd;" x="666.519171" xlink:href="#m13c65e3365" y="475.435096"/>
     <use style="fill:#9467bd;stroke:#9467bd;" x="605.054226" xlink:href="#m13c65e3365" y="482.131665"/>
     <use style="fill:#9467bd;stroke:#9467bd;" x="465.316207" xlink:href="#m13c65e3365" y="484.842961"/>
    </g>
   </g>
   <g id="line2d_21">
    <path clip-path="url(#p960861b20c)" d="M 1187.539329 492.294136 
L 1028.419084 456.026621 
L 933.579669 393.571909 
L 865.12369 391.005271 
L 806.460753 387.41715 
L 753.263871 377.223997 
L 708.915238 305.215132 
L 666.519171 296.557469 
L 605.054226 264.513486 
L 465.316207 261.779575 
" style="fill:none;stroke:#bcbd22;stroke-linecap:round;stroke-width:1.5;"/>
    <defs>
     <path d="M 0 5 
C 1.326016 5 2.597899 4.473168 3.535534 3.535534 
C 4.473168 2.597899 5 1.326016 5 0 
C 5 -1.326016 4.473168 -2.597899 3.535534 -3.535534 
C 2.597899 -4.473168 1.326016 -5 0 -5 
C -1.326016 -5 -2.597899 -4.473168 -3.535534 -3.535534 
C -4.473168 -2.597899 -5 -1.326016 -5 0 
C -5 1.326016 -4.473168 2.597899 -3.535534 3.535534 
C -2.597899 4.473168 -1.326016 5 0 5 
z
" id="mbe4e465ab7" style="stroke:#bcbd22;"/>
    </defs>
    <g clip-path="url(#p960861b20c)">
     <use style="fill:#bcbd22;stroke:#bcbd22;" x="1187.539329" xlink:href="#mbe4e465ab7" y="492.294136"/>
     <use style="fill:#bcbd22;stroke:#bcbd22;" x="1028.419084" xlink:href="#mbe4e465ab7" y="456.026621"/>
     <use style="fill:#bcbd22;stroke:#bcbd22;" x="933.579669" xlink:href="#mbe4e465ab7" y="393.571909"/>
     <use style="fill:#bcbd22;stroke:#bcbd22;" x="865.12369" xlink:href="#mbe4e465ab7" y="391.005271"/>
     <use style="fill:#bcbd22;stroke:#bcbd22;" x="806.460753" xlink:href="#mbe4e465ab7" y="387.41715"/>
     <use style="fill:#bcbd22;stroke:#bcbd22;" x="753.263871" xlink:href="#mbe4e465ab7" y="377.223997"/>
     <use style="fill:#bcbd22;stroke:#bcbd22;" x="708.915238" xlink:href="#mbe4e465ab7" y="305.215132"/>
     <use style="fill:#bcbd22;stroke:#bcbd22;" x="666.519171" xlink:href="#mbe4e465ab7" y="296.557469"/>
     <use style="fill:#bcbd22;stroke:#bcbd22;" x="605.054226" xlink:href="#mbe4e465ab7" y="264.513486"/>
     <use style="fill:#bcbd22;stroke:#bcbd22;" x="465.316207" xlink:href="#mbe4e465ab7" y="261.779575"/>
    </g>
   </g>
   <g id="line2d_22"/>
   <g id="line2d_23">
    <path clip-path="url(#p960861b20c)" d="M 1187.539329 496.838266 
L 1028.419084 492.68391 
L 933.579669 471.256309 
L 865.12369 432.06407 
L 806.460753 338.293018 
L 753.263871 301.968099 
L 708.915238 247.54362 
L 666.519171 246.924273 
L 605.054226 268.575374 
L 465.316207 301.39168 
" style="fill:none;stroke:#8c564b;stroke-linecap:round;stroke-width:1.5;"/>
    <defs>
     <path d="M 0 5 
C 1.326016 5 2.597899 4.473168 3.535534 3.535534 
C 4.473168 2.597899 5 1.326016 5 0 
C 5 -1.326016 4.473168 -2.597899 3.535534 -3.535534 
C 2.597899 -4.473168 1.326016 -5 0 -5 
C -1.326016 -5 -2.597899 -4.473168 -3.535534 -3.535534 
C -4.473168 -2.597899 -5 -1.326016 -5 0 
C -5 1.326016 -4.473168 2.597899 -3.535534 3.535534 
C -2.597899 4.473168 -1.326016 5 0 5 
z
" id="m7c4cdf3188" style="stroke:#8c564b;"/>
    </defs>
    <g clip-path="url(#p960861b20c)">
     <use style="fill:#8c564b;stroke:#8c564b;" x="1187.539329" xlink:href="#m7c4cdf3188" y="496.838266"/>
     <use style="fill:#8c564b;stroke:#8c564b;" x="1028.419084" xlink:href="#m7c4cdf3188" y="492.68391"/>
     <use style="fill:#8c564b;stroke:#8c564b;" x="933.579669" xlink:href="#m7c4cdf3188" y="471.256309"/>
     <use style="fill:#8c564b;stroke:#8c564b;" x="865.12369" xlink:href="#m7c4cdf3188" y="432.06407"/>
     <use style="fill:#8c564b;stroke:#8c564b;" x="806.460753" xlink:href="#m7c4cdf3188" y="338.293018"/>
     <use style="fill:#8c564b;stroke:#8c564b;" x="753.263871" xlink:href="#m7c4cdf3188" y="301.968099"/>
     <use style="fill:#8c564b;stroke:#8c564b;" x="708.915238" xlink:href="#m7c4cdf3188" y="247.54362"/>
     <use style="fill:#8c564b;stroke:#8c564b;" x="666.519171" xlink:href="#m7c4cdf3188" y="246.924273"/>
     <use style="fill:#8c564b;stroke:#8c564b;" x="605.054226" xlink:href="#m7c4cdf3188" y="268.575374"/>
     <use style="fill:#8c564b;stroke:#8c564b;" x="465.316207" xlink:href="#m7c4cdf3188" y="301.39168"/>
    </g>
   </g>
   <g id="line2d_24">
    <path clip-path="url(#p960861b20c)" d="M 64.290625 489.796917 
L 1291.890625 489.796917 
" style="fill:none;stroke:#1a1a1a;stroke-dasharray:5.55,2.4;stroke-dashoffset:0;stroke-width:1.5;"/>
   </g>
   <g id="patch_3">
    <path d="M 64.290625 518.19125 
L 64.290625 74.67125 
" style="fill:none;stroke:#cccccc;stroke-linecap:square;stroke-linejoin:miter;stroke-width:0.8;"/>
   </g>
   <g id="patch_4">
    <path d="M 1291.890625 518.19125 
L 1291.890625 74.67125 
" style="fill:none;stroke:#cccccc;stroke-linecap:square;stroke-linejoin:miter;stroke-width:0.8;"/>
   </g>
   <g id="patch_5">
    <path d="M 64.290625 518.19125 
L 1291.890625 518.19125 
" style="fill:none;stroke:#cccccc;stroke-linecap:square;stroke-linejoin:miter;stroke-width:0.8;"/>
   </g>
   <g id="patch_6">
    <path d="M 64.290625 74.67125 
L 1291.890625 74.67125 
" style="fill:none;stroke:#cccccc;stroke-linecap:square;stroke-linejoin:miter;stroke-width:0.8;"/>
   </g>
   <g id="text_18">
    <!-- Callers' AUPRC performance w.r.t VAF -->
    <g style="fill:#262626;" transform="translate(472.620625 24.67125)scale(0.24 -0.24)">
     <defs>
      <path d="M 6.640625 46.234375 
L 4.390625 59.625 
L 4.390625 71.578125 
L 14.40625 71.578125 
L 14.40625 59.625 
L 12.0625 46.234375 
z
" id="ArialMT-39"/>
      <path d="M 6.59375 -19.875 
L 6.59375 51.859375 
L 14.59375 51.859375 
L 14.59375 45.125 
Q 17.4375 49.078125 21 51.046875 
Q 24.5625 53.03125 29.640625 53.03125 
Q 36.28125 53.03125 41.359375 49.609375 
Q 46.4375 46.1875 49.015625 39.953125 
Q 51.609375 33.734375 51.609375 26.3125 
Q 51.609375 18.359375 48.75 11.984375 
Q 45.90625 5.609375 40.453125 2.21875 
Q 35.015625 -1.171875 29 -1.171875 
Q 24.609375 -1.171875 21.109375 0.6875 
Q 17.625 2.546875 15.375 5.375 
L 15.375 -19.875 
z
M 14.546875 25.640625 
Q 14.546875 15.625 18.59375 10.84375 
Q 22.65625 6.0625 28.421875 6.0625 
Q 34.28125 6.0625 38.453125 11.015625 
Q 42.625 15.96875 42.625 26.375 
Q 42.625 36.28125 38.546875 41.203125 
Q 34.46875 46.140625 28.8125 46.140625 
Q 23.1875 46.140625 18.859375 40.890625 
Q 14.546875 35.640625 14.546875 25.640625 
z
" id="ArialMT-112"/>
      <path d="M 8.6875 0 
L 8.6875 45.015625 
L 0.921875 45.015625 
L 0.921875 51.859375 
L 8.6875 51.859375 
L 8.6875 57.375 
Q 8.6875 62.59375 9.625 65.140625 
Q 10.890625 68.5625 14.078125 70.671875 
Q 17.28125 72.796875 23.046875 72.796875 
Q 26.765625 72.796875 31.25 71.921875 
L 29.9375 64.265625 
Q 27.203125 64.75 24.75 64.75 
Q 20.75 64.75 19.09375 63.03125 
Q 17.4375 61.328125 17.4375 56.640625 
L 17.4375 51.859375 
L 27.546875 51.859375 
L 27.546875 45.015625 
L 17.4375 45.015625 
L 17.4375 0 
z
" id="ArialMT-102"/>
      <path d="M 6.59375 0 
L 6.59375 51.859375 
L 14.453125 51.859375 
L 14.453125 44.578125 
Q 16.890625 48.390625 20.9375 50.703125 
Q 25 53.03125 30.171875 53.03125 
Q 35.9375 53.03125 39.625 50.640625 
Q 43.3125 48.25 44.828125 43.953125 
Q 50.984375 53.03125 60.84375 53.03125 
Q 68.5625 53.03125 72.703125 48.75 
Q 76.859375 44.484375 76.859375 35.59375 
L 76.859375 0 
L 68.109375 0 
L 68.109375 32.671875 
Q 68.109375 37.9375 67.25 40.25 
Q 66.40625 42.578125 64.15625 43.984375 
Q 61.921875 45.40625 58.890625 45.40625 
Q 53.421875 45.40625 49.796875 41.765625 
Q 46.1875 38.140625 46.1875 30.125 
L 46.1875 0 
L 37.40625 0 
L 37.40625 33.6875 
Q 37.40625 39.546875 35.25 42.46875 
Q 33.109375 45.40625 28.21875 45.40625 
Q 24.515625 45.40625 21.359375 43.453125 
Q 18.21875 41.5 16.796875 37.734375 
Q 15.375 33.984375 15.375 26.90625 
L 15.375 0 
z
" id="ArialMT-109"/>
      <path d="M 16.15625 0 
L 0.296875 51.859375 
L 9.375 51.859375 
L 17.625 21.921875 
L 20.703125 10.796875 
Q 20.90625 11.625 23.390625 21.484375 
L 31.640625 51.859375 
L 40.671875 51.859375 
L 48.4375 21.78125 
L 51.03125 11.859375 
L 54 21.875 
L 62.890625 51.859375 
L 71.4375 51.859375 
L 55.21875 0 
L 46.09375 0 
L 37.84375 31.0625 
L 35.84375 39.890625 
L 25.34375 0 
z
" id="ArialMT-119"/>
     </defs>
     <use xlink:href="#ArialMT-67"/>
     <use x="72.216797" xlink:href="#ArialMT-97"/>
     <use x="127.832031" xlink:href="#ArialMT-108"/>
     <use x="150.048828" xlink:href="#ArialMT-108"/>
     <use x="172.265625" xlink:href="#ArialMT-101"/>
     <use x="227.880859" xlink:href="#ArialMT-114"/>
     <use x="261.181641" xlink:href="#ArialMT-115"/>
     <use x="311.181641" xlink:href="#ArialMT-39"/>
     <use x="330.273438" xlink:href="#ArialMT-32"/>
     <use x="352.556641" xlink:href="#ArialMT-65"/>
     <use x="419.255859" xlink:href="#ArialMT-85"/>
     <use x="491.472656" xlink:href="#ArialMT-80"/>
     <use x="558.171875" xlink:href="#ArialMT-82"/>
     <use x="630.388672" xlink:href="#ArialMT-67"/>
     <use x="702.605469" xlink:href="#ArialMT-32"/>
     <use x="730.388672" xlink:href="#ArialMT-112"/>
     <use x="786.003906" xlink:href="#ArialMT-101"/>
     <use x="841.619141" xlink:href="#ArialMT-114"/>
     <use x="874.919922" xlink:href="#ArialMT-102"/>
     <use x="902.703125" xlink:href="#ArialMT-111"/>
     <use x="958.318359" xlink:href="#ArialMT-114"/>
     <use x="991.619141" xlink:href="#ArialMT-109"/>
     <use x="1074.919922" xlink:href="#ArialMT-97"/>
     <use x="1130.535156" xlink:href="#ArialMT-110"/>
     <use x="1186.150391" xlink:href="#ArialMT-99"/>
     <use x="1236.150391" xlink:href="#ArialMT-101"/>
     <use x="1291.765625" xlink:href="#ArialMT-32"/>
     <use x="1319.548828" xlink:href="#ArialMT-119"/>
     <use x="1386.265625" xlink:href="#ArialMT-46"/>
     <use x="1414.048828" xlink:href="#ArialMT-114"/>
     <use x="1441.849609" xlink:href="#ArialMT-46"/>
     <use x="1469.632812" xlink:href="#ArialMT-116"/>
     <use x="1497.416016" xlink:href="#ArialMT-32"/>
     <use x="1525.199219" xlink:href="#ArialMT-86"/>
     <use x="1584.523438" xlink:href="#ArialMT-65"/>
     <use x="1651.222656" xlink:href="#ArialMT-70"/>
    </g>
   </g>
   <g id="legend_1">
    <g id="patch_7">
     <path d="M 1305.890625 345.765 
L 1518.85625 345.765 
Q 1522.85625 345.765 1522.85625 341.765 
L 1522.85625 88.67125 
Q 1522.85625 84.67125 1518.85625 84.67125 
L 1305.890625 84.67125 
Q 1301.890625 84.67125 1301.890625 88.67125 
L 1301.890625 341.765 
Q 1301.890625 345.765 1305.890625 345.765 
z
" style="fill:#ffffff;opacity:0.8;stroke:#cccccc;stroke-linejoin:miter;"/>
    </g>
    <g id="line2d_25">
     <path d="M 1309.890625 100.230625 
L 1349.890625 100.230625 
" style="fill:none;stroke:#1f77b4;stroke-linecap:round;stroke-width:1.5;"/>
    </g>
    <g id="line2d_26">
     <g>
      <use style="fill:#1f77b4;stroke:#1f77b4;" x="1329.890625" xlink:href="#m82ea0018af" y="100.230625"/>
     </g>
    </g>
    <g id="text_19">
     <!-- freebayes -->
     <g style="fill:#262626;" transform="translate(1365.890625 107.230625)scale(0.2 -0.2)">
      <defs>
       <path d="M 14.703125 0 
L 6.546875 0 
L 6.546875 71.578125 
L 15.328125 71.578125 
L 15.328125 46.046875 
Q 20.90625 53.03125 29.546875 53.03125 
Q 34.328125 53.03125 38.59375 51.09375 
Q 42.875 49.171875 45.625 45.671875 
Q 48.390625 42.1875 49.953125 37.25 
Q 51.515625 32.328125 51.515625 26.703125 
Q 51.515625 13.375 44.921875 6.09375 
Q 38.328125 -1.171875 29.109375 -1.171875 
Q 19.921875 -1.171875 14.703125 6.5 
z
M 14.59375 26.3125 
Q 14.59375 17 17.140625 12.84375 
Q 21.296875 6.0625 28.375 6.0625 
Q 34.125 6.0625 38.328125 11.0625 
Q 42.53125 16.0625 42.53125 25.984375 
Q 42.53125 36.140625 38.5 40.96875 
Q 34.46875 45.796875 28.765625 45.796875 
Q 23 45.796875 18.796875 40.796875 
Q 14.59375 35.796875 14.59375 26.3125 
z
" id="ArialMT-98"/>
      </defs>
      <use xlink:href="#ArialMT-102"/>
      <use x="27.783203" xlink:href="#ArialMT-114"/>
      <use x="61.083984" xlink:href="#ArialMT-101"/>
      <use x="116.699219" xlink:href="#ArialMT-101"/>
      <use x="172.314453" xlink:href="#ArialMT-98"/>
      <use x="227.929688" xlink:href="#ArialMT-97"/>
      <use x="283.544922" xlink:href="#ArialMT-121"/>
      <use x="333.544922" xlink:href="#ArialMT-101"/>
      <use x="389.160156" xlink:href="#ArialMT-115"/>
     </g>
    </g>
    <g id="line2d_27">
     <path d="M 1309.890625 128.755625 
L 1349.890625 128.755625 
" style="fill:none;stroke:#ff7f0e;stroke-linecap:round;stroke-width:1.5;"/>
    </g>
    <g id="line2d_28">
     <g>
      <use style="fill:#ff7f0e;stroke:#ff7f0e;" x="1329.890625" xlink:href="#md6a4722f5d" y="128.755625"/>
     </g>
    </g>
    <g id="text_20">
     <!-- mutect2 -->
     <g style="fill:#262626;" transform="translate(1365.890625 135.755625)scale(0.2 -0.2)">
      <use xlink:href="#ArialMT-109"/>
      <use x="83.300781" xlink:href="#ArialMT-117"/>
      <use x="138.916016" xlink:href="#ArialMT-116"/>
      <use x="166.699219" xlink:href="#ArialMT-101"/>
      <use x="222.314453" xlink:href="#ArialMT-99"/>
      <use x="272.314453" xlink:href="#ArialMT-116"/>
      <use x="300.097656" xlink:href="#ArialMT-50"/>
     </g>
    </g>
    <g id="line2d_29">
     <path d="M 1309.890625 157.04625 
L 1349.890625 157.04625 
" style="fill:none;stroke:#2ca02c;stroke-linecap:round;stroke-width:1.5;"/>
    </g>
    <g id="line2d_30">
     <g>
      <use style="fill:#2ca02c;stroke:#2ca02c;" x="1329.890625" xlink:href="#mb256fcef1b" y="157.04625"/>
     </g>
    </g>
    <g id="text_21">
     <!-- strelka2 -->
     <g style="fill:#262626;" transform="translate(1365.890625 164.04625)scale(0.2 -0.2)">
      <defs>
       <path d="M 6.640625 0 
L 6.640625 71.578125 
L 15.4375 71.578125 
L 15.4375 30.765625 
L 36.234375 51.859375 
L 47.609375 51.859375 
L 27.78125 32.625 
L 49.609375 0 
L 38.765625 0 
L 21.625 26.515625 
L 15.4375 20.5625 
L 15.4375 0 
z
" id="ArialMT-107"/>
      </defs>
      <use xlink:href="#ArialMT-115"/>
      <use x="50" xlink:href="#ArialMT-116"/>
      <use x="77.783203" xlink:href="#ArialMT-114"/>
      <use x="111.083984" xlink:href="#ArialMT-101"/>
      <use x="166.699219" xlink:href="#ArialMT-108"/>
      <use x="188.916016" xlink:href="#ArialMT-107"/>
      <use x="238.916016" xlink:href="#ArialMT-97"/>
      <use x="294.53125" xlink:href="#ArialMT-50"/>
     </g>
    </g>
    <g id="line2d_31">
     <path d="M 1309.890625 185.336875 
L 1349.890625 185.336875 
" style="fill:none;stroke:#d62728;stroke-linecap:round;stroke-width:1.5;"/>
    </g>
    <g id="line2d_32">
     <g>
      <use style="fill:#d62728;stroke:#d62728;" x="1329.890625" xlink:href="#m78a0a63f61" y="185.336875"/>
     </g>
    </g>
    <g id="text_22">
     <!-- vardict -->
     <g style="fill:#262626;" transform="translate(1365.890625 192.336875)scale(0.2 -0.2)">
      <defs>
       <path d="M 21 0 
L 1.265625 51.859375 
L 10.546875 51.859375 
L 21.6875 20.796875 
Q 23.484375 15.765625 25 10.359375 
Q 26.171875 14.453125 28.265625 20.21875 
L 39.796875 51.859375 
L 48.828125 51.859375 
L 29.203125 0 
z
" id="ArialMT-118"/>
       <path d="M 40.234375 0 
L 40.234375 6.546875 
Q 35.296875 -1.171875 25.734375 -1.171875 
Q 19.53125 -1.171875 14.328125 2.25 
Q 9.125 5.671875 6.265625 11.796875 
Q 3.421875 17.921875 3.421875 25.875 
Q 3.421875 33.640625 6 39.96875 
Q 8.59375 46.296875 13.765625 49.65625 
Q 18.953125 53.03125 25.34375 53.03125 
Q 30.03125 53.03125 33.6875 51.046875 
Q 37.359375 49.078125 39.65625 45.90625 
L 39.65625 71.578125 
L 48.390625 71.578125 
L 48.390625 0 
z
M 12.453125 25.875 
Q 12.453125 15.921875 16.640625 10.984375 
Q 20.84375 6.0625 26.5625 6.0625 
Q 32.328125 6.0625 36.34375 10.765625 
Q 40.375 15.484375 40.375 25.140625 
Q 40.375 35.796875 36.265625 40.765625 
Q 32.171875 45.75 26.171875 45.75 
Q 20.3125 45.75 16.375 40.96875 
Q 12.453125 36.1875 12.453125 25.875 
z
" id="ArialMT-100"/>
      </defs>
      <use xlink:href="#ArialMT-118"/>
      <use x="50" xlink:href="#ArialMT-97"/>
      <use x="105.615234" xlink:href="#ArialMT-114"/>
      <use x="138.916016" xlink:href="#ArialMT-100"/>
      <use x="194.53125" xlink:href="#ArialMT-105"/>
      <use x="216.748047" xlink:href="#ArialMT-99"/>
      <use x="266.748047" xlink:href="#ArialMT-116"/>
     </g>
    </g>
    <g id="line2d_33">
     <path d="M 1309.890625 213.6275 
L 1349.890625 213.6275 
" style="fill:none;stroke:#9467bd;stroke-linecap:round;stroke-width:1.5;"/>
    </g>
    <g id="line2d_34">
     <g>
      <use style="fill:#9467bd;stroke:#9467bd;" x="1329.890625" xlink:href="#m13c65e3365" y="213.6275"/>
     </g>
    </g>
    <g id="text_23">
     <!-- varscan -->
     <g style="fill:#262626;" transform="translate(1365.890625 220.6275)scale(0.2 -0.2)">
      <use xlink:href="#ArialMT-118"/>
      <use x="50" xlink:href="#ArialMT-97"/>
      <use x="105.615234" xlink:href="#ArialMT-114"/>
      <use x="138.916016" xlink:href="#ArialMT-115"/>
      <use x="188.916016" xlink:href="#ArialMT-99"/>
      <use x="238.916016" xlink:href="#ArialMT-97"/>
      <use x="294.53125" xlink:href="#ArialMT-110"/>
     </g>
    </g>
    <g id="line2d_35">
     <path d="M 1309.890625 241.918125 
L 1349.890625 241.918125 
" style="fill:none;stroke:#bcbd22;stroke-linecap:round;stroke-width:1.5;"/>
    </g>
    <g id="line2d_36">
     <g>
      <use style="fill:#bcbd22;stroke:#bcbd22;" x="1329.890625" xlink:href="#mbe4e465ab7" y="241.918125"/>
     </g>
    </g>
    <g id="text_24">
     <!-- smurf -->
     <g style="fill:#262626;" transform="translate(1365.890625 248.918125)scale(0.2 -0.2)">
      <use xlink:href="#ArialMT-115"/>
      <use x="50" xlink:href="#ArialMT-109"/>
      <use x="133.300781" xlink:href="#ArialMT-117"/>
      <use x="188.916016" xlink:href="#ArialMT-114"/>
      <use x="222.216797" xlink:href="#ArialMT-102"/>
     </g>
    </g>
    <g id="line2d_37">
     <path d="M 1309.890625 270.20875 
L 1349.890625 270.20875 
" style="fill:none;stroke:#17becf;stroke-linecap:round;stroke-width:1.5;"/>
    </g>
    <g id="line2d_38">
     <defs>
      <path d="M 0 5 
C 1.326016 5 2.597899 4.473168 3.535534 3.535534 
C 4.473168 2.597899 5 1.326016 5 0 
C 5 -1.326016 4.473168 -2.597899 3.535534 -3.535534 
C 2.597899 -4.473168 1.326016 -5 0 -5 
C -1.326016 -5 -2.597899 -4.473168 -3.535534 -3.535534 
C -4.473168 -2.597899 -5 -1.326016 -5 0 
C -5 1.326016 -4.473168 2.597899 -3.535534 3.535534 
C -2.597899 4.473168 -1.326016 5 0 5 
z
" id="mac9fe04e1f" style="stroke:#17becf;"/>
     </defs>
     <g>
      <use style="fill:#17becf;stroke:#17becf;" x="1329.890625" xlink:href="#mac9fe04e1f" y="270.20875"/>
     </g>
    </g>
    <g id="text_25">
     <!-- varnet -->
     <g style="fill:#262626;" transform="translate(1365.890625 277.20875)scale(0.2 -0.2)">
      <use xlink:href="#ArialMT-118"/>
      <use x="50" xlink:href="#ArialMT-97"/>
      <use x="105.615234" xlink:href="#ArialMT-114"/>
      <use x="138.916016" xlink:href="#ArialMT-110"/>
      <use x="194.53125" xlink:href="#ArialMT-101"/>
      <use x="250.146484" xlink:href="#ArialMT-116"/>
     </g>
    </g>
    <g id="line2d_39">
     <path d="M 1309.890625 298.499375 
L 1349.890625 298.499375 
" style="fill:none;stroke:#8c564b;stroke-linecap:round;stroke-width:1.5;"/>
    </g>
    <g id="line2d_40">
     <g>
      <use style="fill:#8c564b;stroke:#8c564b;" x="1329.890625" xlink:href="#m7c4cdf3188" y="298.499375"/>
     </g>
    </g>
    <g id="text_26">
     <!-- abemus -->
     <g style="fill:#262626;" transform="translate(1365.890625 305.499375)scale(0.2 -0.2)">
      <use xlink:href="#ArialMT-97"/>
      <use x="55.615234" xlink:href="#ArialMT-98"/>
      <use x="111.230469" xlink:href="#ArialMT-101"/>
      <use x="166.845703" xlink:href="#ArialMT-109"/>
      <use x="250.146484" xlink:href="#ArialMT-117"/>
      <use x="305.761719" xlink:href="#ArialMT-115"/>
     </g>
    </g>
    <g id="line2d_41">
     <path d="M 1309.890625 326.79 
L 1349.890625 326.79 
" style="fill:none;stroke:#1a1a1a;stroke-dasharray:5.55,2.4;stroke-dashoffset:0;stroke-width:1.5;"/>
    </g>
    <g id="line2d_42"/>
    <g id="text_27">
     <!-- baseline AUPRC -->
     <g style="fill:#262626;" transform="translate(1365.890625 333.79)scale(0.2 -0.2)">
      <use xlink:href="#ArialMT-98"/>
      <use x="55.615234" xlink:href="#ArialMT-97"/>
      <use x="111.230469" xlink:href="#ArialMT-115"/>
      <use x="161.230469" xlink:href="#ArialMT-101"/>
      <use x="216.845703" xlink:href="#ArialMT-108"/>
      <use x="239.0625" xlink:href="#ArialMT-105"/>
      <use x="261.279297" xlink:href="#ArialMT-110"/>
      <use x="316.894531" xlink:href="#ArialMT-101"/>
      <use x="372.509766" xlink:href="#ArialMT-32"/>
      <use x="394.792969" xlink:href="#ArialMT-65"/>
      <use x="461.492188" xlink:href="#ArialMT-85"/>
      <use x="533.708984" xlink:href="#ArialMT-80"/>
      <use x="600.408203" xlink:href="#ArialMT-82"/>
      <use x="672.625" xlink:href="#ArialMT-67"/>
     </g>
    </g>
   </g>
  </g>
 </g>
 <defs>
  <clipPath id="p960861b20c">
   <rect height="443.52" width="1227.6" x="64.290625" y="74.67125"/>
  </clipPath>
 </defs>
</svg>
