<?xml version="1.0" encoding="utf-8" standalone="no"?>
<!DOCTYPE svg PUBLIC "-//W3C//DTD SVG 1.1//EN"
  "http://www.w3.org/Graphics/SVG/1.1/DTD/svg11.dtd">
<!-- Created with matplotlib (https://matplotlib.org/) -->
<svg height="686.74875pt" version="1.1" viewBox="0 0 1112.2775 686.74875" width="1112.2775pt" xmlns="http://www.w3.org/2000/svg" xmlns:xlink="http://www.w3.org/1999/xlink">
 <metadata>
  <rdf:RDF xmlns:cc="http://creativecommons.org/ns#" xmlns:dc="http://purl.org/dc/elements/1.1/" xmlns:rdf="http://www.w3.org/1999/02/22-rdf-syntax-ns#">
   <cc:Work>
    <dc:type rdf:resource="http://purl.org/dc/dcmitype/StillImage"/>
    <dc:date>2023-02-03T13:59:58.999983</dc:date>
    <dc:format>image/svg+xml</dc:format>
    <dc:creator>
     <cc:Agent>
      <dc:title>Matplotlib v3.3.4, https://matplotlib.org/</dc:title>
     </cc:Agent>
    </dc:creator>
   </cc:Work>
  </rdf:RDF>
 </metadata>
 <defs>
  <style type="text/css">*{stroke-linecap:butt;stroke-linejoin:round;}</style>
 </defs>
 <g id="figure_1">
  <g id="patch_1">
   <path d="M 0 686.74875 
L 1112.2775 686.74875 
L 1112.2775 0 
L 0 0 
z
" style="fill:#ffffff;"/>
  </g>
  <g id="axes_1">
   <g id="patch_2">
    <path d="M 87.136875 629.83625 
L 924.136875 629.83625 
L 924.136875 75.43625 
L 87.136875 75.43625 
z
" style="fill:#ffffff;"/>
   </g>
   <g id="matplotlib.axis_1">
    <g id="xtick_1">
     <g id="line2d_1">
      <path clip-path="url(#pa00db330aa)" d="M 149.911875 629.83625 
L 149.911875 75.43625 
" style="fill:none;stroke:#b0b0b0;stroke-linecap:square;"/>
     </g>
     <g id="line2d_2">
      <defs>
       <path d="M 0 0 
L 0 3.5 
" id="m1063d9e6fe" style="stroke:#000000;stroke-width:0.8;"/>
      </defs>
      <g>
       <use style="stroke:#000000;stroke-width:0.8;" x="149.911875" xlink:href="#m1063d9e6fe" y="629.83625"/>
      </g>
     </g>
     <g id="text_1">
      <!-- 75 -->
      <g transform="translate(137.186875 652.033125)scale(0.2 -0.2)">
       <defs>
        <path d="M 8.203125 72.90625 
L 55.078125 72.90625 
L 55.078125 68.703125 
L 28.609375 0 
L 18.3125 0 
L 43.21875 64.59375 
L 8.203125 64.59375 
z
" id="DejaVuSans-55"/>
        <path d="M 10.796875 72.90625 
L 49.515625 72.90625 
L 49.515625 64.59375 
L 19.828125 64.59375 
L 19.828125 46.734375 
Q 21.96875 47.46875 24.109375 47.828125 
Q 26.265625 48.1875 28.421875 48.1875 
Q 40.625 48.1875 47.75 41.5 
Q 54.890625 34.8125 54.890625 23.390625 
Q 54.890625 11.625 47.5625 5.09375 
Q 40.234375 -1.421875 26.90625 -1.421875 
Q 22.3125 -1.421875 17.546875 -0.640625 
Q 12.796875 0.140625 7.71875 1.703125 
L 7.71875 11.625 
Q 12.109375 9.234375 16.796875 8.0625 
Q 21.484375 6.890625 26.703125 6.890625 
Q 35.15625 6.890625 40.078125 11.328125 
Q 45.015625 15.765625 45.015625 23.390625 
Q 45.015625 31 40.078125 35.4375 
Q 35.15625 39.890625 26.703125 39.890625 
Q 22.75 39.890625 18.8125 39.015625 
Q 14.890625 38.140625 10.796875 36.28125 
z
" id="DejaVuSans-53"/>
       </defs>
       <use xlink:href="#DejaVuSans-55"/>
       <use x="63.623047" xlink:href="#DejaVuSans-53"/>
      </g>
     </g>
    </g>
    <g id="xtick_2">
     <g id="line2d_3">
      <path clip-path="url(#pa00db330aa)" d="M 254.536875 629.83625 
L 254.536875 75.43625 
" style="fill:none;stroke:#b0b0b0;stroke-linecap:square;"/>
     </g>
     <g id="line2d_4">
      <g>
       <use style="stroke:#000000;stroke-width:0.8;" x="254.536875" xlink:href="#m1063d9e6fe" y="629.83625"/>
      </g>
     </g>
     <g id="text_2">
      <!-- 100 -->
      <g transform="translate(235.449375 652.033125)scale(0.2 -0.2)">
       <defs>
        <path d="M 12.40625 8.296875 
L 28.515625 8.296875 
L 28.515625 63.921875 
L 10.984375 60.40625 
L 10.984375 69.390625 
L 28.421875 72.90625 
L 38.28125 72.90625 
L 38.28125 8.296875 
L 54.390625 8.296875 
L 54.390625 0 
L 12.40625 0 
z
" id="DejaVuSans-49"/>
        <path d="M 31.78125 66.40625 
Q 24.171875 66.40625 20.328125 58.90625 
Q 16.5 51.421875 16.5 36.375 
Q 16.5 21.390625 20.328125 13.890625 
Q 24.171875 6.390625 31.78125 6.390625 
Q 39.453125 6.390625 43.28125 13.890625 
Q 47.125 21.390625 47.125 36.375 
Q 47.125 51.421875 43.28125 58.90625 
Q 39.453125 66.40625 31.78125 66.40625 
z
M 31.78125 74.21875 
Q 44.046875 74.21875 50.515625 64.515625 
Q 56.984375 54.828125 56.984375 36.375 
Q 56.984375 17.96875 50.515625 8.265625 
Q 44.046875 -1.421875 31.78125 -1.421875 
Q 19.53125 -1.421875 13.0625 8.265625 
Q 6.59375 17.96875 6.59375 36.375 
Q 6.59375 54.828125 13.0625 64.515625 
Q 19.53125 74.21875 31.78125 74.21875 
z
" id="DejaVuSans-48"/>
       </defs>
       <use xlink:href="#DejaVuSans-49"/>
       <use x="63.623047" xlink:href="#DejaVuSans-48"/>
       <use x="127.246094" xlink:href="#DejaVuSans-48"/>
      </g>
     </g>
    </g>
    <g id="xtick_3">
     <g id="line2d_5">
      <path clip-path="url(#pa00db330aa)" d="M 359.161875 629.83625 
L 359.161875 75.43625 
" style="fill:none;stroke:#b0b0b0;stroke-linecap:square;"/>
     </g>
     <g id="line2d_6">
      <g>
       <use style="stroke:#000000;stroke-width:0.8;" x="359.161875" xlink:href="#m1063d9e6fe" y="629.83625"/>
      </g>
     </g>
     <g id="text_3">
      <!-- 125 -->
      <g transform="translate(340.074375 652.033125)scale(0.2 -0.2)">
       <defs>
        <path d="M 19.1875 8.296875 
L 53.609375 8.296875 
L 53.609375 0 
L 7.328125 0 
L 7.328125 8.296875 
Q 12.9375 14.109375 22.625 23.890625 
Q 32.328125 33.6875 34.8125 36.53125 
Q 39.546875 41.84375 41.421875 45.53125 
Q 43.3125 49.21875 43.3125 52.78125 
Q 43.3125 58.59375 39.234375 62.25 
Q 35.15625 65.921875 28.609375 65.921875 
Q 23.96875 65.921875 18.8125 64.3125 
Q 13.671875 62.703125 7.8125 59.421875 
L 7.8125 69.390625 
Q 13.765625 71.78125 18.9375 73 
Q 24.125 74.21875 28.421875 74.21875 
Q 39.75 74.21875 46.484375 68.546875 
Q 53.21875 62.890625 53.21875 53.421875 
Q 53.21875 48.921875 51.53125 44.890625 
Q 49.859375 40.875 45.40625 35.40625 
Q 44.1875 33.984375 37.640625 27.21875 
Q 31.109375 20.453125 19.1875 8.296875 
z
" id="DejaVuSans-50"/>
       </defs>
       <use xlink:href="#DejaVuSans-49"/>
       <use x="63.623047" xlink:href="#DejaVuSans-50"/>
       <use x="127.246094" xlink:href="#DejaVuSans-53"/>
      </g>
     </g>
    </g>
    <g id="xtick_4">
     <g id="line2d_7">
      <path clip-path="url(#pa00db330aa)" d="M 463.786875 629.83625 
L 463.786875 75.43625 
" style="fill:none;stroke:#b0b0b0;stroke-linecap:square;"/>
     </g>
     <g id="line2d_8">
      <g>
       <use style="stroke:#000000;stroke-width:0.8;" x="463.786875" xlink:href="#m1063d9e6fe" y="629.83625"/>
      </g>
     </g>
     <g id="text_4">
      <!-- 150 -->
      <g transform="translate(444.699375 652.033125)scale(0.2 -0.2)">
       <use xlink:href="#DejaVuSans-49"/>
       <use x="63.623047" xlink:href="#DejaVuSans-53"/>
       <use x="127.246094" xlink:href="#DejaVuSans-48"/>
      </g>
     </g>
    </g>
    <g id="xtick_5">
     <g id="line2d_9">
      <path clip-path="url(#pa00db330aa)" d="M 568.411875 629.83625 
L 568.411875 75.43625 
" style="fill:none;stroke:#b0b0b0;stroke-linecap:square;"/>
     </g>
     <g id="line2d_10">
      <g>
       <use style="stroke:#000000;stroke-width:0.8;" x="568.411875" xlink:href="#m1063d9e6fe" y="629.83625"/>
      </g>
     </g>
     <g id="text_5">
      <!-- 175 -->
      <g transform="translate(549.324375 652.033125)scale(0.2 -0.2)">
       <use xlink:href="#DejaVuSans-49"/>
       <use x="63.623047" xlink:href="#DejaVuSans-55"/>
       <use x="127.246094" xlink:href="#DejaVuSans-53"/>
      </g>
     </g>
    </g>
    <g id="xtick_6">
     <g id="line2d_11">
      <path clip-path="url(#pa00db330aa)" d="M 673.036875 629.83625 
L 673.036875 75.43625 
" style="fill:none;stroke:#b0b0b0;stroke-linecap:square;"/>
     </g>
     <g id="line2d_12">
      <g>
       <use style="stroke:#000000;stroke-width:0.8;" x="673.036875" xlink:href="#m1063d9e6fe" y="629.83625"/>
      </g>
     </g>
     <g id="text_6">
      <!-- 200 -->
      <g transform="translate(653.949375 652.033125)scale(0.2 -0.2)">
       <use xlink:href="#DejaVuSans-50"/>
       <use x="63.623047" xlink:href="#DejaVuSans-48"/>
       <use x="127.246094" xlink:href="#DejaVuSans-48"/>
      </g>
     </g>
    </g>
    <g id="xtick_7">
     <g id="line2d_13">
      <path clip-path="url(#pa00db330aa)" d="M 777.661875 629.83625 
L 777.661875 75.43625 
" style="fill:none;stroke:#b0b0b0;stroke-linecap:square;"/>
     </g>
     <g id="line2d_14">
      <g>
       <use style="stroke:#000000;stroke-width:0.8;" x="777.661875" xlink:href="#m1063d9e6fe" y="629.83625"/>
      </g>
     </g>
     <g id="text_7">
      <!-- 225 -->
      <g transform="translate(758.574375 652.033125)scale(0.2 -0.2)">
       <use xlink:href="#DejaVuSans-50"/>
       <use x="63.623047" xlink:href="#DejaVuSans-50"/>
       <use x="127.246094" xlink:href="#DejaVuSans-53"/>
      </g>
     </g>
    </g>
    <g id="xtick_8">
     <g id="line2d_15">
      <path clip-path="url(#pa00db330aa)" d="M 882.286875 629.83625 
L 882.286875 75.43625 
" style="fill:none;stroke:#b0b0b0;stroke-linecap:square;"/>
     </g>
     <g id="line2d_16">
      <g>
       <use style="stroke:#000000;stroke-width:0.8;" x="882.286875" xlink:href="#m1063d9e6fe" y="629.83625"/>
      </g>
     </g>
     <g id="text_8">
      <!-- 250 -->
      <g transform="translate(863.199375 652.033125)scale(0.2 -0.2)">
       <use xlink:href="#DejaVuSans-50"/>
       <use x="63.623047" xlink:href="#DejaVuSans-53"/>
       <use x="127.246094" xlink:href="#DejaVuSans-48"/>
      </g>
     </g>
    </g>
    <g id="text_9">
     <!-- effective coverage (x) increased by added noise -->
     <g transform="translate(264.118125 675.389375)scale(0.2 -0.2)">
      <defs>
       <path d="M 56.203125 29.59375 
L 56.203125 25.203125 
L 14.890625 25.203125 
Q 15.484375 15.921875 20.484375 11.0625 
Q 25.484375 6.203125 34.421875 6.203125 
Q 39.59375 6.203125 44.453125 7.46875 
Q 49.3125 8.734375 54.109375 11.28125 
L 54.109375 2.78125 
Q 49.265625 0.734375 44.1875 -0.34375 
Q 39.109375 -1.421875 33.890625 -1.421875 
Q 20.796875 -1.421875 13.15625 6.1875 
Q 5.515625 13.8125 5.515625 26.8125 
Q 5.515625 40.234375 12.765625 48.109375 
Q 20.015625 56 32.328125 56 
Q 43.359375 56 49.78125 48.890625 
Q 56.203125 41.796875 56.203125 29.59375 
z
M 47.21875 32.234375 
Q 47.125 39.59375 43.09375 43.984375 
Q 39.0625 48.390625 32.421875 48.390625 
Q 24.90625 48.390625 20.390625 44.140625 
Q 15.875 39.890625 15.1875 32.171875 
z
" id="DejaVuSans-101"/>
       <path d="M 37.109375 75.984375 
L 37.109375 68.5 
L 28.515625 68.5 
Q 23.6875 68.5 21.796875 66.546875 
Q 19.921875 64.59375 19.921875 59.515625 
L 19.921875 54.6875 
L 34.71875 54.6875 
L 34.71875 47.703125 
L 19.921875 47.703125 
L 19.921875 0 
L 10.890625 0 
L 10.890625 47.703125 
L 2.296875 47.703125 
L 2.296875 54.6875 
L 10.890625 54.6875 
L 10.890625 58.5 
Q 10.890625 67.625 15.140625 71.796875 
Q 19.390625 75.984375 28.609375 75.984375 
z
" id="DejaVuSans-102"/>
       <path d="M 48.78125 52.59375 
L 48.78125 44.1875 
Q 44.96875 46.296875 41.140625 47.34375 
Q 37.3125 48.390625 33.40625 48.390625 
Q 24.65625 48.390625 19.8125 42.84375 
Q 14.984375 37.3125 14.984375 27.296875 
Q 14.984375 17.28125 19.8125 11.734375 
Q 24.65625 6.203125 33.40625 6.203125 
Q 37.3125 6.203125 41.140625 7.25 
Q 44.96875 8.296875 48.78125 10.40625 
L 48.78125 2.09375 
Q 45.015625 0.34375 40.984375 -0.53125 
Q 36.96875 -1.421875 32.421875 -1.421875 
Q 20.0625 -1.421875 12.78125 6.34375 
Q 5.515625 14.109375 5.515625 27.296875 
Q 5.515625 40.671875 12.859375 48.328125 
Q 20.21875 56 33.015625 56 
Q 37.15625 56 41.109375 55.140625 
Q 45.0625 54.296875 48.78125 52.59375 
z
" id="DejaVuSans-99"/>
       <path d="M 18.3125 70.21875 
L 18.3125 54.6875 
L 36.8125 54.6875 
L 36.8125 47.703125 
L 18.3125 47.703125 
L 18.3125 18.015625 
Q 18.3125 11.328125 20.140625 9.421875 
Q 21.96875 7.515625 27.59375 7.515625 
L 36.8125 7.515625 
L 36.8125 0 
L 27.59375 0 
Q 17.1875 0 13.234375 3.875 
Q 9.28125 7.765625 9.28125 18.015625 
L 9.28125 47.703125 
L 2.6875 47.703125 
L 2.6875 54.6875 
L 9.28125 54.6875 
L 9.28125 70.21875 
z
" id="DejaVuSans-116"/>
       <path d="M 9.421875 54.6875 
L 18.40625 54.6875 
L 18.40625 0 
L 9.421875 0 
z
M 9.421875 75.984375 
L 18.40625 75.984375 
L 18.40625 64.59375 
L 9.421875 64.59375 
z
" id="DejaVuSans-105"/>
       <path d="M 2.984375 54.6875 
L 12.5 54.6875 
L 29.59375 8.796875 
L 46.6875 54.6875 
L 56.203125 54.6875 
L 35.6875 0 
L 23.484375 0 
z
" id="DejaVuSans-118"/>
       <path id="DejaVuSans-32"/>
       <path d="M 30.609375 48.390625 
Q 23.390625 48.390625 19.1875 42.75 
Q 14.984375 37.109375 14.984375 27.296875 
Q 14.984375 17.484375 19.15625 11.84375 
Q 23.34375 6.203125 30.609375 6.203125 
Q 37.796875 6.203125 41.984375 11.859375 
Q 46.1875 17.53125 46.1875 27.296875 
Q 46.1875 37.015625 41.984375 42.703125 
Q 37.796875 48.390625 30.609375 48.390625 
z
M 30.609375 56 
Q 42.328125 56 49.015625 48.375 
Q 55.71875 40.765625 55.71875 27.296875 
Q 55.71875 13.875 49.015625 6.21875 
Q 42.328125 -1.421875 30.609375 -1.421875 
Q 18.84375 -1.421875 12.171875 6.21875 
Q 5.515625 13.875 5.515625 27.296875 
Q 5.515625 40.765625 12.171875 48.375 
Q 18.84375 56 30.609375 56 
z
" id="DejaVuSans-111"/>
       <path d="M 41.109375 46.296875 
Q 39.59375 47.171875 37.8125 47.578125 
Q 36.03125 48 33.890625 48 
Q 26.265625 48 22.1875 43.046875 
Q 18.109375 38.09375 18.109375 28.8125 
L 18.109375 0 
L 9.078125 0 
L 9.078125 54.6875 
L 18.109375 54.6875 
L 18.109375 46.1875 
Q 20.953125 51.171875 25.484375 53.578125 
Q 30.03125 56 36.53125 56 
Q 37.453125 56 38.578125 55.875 
Q 39.703125 55.765625 41.0625 55.515625 
z
" id="DejaVuSans-114"/>
       <path d="M 34.28125 27.484375 
Q 23.390625 27.484375 19.1875 25 
Q 14.984375 22.515625 14.984375 16.5 
Q 14.984375 11.71875 18.140625 8.90625 
Q 21.296875 6.109375 26.703125 6.109375 
Q 34.1875 6.109375 38.703125 11.40625 
Q 43.21875 16.703125 43.21875 25.484375 
L 43.21875 27.484375 
z
M 52.203125 31.203125 
L 52.203125 0 
L 43.21875 0 
L 43.21875 8.296875 
Q 40.140625 3.328125 35.546875 0.953125 
Q 30.953125 -1.421875 24.3125 -1.421875 
Q 15.921875 -1.421875 10.953125 3.296875 
Q 6 8.015625 6 15.921875 
Q 6 25.140625 12.171875 29.828125 
Q 18.359375 34.515625 30.609375 34.515625 
L 43.21875 34.515625 
L 43.21875 35.40625 
Q 43.21875 41.609375 39.140625 45 
Q 35.0625 48.390625 27.6875 48.390625 
Q 23 48.390625 18.546875 47.265625 
Q 14.109375 46.140625 10.015625 43.890625 
L 10.015625 52.203125 
Q 14.9375 54.109375 19.578125 55.046875 
Q 24.21875 56 28.609375 56 
Q 40.484375 56 46.34375 49.84375 
Q 52.203125 43.703125 52.203125 31.203125 
z
" id="DejaVuSans-97"/>
       <path d="M 45.40625 27.984375 
Q 45.40625 37.75 41.375 43.109375 
Q 37.359375 48.484375 30.078125 48.484375 
Q 22.859375 48.484375 18.828125 43.109375 
Q 14.796875 37.75 14.796875 27.984375 
Q 14.796875 18.265625 18.828125 12.890625 
Q 22.859375 7.515625 30.078125 7.515625 
Q 37.359375 7.515625 41.375 12.890625 
Q 45.40625 18.265625 45.40625 27.984375 
z
M 54.390625 6.78125 
Q 54.390625 -7.171875 48.1875 -13.984375 
Q 42 -20.796875 29.203125 -20.796875 
Q 24.46875 -20.796875 20.265625 -20.09375 
Q 16.0625 -19.390625 12.109375 -17.921875 
L 12.109375 -9.1875 
Q 16.0625 -11.328125 19.921875 -12.34375 
Q 23.78125 -13.375 27.78125 -13.375 
Q 36.625 -13.375 41.015625 -8.765625 
Q 45.40625 -4.15625 45.40625 5.171875 
L 45.40625 9.625 
Q 42.625 4.78125 38.28125 2.390625 
Q 33.9375 0 27.875 0 
Q 17.828125 0 11.671875 7.65625 
Q 5.515625 15.328125 5.515625 27.984375 
Q 5.515625 40.671875 11.671875 48.328125 
Q 17.828125 56 27.875 56 
Q 33.9375 56 38.28125 53.609375 
Q 42.625 51.21875 45.40625 46.390625 
L 45.40625 54.6875 
L 54.390625 54.6875 
z
" id="DejaVuSans-103"/>
       <path d="M 31 75.875 
Q 24.46875 64.65625 21.28125 53.65625 
Q 18.109375 42.671875 18.109375 31.390625 
Q 18.109375 20.125 21.3125 9.0625 
Q 24.515625 -2 31 -13.1875 
L 23.1875 -13.1875 
Q 15.875 -1.703125 12.234375 9.375 
Q 8.59375 20.453125 8.59375 31.390625 
Q 8.59375 42.28125 12.203125 53.3125 
Q 15.828125 64.359375 23.1875 75.875 
z
" id="DejaVuSans-40"/>
       <path d="M 54.890625 54.6875 
L 35.109375 28.078125 
L 55.90625 0 
L 45.3125 0 
L 29.390625 21.484375 
L 13.484375 0 
L 2.875 0 
L 24.125 28.609375 
L 4.6875 54.6875 
L 15.28125 54.6875 
L 29.78125 35.203125 
L 44.28125 54.6875 
z
" id="DejaVuSans-120"/>
       <path d="M 8.015625 75.875 
L 15.828125 75.875 
Q 23.140625 64.359375 26.78125 53.3125 
Q 30.421875 42.28125 30.421875 31.390625 
Q 30.421875 20.453125 26.78125 9.375 
Q 23.140625 -1.703125 15.828125 -13.1875 
L 8.015625 -13.1875 
Q 14.5 -2 17.703125 9.0625 
Q 20.90625 20.125 20.90625 31.390625 
Q 20.90625 42.671875 17.703125 53.65625 
Q 14.5 64.65625 8.015625 75.875 
z
" id="DejaVuSans-41"/>
       <path d="M 54.890625 33.015625 
L 54.890625 0 
L 45.90625 0 
L 45.90625 32.71875 
Q 45.90625 40.484375 42.875 44.328125 
Q 39.84375 48.1875 33.796875 48.1875 
Q 26.515625 48.1875 22.3125 43.546875 
Q 18.109375 38.921875 18.109375 30.90625 
L 18.109375 0 
L 9.078125 0 
L 9.078125 54.6875 
L 18.109375 54.6875 
L 18.109375 46.1875 
Q 21.34375 51.125 25.703125 53.5625 
Q 30.078125 56 35.796875 56 
Q 45.21875 56 50.046875 50.171875 
Q 54.890625 44.34375 54.890625 33.015625 
z
" id="DejaVuSans-110"/>
       <path d="M 44.28125 53.078125 
L 44.28125 44.578125 
Q 40.484375 46.53125 36.375 47.5 
Q 32.28125 48.484375 27.875 48.484375 
Q 21.1875 48.484375 17.84375 46.4375 
Q 14.5 44.390625 14.5 40.28125 
Q 14.5 37.15625 16.890625 35.375 
Q 19.28125 33.59375 26.515625 31.984375 
L 29.59375 31.296875 
Q 39.15625 29.25 43.1875 25.515625 
Q 47.21875 21.78125 47.21875 15.09375 
Q 47.21875 7.46875 41.1875 3.015625 
Q 35.15625 -1.421875 24.609375 -1.421875 
Q 20.21875 -1.421875 15.453125 -0.5625 
Q 10.6875 0.296875 5.421875 2 
L 5.421875 11.28125 
Q 10.40625 8.6875 15.234375 7.390625 
Q 20.0625 6.109375 24.8125 6.109375 
Q 31.15625 6.109375 34.5625 8.28125 
Q 37.984375 10.453125 37.984375 14.40625 
Q 37.984375 18.0625 35.515625 20.015625 
Q 33.0625 21.96875 24.703125 23.78125 
L 21.578125 24.515625 
Q 13.234375 26.265625 9.515625 29.90625 
Q 5.8125 33.546875 5.8125 39.890625 
Q 5.8125 47.609375 11.28125 51.796875 
Q 16.75 56 26.8125 56 
Q 31.78125 56 36.171875 55.265625 
Q 40.578125 54.546875 44.28125 53.078125 
z
" id="DejaVuSans-115"/>
       <path d="M 45.40625 46.390625 
L 45.40625 75.984375 
L 54.390625 75.984375 
L 54.390625 0 
L 45.40625 0 
L 45.40625 8.203125 
Q 42.578125 3.328125 38.25 0.953125 
Q 33.9375 -1.421875 27.875 -1.421875 
Q 17.96875 -1.421875 11.734375 6.484375 
Q 5.515625 14.40625 5.515625 27.296875 
Q 5.515625 40.1875 11.734375 48.09375 
Q 17.96875 56 27.875 56 
Q 33.9375 56 38.25 53.625 
Q 42.578125 51.265625 45.40625 46.390625 
z
M 14.796875 27.296875 
Q 14.796875 17.390625 18.875 11.75 
Q 22.953125 6.109375 30.078125 6.109375 
Q 37.203125 6.109375 41.296875 11.75 
Q 45.40625 17.390625 45.40625 27.296875 
Q 45.40625 37.203125 41.296875 42.84375 
Q 37.203125 48.484375 30.078125 48.484375 
Q 22.953125 48.484375 18.875 42.84375 
Q 14.796875 37.203125 14.796875 27.296875 
z
" id="DejaVuSans-100"/>
       <path d="M 48.6875 27.296875 
Q 48.6875 37.203125 44.609375 42.84375 
Q 40.53125 48.484375 33.40625 48.484375 
Q 26.265625 48.484375 22.1875 42.84375 
Q 18.109375 37.203125 18.109375 27.296875 
Q 18.109375 17.390625 22.1875 11.75 
Q 26.265625 6.109375 33.40625 6.109375 
Q 40.53125 6.109375 44.609375 11.75 
Q 48.6875 17.390625 48.6875 27.296875 
z
M 18.109375 46.390625 
Q 20.953125 51.265625 25.265625 53.625 
Q 29.59375 56 35.59375 56 
Q 45.5625 56 51.78125 48.09375 
Q 58.015625 40.1875 58.015625 27.296875 
Q 58.015625 14.40625 51.78125 6.484375 
Q 45.5625 -1.421875 35.59375 -1.421875 
Q 29.59375 -1.421875 25.265625 0.953125 
Q 20.953125 3.328125 18.109375 8.203125 
L 18.109375 0 
L 9.078125 0 
L 9.078125 75.984375 
L 18.109375 75.984375 
z
" id="DejaVuSans-98"/>
       <path d="M 32.171875 -5.078125 
Q 28.375 -14.84375 24.75 -17.8125 
Q 21.140625 -20.796875 15.09375 -20.796875 
L 7.90625 -20.796875 
L 7.90625 -13.28125 
L 13.1875 -13.28125 
Q 16.890625 -13.28125 18.9375 -11.515625 
Q 21 -9.765625 23.484375 -3.21875 
L 25.09375 0.875 
L 2.984375 54.6875 
L 12.5 54.6875 
L 29.59375 11.921875 
L 46.6875 54.6875 
L 56.203125 54.6875 
z
" id="DejaVuSans-121"/>
      </defs>
      <use xlink:href="#DejaVuSans-101"/>
      <use x="61.523438" xlink:href="#DejaVuSans-102"/>
      <use x="96.728516" xlink:href="#DejaVuSans-102"/>
      <use x="131.933594" xlink:href="#DejaVuSans-101"/>
      <use x="193.457031" xlink:href="#DejaVuSans-99"/>
      <use x="248.4375" xlink:href="#DejaVuSans-116"/>
      <use x="287.646484" xlink:href="#DejaVuSans-105"/>
      <use x="315.429688" xlink:href="#DejaVuSans-118"/>
      <use x="374.609375" xlink:href="#DejaVuSans-101"/>
      <use x="436.132812" xlink:href="#DejaVuSans-32"/>
      <use x="467.919922" xlink:href="#DejaVuSans-99"/>
      <use x="522.900391" xlink:href="#DejaVuSans-111"/>
      <use x="584.082031" xlink:href="#DejaVuSans-118"/>
      <use x="643.261719" xlink:href="#DejaVuSans-101"/>
      <use x="704.785156" xlink:href="#DejaVuSans-114"/>
      <use x="745.898438" xlink:href="#DejaVuSans-97"/>
      <use x="807.177734" xlink:href="#DejaVuSans-103"/>
      <use x="870.654297" xlink:href="#DejaVuSans-101"/>
      <use x="932.177734" xlink:href="#DejaVuSans-32"/>
      <use x="963.964844" xlink:href="#DejaVuSans-40"/>
      <use x="1002.978516" xlink:href="#DejaVuSans-120"/>
      <use x="1062.158203" xlink:href="#DejaVuSans-41"/>
      <use x="1101.171875" xlink:href="#DejaVuSans-32"/>
      <use x="1132.958984" xlink:href="#DejaVuSans-105"/>
      <use x="1160.742188" xlink:href="#DejaVuSans-110"/>
      <use x="1224.121094" xlink:href="#DejaVuSans-99"/>
      <use x="1279.101562" xlink:href="#DejaVuSans-114"/>
      <use x="1317.964844" xlink:href="#DejaVuSans-101"/>
      <use x="1379.488281" xlink:href="#DejaVuSans-97"/>
      <use x="1440.767578" xlink:href="#DejaVuSans-115"/>
      <use x="1492.867188" xlink:href="#DejaVuSans-101"/>
      <use x="1554.390625" xlink:href="#DejaVuSans-100"/>
      <use x="1617.867188" xlink:href="#DejaVuSans-32"/>
      <use x="1649.654297" xlink:href="#DejaVuSans-98"/>
      <use x="1713.130859" xlink:href="#DejaVuSans-121"/>
      <use x="1772.310547" xlink:href="#DejaVuSans-32"/>
      <use x="1804.097656" xlink:href="#DejaVuSans-97"/>
      <use x="1865.376953" xlink:href="#DejaVuSans-100"/>
      <use x="1928.853516" xlink:href="#DejaVuSans-100"/>
      <use x="1992.330078" xlink:href="#DejaVuSans-101"/>
      <use x="2053.853516" xlink:href="#DejaVuSans-100"/>
      <use x="2117.330078" xlink:href="#DejaVuSans-32"/>
      <use x="2149.117188" xlink:href="#DejaVuSans-110"/>
      <use x="2212.496094" xlink:href="#DejaVuSans-111"/>
      <use x="2273.677734" xlink:href="#DejaVuSans-105"/>
      <use x="2301.460938" xlink:href="#DejaVuSans-115"/>
      <use x="2353.560547" xlink:href="#DejaVuSans-101"/>
     </g>
    </g>
   </g>
   <g id="matplotlib.axis_2">
    <g id="ytick_1">
     <g id="line2d_17">
      <path clip-path="url(#pa00db330aa)" d="M 87.136875 618.775376 
L 924.136875 618.775376 
" style="fill:none;stroke:#b0b0b0;stroke-linecap:square;"/>
     </g>
     <g id="line2d_18">
      <defs>
       <path d="M 0 0 
L -3.5 0 
" id="m42464f70bf" style="stroke:#000000;stroke-width:0.8;"/>
      </defs>
      <g>
       <use style="stroke:#000000;stroke-width:0.8;" x="87.136875" xlink:href="#m42464f70bf" y="618.775376"/>
      </g>
     </g>
     <g id="text_10">
      <!-- 0.0 -->
      <g transform="translate(48.330625 626.373813)scale(0.2 -0.2)">
       <defs>
        <path d="M 10.6875 12.40625 
L 21 12.40625 
L 21 0 
L 10.6875 0 
z
" id="DejaVuSans-46"/>
       </defs>
       <use xlink:href="#DejaVuSans-48"/>
       <use x="63.623047" xlink:href="#DejaVuSans-46"/>
       <use x="95.410156" xlink:href="#DejaVuSans-48"/>
      </g>
     </g>
    </g>
    <g id="ytick_2">
     <g id="line2d_19">
      <path clip-path="url(#pa00db330aa)" d="M 87.136875 535.660465 
L 924.136875 535.660465 
" style="fill:none;stroke:#b0b0b0;stroke-linecap:square;"/>
     </g>
     <g id="line2d_20">
      <g>
       <use style="stroke:#000000;stroke-width:0.8;" x="87.136875" xlink:href="#m42464f70bf" y="535.660465"/>
      </g>
     </g>
     <g id="text_11">
      <!-- 0.1 -->
      <g transform="translate(48.330625 543.258902)scale(0.2 -0.2)">
       <use xlink:href="#DejaVuSans-48"/>
       <use x="63.623047" xlink:href="#DejaVuSans-46"/>
       <use x="95.410156" xlink:href="#DejaVuSans-49"/>
      </g>
     </g>
    </g>
    <g id="ytick_3">
     <g id="line2d_21">
      <path clip-path="url(#pa00db330aa)" d="M 87.136875 452.545554 
L 924.136875 452.545554 
" style="fill:none;stroke:#b0b0b0;stroke-linecap:square;"/>
     </g>
     <g id="line2d_22">
      <g>
       <use style="stroke:#000000;stroke-width:0.8;" x="87.136875" xlink:href="#m42464f70bf" y="452.545554"/>
      </g>
     </g>
     <g id="text_12">
      <!-- 0.2 -->
      <g transform="translate(48.330625 460.143991)scale(0.2 -0.2)">
       <use xlink:href="#DejaVuSans-48"/>
       <use x="63.623047" xlink:href="#DejaVuSans-46"/>
       <use x="95.410156" xlink:href="#DejaVuSans-50"/>
      </g>
     </g>
    </g>
    <g id="ytick_4">
     <g id="line2d_23">
      <path clip-path="url(#pa00db330aa)" d="M 87.136875 369.430643 
L 924.136875 369.430643 
" style="fill:none;stroke:#b0b0b0;stroke-linecap:square;"/>
     </g>
     <g id="line2d_24">
      <g>
       <use style="stroke:#000000;stroke-width:0.8;" x="87.136875" xlink:href="#m42464f70bf" y="369.430643"/>
      </g>
     </g>
     <g id="text_13">
      <!-- 0.3 -->
      <g transform="translate(48.330625 377.029081)scale(0.2 -0.2)">
       <defs>
        <path d="M 40.578125 39.3125 
Q 47.65625 37.796875 51.625 33 
Q 55.609375 28.21875 55.609375 21.1875 
Q 55.609375 10.40625 48.1875 4.484375 
Q 40.765625 -1.421875 27.09375 -1.421875 
Q 22.515625 -1.421875 17.65625 -0.515625 
Q 12.796875 0.390625 7.625 2.203125 
L 7.625 11.71875 
Q 11.71875 9.328125 16.59375 8.109375 
Q 21.484375 6.890625 26.8125 6.890625 
Q 36.078125 6.890625 40.9375 10.546875 
Q 45.796875 14.203125 45.796875 21.1875 
Q 45.796875 27.640625 41.28125 31.265625 
Q 36.765625 34.90625 28.71875 34.90625 
L 20.21875 34.90625 
L 20.21875 43.015625 
L 29.109375 43.015625 
Q 36.375 43.015625 40.234375 45.921875 
Q 44.09375 48.828125 44.09375 54.296875 
Q 44.09375 59.90625 40.109375 62.90625 
Q 36.140625 65.921875 28.71875 65.921875 
Q 24.65625 65.921875 20.015625 65.03125 
Q 15.375 64.15625 9.8125 62.3125 
L 9.8125 71.09375 
Q 15.4375 72.65625 20.34375 73.4375 
Q 25.25 74.21875 29.59375 74.21875 
Q 40.828125 74.21875 47.359375 69.109375 
Q 53.90625 64.015625 53.90625 55.328125 
Q 53.90625 49.265625 50.4375 45.09375 
Q 46.96875 40.921875 40.578125 39.3125 
z
" id="DejaVuSans-51"/>
       </defs>
       <use xlink:href="#DejaVuSans-48"/>
       <use x="63.623047" xlink:href="#DejaVuSans-46"/>
       <use x="95.410156" xlink:href="#DejaVuSans-51"/>
      </g>
     </g>
    </g>
    <g id="ytick_5">
     <g id="line2d_25">
      <path clip-path="url(#pa00db330aa)" d="M 87.136875 286.315732 
L 924.136875 286.315732 
" style="fill:none;stroke:#b0b0b0;stroke-linecap:square;"/>
     </g>
     <g id="line2d_26">
      <g>
       <use style="stroke:#000000;stroke-width:0.8;" x="87.136875" xlink:href="#m42464f70bf" y="286.315732"/>
      </g>
     </g>
     <g id="text_14">
      <!-- 0.4 -->
      <g transform="translate(48.330625 293.91417)scale(0.2 -0.2)">
       <defs>
        <path d="M 37.796875 64.3125 
L 12.890625 25.390625 
L 37.796875 25.390625 
z
M 35.203125 72.90625 
L 47.609375 72.90625 
L 47.609375 25.390625 
L 58.015625 25.390625 
L 58.015625 17.1875 
L 47.609375 17.1875 
L 47.609375 0 
L 37.796875 0 
L 37.796875 17.1875 
L 4.890625 17.1875 
L 4.890625 26.703125 
z
" id="DejaVuSans-52"/>
       </defs>
       <use xlink:href="#DejaVuSans-48"/>
       <use x="63.623047" xlink:href="#DejaVuSans-46"/>
       <use x="95.410156" xlink:href="#DejaVuSans-52"/>
      </g>
     </g>
    </g>
    <g id="ytick_6">
     <g id="line2d_27">
      <path clip-path="url(#pa00db330aa)" d="M 87.136875 203.200821 
L 924.136875 203.200821 
" style="fill:none;stroke:#b0b0b0;stroke-linecap:square;"/>
     </g>
     <g id="line2d_28">
      <g>
       <use style="stroke:#000000;stroke-width:0.8;" x="87.136875" xlink:href="#m42464f70bf" y="203.200821"/>
      </g>
     </g>
     <g id="text_15">
      <!-- 0.5 -->
      <g transform="translate(48.330625 210.799259)scale(0.2 -0.2)">
       <use xlink:href="#DejaVuSans-48"/>
       <use x="63.623047" xlink:href="#DejaVuSans-46"/>
       <use x="95.410156" xlink:href="#DejaVuSans-53"/>
      </g>
     </g>
    </g>
    <g id="ytick_7">
     <g id="line2d_29">
      <path clip-path="url(#pa00db330aa)" d="M 87.136875 120.085911 
L 924.136875 120.085911 
" style="fill:none;stroke:#b0b0b0;stroke-linecap:square;"/>
     </g>
     <g id="line2d_30">
      <g>
       <use style="stroke:#000000;stroke-width:0.8;" x="87.136875" xlink:href="#m42464f70bf" y="120.085911"/>
      </g>
     </g>
     <g id="text_16">
      <!-- 0.6 -->
      <g transform="translate(48.330625 127.684348)scale(0.2 -0.2)">
       <defs>
        <path d="M 33.015625 40.375 
Q 26.375 40.375 22.484375 35.828125 
Q 18.609375 31.296875 18.609375 23.390625 
Q 18.609375 15.53125 22.484375 10.953125 
Q 26.375 6.390625 33.015625 6.390625 
Q 39.65625 6.390625 43.53125 10.953125 
Q 47.40625 15.53125 47.40625 23.390625 
Q 47.40625 31.296875 43.53125 35.828125 
Q 39.65625 40.375 33.015625 40.375 
z
M 52.59375 71.296875 
L 52.59375 62.3125 
Q 48.875 64.0625 45.09375 64.984375 
Q 41.3125 65.921875 37.59375 65.921875 
Q 27.828125 65.921875 22.671875 59.328125 
Q 17.53125 52.734375 16.796875 39.40625 
Q 19.671875 43.65625 24.015625 45.921875 
Q 28.375 48.1875 33.59375 48.1875 
Q 44.578125 48.1875 50.953125 41.515625 
Q 57.328125 34.859375 57.328125 23.390625 
Q 57.328125 12.15625 50.6875 5.359375 
Q 44.046875 -1.421875 33.015625 -1.421875 
Q 20.359375 -1.421875 13.671875 8.265625 
Q 6.984375 17.96875 6.984375 36.375 
Q 6.984375 53.65625 15.1875 63.9375 
Q 23.390625 74.21875 37.203125 74.21875 
Q 40.921875 74.21875 44.703125 73.484375 
Q 48.484375 72.75 52.59375 71.296875 
z
" id="DejaVuSans-54"/>
       </defs>
       <use xlink:href="#DejaVuSans-48"/>
       <use x="63.623047" xlink:href="#DejaVuSans-46"/>
       <use x="95.410156" xlink:href="#DejaVuSans-54"/>
      </g>
     </g>
    </g>
    <g id="text_17">
     <!-- AUPRC score -->
     <g transform="translate(40.17125 416.300313)rotate(-90)scale(0.2 -0.2)">
      <defs>
       <path d="M 34.1875 63.1875 
L 20.796875 26.90625 
L 47.609375 26.90625 
z
M 28.609375 72.90625 
L 39.796875 72.90625 
L 67.578125 0 
L 57.328125 0 
L 50.6875 18.703125 
L 17.828125 18.703125 
L 11.1875 0 
L 0.78125 0 
z
" id="DejaVuSans-65"/>
       <path d="M 8.6875 72.90625 
L 18.609375 72.90625 
L 18.609375 28.609375 
Q 18.609375 16.890625 22.84375 11.734375 
Q 27.09375 6.59375 36.625 6.59375 
Q 46.09375 6.59375 50.34375 11.734375 
Q 54.59375 16.890625 54.59375 28.609375 
L 54.59375 72.90625 
L 64.5 72.90625 
L 64.5 27.390625 
Q 64.5 13.140625 57.4375 5.859375 
Q 50.390625 -1.421875 36.625 -1.421875 
Q 22.796875 -1.421875 15.734375 5.859375 
Q 8.6875 13.140625 8.6875 27.390625 
z
" id="DejaVuSans-85"/>
       <path d="M 19.671875 64.796875 
L 19.671875 37.40625 
L 32.078125 37.40625 
Q 38.96875 37.40625 42.71875 40.96875 
Q 46.484375 44.53125 46.484375 51.125 
Q 46.484375 57.671875 42.71875 61.234375 
Q 38.96875 64.796875 32.078125 64.796875 
z
M 9.8125 72.90625 
L 32.078125 72.90625 
Q 44.34375 72.90625 50.609375 67.359375 
Q 56.890625 61.8125 56.890625 51.125 
Q 56.890625 40.328125 50.609375 34.8125 
Q 44.34375 29.296875 32.078125 29.296875 
L 19.671875 29.296875 
L 19.671875 0 
L 9.8125 0 
z
" id="DejaVuSans-80"/>
       <path d="M 44.390625 34.1875 
Q 47.5625 33.109375 50.5625 29.59375 
Q 53.5625 26.078125 56.59375 19.921875 
L 66.609375 0 
L 56 0 
L 46.6875 18.703125 
Q 43.0625 26.03125 39.671875 28.421875 
Q 36.28125 30.8125 30.421875 30.8125 
L 19.671875 30.8125 
L 19.671875 0 
L 9.8125 0 
L 9.8125 72.90625 
L 32.078125 72.90625 
Q 44.578125 72.90625 50.734375 67.671875 
Q 56.890625 62.453125 56.890625 51.90625 
Q 56.890625 45.015625 53.6875 40.46875 
Q 50.484375 35.9375 44.390625 34.1875 
z
M 19.671875 64.796875 
L 19.671875 38.921875 
L 32.078125 38.921875 
Q 39.203125 38.921875 42.84375 42.21875 
Q 46.484375 45.515625 46.484375 51.90625 
Q 46.484375 58.296875 42.84375 61.546875 
Q 39.203125 64.796875 32.078125 64.796875 
z
" id="DejaVuSans-82"/>
       <path d="M 64.40625 67.28125 
L 64.40625 56.890625 
Q 59.421875 61.53125 53.78125 63.8125 
Q 48.140625 66.109375 41.796875 66.109375 
Q 29.296875 66.109375 22.65625 58.46875 
Q 16.015625 50.828125 16.015625 36.375 
Q 16.015625 21.96875 22.65625 14.328125 
Q 29.296875 6.6875 41.796875 6.6875 
Q 48.140625 6.6875 53.78125 8.984375 
Q 59.421875 11.28125 64.40625 15.921875 
L 64.40625 5.609375 
Q 59.234375 2.09375 53.4375 0.328125 
Q 47.65625 -1.421875 41.21875 -1.421875 
Q 24.65625 -1.421875 15.125 8.703125 
Q 5.609375 18.84375 5.609375 36.375 
Q 5.609375 53.953125 15.125 64.078125 
Q 24.65625 74.21875 41.21875 74.21875 
Q 47.75 74.21875 53.53125 72.484375 
Q 59.328125 70.75 64.40625 67.28125 
z
" id="DejaVuSans-67"/>
      </defs>
      <use xlink:href="#DejaVuSans-65"/>
      <use x="68.408203" xlink:href="#DejaVuSans-85"/>
      <use x="141.601562" xlink:href="#DejaVuSans-80"/>
      <use x="201.904297" xlink:href="#DejaVuSans-82"/>
      <use x="266.386719" xlink:href="#DejaVuSans-67"/>
      <use x="336.210938" xlink:href="#DejaVuSans-32"/>
      <use x="367.998047" xlink:href="#DejaVuSans-115"/>
      <use x="420.097656" xlink:href="#DejaVuSans-99"/>
      <use x="475.078125" xlink:href="#DejaVuSans-111"/>
      <use x="536.259766" xlink:href="#DejaVuSans-114"/>
      <use x="575.123047" xlink:href="#DejaVuSans-101"/>
     </g>
    </g>
   </g>
   <g id="LineCollection_1">
    <path clip-path="url(#pa00db330aa)" d="M 125.619047 597.922136 
L 129.564703 597.922136 
" style="fill:none;stroke:#1f77b4;stroke-width:2;"/>
    <path clip-path="url(#pa00db330aa)" d="M 459.601875 597.922136 
L 459.601875 597.922136 
" style="fill:none;stroke:#1f77b4;stroke-width:2;"/>
    <path clip-path="url(#pa00db330aa)" d="M 741.67658 597.922136 
L 891.76717 597.922136 
" style="fill:none;stroke:#1f77b4;stroke-width:2;"/>
   </g>
   <g id="LineCollection_2">
    <path clip-path="url(#pa00db330aa)" d="M 127.591875 603.112833 
L 127.591875 592.731439 
" style="fill:none;stroke:#1f77b4;stroke-width:2;"/>
    <path clip-path="url(#pa00db330aa)" d="M 459.601875 603.112833 
L 459.601875 592.731439 
" style="fill:none;stroke:#1f77b4;stroke-width:2;"/>
    <path clip-path="url(#pa00db330aa)" d="M 816.721875 603.112833 
L 816.721875 592.731439 
" style="fill:none;stroke:#1f77b4;stroke-width:2;"/>
   </g>
   <g id="LineCollection_3">
    <path clip-path="url(#pa00db330aa)" d="M 125.619047 536.256337 
L 129.564703 536.256337 
" style="fill:none;stroke:#ff7f0e;stroke-width:2;"/>
    <path clip-path="url(#pa00db330aa)" d="M 459.601875 564.657369 
L 459.601875 564.657369 
" style="fill:none;stroke:#ff7f0e;stroke-width:2;"/>
    <path clip-path="url(#pa00db330aa)" d="M 741.67658 580.840293 
L 891.76717 580.840293 
" style="fill:none;stroke:#ff7f0e;stroke-width:2;"/>
   </g>
   <g id="LineCollection_4">
    <path clip-path="url(#pa00db330aa)" d="M 127.591875 569.745767 
L 127.591875 502.766907 
" style="fill:none;stroke:#ff7f0e;stroke-width:2;"/>
    <path clip-path="url(#pa00db330aa)" d="M 459.601875 584.10117 
L 459.601875 545.213567 
" style="fill:none;stroke:#ff7f0e;stroke-width:2;"/>
    <path clip-path="url(#pa00db330aa)" d="M 816.721875 587.544808 
L 816.721875 574.135777 
" style="fill:none;stroke:#ff7f0e;stroke-width:2;"/>
   </g>
   <g id="LineCollection_5">
    <path clip-path="url(#pa00db330aa)" d="M 125.619047 554.790533 
L 129.564703 554.790533 
" style="fill:none;stroke:#2ca02c;stroke-width:2;"/>
    <path clip-path="url(#pa00db330aa)" d="M 459.601875 589.976542 
L 459.601875 589.976542 
" style="fill:none;stroke:#2ca02c;stroke-width:2;"/>
    <path clip-path="url(#pa00db330aa)" d="M 741.67658 594.151893 
L 891.76717 594.151893 
" style="fill:none;stroke:#2ca02c;stroke-width:2;"/>
   </g>
   <g id="LineCollection_6">
    <path clip-path="url(#pa00db330aa)" d="M 127.591875 556.314456 
L 127.591875 553.26661 
" style="fill:none;stroke:#2ca02c;stroke-width:2;"/>
    <path clip-path="url(#pa00db330aa)" d="M 459.601875 598.583788 
L 459.601875 581.369296 
" style="fill:none;stroke:#2ca02c;stroke-width:2;"/>
    <path clip-path="url(#pa00db330aa)" d="M 816.721875 604.63625 
L 816.721875 583.667537 
" style="fill:none;stroke:#2ca02c;stroke-width:2;"/>
   </g>
   <g id="LineCollection_7">
    <path clip-path="url(#pa00db330aa)" d="M 125.619047 344.616846 
L 129.564703 344.616846 
" style="fill:none;stroke:#d62728;stroke-width:2;"/>
    <path clip-path="url(#pa00db330aa)" d="M 459.601875 456.157292 
L 459.601875 456.157292 
" style="fill:none;stroke:#d62728;stroke-width:2;"/>
    <path clip-path="url(#pa00db330aa)" d="M 741.67658 506.460032 
L 891.76717 506.460032 
" style="fill:none;stroke:#d62728;stroke-width:2;"/>
   </g>
   <g id="LineCollection_8">
    <path clip-path="url(#pa00db330aa)" d="M 127.591875 422.31788 
L 127.591875 266.915813 
" style="fill:none;stroke:#d62728;stroke-width:2;"/>
    <path clip-path="url(#pa00db330aa)" d="M 459.601875 519.292969 
L 459.601875 393.021616 
" style="fill:none;stroke:#d62728;stroke-width:2;"/>
    <path clip-path="url(#pa00db330aa)" d="M 816.721875 578.476779 
L 816.721875 434.443286 
" style="fill:none;stroke:#d62728;stroke-width:2;"/>
   </g>
   <g id="LineCollection_9">
    <path clip-path="url(#pa00db330aa)" d="M 125.619047 217.796572 
L 129.564703 217.796572 
" style="fill:none;stroke:#9467bd;stroke-width:2;"/>
    <path clip-path="url(#pa00db330aa)" d="M 459.601875 412.227013 
L 459.601875 412.227013 
" style="fill:none;stroke:#9467bd;stroke-width:2;"/>
    <path clip-path="url(#pa00db330aa)" d="M 741.67658 493.914579 
L 891.76717 493.914579 
" style="fill:none;stroke:#9467bd;stroke-width:2;"/>
   </g>
   <g id="LineCollection_10">
    <path clip-path="url(#pa00db330aa)" d="M 127.591875 334.956894 
L 127.591875 100.63625 
" style="fill:none;stroke:#9467bd;stroke-width:2;"/>
    <path clip-path="url(#pa00db330aa)" d="M 459.601875 452.57227 
L 459.601875 371.881756 
" style="fill:none;stroke:#9467bd;stroke-width:2;"/>
    <path clip-path="url(#pa00db330aa)" d="M 816.721875 554.553615 
L 816.721875 433.275543 
" style="fill:none;stroke:#9467bd;stroke-width:2;"/>
   </g>
   <g id="LineCollection_11">
    <path clip-path="url(#pa00db330aa)" d="M 125.619047 298.692311 
L 129.564703 298.692311 
" style="fill:none;stroke:#bcbd22;stroke-width:2;"/>
    <path clip-path="url(#pa00db330aa)" d="M 459.601875 453.428958 
L 459.601875 453.428958 
" style="fill:none;stroke:#bcbd22;stroke-width:2;"/>
    <path clip-path="url(#pa00db330aa)" d="M 741.67658 491.279194 
L 891.76717 491.279194 
" style="fill:none;stroke:#bcbd22;stroke-width:2;"/>
   </g>
   <g id="LineCollection_12">
    <path clip-path="url(#pa00db330aa)" d="M 127.591875 389.069995 
L 127.591875 208.314627 
" style="fill:none;stroke:#bcbd22;stroke-width:2;"/>
    <path clip-path="url(#pa00db330aa)" d="M 459.601875 485.422862 
L 459.601875 421.435053 
" style="fill:none;stroke:#bcbd22;stroke-width:2;"/>
    <path clip-path="url(#pa00db330aa)" d="M 816.721875 523.998368 
L 816.721875 458.56002 
" style="fill:none;stroke:#bcbd22;stroke-width:2;"/>
   </g>
   <g id="line2d_31">
    <path clip-path="url(#pa00db330aa)" d="M 127.591875 597.922136 
L 459.601875 597.922136 
L 816.721875 597.922136 
" style="fill:none;stroke:#1f77b4;stroke-linecap:square;stroke-width:2;"/>
    <defs>
     <path d="M -7.5 7.5 
L 7.5 7.5 
L 7.5 -7.5 
L -7.5 -7.5 
z
" id="me34b184e3f" style="stroke:#1f77b4;stroke-linejoin:miter;"/>
    </defs>
    <g clip-path="url(#pa00db330aa)">
     <use style="fill:#1f77b4;stroke:#1f77b4;stroke-linejoin:miter;" x="127.591875" xlink:href="#me34b184e3f" y="597.922136"/>
     <use style="fill:#1f77b4;stroke:#1f77b4;stroke-linejoin:miter;" x="459.601875" xlink:href="#me34b184e3f" y="597.922136"/>
     <use style="fill:#1f77b4;stroke:#1f77b4;stroke-linejoin:miter;" x="816.721875" xlink:href="#me34b184e3f" y="597.922136"/>
    </g>
   </g>
   <g id="line2d_32">
    <path clip-path="url(#pa00db330aa)" d="M 127.591875 536.256337 
L 459.601875 564.657369 
L 816.721875 580.840293 
" style="fill:none;stroke:#ff7f0e;stroke-linecap:square;stroke-width:2;"/>
    <defs>
     <path d="M -7.5 7.5 
L 7.5 7.5 
L 7.5 -7.5 
L -7.5 -7.5 
z
" id="m7650930a8a" style="stroke:#ff7f0e;stroke-linejoin:miter;"/>
    </defs>
    <g clip-path="url(#pa00db330aa)">
     <use style="fill:#ff7f0e;stroke:#ff7f0e;stroke-linejoin:miter;" x="127.591875" xlink:href="#m7650930a8a" y="536.256337"/>
     <use style="fill:#ff7f0e;stroke:#ff7f0e;stroke-linejoin:miter;" x="459.601875" xlink:href="#m7650930a8a" y="564.657369"/>
     <use style="fill:#ff7f0e;stroke:#ff7f0e;stroke-linejoin:miter;" x="816.721875" xlink:href="#m7650930a8a" y="580.840293"/>
    </g>
   </g>
   <g id="line2d_33">
    <path clip-path="url(#pa00db330aa)" d="M 127.591875 554.790533 
L 459.601875 589.976542 
L 816.721875 594.151893 
" style="fill:none;stroke:#2ca02c;stroke-linecap:square;stroke-width:2;"/>
    <defs>
     <path d="M -7.5 7.5 
L 7.5 7.5 
L 7.5 -7.5 
L -7.5 -7.5 
z
" id="m2858c18d13" style="stroke:#2ca02c;stroke-linejoin:miter;"/>
    </defs>
    <g clip-path="url(#pa00db330aa)">
     <use style="fill:#2ca02c;stroke:#2ca02c;stroke-linejoin:miter;" x="127.591875" xlink:href="#m2858c18d13" y="554.790533"/>
     <use style="fill:#2ca02c;stroke:#2ca02c;stroke-linejoin:miter;" x="459.601875" xlink:href="#m2858c18d13" y="589.976542"/>
     <use style="fill:#2ca02c;stroke:#2ca02c;stroke-linejoin:miter;" x="816.721875" xlink:href="#m2858c18d13" y="594.151893"/>
    </g>
   </g>
   <g id="line2d_34">
    <path clip-path="url(#pa00db330aa)" d="M 127.591875 344.616846 
L 459.601875 456.157292 
L 816.721875 506.460032 
" style="fill:none;stroke:#d62728;stroke-linecap:square;stroke-width:2;"/>
    <defs>
     <path d="M -7.5 7.5 
L 7.5 7.5 
L 7.5 -7.5 
L -7.5 -7.5 
z
" id="mabc47f8361" style="stroke:#d62728;stroke-linejoin:miter;"/>
    </defs>
    <g clip-path="url(#pa00db330aa)">
     <use style="fill:#d62728;stroke:#d62728;stroke-linejoin:miter;" x="127.591875" xlink:href="#mabc47f8361" y="344.616846"/>
     <use style="fill:#d62728;stroke:#d62728;stroke-linejoin:miter;" x="459.601875" xlink:href="#mabc47f8361" y="456.157292"/>
     <use style="fill:#d62728;stroke:#d62728;stroke-linejoin:miter;" x="816.721875" xlink:href="#mabc47f8361" y="506.460032"/>
    </g>
   </g>
   <g id="line2d_35">
    <path clip-path="url(#pa00db330aa)" d="M 127.591875 217.796572 
L 459.601875 412.227013 
L 816.721875 493.914579 
" style="fill:none;stroke:#9467bd;stroke-linecap:square;stroke-width:2;"/>
    <defs>
     <path d="M -7.5 7.5 
L 7.5 7.5 
L 7.5 -7.5 
L -7.5 -7.5 
z
" id="mb72553fd78" style="stroke:#9467bd;stroke-linejoin:miter;"/>
    </defs>
    <g clip-path="url(#pa00db330aa)">
     <use style="fill:#9467bd;stroke:#9467bd;stroke-linejoin:miter;" x="127.591875" xlink:href="#mb72553fd78" y="217.796572"/>
     <use style="fill:#9467bd;stroke:#9467bd;stroke-linejoin:miter;" x="459.601875" xlink:href="#mb72553fd78" y="412.227013"/>
     <use style="fill:#9467bd;stroke:#9467bd;stroke-linejoin:miter;" x="816.721875" xlink:href="#mb72553fd78" y="493.914579"/>
    </g>
   </g>
   <g id="line2d_36">
    <path clip-path="url(#pa00db330aa)" d="M 127.591875 298.692311 
L 459.601875 453.428958 
L 816.721875 491.279194 
" style="fill:none;stroke:#bcbd22;stroke-linecap:square;stroke-width:2;"/>
    <defs>
     <path d="M -7.5 7.5 
L 7.5 7.5 
L 7.5 -7.5 
L -7.5 -7.5 
z
" id="m7e8e44b26d" style="stroke:#bcbd22;stroke-linejoin:miter;"/>
    </defs>
    <g clip-path="url(#pa00db330aa)">
     <use style="fill:#bcbd22;stroke:#bcbd22;stroke-linejoin:miter;" x="127.591875" xlink:href="#m7e8e44b26d" y="298.692311"/>
     <use style="fill:#bcbd22;stroke:#bcbd22;stroke-linejoin:miter;" x="459.601875" xlink:href="#m7e8e44b26d" y="453.428958"/>
     <use style="fill:#bcbd22;stroke:#bcbd22;stroke-linejoin:miter;" x="816.721875" xlink:href="#m7e8e44b26d" y="491.279194"/>
    </g>
   </g>
   <g id="patch_3">
    <path d="M 87.136875 629.83625 
L 87.136875 75.43625 
" style="fill:none;stroke:#000000;stroke-linecap:square;stroke-linejoin:miter;stroke-width:0.8;"/>
   </g>
   <g id="patch_4">
    <path d="M 924.136875 629.83625 
L 924.136875 75.43625 
" style="fill:none;stroke:#000000;stroke-linecap:square;stroke-linejoin:miter;stroke-width:0.8;"/>
   </g>
   <g id="patch_5">
    <path d="M 87.136875 629.83625 
L 924.136875 629.83625 
" style="fill:none;stroke:#000000;stroke-linecap:square;stroke-linejoin:miter;stroke-width:0.8;"/>
   </g>
   <g id="patch_6">
    <path d="M 87.136875 75.43625 
L 924.136875 75.43625 
" style="fill:none;stroke:#000000;stroke-linecap:square;stroke-linejoin:miter;stroke-width:0.8;"/>
   </g>
   <g id="text_18">
    <!-- AUPRC score for INDEL calling in chrall with ref inundilutedsamplebyatleast2callers -->
    <g transform="translate(7.2 25.43625)scale(0.24 -0.24)">
     <defs>
      <path d="M 9.8125 72.90625 
L 19.671875 72.90625 
L 19.671875 0 
L 9.8125 0 
z
" id="DejaVuSans-73"/>
      <path d="M 9.8125 72.90625 
L 23.09375 72.90625 
L 55.421875 11.921875 
L 55.421875 72.90625 
L 64.984375 72.90625 
L 64.984375 0 
L 51.703125 0 
L 19.390625 60.984375 
L 19.390625 0 
L 9.8125 0 
z
" id="DejaVuSans-78"/>
      <path d="M 19.671875 64.796875 
L 19.671875 8.109375 
L 31.59375 8.109375 
Q 46.6875 8.109375 53.6875 14.9375 
Q 60.6875 21.78125 60.6875 36.53125 
Q 60.6875 51.171875 53.6875 57.984375 
Q 46.6875 64.796875 31.59375 64.796875 
z
M 9.8125 72.90625 
L 30.078125 72.90625 
Q 51.265625 72.90625 61.171875 64.09375 
Q 71.09375 55.28125 71.09375 36.53125 
Q 71.09375 17.671875 61.125 8.828125 
Q 51.171875 0 30.078125 0 
L 9.8125 0 
z
" id="DejaVuSans-68"/>
      <path d="M 9.8125 72.90625 
L 55.90625 72.90625 
L 55.90625 64.59375 
L 19.671875 64.59375 
L 19.671875 43.015625 
L 54.390625 43.015625 
L 54.390625 34.71875 
L 19.671875 34.71875 
L 19.671875 8.296875 
L 56.78125 8.296875 
L 56.78125 0 
L 9.8125 0 
z
" id="DejaVuSans-69"/>
      <path d="M 9.8125 72.90625 
L 19.671875 72.90625 
L 19.671875 8.296875 
L 55.171875 8.296875 
L 55.171875 0 
L 9.8125 0 
z
" id="DejaVuSans-76"/>
      <path d="M 9.421875 75.984375 
L 18.40625 75.984375 
L 18.40625 0 
L 9.421875 0 
z
" id="DejaVuSans-108"/>
      <path d="M 54.890625 33.015625 
L 54.890625 0 
L 45.90625 0 
L 45.90625 32.71875 
Q 45.90625 40.484375 42.875 44.328125 
Q 39.84375 48.1875 33.796875 48.1875 
Q 26.515625 48.1875 22.3125 43.546875 
Q 18.109375 38.921875 18.109375 30.90625 
L 18.109375 0 
L 9.078125 0 
L 9.078125 75.984375 
L 18.109375 75.984375 
L 18.109375 46.1875 
Q 21.34375 51.125 25.703125 53.5625 
Q 30.078125 56 35.796875 56 
Q 45.21875 56 50.046875 50.171875 
Q 54.890625 44.34375 54.890625 33.015625 
z
" id="DejaVuSans-104"/>
      <path d="M 4.203125 54.6875 
L 13.1875 54.6875 
L 24.421875 12.015625 
L 35.59375 54.6875 
L 46.1875 54.6875 
L 57.421875 12.015625 
L 68.609375 54.6875 
L 77.59375 54.6875 
L 63.28125 0 
L 52.6875 0 
L 40.921875 44.828125 
L 29.109375 0 
L 18.5 0 
z
" id="DejaVuSans-119"/>
      <path d="M 8.5 21.578125 
L 8.5 54.6875 
L 17.484375 54.6875 
L 17.484375 21.921875 
Q 17.484375 14.15625 20.5 10.265625 
Q 23.53125 6.390625 29.59375 6.390625 
Q 36.859375 6.390625 41.078125 11.03125 
Q 45.3125 15.671875 45.3125 23.6875 
L 45.3125 54.6875 
L 54.296875 54.6875 
L 54.296875 0 
L 45.3125 0 
L 45.3125 8.40625 
Q 42.046875 3.421875 37.71875 1 
Q 33.40625 -1.421875 27.6875 -1.421875 
Q 18.265625 -1.421875 13.375 4.4375 
Q 8.5 10.296875 8.5 21.578125 
z
M 31.109375 56 
z
" id="DejaVuSans-117"/>
      <path d="M 52 44.1875 
Q 55.375 50.25 60.0625 53.125 
Q 64.75 56 71.09375 56 
Q 79.640625 56 84.28125 50.015625 
Q 88.921875 44.046875 88.921875 33.015625 
L 88.921875 0 
L 79.890625 0 
L 79.890625 32.71875 
Q 79.890625 40.578125 77.09375 44.375 
Q 74.3125 48.1875 68.609375 48.1875 
Q 61.625 48.1875 57.5625 43.546875 
Q 53.515625 38.921875 53.515625 30.90625 
L 53.515625 0 
L 44.484375 0 
L 44.484375 32.71875 
Q 44.484375 40.625 41.703125 44.40625 
Q 38.921875 48.1875 33.109375 48.1875 
Q 26.21875 48.1875 22.15625 43.53125 
Q 18.109375 38.875 18.109375 30.90625 
L 18.109375 0 
L 9.078125 0 
L 9.078125 54.6875 
L 18.109375 54.6875 
L 18.109375 46.1875 
Q 21.1875 51.21875 25.484375 53.609375 
Q 29.78125 56 35.6875 56 
Q 41.65625 56 45.828125 52.96875 
Q 50 49.953125 52 44.1875 
z
" id="DejaVuSans-109"/>
      <path d="M 18.109375 8.203125 
L 18.109375 -20.796875 
L 9.078125 -20.796875 
L 9.078125 54.6875 
L 18.109375 54.6875 
L 18.109375 46.390625 
Q 20.953125 51.265625 25.265625 53.625 
Q 29.59375 56 35.59375 56 
Q 45.5625 56 51.78125 48.09375 
Q 58.015625 40.1875 58.015625 27.296875 
Q 58.015625 14.40625 51.78125 6.484375 
Q 45.5625 -1.421875 35.59375 -1.421875 
Q 29.59375 -1.421875 25.265625 0.953125 
Q 20.953125 3.328125 18.109375 8.203125 
z
M 48.6875 27.296875 
Q 48.6875 37.203125 44.609375 42.84375 
Q 40.53125 48.484375 33.40625 48.484375 
Q 26.265625 48.484375 22.1875 42.84375 
Q 18.109375 37.203125 18.109375 27.296875 
Q 18.109375 17.390625 22.1875 11.75 
Q 26.265625 6.109375 33.40625 6.109375 
Q 40.53125 6.109375 44.609375 11.75 
Q 48.6875 17.390625 48.6875 27.296875 
z
" id="DejaVuSans-112"/>
     </defs>
     <use xlink:href="#DejaVuSans-65"/>
     <use x="68.408203" xlink:href="#DejaVuSans-85"/>
     <use x="141.601562" xlink:href="#DejaVuSans-80"/>
     <use x="201.904297" xlink:href="#DejaVuSans-82"/>
     <use x="266.386719" xlink:href="#DejaVuSans-67"/>
     <use x="336.210938" xlink:href="#DejaVuSans-32"/>
     <use x="367.998047" xlink:href="#DejaVuSans-115"/>
     <use x="420.097656" xlink:href="#DejaVuSans-99"/>
     <use x="475.078125" xlink:href="#DejaVuSans-111"/>
     <use x="536.259766" xlink:href="#DejaVuSans-114"/>
     <use x="575.123047" xlink:href="#DejaVuSans-101"/>
     <use x="636.646484" xlink:href="#DejaVuSans-32"/>
     <use x="668.433594" xlink:href="#DejaVuSans-102"/>
     <use x="703.638672" xlink:href="#DejaVuSans-111"/>
     <use x="764.820312" xlink:href="#DejaVuSans-114"/>
     <use x="805.933594" xlink:href="#DejaVuSans-32"/>
     <use x="837.720703" xlink:href="#DejaVuSans-73"/>
     <use x="867.212891" xlink:href="#DejaVuSans-78"/>
     <use x="942.017578" xlink:href="#DejaVuSans-68"/>
     <use x="1019.019531" xlink:href="#DejaVuSans-69"/>
     <use x="1082.203125" xlink:href="#DejaVuSans-76"/>
     <use x="1137.916016" xlink:href="#DejaVuSans-32"/>
     <use x="1169.703125" xlink:href="#DejaVuSans-99"/>
     <use x="1224.683594" xlink:href="#DejaVuSans-97"/>
     <use x="1285.962891" xlink:href="#DejaVuSans-108"/>
     <use x="1313.746094" xlink:href="#DejaVuSans-108"/>
     <use x="1341.529297" xlink:href="#DejaVuSans-105"/>
     <use x="1369.3125" xlink:href="#DejaVuSans-110"/>
     <use x="1432.691406" xlink:href="#DejaVuSans-103"/>
     <use x="1496.167969" xlink:href="#DejaVuSans-32"/>
     <use x="1527.955078" xlink:href="#DejaVuSans-105"/>
     <use x="1555.738281" xlink:href="#DejaVuSans-110"/>
     <use x="1619.117188" xlink:href="#DejaVuSans-32"/>
     <use x="1650.904297" xlink:href="#DejaVuSans-99"/>
     <use x="1705.884766" xlink:href="#DejaVuSans-104"/>
     <use x="1769.263672" xlink:href="#DejaVuSans-114"/>
     <use x="1810.376953" xlink:href="#DejaVuSans-97"/>
     <use x="1871.65625" xlink:href="#DejaVuSans-108"/>
     <use x="1899.439453" xlink:href="#DejaVuSans-108"/>
     <use x="1927.222656" xlink:href="#DejaVuSans-32"/>
     <use x="1959.009766" xlink:href="#DejaVuSans-119"/>
     <use x="2040.796875" xlink:href="#DejaVuSans-105"/>
     <use x="2068.580078" xlink:href="#DejaVuSans-116"/>
     <use x="2107.789062" xlink:href="#DejaVuSans-104"/>
     <use x="2171.167969" xlink:href="#DejaVuSans-32"/>
     <use x="2202.955078" xlink:href="#DejaVuSans-114"/>
     <use x="2241.818359" xlink:href="#DejaVuSans-101"/>
     <use x="2303.341797" xlink:href="#DejaVuSans-102"/>
     <use x="2338.546875" xlink:href="#DejaVuSans-32"/>
     <use x="2370.333984" xlink:href="#DejaVuSans-105"/>
     <use x="2398.117188" xlink:href="#DejaVuSans-110"/>
     <use x="2461.496094" xlink:href="#DejaVuSans-117"/>
     <use x="2524.875" xlink:href="#DejaVuSans-110"/>
     <use x="2588.253906" xlink:href="#DejaVuSans-100"/>
     <use x="2651.730469" xlink:href="#DejaVuSans-105"/>
     <use x="2679.513672" xlink:href="#DejaVuSans-108"/>
     <use x="2707.296875" xlink:href="#DejaVuSans-117"/>
     <use x="2770.675781" xlink:href="#DejaVuSans-116"/>
     <use x="2809.884766" xlink:href="#DejaVuSans-101"/>
     <use x="2871.408203" xlink:href="#DejaVuSans-100"/>
     <use x="2934.884766" xlink:href="#DejaVuSans-115"/>
     <use x="2986.984375" xlink:href="#DejaVuSans-97"/>
     <use x="3048.263672" xlink:href="#DejaVuSans-109"/>
     <use x="3145.675781" xlink:href="#DejaVuSans-112"/>
     <use x="3209.152344" xlink:href="#DejaVuSans-108"/>
     <use x="3236.935547" xlink:href="#DejaVuSans-101"/>
     <use x="3298.458984" xlink:href="#DejaVuSans-98"/>
     <use x="3361.935547" xlink:href="#DejaVuSans-121"/>
     <use x="3421.115234" xlink:href="#DejaVuSans-97"/>
     <use x="3482.394531" xlink:href="#DejaVuSans-116"/>
     <use x="3521.603516" xlink:href="#DejaVuSans-108"/>
     <use x="3549.386719" xlink:href="#DejaVuSans-101"/>
     <use x="3610.910156" xlink:href="#DejaVuSans-97"/>
     <use x="3672.189453" xlink:href="#DejaVuSans-115"/>
     <use x="3724.289062" xlink:href="#DejaVuSans-116"/>
     <use x="3763.498047" xlink:href="#DejaVuSans-50"/>
     <use x="3827.121094" xlink:href="#DejaVuSans-99"/>
     <use x="3882.101562" xlink:href="#DejaVuSans-97"/>
     <use x="3943.380859" xlink:href="#DejaVuSans-108"/>
     <use x="3971.164062" xlink:href="#DejaVuSans-108"/>
     <use x="3998.947266" xlink:href="#DejaVuSans-101"/>
     <use x="4060.470703" xlink:href="#DejaVuSans-114"/>
     <use x="4101.583984" xlink:href="#DejaVuSans-115"/>
    </g>
   </g>
   <g id="legend_1">
    <g id="patch_7">
     <path d="M 938.136875 267.57375 
L 1101.0775 267.57375 
Q 1105.0775 267.57375 1105.0775 263.57375 
L 1105.0775 89.43625 
Q 1105.0775 85.43625 1101.0775 85.43625 
L 938.136875 85.43625 
Q 934.136875 85.43625 934.136875 89.43625 
L 934.136875 263.57375 
Q 934.136875 267.57375 938.136875 267.57375 
z
" style="fill:#ffffff;opacity:0.8;stroke:#cccccc;stroke-linejoin:miter;"/>
    </g>
    <g id="LineCollection_13">
     <path d="M 952.136875 101.633125 
L 972.136875 101.633125 
" style="fill:none;stroke:#1f77b4;stroke-width:2;"/>
    </g>
    <g id="LineCollection_14">
     <path d="M 962.136875 111.633125 
L 962.136875 91.633125 
" style="fill:none;stroke:#1f77b4;stroke-width:2;"/>
    </g>
    <g id="line2d_37">
     <path d="M 942.136875 101.633125 
L 982.136875 101.633125 
" style="fill:none;stroke:#1f77b4;stroke-linecap:square;stroke-width:2;"/>
    </g>
    <g id="line2d_38">
     <g>
      <use style="fill:#1f77b4;stroke:#1f77b4;stroke-linejoin:miter;" x="962.136875" xlink:href="#me34b184e3f" y="101.633125"/>
     </g>
    </g>
    <g id="text_19">
     <!-- freebayes -->
     <g transform="translate(998.136875 108.633125)scale(0.2 -0.2)">
      <use xlink:href="#DejaVuSans-102"/>
      <use x="35.205078" xlink:href="#DejaVuSans-114"/>
      <use x="74.068359" xlink:href="#DejaVuSans-101"/>
      <use x="135.591797" xlink:href="#DejaVuSans-101"/>
      <use x="197.115234" xlink:href="#DejaVuSans-98"/>
      <use x="260.591797" xlink:href="#DejaVuSans-97"/>
      <use x="321.871094" xlink:href="#DejaVuSans-121"/>
      <use x="381.050781" xlink:href="#DejaVuSans-101"/>
      <use x="442.574219" xlink:href="#DejaVuSans-115"/>
     </g>
    </g>
    <g id="LineCollection_15">
     <path d="M 952.136875 130.989375 
L 972.136875 130.989375 
" style="fill:none;stroke:#ff7f0e;stroke-width:2;"/>
    </g>
    <g id="LineCollection_16">
     <path d="M 962.136875 140.989375 
L 962.136875 120.989375 
" style="fill:none;stroke:#ff7f0e;stroke-width:2;"/>
    </g>
    <g id="line2d_39">
     <path d="M 942.136875 130.989375 
L 982.136875 130.989375 
" style="fill:none;stroke:#ff7f0e;stroke-linecap:square;stroke-width:2;"/>
    </g>
    <g id="line2d_40">
     <g>
      <use style="fill:#ff7f0e;stroke:#ff7f0e;stroke-linejoin:miter;" x="962.136875" xlink:href="#m7650930a8a" y="130.989375"/>
     </g>
    </g>
    <g id="text_20">
     <!-- mutect2 -->
     <g transform="translate(998.136875 137.989375)scale(0.2 -0.2)">
      <use xlink:href="#DejaVuSans-109"/>
      <use x="97.412109" xlink:href="#DejaVuSans-117"/>
      <use x="160.791016" xlink:href="#DejaVuSans-116"/>
      <use x="200" xlink:href="#DejaVuSans-101"/>
      <use x="261.523438" xlink:href="#DejaVuSans-99"/>
      <use x="316.503906" xlink:href="#DejaVuSans-116"/>
      <use x="355.712891" xlink:href="#DejaVuSans-50"/>
     </g>
    </g>
    <g id="LineCollection_17">
     <path d="M 952.136875 160.345625 
L 972.136875 160.345625 
" style="fill:none;stroke:#2ca02c;stroke-width:2;"/>
    </g>
    <g id="LineCollection_18">
     <path d="M 962.136875 170.345625 
L 962.136875 150.345625 
" style="fill:none;stroke:#2ca02c;stroke-width:2;"/>
    </g>
    <g id="line2d_41">
     <path d="M 942.136875 160.345625 
L 982.136875 160.345625 
" style="fill:none;stroke:#2ca02c;stroke-linecap:square;stroke-width:2;"/>
    </g>
    <g id="line2d_42">
     <g>
      <use style="fill:#2ca02c;stroke:#2ca02c;stroke-linejoin:miter;" x="962.136875" xlink:href="#m2858c18d13" y="160.345625"/>
     </g>
    </g>
    <g id="text_21">
     <!-- strelka2 -->
     <g transform="translate(998.136875 167.345625)scale(0.2 -0.2)">
      <defs>
       <path d="M 9.078125 75.984375 
L 18.109375 75.984375 
L 18.109375 31.109375 
L 44.921875 54.6875 
L 56.390625 54.6875 
L 27.390625 29.109375 
L 57.625 0 
L 45.90625 0 
L 18.109375 26.703125 
L 18.109375 0 
L 9.078125 0 
z
" id="DejaVuSans-107"/>
      </defs>
      <use xlink:href="#DejaVuSans-115"/>
      <use x="52.099609" xlink:href="#DejaVuSans-116"/>
      <use x="91.308594" xlink:href="#DejaVuSans-114"/>
      <use x="130.171875" xlink:href="#DejaVuSans-101"/>
      <use x="191.695312" xlink:href="#DejaVuSans-108"/>
      <use x="219.478516" xlink:href="#DejaVuSans-107"/>
      <use x="275.638672" xlink:href="#DejaVuSans-97"/>
      <use x="336.917969" xlink:href="#DejaVuSans-50"/>
     </g>
    </g>
    <g id="LineCollection_19">
     <path d="M 952.136875 189.701875 
L 972.136875 189.701875 
" style="fill:none;stroke:#d62728;stroke-width:2;"/>
    </g>
    <g id="LineCollection_20">
     <path d="M 962.136875 199.701875 
L 962.136875 179.701875 
" style="fill:none;stroke:#d62728;stroke-width:2;"/>
    </g>
    <g id="line2d_43">
     <path d="M 942.136875 189.701875 
L 982.136875 189.701875 
" style="fill:none;stroke:#d62728;stroke-linecap:square;stroke-width:2;"/>
    </g>
    <g id="line2d_44">
     <g>
      <use style="fill:#d62728;stroke:#d62728;stroke-linejoin:miter;" x="962.136875" xlink:href="#mabc47f8361" y="189.701875"/>
     </g>
    </g>
    <g id="text_22">
     <!-- vardict -->
     <g transform="translate(998.136875 196.701875)scale(0.2 -0.2)">
      <use xlink:href="#DejaVuSans-118"/>
      <use x="59.179688" xlink:href="#DejaVuSans-97"/>
      <use x="120.458984" xlink:href="#DejaVuSans-114"/>
      <use x="159.822266" xlink:href="#DejaVuSans-100"/>
      <use x="223.298828" xlink:href="#DejaVuSans-105"/>
      <use x="251.082031" xlink:href="#DejaVuSans-99"/>
      <use x="306.0625" xlink:href="#DejaVuSans-116"/>
     </g>
    </g>
    <g id="LineCollection_21">
     <path d="M 952.136875 219.058125 
L 972.136875 219.058125 
" style="fill:none;stroke:#9467bd;stroke-width:2;"/>
    </g>
    <g id="LineCollection_22">
     <path d="M 962.136875 229.058125 
L 962.136875 209.058125 
" style="fill:none;stroke:#9467bd;stroke-width:2;"/>
    </g>
    <g id="line2d_45">
     <path d="M 942.136875 219.058125 
L 982.136875 219.058125 
" style="fill:none;stroke:#9467bd;stroke-linecap:square;stroke-width:2;"/>
    </g>
    <g id="line2d_46">
     <g>
      <use style="fill:#9467bd;stroke:#9467bd;stroke-linejoin:miter;" x="962.136875" xlink:href="#mb72553fd78" y="219.058125"/>
     </g>
    </g>
    <g id="text_23">
     <!-- varscan -->
     <g transform="translate(998.136875 226.058125)scale(0.2 -0.2)">
      <use xlink:href="#DejaVuSans-118"/>
      <use x="59.179688" xlink:href="#DejaVuSans-97"/>
      <use x="120.458984" xlink:href="#DejaVuSans-114"/>
      <use x="161.572266" xlink:href="#DejaVuSans-115"/>
      <use x="213.671875" xlink:href="#DejaVuSans-99"/>
      <use x="268.652344" xlink:href="#DejaVuSans-97"/>
      <use x="329.931641" xlink:href="#DejaVuSans-110"/>
     </g>
    </g>
    <g id="LineCollection_23">
     <path d="M 952.136875 248.414375 
L 972.136875 248.414375 
" style="fill:none;stroke:#bcbd22;stroke-width:2;"/>
    </g>
    <g id="LineCollection_24">
     <path d="M 962.136875 258.414375 
L 962.136875 238.414375 
" style="fill:none;stroke:#bcbd22;stroke-width:2;"/>
    </g>
    <g id="line2d_47">
     <path d="M 942.136875 248.414375 
L 982.136875 248.414375 
" style="fill:none;stroke:#bcbd22;stroke-linecap:square;stroke-width:2;"/>
    </g>
    <g id="line2d_48">
     <g>
      <use style="fill:#bcbd22;stroke:#bcbd22;stroke-linejoin:miter;" x="962.136875" xlink:href="#m7e8e44b26d" y="248.414375"/>
     </g>
    </g>
    <g id="text_24">
     <!-- smurf -->
     <g transform="translate(998.136875 255.414375)scale(0.2 -0.2)">
      <use xlink:href="#DejaVuSans-115"/>
      <use x="52.099609" xlink:href="#DejaVuSans-109"/>
      <use x="149.511719" xlink:href="#DejaVuSans-117"/>
      <use x="212.890625" xlink:href="#DejaVuSans-114"/>
      <use x="254.003906" xlink:href="#DejaVuSans-102"/>
     </g>
    </g>
   </g>
  </g>
 </g>
 <defs>
  <clipPath id="pa00db330aa">
   <rect height="554.4" width="837" x="87.136875" y="75.43625"/>
  </clipPath>
 </defs>
</svg>
