<?xml version="1.0" encoding="utf-8" standalone="no"?>
<!DOCTYPE svg PUBLIC "-//W3C//DTD SVG 1.1//EN"
  "http://www.w3.org/Graphics/SVG/1.1/DTD/svg11.dtd">
<!-- Created with matplotlib (https://matplotlib.org/) -->
<svg height="550.228642pt" version="1.1" viewBox="0 0 1506.5875 550.228642" width="1506.5875pt" xmlns="http://www.w3.org/2000/svg" xmlns:xlink="http://www.w3.org/1999/xlink">
 <metadata>
  <rdf:RDF xmlns:cc="http://creativecommons.org/ns#" xmlns:dc="http://purl.org/dc/elements/1.1/" xmlns:rdf="http://www.w3.org/1999/02/22-rdf-syntax-ns#">
   <cc:Work>
    <dc:type rdf:resource="http://purl.org/dc/dcmitype/StillImage"/>
    <dc:date>2023-01-23T09:44:50.919810</dc:date>
    <dc:format>image/svg+xml</dc:format>
    <dc:creator>
     <cc:Agent>
      <dc:title>Matplotlib v3.3.4, https://matplotlib.org/</dc:title>
     </cc:Agent>
    </dc:creator>
   </cc:Work>
  </rdf:RDF>
 </metadata>
 <defs>
  <style type="text/css">*{stroke-linecap:butt;stroke-linejoin:round;}</style>
 </defs>
 <g id="figure_1">
  <g id="patch_1">
   <path d="M 0 550.228642 
L 1506.5875 550.228642 
L 1506.5875 0 
L 0 0 
z
" style="fill:none;"/>
  </g>
  <g id="axes_1">
   <g id="patch_2">
    <path d="M 82.0875 446.2375 
L 1499.3875 446.2375 
L 1499.3875 83.4375 
L 82.0875 83.4375 
z
" style="fill:#ffffff;"/>
   </g>
   <g id="patch_3">
    <path clip-path="url(#p516f54964e)" d="M 102.334643 115.044345 
L 264.311786 115.044345 
L 264.311786 101.109681 
L 102.334643 101.109681 
L 102.334643 115.044345 
z
" style="fill:#c03d3e;stroke:#4c4c4c;stroke-linejoin:miter;stroke-width:1.5;"/>
   </g>
   <g id="patch_4">
    <path clip-path="url(#p516f54964e)" d="M 304.806071 196.356705 
L 466.783214 196.356705 
L 466.783214 184.665505 
L 304.806071 184.665505 
L 304.806071 196.356705 
z
" style="fill:#c03d3e;stroke:#4c4c4c;stroke-linejoin:miter;stroke-width:1.5;"/>
   </g>
   <g id="patch_5">
    <path clip-path="url(#p516f54964e)" d="M 507.2775 200.109809 
L 669.254643 200.109809 
L 669.254643 192.182747 
L 507.2775 192.182747 
L 507.2775 200.109809 
z
" style="fill:#c03d3e;stroke:#4c4c4c;stroke-linejoin:miter;stroke-width:1.5;"/>
   </g>
   <g id="patch_6">
    <path clip-path="url(#p516f54964e)" d="M 709.748929 266.310473 
L 871.726071 266.310473 
L 871.726071 261.036718 
L 709.748929 261.036718 
L 709.748929 266.310473 
z
" style="fill:#c03d3e;stroke:#4c4c4c;stroke-linejoin:miter;stroke-width:1.5;"/>
   </g>
   <g id="patch_7">
    <path clip-path="url(#p516f54964e)" d="M 912.220357 400.160025 
L 1074.1975 400.160025 
L 1074.1975 398.753112 
L 912.220357 398.753112 
L 912.220357 400.160025 
z
" style="fill:#c03d3e;stroke:#4c4c4c;stroke-linejoin:miter;stroke-width:1.5;"/>
   </g>
   <g id="patch_8">
    <path clip-path="url(#p516f54964e)" d="M 1114.691786 427.164951 
L 1276.668929 427.164951 
L 1276.668929 425.556279 
L 1114.691786 425.556279 
L 1114.691786 427.164951 
z
" style="fill:#c03d3e;stroke:#4c4c4c;stroke-linejoin:miter;stroke-width:1.5;"/>
   </g>
   <g id="patch_9">
    <path clip-path="url(#p516f54964e)" d="M 1317.163214 428.329777 
L 1479.140357 428.329777 
L 1479.140357 427.003865 
L 1317.163214 427.003865 
L 1317.163214 428.329777 
z
" style="fill:#c03d3e;stroke:#4c4c4c;stroke-linejoin:miter;stroke-width:1.5;"/>
   </g>
   <g id="matplotlib.axis_1">
    <g id="xtick_1">
     <g id="line2d_1">
      <defs>
       <path d="M 0 0 
L 0 3.5 
" id="mb2fdb43f98" style="stroke:#000000;stroke-width:0.8;"/>
      </defs>
      <g>
       <use style="stroke:#000000;stroke-width:0.8;" x="183.323214" xlink:href="#mb2fdb43f98" y="446.2375"/>
      </g>
     </g>
     <g id="text_1">
      <!-- SSF -->
      <g transform="translate(154.292062 490.073344)rotate(-45)scale(0.2 -0.2)">
       <defs>
        <path d="M 53.515625 70.515625 
L 53.515625 60.890625 
Q 47.90625 63.578125 42.921875 64.890625 
Q 37.9375 66.21875 33.296875 66.21875 
Q 25.25 66.21875 20.875 63.09375 
Q 16.5 59.96875 16.5 54.203125 
Q 16.5 49.359375 19.40625 46.890625 
Q 22.3125 44.4375 30.421875 42.921875 
L 36.375 41.703125 
Q 47.40625 39.59375 52.65625 34.296875 
Q 57.90625 29 57.90625 20.125 
Q 57.90625 9.515625 50.796875 4.046875 
Q 43.703125 -1.421875 29.984375 -1.421875 
Q 24.8125 -1.421875 18.96875 -0.25 
Q 13.140625 0.921875 6.890625 3.21875 
L 6.890625 13.375 
Q 12.890625 10.015625 18.65625 8.296875 
Q 24.421875 6.59375 29.984375 6.59375 
Q 38.421875 6.59375 43.015625 9.90625 
Q 47.609375 13.234375 47.609375 19.390625 
Q 47.609375 24.75 44.3125 27.78125 
Q 41.015625 30.8125 33.5 32.328125 
L 27.484375 33.5 
Q 16.453125 35.6875 11.515625 40.375 
Q 6.59375 45.0625 6.59375 53.421875 
Q 6.59375 63.09375 13.40625 68.65625 
Q 20.21875 74.21875 32.171875 74.21875 
Q 37.3125 74.21875 42.625 73.28125 
Q 47.953125 72.359375 53.515625 70.515625 
z
" id="DejaVuSans-83"/>
        <path d="M 9.8125 72.90625 
L 51.703125 72.90625 
L 51.703125 64.59375 
L 19.671875 64.59375 
L 19.671875 43.109375 
L 48.578125 43.109375 
L 48.578125 34.8125 
L 19.671875 34.8125 
L 19.671875 0 
L 9.8125 0 
z
" id="DejaVuSans-70"/>
       </defs>
       <use xlink:href="#DejaVuSans-83"/>
       <use x="63.476562" xlink:href="#DejaVuSans-83"/>
       <use x="126.953125" xlink:href="#DejaVuSans-70"/>
      </g>
     </g>
    </g>
    <g id="xtick_2">
     <g id="line2d_2">
      <g>
       <use style="stroke:#000000;stroke-width:0.8;" x="385.794643" xlink:href="#mb2fdb43f98" y="446.2375"/>
      </g>
     </g>
     <g id="text_2">
      <!-- VD -->
      <g transform="translate(362.289972 484.546862)rotate(-45)scale(0.2 -0.2)">
       <defs>
        <path d="M 28.609375 0 
L 0.78125 72.90625 
L 11.078125 72.90625 
L 34.1875 11.53125 
L 57.328125 72.90625 
L 67.578125 72.90625 
L 39.796875 0 
z
" id="DejaVuSans-86"/>
        <path d="M 19.671875 64.796875 
L 19.671875 8.109375 
L 31.59375 8.109375 
Q 46.6875 8.109375 53.6875 14.9375 
Q 60.6875 21.78125 60.6875 36.53125 
Q 60.6875 51.171875 53.6875 57.984375 
Q 46.6875 64.796875 31.59375 64.796875 
z
M 9.8125 72.90625 
L 30.078125 72.90625 
Q 51.265625 72.90625 61.171875 64.09375 
Q 71.09375 55.28125 71.09375 36.53125 
Q 71.09375 17.671875 61.125 8.828125 
Q 51.171875 0 30.078125 0 
L 9.8125 0 
z
" id="DejaVuSans-68"/>
       </defs>
       <use xlink:href="#DejaVuSans-86"/>
       <use x="68.408203" xlink:href="#DejaVuSans-68"/>
      </g>
     </g>
    </g>
    <g id="xtick_3">
     <g id="line2d_3">
      <g>
       <use style="stroke:#000000;stroke-width:0.8;" x="588.266071" xlink:href="#mb2fdb43f98" y="446.2375"/>
      </g>
     </g>
     <g id="text_3">
      <!-- SOR -->
      <g transform="translate(555.387816 493.920447)rotate(-45)scale(0.2 -0.2)">
       <defs>
        <path d="M 39.40625 66.21875 
Q 28.65625 66.21875 22.328125 58.203125 
Q 16.015625 50.203125 16.015625 36.375 
Q 16.015625 22.609375 22.328125 14.59375 
Q 28.65625 6.59375 39.40625 6.59375 
Q 50.140625 6.59375 56.421875 14.59375 
Q 62.703125 22.609375 62.703125 36.375 
Q 62.703125 50.203125 56.421875 58.203125 
Q 50.140625 66.21875 39.40625 66.21875 
z
M 39.40625 74.21875 
Q 54.734375 74.21875 63.90625 63.9375 
Q 73.09375 53.65625 73.09375 36.375 
Q 73.09375 19.140625 63.90625 8.859375 
Q 54.734375 -1.421875 39.40625 -1.421875 
Q 24.03125 -1.421875 14.8125 8.828125 
Q 5.609375 19.09375 5.609375 36.375 
Q 5.609375 53.65625 14.8125 63.9375 
Q 24.03125 74.21875 39.40625 74.21875 
z
" id="DejaVuSans-79"/>
        <path d="M 44.390625 34.1875 
Q 47.5625 33.109375 50.5625 29.59375 
Q 53.5625 26.078125 56.59375 19.921875 
L 66.609375 0 
L 56 0 
L 46.6875 18.703125 
Q 43.0625 26.03125 39.671875 28.421875 
Q 36.28125 30.8125 30.421875 30.8125 
L 19.671875 30.8125 
L 19.671875 0 
L 9.8125 0 
L 9.8125 72.90625 
L 32.078125 72.90625 
Q 44.578125 72.90625 50.734375 67.671875 
Q 56.890625 62.453125 56.890625 51.90625 
Q 56.890625 45.015625 53.6875 40.46875 
Q 50.484375 35.9375 44.390625 34.1875 
z
M 19.671875 64.796875 
L 19.671875 38.921875 
L 32.078125 38.921875 
Q 39.203125 38.921875 42.84375 42.21875 
Q 46.484375 45.515625 46.484375 51.90625 
Q 46.484375 58.296875 42.84375 61.546875 
Q 39.203125 64.796875 32.078125 64.796875 
z
" id="DejaVuSans-82"/>
       </defs>
       <use xlink:href="#DejaVuSans-83"/>
       <use x="63.476562" xlink:href="#DejaVuSans-79"/>
       <use x="142.1875" xlink:href="#DejaVuSans-82"/>
      </g>
     </g>
    </g>
    <g id="xtick_4">
     <g id="line2d_4">
      <g>
       <use style="stroke:#000000;stroke-width:0.8;" x="790.7375" xlink:href="#mb2fdb43f98" y="446.2375"/>
      </g>
     </g>
     <g id="text_4">
      <!-- DP -->
      <g transform="translate(768.379667 483.400024)rotate(-45)scale(0.2 -0.2)">
       <defs>
        <path d="M 19.671875 64.796875 
L 19.671875 37.40625 
L 32.078125 37.40625 
Q 38.96875 37.40625 42.71875 40.96875 
Q 46.484375 44.53125 46.484375 51.125 
Q 46.484375 57.671875 42.71875 61.234375 
Q 38.96875 64.796875 32.078125 64.796875 
z
M 9.8125 72.90625 
L 32.078125 72.90625 
Q 44.34375 72.90625 50.609375 67.359375 
Q 56.890625 61.8125 56.890625 51.125 
Q 56.890625 40.328125 50.609375 34.8125 
Q 44.34375 29.296875 32.078125 29.296875 
L 19.671875 29.296875 
L 19.671875 0 
L 9.8125 0 
z
" id="DejaVuSans-80"/>
       </defs>
       <use xlink:href="#DejaVuSans-68"/>
       <use x="77.001953" xlink:href="#DejaVuSans-80"/>
      </g>
     </g>
    </g>
    <g id="xtick_5">
     <g id="line2d_5">
      <g>
       <use style="stroke:#000000;stroke-width:0.8;" x="993.208929" xlink:href="#mb2fdb43f98" y="446.2375"/>
      </g>
     </g>
     <g id="text_5">
      <!-- MSI -->
      <g transform="translate(964.915818 489.335301)rotate(-45)scale(0.2 -0.2)">
       <defs>
        <path d="M 9.8125 72.90625 
L 24.515625 72.90625 
L 43.109375 23.296875 
L 61.8125 72.90625 
L 76.515625 72.90625 
L 76.515625 0 
L 66.890625 0 
L 66.890625 64.015625 
L 48.09375 14.015625 
L 38.1875 14.015625 
L 19.390625 64.015625 
L 19.390625 0 
L 9.8125 0 
z
" id="DejaVuSans-77"/>
        <path d="M 9.8125 72.90625 
L 19.671875 72.90625 
L 19.671875 0 
L 9.8125 0 
z
" id="DejaVuSans-73"/>
       </defs>
       <use xlink:href="#DejaVuSans-77"/>
       <use x="86.279297" xlink:href="#DejaVuSans-83"/>
       <use x="149.755859" xlink:href="#DejaVuSans-73"/>
      </g>
     </g>
    </g>
    <g id="xtick_6">
     <g id="line2d_6">
      <g>
       <use style="stroke:#000000;stroke-width:0.8;" x="1195.680357" xlink:href="#mb2fdb43f98" y="446.2375"/>
      </g>
     </g>
     <g id="text_6">
      <!-- MSILEN -->
      <g transform="translate(1139.991279 516.73127)rotate(-45)scale(0.2 -0.2)">
       <defs>
        <path d="M 9.8125 72.90625 
L 19.671875 72.90625 
L 19.671875 8.296875 
L 55.171875 8.296875 
L 55.171875 0 
L 9.8125 0 
z
" id="DejaVuSans-76"/>
        <path d="M 9.8125 72.90625 
L 55.90625 72.90625 
L 55.90625 64.59375 
L 19.671875 64.59375 
L 19.671875 43.015625 
L 54.390625 43.015625 
L 54.390625 34.71875 
L 19.671875 34.71875 
L 19.671875 8.296875 
L 56.78125 8.296875 
L 56.78125 0 
L 9.8125 0 
z
" id="DejaVuSans-69"/>
        <path d="M 9.8125 72.90625 
L 23.09375 72.90625 
L 55.421875 11.921875 
L 55.421875 72.90625 
L 64.984375 72.90625 
L 64.984375 0 
L 51.703125 0 
L 19.390625 60.984375 
L 19.390625 0 
L 9.8125 0 
z
" id="DejaVuSans-78"/>
       </defs>
       <use xlink:href="#DejaVuSans-77"/>
       <use x="86.279297" xlink:href="#DejaVuSans-83"/>
       <use x="149.755859" xlink:href="#DejaVuSans-73"/>
       <use x="179.248047" xlink:href="#DejaVuSans-76"/>
       <use x="234.960938" xlink:href="#DejaVuSans-69"/>
       <use x="298.144531" xlink:href="#DejaVuSans-78"/>
      </g>
     </g>
    </g>
    <g id="xtick_7">
     <g id="line2d_7">
      <g>
       <use style="stroke:#000000;stroke-width:0.8;" x="1398.151786" xlink:href="#mb2fdb43f98" y="446.2375"/>
      </g>
     </g>
     <g id="text_7">
      <!-- SHIFT3 -->
      <g transform="translate(1345.903224 513.290753)rotate(-45)scale(0.2 -0.2)">
       <defs>
        <path d="M 9.8125 72.90625 
L 19.671875 72.90625 
L 19.671875 43.015625 
L 55.515625 43.015625 
L 55.515625 72.90625 
L 65.375 72.90625 
L 65.375 0 
L 55.515625 0 
L 55.515625 34.71875 
L 19.671875 34.71875 
L 19.671875 0 
L 9.8125 0 
z
" id="DejaVuSans-72"/>
        <path d="M -0.296875 72.90625 
L 61.375 72.90625 
L 61.375 64.59375 
L 35.5 64.59375 
L 35.5 0 
L 25.59375 0 
L 25.59375 64.59375 
L -0.296875 64.59375 
z
" id="DejaVuSans-84"/>
        <path d="M 40.578125 39.3125 
Q 47.65625 37.796875 51.625 33 
Q 55.609375 28.21875 55.609375 21.1875 
Q 55.609375 10.40625 48.1875 4.484375 
Q 40.765625 -1.421875 27.09375 -1.421875 
Q 22.515625 -1.421875 17.65625 -0.515625 
Q 12.796875 0.390625 7.625 2.203125 
L 7.625 11.71875 
Q 11.71875 9.328125 16.59375 8.109375 
Q 21.484375 6.890625 26.8125 6.890625 
Q 36.078125 6.890625 40.9375 10.546875 
Q 45.796875 14.203125 45.796875 21.1875 
Q 45.796875 27.640625 41.28125 31.265625 
Q 36.765625 34.90625 28.71875 34.90625 
L 20.21875 34.90625 
L 20.21875 43.015625 
L 29.109375 43.015625 
Q 36.375 43.015625 40.234375 45.921875 
Q 44.09375 48.828125 44.09375 54.296875 
Q 44.09375 59.90625 40.109375 62.90625 
Q 36.140625 65.921875 28.71875 65.921875 
Q 24.65625 65.921875 20.015625 65.03125 
Q 15.375 64.15625 9.8125 62.3125 
L 9.8125 71.09375 
Q 15.4375 72.65625 20.34375 73.4375 
Q 25.25 74.21875 29.59375 74.21875 
Q 40.828125 74.21875 47.359375 69.109375 
Q 53.90625 64.015625 53.90625 55.328125 
Q 53.90625 49.265625 50.4375 45.09375 
Q 46.96875 40.921875 40.578125 39.3125 
z
" id="DejaVuSans-51"/>
       </defs>
       <use xlink:href="#DejaVuSans-83"/>
       <use x="63.476562" xlink:href="#DejaVuSans-72"/>
       <use x="138.671875" xlink:href="#DejaVuSans-73"/>
       <use x="168.164062" xlink:href="#DejaVuSans-70"/>
       <use x="223.933594" xlink:href="#DejaVuSans-84"/>
       <use x="285.017578" xlink:href="#DejaVuSans-51"/>
      </g>
     </g>
    </g>
    <g id="text_8">
     <!-- Features -->
     <g transform="translate(747.748437 538.869267)scale(0.2 -0.2)">
      <defs>
       <path d="M 56.203125 29.59375 
L 56.203125 25.203125 
L 14.890625 25.203125 
Q 15.484375 15.921875 20.484375 11.0625 
Q 25.484375 6.203125 34.421875 6.203125 
Q 39.59375 6.203125 44.453125 7.46875 
Q 49.3125 8.734375 54.109375 11.28125 
L 54.109375 2.78125 
Q 49.265625 0.734375 44.1875 -0.34375 
Q 39.109375 -1.421875 33.890625 -1.421875 
Q 20.796875 -1.421875 13.15625 6.1875 
Q 5.515625 13.8125 5.515625 26.8125 
Q 5.515625 40.234375 12.765625 48.109375 
Q 20.015625 56 32.328125 56 
Q 43.359375 56 49.78125 48.890625 
Q 56.203125 41.796875 56.203125 29.59375 
z
M 47.21875 32.234375 
Q 47.125 39.59375 43.09375 43.984375 
Q 39.0625 48.390625 32.421875 48.390625 
Q 24.90625 48.390625 20.390625 44.140625 
Q 15.875 39.890625 15.1875 32.171875 
z
" id="DejaVuSans-101"/>
       <path d="M 34.28125 27.484375 
Q 23.390625 27.484375 19.1875 25 
Q 14.984375 22.515625 14.984375 16.5 
Q 14.984375 11.71875 18.140625 8.90625 
Q 21.296875 6.109375 26.703125 6.109375 
Q 34.1875 6.109375 38.703125 11.40625 
Q 43.21875 16.703125 43.21875 25.484375 
L 43.21875 27.484375 
z
M 52.203125 31.203125 
L 52.203125 0 
L 43.21875 0 
L 43.21875 8.296875 
Q 40.140625 3.328125 35.546875 0.953125 
Q 30.953125 -1.421875 24.3125 -1.421875 
Q 15.921875 -1.421875 10.953125 3.296875 
Q 6 8.015625 6 15.921875 
Q 6 25.140625 12.171875 29.828125 
Q 18.359375 34.515625 30.609375 34.515625 
L 43.21875 34.515625 
L 43.21875 35.40625 
Q 43.21875 41.609375 39.140625 45 
Q 35.0625 48.390625 27.6875 48.390625 
Q 23 48.390625 18.546875 47.265625 
Q 14.109375 46.140625 10.015625 43.890625 
L 10.015625 52.203125 
Q 14.9375 54.109375 19.578125 55.046875 
Q 24.21875 56 28.609375 56 
Q 40.484375 56 46.34375 49.84375 
Q 52.203125 43.703125 52.203125 31.203125 
z
" id="DejaVuSans-97"/>
       <path d="M 18.3125 70.21875 
L 18.3125 54.6875 
L 36.8125 54.6875 
L 36.8125 47.703125 
L 18.3125 47.703125 
L 18.3125 18.015625 
Q 18.3125 11.328125 20.140625 9.421875 
Q 21.96875 7.515625 27.59375 7.515625 
L 36.8125 7.515625 
L 36.8125 0 
L 27.59375 0 
Q 17.1875 0 13.234375 3.875 
Q 9.28125 7.765625 9.28125 18.015625 
L 9.28125 47.703125 
L 2.6875 47.703125 
L 2.6875 54.6875 
L 9.28125 54.6875 
L 9.28125 70.21875 
z
" id="DejaVuSans-116"/>
       <path d="M 8.5 21.578125 
L 8.5 54.6875 
L 17.484375 54.6875 
L 17.484375 21.921875 
Q 17.484375 14.15625 20.5 10.265625 
Q 23.53125 6.390625 29.59375 6.390625 
Q 36.859375 6.390625 41.078125 11.03125 
Q 45.3125 15.671875 45.3125 23.6875 
L 45.3125 54.6875 
L 54.296875 54.6875 
L 54.296875 0 
L 45.3125 0 
L 45.3125 8.40625 
Q 42.046875 3.421875 37.71875 1 
Q 33.40625 -1.421875 27.6875 -1.421875 
Q 18.265625 -1.421875 13.375 4.4375 
Q 8.5 10.296875 8.5 21.578125 
z
M 31.109375 56 
z
" id="DejaVuSans-117"/>
       <path d="M 41.109375 46.296875 
Q 39.59375 47.171875 37.8125 47.578125 
Q 36.03125 48 33.890625 48 
Q 26.265625 48 22.1875 43.046875 
Q 18.109375 38.09375 18.109375 28.8125 
L 18.109375 0 
L 9.078125 0 
L 9.078125 54.6875 
L 18.109375 54.6875 
L 18.109375 46.1875 
Q 20.953125 51.171875 25.484375 53.578125 
Q 30.03125 56 36.53125 56 
Q 37.453125 56 38.578125 55.875 
Q 39.703125 55.765625 41.0625 55.515625 
z
" id="DejaVuSans-114"/>
       <path d="M 44.28125 53.078125 
L 44.28125 44.578125 
Q 40.484375 46.53125 36.375 47.5 
Q 32.28125 48.484375 27.875 48.484375 
Q 21.1875 48.484375 17.84375 46.4375 
Q 14.5 44.390625 14.5 40.28125 
Q 14.5 37.15625 16.890625 35.375 
Q 19.28125 33.59375 26.515625 31.984375 
L 29.59375 31.296875 
Q 39.15625 29.25 43.1875 25.515625 
Q 47.21875 21.78125 47.21875 15.09375 
Q 47.21875 7.46875 41.1875 3.015625 
Q 35.15625 -1.421875 24.609375 -1.421875 
Q 20.21875 -1.421875 15.453125 -0.5625 
Q 10.6875 0.296875 5.421875 2 
L 5.421875 11.28125 
Q 10.40625 8.6875 15.234375 7.390625 
Q 20.0625 6.109375 24.8125 6.109375 
Q 31.15625 6.109375 34.5625 8.28125 
Q 37.984375 10.453125 37.984375 14.40625 
Q 37.984375 18.0625 35.515625 20.015625 
Q 33.0625 21.96875 24.703125 23.78125 
L 21.578125 24.515625 
Q 13.234375 26.265625 9.515625 29.90625 
Q 5.8125 33.546875 5.8125 39.890625 
Q 5.8125 47.609375 11.28125 51.796875 
Q 16.75 56 26.8125 56 
Q 31.78125 56 36.171875 55.265625 
Q 40.578125 54.546875 44.28125 53.078125 
z
" id="DejaVuSans-115"/>
      </defs>
      <use xlink:href="#DejaVuSans-70"/>
      <use x="52.019531" xlink:href="#DejaVuSans-101"/>
      <use x="113.542969" xlink:href="#DejaVuSans-97"/>
      <use x="174.822266" xlink:href="#DejaVuSans-116"/>
      <use x="214.03125" xlink:href="#DejaVuSans-117"/>
      <use x="277.410156" xlink:href="#DejaVuSans-114"/>
      <use x="316.273438" xlink:href="#DejaVuSans-101"/>
      <use x="377.796875" xlink:href="#DejaVuSans-115"/>
     </g>
    </g>
   </g>
   <g id="matplotlib.axis_2">
    <g id="ytick_1">
     <g id="line2d_8">
      <defs>
       <path d="M 0 0 
L -3.5 0 
" id="ma3a73677f0" style="stroke:#000000;stroke-width:0.8;"/>
      </defs>
      <g>
       <use style="stroke:#000000;stroke-width:0.8;" x="82.0875" xlink:href="#ma3a73677f0" y="393.542931"/>
      </g>
     </g>
     <g id="text_9">
      <!-- 0.05 -->
      <g transform="translate(30.55625 401.141369)scale(0.2 -0.2)">
       <defs>
        <path d="M 31.78125 66.40625 
Q 24.171875 66.40625 20.328125 58.90625 
Q 16.5 51.421875 16.5 36.375 
Q 16.5 21.390625 20.328125 13.890625 
Q 24.171875 6.390625 31.78125 6.390625 
Q 39.453125 6.390625 43.28125 13.890625 
Q 47.125 21.390625 47.125 36.375 
Q 47.125 51.421875 43.28125 58.90625 
Q 39.453125 66.40625 31.78125 66.40625 
z
M 31.78125 74.21875 
Q 44.046875 74.21875 50.515625 64.515625 
Q 56.984375 54.828125 56.984375 36.375 
Q 56.984375 17.96875 50.515625 8.265625 
Q 44.046875 -1.421875 31.78125 -1.421875 
Q 19.53125 -1.421875 13.0625 8.265625 
Q 6.59375 17.96875 6.59375 36.375 
Q 6.59375 54.828125 13.0625 64.515625 
Q 19.53125 74.21875 31.78125 74.21875 
z
" id="DejaVuSans-48"/>
        <path d="M 10.6875 12.40625 
L 21 12.40625 
L 21 0 
L 10.6875 0 
z
" id="DejaVuSans-46"/>
        <path d="M 10.796875 72.90625 
L 49.515625 72.90625 
L 49.515625 64.59375 
L 19.828125 64.59375 
L 19.828125 46.734375 
Q 21.96875 47.46875 24.109375 47.828125 
Q 26.265625 48.1875 28.421875 48.1875 
Q 40.625 48.1875 47.75 41.5 
Q 54.890625 34.8125 54.890625 23.390625 
Q 54.890625 11.625 47.5625 5.09375 
Q 40.234375 -1.421875 26.90625 -1.421875 
Q 22.3125 -1.421875 17.546875 -0.640625 
Q 12.796875 0.140625 7.71875 1.703125 
L 7.71875 11.625 
Q 12.109375 9.234375 16.796875 8.0625 
Q 21.484375 6.890625 26.703125 6.890625 
Q 35.15625 6.890625 40.078125 11.328125 
Q 45.015625 15.765625 45.015625 23.390625 
Q 45.015625 31 40.078125 35.4375 
Q 35.15625 39.890625 26.703125 39.890625 
Q 22.75 39.890625 18.8125 39.015625 
Q 14.890625 38.140625 10.796875 36.28125 
z
" id="DejaVuSans-53"/>
       </defs>
       <use xlink:href="#DejaVuSans-48"/>
       <use x="63.623047" xlink:href="#DejaVuSans-46"/>
       <use x="95.410156" xlink:href="#DejaVuSans-48"/>
       <use x="159.033203" xlink:href="#DejaVuSans-53"/>
      </g>
     </g>
    </g>
    <g id="ytick_2">
     <g id="line2d_9">
      <g>
       <use style="stroke:#000000;stroke-width:0.8;" x="82.0875" xlink:href="#ma3a73677f0" y="336.586522"/>
      </g>
     </g>
     <g id="text_10">
      <!-- 0.10 -->
      <g transform="translate(30.55625 344.184959)scale(0.2 -0.2)">
       <defs>
        <path d="M 12.40625 8.296875 
L 28.515625 8.296875 
L 28.515625 63.921875 
L 10.984375 60.40625 
L 10.984375 69.390625 
L 28.421875 72.90625 
L 38.28125 72.90625 
L 38.28125 8.296875 
L 54.390625 8.296875 
L 54.390625 0 
L 12.40625 0 
z
" id="DejaVuSans-49"/>
       </defs>
       <use xlink:href="#DejaVuSans-48"/>
       <use x="63.623047" xlink:href="#DejaVuSans-46"/>
       <use x="95.410156" xlink:href="#DejaVuSans-49"/>
       <use x="159.033203" xlink:href="#DejaVuSans-48"/>
      </g>
     </g>
    </g>
    <g id="ytick_3">
     <g id="line2d_10">
      <g>
       <use style="stroke:#000000;stroke-width:0.8;" x="82.0875" xlink:href="#ma3a73677f0" y="279.630113"/>
      </g>
     </g>
     <g id="text_11">
      <!-- 0.15 -->
      <g transform="translate(30.55625 287.22855)scale(0.2 -0.2)">
       <use xlink:href="#DejaVuSans-48"/>
       <use x="63.623047" xlink:href="#DejaVuSans-46"/>
       <use x="95.410156" xlink:href="#DejaVuSans-49"/>
       <use x="159.033203" xlink:href="#DejaVuSans-53"/>
      </g>
     </g>
    </g>
    <g id="ytick_4">
     <g id="line2d_11">
      <g>
       <use style="stroke:#000000;stroke-width:0.8;" x="82.0875" xlink:href="#ma3a73677f0" y="222.673703"/>
      </g>
     </g>
     <g id="text_12">
      <!-- 0.20 -->
      <g transform="translate(30.55625 230.272141)scale(0.2 -0.2)">
       <defs>
        <path d="M 19.1875 8.296875 
L 53.609375 8.296875 
L 53.609375 0 
L 7.328125 0 
L 7.328125 8.296875 
Q 12.9375 14.109375 22.625 23.890625 
Q 32.328125 33.6875 34.8125 36.53125 
Q 39.546875 41.84375 41.421875 45.53125 
Q 43.3125 49.21875 43.3125 52.78125 
Q 43.3125 58.59375 39.234375 62.25 
Q 35.15625 65.921875 28.609375 65.921875 
Q 23.96875 65.921875 18.8125 64.3125 
Q 13.671875 62.703125 7.8125 59.421875 
L 7.8125 69.390625 
Q 13.765625 71.78125 18.9375 73 
Q 24.125 74.21875 28.421875 74.21875 
Q 39.75 74.21875 46.484375 68.546875 
Q 53.21875 62.890625 53.21875 53.421875 
Q 53.21875 48.921875 51.53125 44.890625 
Q 49.859375 40.875 45.40625 35.40625 
Q 44.1875 33.984375 37.640625 27.21875 
Q 31.109375 20.453125 19.1875 8.296875 
z
" id="DejaVuSans-50"/>
       </defs>
       <use xlink:href="#DejaVuSans-48"/>
       <use x="63.623047" xlink:href="#DejaVuSans-46"/>
       <use x="95.410156" xlink:href="#DejaVuSans-50"/>
       <use x="159.033203" xlink:href="#DejaVuSans-48"/>
      </g>
     </g>
    </g>
    <g id="ytick_5">
     <g id="line2d_12">
      <g>
       <use style="stroke:#000000;stroke-width:0.8;" x="82.0875" xlink:href="#ma3a73677f0" y="165.717294"/>
      </g>
     </g>
     <g id="text_13">
      <!-- 0.25 -->
      <g transform="translate(30.55625 173.315732)scale(0.2 -0.2)">
       <use xlink:href="#DejaVuSans-48"/>
       <use x="63.623047" xlink:href="#DejaVuSans-46"/>
       <use x="95.410156" xlink:href="#DejaVuSans-50"/>
       <use x="159.033203" xlink:href="#DejaVuSans-53"/>
      </g>
     </g>
    </g>
    <g id="ytick_6">
     <g id="line2d_13">
      <g>
       <use style="stroke:#000000;stroke-width:0.8;" x="82.0875" xlink:href="#ma3a73677f0" y="108.760885"/>
      </g>
     </g>
     <g id="text_14">
      <!-- 0.30 -->
      <g transform="translate(30.55625 116.359322)scale(0.2 -0.2)">
       <use xlink:href="#DejaVuSans-48"/>
       <use x="63.623047" xlink:href="#DejaVuSans-46"/>
       <use x="95.410156" xlink:href="#DejaVuSans-51"/>
       <use x="159.033203" xlink:href="#DejaVuSans-48"/>
      </g>
     </g>
    </g>
    <g id="text_15">
     <!-- Feature importance in Random Forest models in CV -->
     <g transform="translate(22.396875 522.475)rotate(-90)scale(0.2 -0.2)">
      <defs>
       <path id="DejaVuSans-32"/>
       <path d="M 9.421875 54.6875 
L 18.40625 54.6875 
L 18.40625 0 
L 9.421875 0 
z
M 9.421875 75.984375 
L 18.40625 75.984375 
L 18.40625 64.59375 
L 9.421875 64.59375 
z
" id="DejaVuSans-105"/>
       <path d="M 52 44.1875 
Q 55.375 50.25 60.0625 53.125 
Q 64.75 56 71.09375 56 
Q 79.640625 56 84.28125 50.015625 
Q 88.921875 44.046875 88.921875 33.015625 
L 88.921875 0 
L 79.890625 0 
L 79.890625 32.71875 
Q 79.890625 40.578125 77.09375 44.375 
Q 74.3125 48.1875 68.609375 48.1875 
Q 61.625 48.1875 57.5625 43.546875 
Q 53.515625 38.921875 53.515625 30.90625 
L 53.515625 0 
L 44.484375 0 
L 44.484375 32.71875 
Q 44.484375 40.625 41.703125 44.40625 
Q 38.921875 48.1875 33.109375 48.1875 
Q 26.21875 48.1875 22.15625 43.53125 
Q 18.109375 38.875 18.109375 30.90625 
L 18.109375 0 
L 9.078125 0 
L 9.078125 54.6875 
L 18.109375 54.6875 
L 18.109375 46.1875 
Q 21.1875 51.21875 25.484375 53.609375 
Q 29.78125 56 35.6875 56 
Q 41.65625 56 45.828125 52.96875 
Q 50 49.953125 52 44.1875 
z
" id="DejaVuSans-109"/>
       <path d="M 18.109375 8.203125 
L 18.109375 -20.796875 
L 9.078125 -20.796875 
L 9.078125 54.6875 
L 18.109375 54.6875 
L 18.109375 46.390625 
Q 20.953125 51.265625 25.265625 53.625 
Q 29.59375 56 35.59375 56 
Q 45.5625 56 51.78125 48.09375 
Q 58.015625 40.1875 58.015625 27.296875 
Q 58.015625 14.40625 51.78125 6.484375 
Q 45.5625 -1.421875 35.59375 -1.421875 
Q 29.59375 -1.421875 25.265625 0.953125 
Q 20.953125 3.328125 18.109375 8.203125 
z
M 48.6875 27.296875 
Q 48.6875 37.203125 44.609375 42.84375 
Q 40.53125 48.484375 33.40625 48.484375 
Q 26.265625 48.484375 22.1875 42.84375 
Q 18.109375 37.203125 18.109375 27.296875 
Q 18.109375 17.390625 22.1875 11.75 
Q 26.265625 6.109375 33.40625 6.109375 
Q 40.53125 6.109375 44.609375 11.75 
Q 48.6875 17.390625 48.6875 27.296875 
z
" id="DejaVuSans-112"/>
       <path d="M 30.609375 48.390625 
Q 23.390625 48.390625 19.1875 42.75 
Q 14.984375 37.109375 14.984375 27.296875 
Q 14.984375 17.484375 19.15625 11.84375 
Q 23.34375 6.203125 30.609375 6.203125 
Q 37.796875 6.203125 41.984375 11.859375 
Q 46.1875 17.53125 46.1875 27.296875 
Q 46.1875 37.015625 41.984375 42.703125 
Q 37.796875 48.390625 30.609375 48.390625 
z
M 30.609375 56 
Q 42.328125 56 49.015625 48.375 
Q 55.71875 40.765625 55.71875 27.296875 
Q 55.71875 13.875 49.015625 6.21875 
Q 42.328125 -1.421875 30.609375 -1.421875 
Q 18.84375 -1.421875 12.171875 6.21875 
Q 5.515625 13.875 5.515625 27.296875 
Q 5.515625 40.765625 12.171875 48.375 
Q 18.84375 56 30.609375 56 
z
" id="DejaVuSans-111"/>
       <path d="M 54.890625 33.015625 
L 54.890625 0 
L 45.90625 0 
L 45.90625 32.71875 
Q 45.90625 40.484375 42.875 44.328125 
Q 39.84375 48.1875 33.796875 48.1875 
Q 26.515625 48.1875 22.3125 43.546875 
Q 18.109375 38.921875 18.109375 30.90625 
L 18.109375 0 
L 9.078125 0 
L 9.078125 54.6875 
L 18.109375 54.6875 
L 18.109375 46.1875 
Q 21.34375 51.125 25.703125 53.5625 
Q 30.078125 56 35.796875 56 
Q 45.21875 56 50.046875 50.171875 
Q 54.890625 44.34375 54.890625 33.015625 
z
" id="DejaVuSans-110"/>
       <path d="M 48.78125 52.59375 
L 48.78125 44.1875 
Q 44.96875 46.296875 41.140625 47.34375 
Q 37.3125 48.390625 33.40625 48.390625 
Q 24.65625 48.390625 19.8125 42.84375 
Q 14.984375 37.3125 14.984375 27.296875 
Q 14.984375 17.28125 19.8125 11.734375 
Q 24.65625 6.203125 33.40625 6.203125 
Q 37.3125 6.203125 41.140625 7.25 
Q 44.96875 8.296875 48.78125 10.40625 
L 48.78125 2.09375 
Q 45.015625 0.34375 40.984375 -0.53125 
Q 36.96875 -1.421875 32.421875 -1.421875 
Q 20.0625 -1.421875 12.78125 6.34375 
Q 5.515625 14.109375 5.515625 27.296875 
Q 5.515625 40.671875 12.859375 48.328125 
Q 20.21875 56 33.015625 56 
Q 37.15625 56 41.109375 55.140625 
Q 45.0625 54.296875 48.78125 52.59375 
z
" id="DejaVuSans-99"/>
       <path d="M 45.40625 46.390625 
L 45.40625 75.984375 
L 54.390625 75.984375 
L 54.390625 0 
L 45.40625 0 
L 45.40625 8.203125 
Q 42.578125 3.328125 38.25 0.953125 
Q 33.9375 -1.421875 27.875 -1.421875 
Q 17.96875 -1.421875 11.734375 6.484375 
Q 5.515625 14.40625 5.515625 27.296875 
Q 5.515625 40.1875 11.734375 48.09375 
Q 17.96875 56 27.875 56 
Q 33.9375 56 38.25 53.625 
Q 42.578125 51.265625 45.40625 46.390625 
z
M 14.796875 27.296875 
Q 14.796875 17.390625 18.875 11.75 
Q 22.953125 6.109375 30.078125 6.109375 
Q 37.203125 6.109375 41.296875 11.75 
Q 45.40625 17.390625 45.40625 27.296875 
Q 45.40625 37.203125 41.296875 42.84375 
Q 37.203125 48.484375 30.078125 48.484375 
Q 22.953125 48.484375 18.875 42.84375 
Q 14.796875 37.203125 14.796875 27.296875 
z
" id="DejaVuSans-100"/>
       <path d="M 9.421875 75.984375 
L 18.40625 75.984375 
L 18.40625 0 
L 9.421875 0 
z
" id="DejaVuSans-108"/>
       <path d="M 64.40625 67.28125 
L 64.40625 56.890625 
Q 59.421875 61.53125 53.78125 63.8125 
Q 48.140625 66.109375 41.796875 66.109375 
Q 29.296875 66.109375 22.65625 58.46875 
Q 16.015625 50.828125 16.015625 36.375 
Q 16.015625 21.96875 22.65625 14.328125 
Q 29.296875 6.6875 41.796875 6.6875 
Q 48.140625 6.6875 53.78125 8.984375 
Q 59.421875 11.28125 64.40625 15.921875 
L 64.40625 5.609375 
Q 59.234375 2.09375 53.4375 0.328125 
Q 47.65625 -1.421875 41.21875 -1.421875 
Q 24.65625 -1.421875 15.125 8.703125 
Q 5.609375 18.84375 5.609375 36.375 
Q 5.609375 53.953125 15.125 64.078125 
Q 24.65625 74.21875 41.21875 74.21875 
Q 47.75 74.21875 53.53125 72.484375 
Q 59.328125 70.75 64.40625 67.28125 
z
" id="DejaVuSans-67"/>
      </defs>
      <use xlink:href="#DejaVuSans-70"/>
      <use x="52.019531" xlink:href="#DejaVuSans-101"/>
      <use x="113.542969" xlink:href="#DejaVuSans-97"/>
      <use x="174.822266" xlink:href="#DejaVuSans-116"/>
      <use x="214.03125" xlink:href="#DejaVuSans-117"/>
      <use x="277.410156" xlink:href="#DejaVuSans-114"/>
      <use x="316.273438" xlink:href="#DejaVuSans-101"/>
      <use x="377.796875" xlink:href="#DejaVuSans-32"/>
      <use x="409.583984" xlink:href="#DejaVuSans-105"/>
      <use x="437.367188" xlink:href="#DejaVuSans-109"/>
      <use x="534.779297" xlink:href="#DejaVuSans-112"/>
      <use x="598.255859" xlink:href="#DejaVuSans-111"/>
      <use x="659.4375" xlink:href="#DejaVuSans-114"/>
      <use x="700.550781" xlink:href="#DejaVuSans-116"/>
      <use x="739.759766" xlink:href="#DejaVuSans-97"/>
      <use x="801.039062" xlink:href="#DejaVuSans-110"/>
      <use x="864.417969" xlink:href="#DejaVuSans-99"/>
      <use x="919.398438" xlink:href="#DejaVuSans-101"/>
      <use x="980.921875" xlink:href="#DejaVuSans-32"/>
      <use x="1012.708984" xlink:href="#DejaVuSans-105"/>
      <use x="1040.492188" xlink:href="#DejaVuSans-110"/>
      <use x="1103.871094" xlink:href="#DejaVuSans-32"/>
      <use x="1135.658203" xlink:href="#DejaVuSans-82"/>
      <use x="1202.890625" xlink:href="#DejaVuSans-97"/>
      <use x="1264.169922" xlink:href="#DejaVuSans-110"/>
      <use x="1327.548828" xlink:href="#DejaVuSans-100"/>
      <use x="1391.025391" xlink:href="#DejaVuSans-111"/>
      <use x="1452.207031" xlink:href="#DejaVuSans-109"/>
      <use x="1549.619141" xlink:href="#DejaVuSans-32"/>
      <use x="1581.40625" xlink:href="#DejaVuSans-70"/>
      <use x="1635.300781" xlink:href="#DejaVuSans-111"/>
      <use x="1696.482422" xlink:href="#DejaVuSans-114"/>
      <use x="1735.345703" xlink:href="#DejaVuSans-101"/>
      <use x="1796.869141" xlink:href="#DejaVuSans-115"/>
      <use x="1848.96875" xlink:href="#DejaVuSans-116"/>
      <use x="1888.177734" xlink:href="#DejaVuSans-32"/>
      <use x="1919.964844" xlink:href="#DejaVuSans-109"/>
      <use x="2017.376953" xlink:href="#DejaVuSans-111"/>
      <use x="2078.558594" xlink:href="#DejaVuSans-100"/>
      <use x="2142.035156" xlink:href="#DejaVuSans-101"/>
      <use x="2203.558594" xlink:href="#DejaVuSans-108"/>
      <use x="2231.341797" xlink:href="#DejaVuSans-115"/>
      <use x="2283.441406" xlink:href="#DejaVuSans-32"/>
      <use x="2315.228516" xlink:href="#DejaVuSans-105"/>
      <use x="2343.011719" xlink:href="#DejaVuSans-110"/>
      <use x="2406.390625" xlink:href="#DejaVuSans-32"/>
      <use x="2438.177734" xlink:href="#DejaVuSans-67"/>
      <use x="2508.001953" xlink:href="#DejaVuSans-86"/>
     </g>
    </g>
   </g>
   <g id="line2d_14">
    <path clip-path="url(#p516f54964e)" d="M 183.323214 115.044345 
L 183.323214 121.85684 
" style="fill:none;stroke:#4c4c4c;stroke-linecap:square;stroke-width:1.5;"/>
   </g>
   <g id="line2d_15">
    <path clip-path="url(#p516f54964e)" d="M 183.323214 101.109681 
L 183.323214 99.928409 
" style="fill:none;stroke:#4c4c4c;stroke-linecap:square;stroke-width:1.5;"/>
   </g>
   <g id="line2d_16">
    <path clip-path="url(#p516f54964e)" d="M 142.828929 121.85684 
L 223.8175 121.85684 
" style="fill:none;stroke:#4c4c4c;stroke-linecap:square;stroke-width:1.5;"/>
   </g>
   <g id="line2d_17">
    <path clip-path="url(#p516f54964e)" d="M 142.828929 99.928409 
L 223.8175 99.928409 
" style="fill:none;stroke:#4c4c4c;stroke-linecap:square;stroke-width:1.5;"/>
   </g>
   <g id="line2d_18"/>
   <g id="line2d_19">
    <path clip-path="url(#p516f54964e)" d="M 385.794643 196.356705 
L 385.794643 208.069763 
" style="fill:none;stroke:#4c4c4c;stroke-linecap:square;stroke-width:1.5;"/>
   </g>
   <g id="line2d_20">
    <path clip-path="url(#p516f54964e)" d="M 385.794643 184.665505 
L 385.794643 183.423881 
" style="fill:none;stroke:#4c4c4c;stroke-linecap:square;stroke-width:1.5;"/>
   </g>
   <g id="line2d_21">
    <path clip-path="url(#p516f54964e)" d="M 345.300357 208.069763 
L 426.288929 208.069763 
" style="fill:none;stroke:#4c4c4c;stroke-linecap:square;stroke-width:1.5;"/>
   </g>
   <g id="line2d_22">
    <path clip-path="url(#p516f54964e)" d="M 345.300357 183.423881 
L 426.288929 183.423881 
" style="fill:none;stroke:#4c4c4c;stroke-linecap:square;stroke-width:1.5;"/>
   </g>
   <g id="line2d_23"/>
   <g id="line2d_24">
    <path clip-path="url(#p516f54964e)" d="M 588.266071 200.109809 
L 588.266071 204.987948 
" style="fill:none;stroke:#4c4c4c;stroke-linecap:square;stroke-width:1.5;"/>
   </g>
   <g id="line2d_25">
    <path clip-path="url(#p516f54964e)" d="M 588.266071 192.182747 
L 588.266071 189.148165 
" style="fill:none;stroke:#4c4c4c;stroke-linecap:square;stroke-width:1.5;"/>
   </g>
   <g id="line2d_26">
    <path clip-path="url(#p516f54964e)" d="M 547.771786 204.987948 
L 628.760357 204.987948 
" style="fill:none;stroke:#4c4c4c;stroke-linecap:square;stroke-width:1.5;"/>
   </g>
   <g id="line2d_27">
    <path clip-path="url(#p516f54964e)" d="M 547.771786 189.148165 
L 628.760357 189.148165 
" style="fill:none;stroke:#4c4c4c;stroke-linecap:square;stroke-width:1.5;"/>
   </g>
   <g id="line2d_28"/>
   <g id="line2d_29">
    <path clip-path="url(#p516f54964e)" d="M 790.7375 266.310473 
L 790.7375 268.086134 
" style="fill:none;stroke:#4c4c4c;stroke-linecap:square;stroke-width:1.5;"/>
   </g>
   <g id="line2d_30">
    <path clip-path="url(#p516f54964e)" d="M 790.7375 261.036718 
L 790.7375 255.038589 
" style="fill:none;stroke:#4c4c4c;stroke-linecap:square;stroke-width:1.5;"/>
   </g>
   <g id="line2d_31">
    <path clip-path="url(#p516f54964e)" d="M 750.243214 268.086134 
L 831.231786 268.086134 
" style="fill:none;stroke:#4c4c4c;stroke-linecap:square;stroke-width:1.5;"/>
   </g>
   <g id="line2d_32">
    <path clip-path="url(#p516f54964e)" d="M 750.243214 255.038589 
L 831.231786 255.038589 
" style="fill:none;stroke:#4c4c4c;stroke-linecap:square;stroke-width:1.5;"/>
   </g>
   <g id="line2d_33"/>
   <g id="line2d_34">
    <path clip-path="url(#p516f54964e)" d="M 993.208929 400.160025 
L 993.208929 401.020927 
" style="fill:none;stroke:#4c4c4c;stroke-linecap:square;stroke-width:1.5;"/>
   </g>
   <g id="line2d_35">
    <path clip-path="url(#p516f54964e)" d="M 993.208929 398.753112 
L 993.208929 398.627213 
" style="fill:none;stroke:#4c4c4c;stroke-linecap:square;stroke-width:1.5;"/>
   </g>
   <g id="line2d_36">
    <path clip-path="url(#p516f54964e)" d="M 952.714643 401.020927 
L 1033.703214 401.020927 
" style="fill:none;stroke:#4c4c4c;stroke-linecap:square;stroke-width:1.5;"/>
   </g>
   <g id="line2d_37">
    <path clip-path="url(#p516f54964e)" d="M 952.714643 398.627213 
L 1033.703214 398.627213 
" style="fill:none;stroke:#4c4c4c;stroke-linecap:square;stroke-width:1.5;"/>
   </g>
   <g id="line2d_38">
    <defs>
     <path d="M -0 3.535534 
L 2.12132 0 
L -0 -3.535534 
L -2.12132 -0 
z
" id="m71025d3fe2" style="stroke:#4c4c4c;stroke-linejoin:miter;"/>
    </defs>
    <g clip-path="url(#p516f54964e)">
     <use style="fill:#4c4c4c;stroke:#4c4c4c;stroke-linejoin:miter;" x="993.208929" xlink:href="#m71025d3fe2" y="396.528494"/>
     <use style="fill:#4c4c4c;stroke:#4c4c4c;stroke-linejoin:miter;" x="993.208929" xlink:href="#m71025d3fe2" y="395.873541"/>
    </g>
   </g>
   <g id="line2d_39">
    <path clip-path="url(#p516f54964e)" d="M 1195.680357 427.164951 
L 1195.680357 428.706052 
" style="fill:none;stroke:#4c4c4c;stroke-linecap:square;stroke-width:1.5;"/>
   </g>
   <g id="line2d_40">
    <path clip-path="url(#p516f54964e)" d="M 1195.680357 425.556279 
L 1195.680357 423.994689 
" style="fill:none;stroke:#4c4c4c;stroke-linecap:square;stroke-width:1.5;"/>
   </g>
   <g id="line2d_41">
    <path clip-path="url(#p516f54964e)" d="M 1155.186071 428.706052 
L 1236.174643 428.706052 
" style="fill:none;stroke:#4c4c4c;stroke-linecap:square;stroke-width:1.5;"/>
   </g>
   <g id="line2d_42">
    <path clip-path="url(#p516f54964e)" d="M 1155.186071 423.994689 
L 1236.174643 423.994689 
" style="fill:none;stroke:#4c4c4c;stroke-linecap:square;stroke-width:1.5;"/>
   </g>
   <g id="line2d_43"/>
   <g id="line2d_44">
    <path clip-path="url(#p516f54964e)" d="M 1398.151786 428.329777 
L 1398.151786 429.746591 
" style="fill:none;stroke:#4c4c4c;stroke-linecap:square;stroke-width:1.5;"/>
   </g>
   <g id="line2d_45">
    <path clip-path="url(#p516f54964e)" d="M 1398.151786 427.003865 
L 1398.151786 425.581219 
" style="fill:none;stroke:#4c4c4c;stroke-linecap:square;stroke-width:1.5;"/>
   </g>
   <g id="line2d_46">
    <path clip-path="url(#p516f54964e)" d="M 1357.6575 429.746591 
L 1438.646071 429.746591 
" style="fill:none;stroke:#4c4c4c;stroke-linecap:square;stroke-width:1.5;"/>
   </g>
   <g id="line2d_47">
    <path clip-path="url(#p516f54964e)" d="M 1357.6575 425.581219 
L 1438.646071 425.581219 
" style="fill:none;stroke:#4c4c4c;stroke-linecap:square;stroke-width:1.5;"/>
   </g>
   <g id="line2d_48"/>
   <g id="line2d_49">
    <path clip-path="url(#p516f54964e)" d="M 102.334643 111.879083 
L 264.311786 111.879083 
" style="fill:none;stroke:#4c4c4c;stroke-linecap:square;stroke-width:1.5;"/>
   </g>
   <g id="line2d_50">
    <path clip-path="url(#p516f54964e)" d="M 304.806071 192.177802 
L 466.783214 192.177802 
" style="fill:none;stroke:#4c4c4c;stroke-linecap:square;stroke-width:1.5;"/>
   </g>
   <g id="line2d_51">
    <path clip-path="url(#p516f54964e)" d="M 507.2775 195.653497 
L 669.254643 195.653497 
" style="fill:none;stroke:#4c4c4c;stroke-linecap:square;stroke-width:1.5;"/>
   </g>
   <g id="line2d_52">
    <path clip-path="url(#p516f54964e)" d="M 709.748929 263.823992 
L 871.726071 263.823992 
" style="fill:none;stroke:#4c4c4c;stroke-linecap:square;stroke-width:1.5;"/>
   </g>
   <g id="line2d_53">
    <path clip-path="url(#p516f54964e)" d="M 912.220357 399.425592 
L 1074.1975 399.425592 
" style="fill:none;stroke:#4c4c4c;stroke-linecap:square;stroke-width:1.5;"/>
   </g>
   <g id="line2d_54">
    <path clip-path="url(#p516f54964e)" d="M 1114.691786 426.1191 
L 1276.668929 426.1191 
" style="fill:none;stroke:#4c4c4c;stroke-linecap:square;stroke-width:1.5;"/>
   </g>
   <g id="line2d_55">
    <path clip-path="url(#p516f54964e)" d="M 1317.163214 427.909995 
L 1479.140357 427.909995 
" style="fill:none;stroke:#4c4c4c;stroke-linecap:square;stroke-width:1.5;"/>
   </g>
   <g id="patch_10">
    <path d="M 82.0875 446.2375 
L 82.0875 83.4375 
" style="fill:none;stroke:#000000;stroke-linecap:square;stroke-linejoin:miter;stroke-width:0.8;"/>
   </g>
   <g id="patch_11">
    <path d="M 82.0875 446.2375 
L 1499.3875 446.2375 
" style="fill:none;stroke:#000000;stroke-linecap:square;stroke-linejoin:miter;stroke-width:0.8;"/>
   </g>
   <g id="PathCollection_1">
    <defs>
     <path d="M 0 2.5 
C 0.663008 2.5 1.29895 2.236584 1.767767 1.767767 
C 2.236584 1.29895 2.5 0.663008 2.5 -0 
C 2.5 -0.663008 2.236584 -1.29895 1.767767 -1.767767 
C 1.29895 -2.236584 0.663008 -2.5 0 -2.5 
C -0.663008 -2.5 -1.29895 -2.236584 -1.767767 -1.767767 
C -2.236584 -1.29895 -2.5 -0.663008 -2.5 0 
C -2.5 0.663008 -2.236584 1.29895 -1.767767 1.767767 
C -1.29895 2.236584 -0.663008 2.5 0 2.5 
z
" id="C0_0_f85e34b6a7"/>
    </defs>
    <g clip-path="url(#p516f54964e)">
     <use x="179.817778" xlink:href="#C0_0_f85e34b6a7" y="121.85684"/>
    </g>
    <g clip-path="url(#p516f54964e)">
     <use x="168.436923" xlink:href="#C0_0_f85e34b6a7" y="115.061436"/>
    </g>
    <g clip-path="url(#p516f54964e)">
     <use x="182.646956" xlink:href="#C0_0_f85e34b6a7" y="117.066226"/>
    </g>
    <g clip-path="url(#p516f54964e)">
     <use x="193.052041" xlink:href="#C0_0_f85e34b6a7" y="100.415271"/>
    </g>
    <g clip-path="url(#p516f54964e)">
     <use x="183.472532" xlink:href="#C0_0_f85e34b6a7" y="113.05758"/>
    </g>
    <g clip-path="url(#p516f54964e)">
     <use x="190.577941" xlink:href="#C0_0_f85e34b6a7" y="114.993073"/>
    </g>
    <g clip-path="url(#p516f54964e)">
     <use x="176.362946" xlink:href="#C0_0_f85e34b6a7" y="99.928409"/>
    </g>
    <g clip-path="url(#p516f54964e)">
     <use x="182.212577" xlink:href="#C0_0_f85e34b6a7" y="102.296763"/>
    </g>
    <g clip-path="url(#p516f54964e)">
     <use x="176.720895" xlink:href="#C0_0_f85e34b6a7" y="100.713987"/>
    </g>
    <g clip-path="url(#p516f54964e)">
     <use x="188.924571" xlink:href="#C0_0_f85e34b6a7" y="110.700585"/>
    </g>
   </g>
   <g id="PathCollection_2">
    <defs>
     <path d="M 0 2.5 
C 0.663008 2.5 1.29895 2.236584 1.767767 1.767767 
C 2.236584 1.29895 2.5 0.663008 2.5 -0 
C 2.5 -0.663008 2.236584 -1.29895 1.767767 -1.767767 
C 1.29895 -2.236584 0.663008 -2.5 0 -2.5 
C -0.663008 -2.5 -1.29895 -2.236584 -1.767767 -1.767767 
C -2.236584 -1.29895 -2.5 -0.663008 -2.5 0 
C -2.5 0.663008 -2.236584 1.29895 -1.767767 1.767767 
C -1.29895 2.236584 -0.663008 2.5 0 2.5 
z
" id="C1_0_f863e36a7c"/>
    </defs>
    <g clip-path="url(#p516f54964e)">
     <use x="392.987179" xlink:href="#C1_0_f863e36a7c" y="183.62383"/>
    </g>
    <g clip-path="url(#p516f54964e)">
     <use x="389.387048" xlink:href="#C1_0_f863e36a7c" y="184.418226"/>
    </g>
    <g clip-path="url(#p516f54964e)">
     <use x="390.111259" xlink:href="#C1_0_f863e36a7c" y="185.407345"/>
    </g>
    <g clip-path="url(#p516f54964e)">
     <use x="387.486347" xlink:href="#C1_0_f863e36a7c" y="196.609109"/>
    </g>
    <g clip-path="url(#p516f54964e)">
     <use x="392.530677" xlink:href="#C1_0_f863e36a7c" y="195.021719"/>
    </g>
    <g clip-path="url(#p516f54964e)">
     <use x="406.037768" xlink:href="#C1_0_f863e36a7c" y="189.333885"/>
    </g>
    <g clip-path="url(#p516f54964e)">
     <use x="372.029702" xlink:href="#C1_0_f863e36a7c" y="195.599491"/>
    </g>
    <g clip-path="url(#p516f54964e)">
     <use x="377.077262" xlink:href="#C1_0_f863e36a7c" y="208.069763"/>
    </g>
    <g clip-path="url(#p516f54964e)">
     <use x="373.86182" xlink:href="#C1_0_f863e36a7c" y="198.392977"/>
    </g>
    <g clip-path="url(#p516f54964e)">
     <use x="402.191199" xlink:href="#C1_0_f863e36a7c" y="183.423881"/>
    </g>
   </g>
   <g id="PathCollection_3">
    <defs>
     <path d="M 0 2.5 
C 0.663008 2.5 1.29895 2.236584 1.767767 1.767767 
C 2.236584 1.29895 2.5 0.663008 2.5 -0 
C 2.5 -0.663008 2.236584 -1.29895 1.767767 -1.767767 
C 1.29895 -2.236584 0.663008 -2.5 0 -2.5 
C -0.663008 -2.5 -1.29895 -2.236584 -1.767767 -1.767767 
C -2.236584 -1.29895 -2.5 -0.663008 -2.5 0 
C -2.5 0.663008 -2.236584 1.29895 -1.767767 1.767767 
C -1.29895 2.236584 -0.663008 2.5 0 2.5 
z
" id="C2_0_d2418ae3c1"/>
    </defs>
    <g clip-path="url(#p516f54964e)">
     <use x="578.052862" xlink:href="#C2_0_d2418ae3c1" y="193.369971"/>
    </g>
    <g clip-path="url(#p516f54964e)">
     <use x="572.677055" xlink:href="#C2_0_d2418ae3c1" y="201.18895"/>
    </g>
    <g clip-path="url(#p516f54964e)">
     <use x="593.379793" xlink:href="#C2_0_d2418ae3c1" y="191.787006"/>
    </g>
    <g clip-path="url(#p516f54964e)">
     <use x="598.334446" xlink:href="#C2_0_d2418ae3c1" y="196.143023"/>
    </g>
    <g clip-path="url(#p516f54964e)">
     <use x="586.838606" xlink:href="#C2_0_d2418ae3c1" y="189.148165"/>
    </g>
    <g clip-path="url(#p516f54964e)">
     <use x="596.198405" xlink:href="#C2_0_d2418ae3c1" y="191.404227"/>
    </g>
    <g clip-path="url(#p516f54964e)">
     <use x="604.110002" xlink:href="#C2_0_d2418ae3c1" y="204.987948"/>
    </g>
    <g clip-path="url(#p516f54964e)">
     <use x="596.096171" xlink:href="#C2_0_d2418ae3c1" y="195.163972"/>
    </g>
    <g clip-path="url(#p516f54964e)">
     <use x="578.084201" xlink:href="#C2_0_d2418ae3c1" y="196.872386"/>
    </g>
    <g clip-path="url(#p516f54964e)">
     <use x="600.799553" xlink:href="#C2_0_d2418ae3c1" y="204.566045"/>
    </g>
   </g>
   <g id="PathCollection_4">
    <defs>
     <path d="M 0 2.5 
C 0.663008 2.5 1.29895 2.236584 1.767767 1.767767 
C 2.236584 1.29895 2.5 0.663008 2.5 -0 
C 2.5 -0.663008 2.236584 -1.29895 1.767767 -1.767767 
C 1.29895 -2.236584 0.663008 -2.5 0 -2.5 
C -0.663008 -2.5 -1.29895 -2.236584 -1.767767 -1.767767 
C -2.236584 -1.29895 -2.5 -0.663008 -2.5 0 
C -2.5 0.663008 -2.236584 1.29895 -1.767767 1.767767 
C -1.29895 2.236584 -0.663008 2.5 0 2.5 
z
" id="C3_0_e5a0b43c16"/>
    </defs>
    <g clip-path="url(#p516f54964e)">
     <use x="800.249444" xlink:href="#C3_0_e5a0b43c16" y="263.067273"/>
    </g>
    <g clip-path="url(#p516f54964e)">
     <use x="785.541423" xlink:href="#C3_0_e5a0b43c16" y="255.038589"/>
    </g>
    <g clip-path="url(#p516f54964e)">
     <use x="792.86813" xlink:href="#C3_0_e5a0b43c16" y="268.086134"/>
    </g>
    <g clip-path="url(#p516f54964e)">
     <use x="784.398253" xlink:href="#C3_0_e5a0b43c16" y="266.326433"/>
    </g>
    <g clip-path="url(#p516f54964e)">
     <use x="801.781243" xlink:href="#C3_0_e5a0b43c16" y="266.262594"/>
    </g>
    <g clip-path="url(#p516f54964e)">
     <use x="805.05826" xlink:href="#C3_0_e5a0b43c16" y="267.172241"/>
    </g>
    <g clip-path="url(#p516f54964e)">
     <use x="794.41225" xlink:href="#C3_0_e5a0b43c16" y="260.359866"/>
    </g>
    <g clip-path="url(#p516f54964e)">
     <use x="782.261212" xlink:href="#C3_0_e5a0b43c16" y="258.579999"/>
    </g>
    <g clip-path="url(#p516f54964e)">
     <use x="786.78244" xlink:href="#C3_0_e5a0b43c16" y="263.839367"/>
    </g>
    <g clip-path="url(#p516f54964e)">
     <use x="804.306699" xlink:href="#C3_0_e5a0b43c16" y="263.808618"/>
    </g>
   </g>
   <g id="PathCollection_5">
    <defs>
     <path d="M 0 2.5 
C 0.663008 2.5 1.29895 2.236584 1.767767 1.767767 
C 2.236584 1.29895 2.5 0.663008 2.5 -0 
C 2.5 -0.663008 2.236584 -1.29895 1.767767 -1.767767 
C 1.29895 -2.236584 0.663008 -2.5 0 -2.5 
C -0.663008 -2.5 -1.29895 -2.236584 -1.767767 -1.767767 
C -2.236584 -1.29895 -2.5 -0.663008 -2.5 0 
C -2.5 0.663008 -2.236584 1.29895 -1.767767 1.767767 
C -1.29895 2.236584 -0.663008 2.5 0 2.5 
z
" id="C4_0_ed4aa48831"/>
    </defs>
    <g clip-path="url(#p516f54964e)">
     <use x="1010.38816" xlink:href="#C4_0_ed4aa48831" y="399.13081"/>
    </g>
    <g clip-path="url(#p516f54964e)">
     <use x="1008.901495" xlink:href="#C4_0_ed4aa48831" y="401.020927"/>
    </g>
    <g clip-path="url(#p516f54964e)">
     <use x="984.788335" xlink:href="#C4_0_ed4aa48831" y="396.528494"/>
    </g>
    <g clip-path="url(#p516f54964e)">
     <use x="978.984254" xlink:href="#C4_0_ed4aa48831" y="400.253768"/>
    </g>
    <g clip-path="url(#p516f54964e)">
     <use x="976.540318" xlink:href="#C4_0_ed4aa48831" y="395.873541"/>
    </g>
    <g clip-path="url(#p516f54964e)">
     <use x="996.596729" xlink:href="#C4_0_ed4aa48831" y="398.627213"/>
    </g>
    <g clip-path="url(#p516f54964e)">
     <use x="976.93445" xlink:href="#C4_0_ed4aa48831" y="399.609792"/>
    </g>
    <g clip-path="url(#p516f54964e)">
     <use x="1009.71389" xlink:href="#C4_0_ed4aa48831" y="399.878793"/>
    </g>
    <g clip-path="url(#p516f54964e)">
     <use x="992.508945" xlink:href="#C4_0_ed4aa48831" y="400.457637"/>
    </g>
    <g clip-path="url(#p516f54964e)">
     <use x="989.253498" xlink:href="#C4_0_ed4aa48831" y="399.241393"/>
    </g>
   </g>
   <g id="PathCollection_6">
    <defs>
     <path d="M 0 2.5 
C 0.663008 2.5 1.29895 2.236584 1.767767 1.767767 
C 2.236584 1.29895 2.5 0.663008 2.5 -0 
C 2.5 -0.663008 2.236584 -1.29895 1.767767 -1.767767 
C 1.29895 -2.236584 0.663008 -2.5 0 -2.5 
C -0.663008 -2.5 -1.29895 -2.236584 -1.767767 -1.767767 
C -2.236584 -1.29895 -2.5 -0.663008 -2.5 0 
C -2.5 0.663008 -2.236584 1.29895 -1.767767 1.767767 
C -1.29895 2.236584 -0.663008 2.5 0 2.5 
z
" id="C5_0_e247637557"/>
    </defs>
    <g clip-path="url(#p516f54964e)">
     <use x="1180.909762" xlink:href="#C5_0_e247637557" y="425.422469"/>
    </g>
    <g clip-path="url(#p516f54964e)">
     <use x="1214.888381" xlink:href="#C5_0_e247637557" y="427.892479"/>
    </g>
    <g clip-path="url(#p516f54964e)">
     <use x="1194.614008" xlink:href="#C5_0_e247637557" y="428.706052"/>
    </g>
    <g clip-path="url(#p516f54964e)">
     <use x="1187.214728" xlink:href="#C5_0_e247637557" y="426.196157"/>
    </g>
    <g clip-path="url(#p516f54964e)">
     <use x="1180.242214" xlink:href="#C5_0_e247637557" y="427.34596"/>
    </g>
    <g clip-path="url(#p516f54964e)">
     <use x="1176.339611" xlink:href="#C5_0_e247637557" y="426.621927"/>
    </g>
    <g clip-path="url(#p516f54964e)">
     <use x="1181.716811" xlink:href="#C5_0_e247637557" y="425.957708"/>
    </g>
    <g clip-path="url(#p516f54964e)">
     <use x="1187.632359" xlink:href="#C5_0_e247637557" y="424.796689"/>
    </g>
    <g clip-path="url(#p516f54964e)">
     <use x="1200.728997" xlink:href="#C5_0_e247637557" y="426.042043"/>
    </g>
    <g clip-path="url(#p516f54964e)">
     <use x="1184.29153" xlink:href="#C5_0_e247637557" y="423.994689"/>
    </g>
   </g>
   <g id="PathCollection_7">
    <defs>
     <path d="M 0 2.5 
C 0.663008 2.5 1.29895 2.236584 1.767767 1.767767 
C 2.236584 1.29895 2.5 0.663008 2.5 -0 
C 2.5 -0.663008 2.236584 -1.29895 1.767767 -1.767767 
C 1.29895 -2.236584 0.663008 -2.5 0 -2.5 
C -0.663008 -2.5 -1.29895 -2.236584 -1.767767 -1.767767 
C -2.236584 -1.29895 -2.5 -0.663008 -2.5 0 
C -2.5 0.663008 -2.236584 1.29895 -1.767767 1.767767 
C -1.29895 2.236584 -0.663008 2.5 0 2.5 
z
" id="C6_0_71a0accf38"/>
    </defs>
    <g clip-path="url(#p516f54964e)">
     <use x="1388.411515" xlink:href="#C6_0_71a0accf38" y="427.896005"/>
    </g>
    <g clip-path="url(#p516f54964e)">
     <use x="1391.77094" xlink:href="#C6_0_71a0accf38" y="429.746591"/>
    </g>
    <g clip-path="url(#p516f54964e)">
     <use x="1403.557689" xlink:href="#C6_0_71a0accf38" y="426.785941"/>
    </g>
    <g clip-path="url(#p516f54964e)">
     <use x="1416.332873" xlink:href="#C6_0_71a0accf38" y="428.423436"/>
    </g>
    <g clip-path="url(#p516f54964e)">
     <use x="1392.479964" xlink:href="#C6_0_71a0accf38" y="427.657639"/>
    </g>
    <g clip-path="url(#p516f54964e)">
     <use x="1395.037292" xlink:href="#C6_0_71a0accf38" y="426.214632"/>
    </g>
    <g clip-path="url(#p516f54964e)">
     <use x="1406.376419" xlink:href="#C6_0_71a0accf38" y="427.923985"/>
    </g>
    <g clip-path="url(#p516f54964e)">
     <use x="1411.549118" xlink:href="#C6_0_71a0accf38" y="425.581219"/>
    </g>
    <g clip-path="url(#p516f54964e)">
     <use x="1404.724901" xlink:href="#C6_0_71a0accf38" y="428.0488"/>
    </g>
    <g clip-path="url(#p516f54964e)">
     <use x="1380.15776" xlink:href="#C6_0_71a0accf38" y="428.631987"/>
    </g>
   </g>
   <g id="text_16">
    <!-- vardict feature importance analysis -->
    <g transform="translate(577.398125 33.4375)scale(0.24 -0.24)">
     <defs>
      <path d="M 2.984375 54.6875 
L 12.5 54.6875 
L 29.59375 8.796875 
L 46.6875 54.6875 
L 56.203125 54.6875 
L 35.6875 0 
L 23.484375 0 
z
" id="DejaVuSans-118"/>
      <path d="M 37.109375 75.984375 
L 37.109375 68.5 
L 28.515625 68.5 
Q 23.6875 68.5 21.796875 66.546875 
Q 19.921875 64.59375 19.921875 59.515625 
L 19.921875 54.6875 
L 34.71875 54.6875 
L 34.71875 47.703125 
L 19.921875 47.703125 
L 19.921875 0 
L 10.890625 0 
L 10.890625 47.703125 
L 2.296875 47.703125 
L 2.296875 54.6875 
L 10.890625 54.6875 
L 10.890625 58.5 
Q 10.890625 67.625 15.140625 71.796875 
Q 19.390625 75.984375 28.609375 75.984375 
z
" id="DejaVuSans-102"/>
      <path d="M 32.171875 -5.078125 
Q 28.375 -14.84375 24.75 -17.8125 
Q 21.140625 -20.796875 15.09375 -20.796875 
L 7.90625 -20.796875 
L 7.90625 -13.28125 
L 13.1875 -13.28125 
Q 16.890625 -13.28125 18.9375 -11.515625 
Q 21 -9.765625 23.484375 -3.21875 
L 25.09375 0.875 
L 2.984375 54.6875 
L 12.5 54.6875 
L 29.59375 11.921875 
L 46.6875 54.6875 
L 56.203125 54.6875 
z
" id="DejaVuSans-121"/>
     </defs>
     <use xlink:href="#DejaVuSans-118"/>
     <use x="59.179688" xlink:href="#DejaVuSans-97"/>
     <use x="120.458984" xlink:href="#DejaVuSans-114"/>
     <use x="159.822266" xlink:href="#DejaVuSans-100"/>
     <use x="223.298828" xlink:href="#DejaVuSans-105"/>
     <use x="251.082031" xlink:href="#DejaVuSans-99"/>
     <use x="306.0625" xlink:href="#DejaVuSans-116"/>
     <use x="345.271484" xlink:href="#DejaVuSans-32"/>
     <use x="377.058594" xlink:href="#DejaVuSans-102"/>
     <use x="412.263672" xlink:href="#DejaVuSans-101"/>
     <use x="473.787109" xlink:href="#DejaVuSans-97"/>
     <use x="535.066406" xlink:href="#DejaVuSans-116"/>
     <use x="574.275391" xlink:href="#DejaVuSans-117"/>
     <use x="637.654297" xlink:href="#DejaVuSans-114"/>
     <use x="676.517578" xlink:href="#DejaVuSans-101"/>
     <use x="738.041016" xlink:href="#DejaVuSans-32"/>
     <use x="769.828125" xlink:href="#DejaVuSans-105"/>
     <use x="797.611328" xlink:href="#DejaVuSans-109"/>
     <use x="895.023438" xlink:href="#DejaVuSans-112"/>
     <use x="958.5" xlink:href="#DejaVuSans-111"/>
     <use x="1019.681641" xlink:href="#DejaVuSans-114"/>
     <use x="1060.794922" xlink:href="#DejaVuSans-116"/>
     <use x="1100.003906" xlink:href="#DejaVuSans-97"/>
     <use x="1161.283203" xlink:href="#DejaVuSans-110"/>
     <use x="1224.662109" xlink:href="#DejaVuSans-99"/>
     <use x="1279.642578" xlink:href="#DejaVuSans-101"/>
     <use x="1341.166016" xlink:href="#DejaVuSans-32"/>
     <use x="1372.953125" xlink:href="#DejaVuSans-97"/>
     <use x="1434.232422" xlink:href="#DejaVuSans-110"/>
     <use x="1497.611328" xlink:href="#DejaVuSans-97"/>
     <use x="1558.890625" xlink:href="#DejaVuSans-108"/>
     <use x="1586.673828" xlink:href="#DejaVuSans-121"/>
     <use x="1645.853516" xlink:href="#DejaVuSans-115"/>
     <use x="1697.953125" xlink:href="#DejaVuSans-105"/>
     <use x="1725.736328" xlink:href="#DejaVuSans-115"/>
    </g>
   </g>
  </g>
 </g>
 <defs>
  <clipPath id="p516f54964e">
   <rect height="362.8" width="1417.3" x="82.0875" y="83.4375"/>
  </clipPath>
 </defs>
</svg>
