<?xml version="1.0" encoding="utf-8" standalone="no"?>
<!DOCTYPE svg PUBLIC "-//W3C//DTD SVG 1.1//EN"
  "http://www.w3.org/Graphics/SVG/1.1/DTD/svg11.dtd">
<!-- Created with matplotlib (https://matplotlib.org/) -->
<svg height="624.094784pt" version="1.1" viewBox="0 0 1506.5875 624.094784" width="1506.5875pt" xmlns="http://www.w3.org/2000/svg" xmlns:xlink="http://www.w3.org/1999/xlink">
 <metadata>
  <rdf:RDF xmlns:cc="http://creativecommons.org/ns#" xmlns:dc="http://purl.org/dc/elements/1.1/" xmlns:rdf="http://www.w3.org/1999/02/22-rdf-syntax-ns#">
   <cc:Work>
    <dc:type rdf:resource="http://purl.org/dc/dcmitype/StillImage"/>
    <dc:date>2023-01-22T13:30:54.954510</dc:date>
    <dc:format>image/svg+xml</dc:format>
    <dc:creator>
     <cc:Agent>
      <dc:title>Matplotlib v3.3.4, https://matplotlib.org/</dc:title>
     </cc:Agent>
    </dc:creator>
   </cc:Work>
  </rdf:RDF>
 </metadata>
 <defs>
  <style type="text/css">*{stroke-linecap:butt;stroke-linejoin:round;}</style>
 </defs>
 <g id="figure_1">
  <g id="patch_1">
   <path d="M 0 624.094784 
L 1506.5875 624.094784 
L 1506.5875 0 
L 0 0 
z
" style="fill:none;"/>
  </g>
  <g id="axes_1">
   <g id="patch_2">
    <path d="M 82.0875 446.2375 
L 1499.3875 446.2375 
L 1499.3875 83.4375 
L 82.0875 83.4375 
z
" style="fill:#ffffff;"/>
   </g>
   <g id="patch_3">
    <path clip-path="url(#peccf510067)" d="M 90.424559 121.672765 
L 157.121029 121.672765 
L 157.121029 111.109151 
L 90.424559 111.109151 
L 90.424559 121.672765 
z
" style="fill:#e1812c;stroke:#515151;stroke-linejoin:miter;stroke-width:1.5;"/>
   </g>
   <g id="patch_4">
    <path clip-path="url(#peccf510067)" d="M 173.795147 197.937396 
L 240.491618 197.937396 
L 240.491618 186.930676 
L 173.795147 186.930676 
L 173.795147 197.937396 
z
" style="fill:#e1812c;stroke:#515151;stroke-linejoin:miter;stroke-width:1.5;"/>
   </g>
   <g id="patch_5">
    <path clip-path="url(#peccf510067)" d="M 257.165735 291.653692 
L 323.862206 291.653692 
L 323.862206 283.221014 
L 257.165735 283.221014 
L 257.165735 291.653692 
z
" style="fill:#e1812c;stroke:#515151;stroke-linejoin:miter;stroke-width:1.5;"/>
   </g>
   <g id="patch_6">
    <path clip-path="url(#peccf510067)" d="M 340.536324 309.965596 
L 407.232794 309.965596 
L 407.232794 306.29839 
L 340.536324 306.29839 
L 340.536324 309.965596 
z
" style="fill:#e1812c;stroke:#515151;stroke-linejoin:miter;stroke-width:1.5;"/>
   </g>
   <g id="patch_7">
    <path clip-path="url(#peccf510067)" d="M 423.906912 331.859096 
L 490.603382 331.859096 
L 490.603382 326.832517 
L 423.906912 326.832517 
L 423.906912 331.859096 
z
" style="fill:#e1812c;stroke:#515151;stroke-linejoin:miter;stroke-width:1.5;"/>
   </g>
   <g id="patch_8">
    <path clip-path="url(#peccf510067)" d="M 507.2775 360.557397 
L 573.973971 360.557397 
L 573.973971 357.134413 
L 507.2775 357.134413 
L 507.2775 360.557397 
z
" style="fill:#e1812c;stroke:#515151;stroke-linejoin:miter;stroke-width:1.5;"/>
   </g>
   <g id="patch_9">
    <path clip-path="url(#peccf510067)" d="M 590.648088 359.512402 
L 657.344559 359.512402 
L 657.344559 358.351145 
L 590.648088 358.351145 
L 590.648088 359.512402 
z
" style="fill:#e1812c;stroke:#515151;stroke-linejoin:miter;stroke-width:1.5;"/>
   </g>
   <g id="patch_10">
    <path clip-path="url(#peccf510067)" d="M 674.018676 381.229795 
L 740.715147 381.229795 
L 740.715147 378.015035 
L 674.018676 378.015035 
L 674.018676 381.229795 
z
" style="fill:#e1812c;stroke:#515151;stroke-linejoin:miter;stroke-width:1.5;"/>
   </g>
   <g id="patch_11">
    <path clip-path="url(#peccf510067)" d="M 757.389265 384.715528 
L 824.085735 384.715528 
L 824.085735 382.475058 
L 757.389265 382.475058 
L 757.389265 384.715528 
z
" style="fill:#e1812c;stroke:#515151;stroke-linejoin:miter;stroke-width:1.5;"/>
   </g>
   <g id="patch_12">
    <path clip-path="url(#peccf510067)" d="M 840.759853 390.068905 
L 907.456324 390.068905 
L 907.456324 387.481012 
L 840.759853 387.481012 
L 840.759853 390.068905 
z
" style="fill:#e1812c;stroke:#515151;stroke-linejoin:miter;stroke-width:1.5;"/>
   </g>
   <g id="patch_13">
    <path clip-path="url(#peccf510067)" d="M 924.130441 394.013388 
L 990.826912 394.013388 
L 990.826912 392.816931 
L 924.130441 392.816931 
L 924.130441 394.013388 
z
" style="fill:#e1812c;stroke:#515151;stroke-linejoin:miter;stroke-width:1.5;"/>
   </g>
   <g id="patch_14">
    <path clip-path="url(#peccf510067)" d="M 1007.501029 405.287097 
L 1074.1975 405.287097 
L 1074.1975 403.984111 
L 1007.501029 403.984111 
L 1007.501029 405.287097 
z
" style="fill:#e1812c;stroke:#515151;stroke-linejoin:miter;stroke-width:1.5;"/>
   </g>
   <g id="patch_15">
    <path clip-path="url(#peccf510067)" d="M 1090.871618 423.422073 
L 1157.568088 423.422073 
L 1157.568088 422.601414 
L 1090.871618 422.601414 
L 1090.871618 423.422073 
z
" style="fill:#e1812c;stroke:#515151;stroke-linejoin:miter;stroke-width:1.5;"/>
   </g>
   <g id="patch_16">
    <path clip-path="url(#peccf510067)" d="M 1174.242206 425.42054 
L 1240.938676 425.42054 
L 1240.938676 424.570149 
L 1174.242206 424.570149 
L 1174.242206 425.42054 
z
" style="fill:#e1812c;stroke:#515151;stroke-linejoin:miter;stroke-width:1.5;"/>
   </g>
   <g id="patch_17">
    <path clip-path="url(#peccf510067)" d="M 1257.612794 428.921065 
L 1324.309265 428.921065 
L 1324.309265 428.755048 
L 1257.612794 428.755048 
L 1257.612794 428.921065 
z
" style="fill:#e1812c;stroke:#515151;stroke-linejoin:miter;stroke-width:1.5;"/>
   </g>
   <g id="patch_18">
    <path clip-path="url(#peccf510067)" d="M 1340.983382 428.879791 
L 1407.679853 428.879791 
L 1407.679853 428.729481 
L 1340.983382 428.729481 
L 1340.983382 428.879791 
z
" style="fill:#e1812c;stroke:#515151;stroke-linejoin:miter;stroke-width:1.5;"/>
   </g>
   <g id="patch_19">
    <path clip-path="url(#peccf510067)" d="M 1424.353971 429.737807 
L 1491.050441 429.737807 
L 1491.050441 429.724238 
L 1424.353971 429.724238 
L 1424.353971 429.737807 
z
" style="fill:#e1812c;stroke:#515151;stroke-linejoin:miter;stroke-width:1.5;"/>
   </g>
   <g id="matplotlib.axis_1">
    <g id="xtick_1">
     <g id="line2d_1">
      <defs>
       <path d="M 0 0 
L 0 3.5 
" id="m9fb56d7457" style="stroke:#000000;stroke-width:0.8;"/>
      </defs>
      <g>
       <use style="stroke:#000000;stroke-width:0.8;" x="123.772794" xlink:href="#m9fb56d7457" y="446.2375"/>
      </g>
     </g>
     <g id="text_1">
      <!-- TLOD -->
      <g transform="translate(82.804795 502.01019)rotate(-45)scale(0.2 -0.2)">
       <defs>
        <path d="M -0.296875 72.90625 
L 61.375 72.90625 
L 61.375 64.59375 
L 35.5 64.59375 
L 35.5 0 
L 25.59375 0 
L 25.59375 64.59375 
L -0.296875 64.59375 
z
" id="DejaVuSans-84"/>
        <path d="M 9.8125 72.90625 
L 19.671875 72.90625 
L 19.671875 8.296875 
L 55.171875 8.296875 
L 55.171875 0 
L 9.8125 0 
z
" id="DejaVuSans-76"/>
        <path d="M 39.40625 66.21875 
Q 28.65625 66.21875 22.328125 58.203125 
Q 16.015625 50.203125 16.015625 36.375 
Q 16.015625 22.609375 22.328125 14.59375 
Q 28.65625 6.59375 39.40625 6.59375 
Q 50.140625 6.59375 56.421875 14.59375 
Q 62.703125 22.609375 62.703125 36.375 
Q 62.703125 50.203125 56.421875 58.203125 
Q 50.140625 66.21875 39.40625 66.21875 
z
M 39.40625 74.21875 
Q 54.734375 74.21875 63.90625 63.9375 
Q 73.09375 53.65625 73.09375 36.375 
Q 73.09375 19.140625 63.90625 8.859375 
Q 54.734375 -1.421875 39.40625 -1.421875 
Q 24.03125 -1.421875 14.8125 8.828125 
Q 5.609375 19.09375 5.609375 36.375 
Q 5.609375 53.65625 14.8125 63.9375 
Q 24.03125 74.21875 39.40625 74.21875 
z
" id="DejaVuSans-79"/>
        <path d="M 19.671875 64.796875 
L 19.671875 8.109375 
L 31.59375 8.109375 
Q 46.6875 8.109375 53.6875 14.9375 
Q 60.6875 21.78125 60.6875 36.53125 
Q 60.6875 51.171875 53.6875 57.984375 
Q 46.6875 64.796875 31.59375 64.796875 
z
M 9.8125 72.90625 
L 30.078125 72.90625 
Q 51.265625 72.90625 61.171875 64.09375 
Q 71.09375 55.28125 71.09375 36.53125 
Q 71.09375 17.671875 61.125 8.828125 
Q 51.171875 0 30.078125 0 
L 9.8125 0 
z
" id="DejaVuSans-68"/>
       </defs>
       <use xlink:href="#DejaVuSans-84"/>
       <use x="61.083984" xlink:href="#DejaVuSans-76"/>
       <use x="113.171875" xlink:href="#DejaVuSans-79"/>
       <use x="191.882812" xlink:href="#DejaVuSans-68"/>
      </g>
     </g>
    </g>
    <g id="xtick_2">
     <g id="line2d_2">
      <g>
       <use style="stroke:#000000;stroke-width:0.8;" x="207.143382" xlink:href="#m9fb56d7457" y="446.2375"/>
      </g>
     </g>
     <g id="text_2">
      <!-- NALOD -->
      <g transform="translate(154.558945 513.626629)rotate(-45)scale(0.2 -0.2)">
       <defs>
        <path d="M 9.8125 72.90625 
L 23.09375 72.90625 
L 55.421875 11.921875 
L 55.421875 72.90625 
L 64.984375 72.90625 
L 64.984375 0 
L 51.703125 0 
L 19.390625 60.984375 
L 19.390625 0 
L 9.8125 0 
z
" id="DejaVuSans-78"/>
        <path d="M 34.1875 63.1875 
L 20.796875 26.90625 
L 47.609375 26.90625 
z
M 28.609375 72.90625 
L 39.796875 72.90625 
L 67.578125 0 
L 57.328125 0 
L 50.6875 18.703125 
L 17.828125 18.703125 
L 11.1875 0 
L 0.78125 0 
z
" id="DejaVuSans-65"/>
       </defs>
       <use xlink:href="#DejaVuSans-78"/>
       <use x="74.804688" xlink:href="#DejaVuSans-65"/>
       <use x="143.212891" xlink:href="#DejaVuSans-76"/>
       <use x="195.300781" xlink:href="#DejaVuSans-79"/>
       <use x="274.011719" xlink:href="#DejaVuSans-68"/>
      </g>
     </g>
    </g>
    <g id="xtick_3">
     <g id="line2d_3">
      <g>
       <use style="stroke:#000000;stroke-width:0.8;" x="290.513971" xlink:href="#m9fb56d7457" y="446.2375"/>
      </g>
     </g>
     <g id="text_3">
      <!-- MQRankSum -->
      <g transform="translate(197.195763 554.360399)rotate(-45)scale(0.2 -0.2)">
       <defs>
        <path d="M 9.8125 72.90625 
L 24.515625 72.90625 
L 43.109375 23.296875 
L 61.8125 72.90625 
L 76.515625 72.90625 
L 76.515625 0 
L 66.890625 0 
L 66.890625 64.015625 
L 48.09375 14.015625 
L 38.1875 14.015625 
L 19.390625 64.015625 
L 19.390625 0 
L 9.8125 0 
z
" id="DejaVuSans-77"/>
        <path d="M 39.40625 66.21875 
Q 28.65625 66.21875 22.328125 58.203125 
Q 16.015625 50.203125 16.015625 36.375 
Q 16.015625 22.609375 22.328125 14.59375 
Q 28.65625 6.59375 39.40625 6.59375 
Q 50.140625 6.59375 56.421875 14.59375 
Q 62.703125 22.609375 62.703125 36.375 
Q 62.703125 50.203125 56.421875 58.203125 
Q 50.140625 66.21875 39.40625 66.21875 
z
M 53.21875 1.3125 
L 66.21875 -12.890625 
L 54.296875 -12.890625 
L 43.5 -1.21875 
Q 41.890625 -1.3125 41.03125 -1.359375 
Q 40.1875 -1.421875 39.40625 -1.421875 
Q 24.03125 -1.421875 14.8125 8.859375 
Q 5.609375 19.140625 5.609375 36.375 
Q 5.609375 53.65625 14.8125 63.9375 
Q 24.03125 74.21875 39.40625 74.21875 
Q 54.734375 74.21875 63.90625 63.9375 
Q 73.09375 53.65625 73.09375 36.375 
Q 73.09375 23.6875 67.984375 14.640625 
Q 62.890625 5.609375 53.21875 1.3125 
z
" id="DejaVuSans-81"/>
        <path d="M 44.390625 34.1875 
Q 47.5625 33.109375 50.5625 29.59375 
Q 53.5625 26.078125 56.59375 19.921875 
L 66.609375 0 
L 56 0 
L 46.6875 18.703125 
Q 43.0625 26.03125 39.671875 28.421875 
Q 36.28125 30.8125 30.421875 30.8125 
L 19.671875 30.8125 
L 19.671875 0 
L 9.8125 0 
L 9.8125 72.90625 
L 32.078125 72.90625 
Q 44.578125 72.90625 50.734375 67.671875 
Q 56.890625 62.453125 56.890625 51.90625 
Q 56.890625 45.015625 53.6875 40.46875 
Q 50.484375 35.9375 44.390625 34.1875 
z
M 19.671875 64.796875 
L 19.671875 38.921875 
L 32.078125 38.921875 
Q 39.203125 38.921875 42.84375 42.21875 
Q 46.484375 45.515625 46.484375 51.90625 
Q 46.484375 58.296875 42.84375 61.546875 
Q 39.203125 64.796875 32.078125 64.796875 
z
" id="DejaVuSans-82"/>
        <path d="M 34.28125 27.484375 
Q 23.390625 27.484375 19.1875 25 
Q 14.984375 22.515625 14.984375 16.5 
Q 14.984375 11.71875 18.140625 8.90625 
Q 21.296875 6.109375 26.703125 6.109375 
Q 34.1875 6.109375 38.703125 11.40625 
Q 43.21875 16.703125 43.21875 25.484375 
L 43.21875 27.484375 
z
M 52.203125 31.203125 
L 52.203125 0 
L 43.21875 0 
L 43.21875 8.296875 
Q 40.140625 3.328125 35.546875 0.953125 
Q 30.953125 -1.421875 24.3125 -1.421875 
Q 15.921875 -1.421875 10.953125 3.296875 
Q 6 8.015625 6 15.921875 
Q 6 25.140625 12.171875 29.828125 
Q 18.359375 34.515625 30.609375 34.515625 
L 43.21875 34.515625 
L 43.21875 35.40625 
Q 43.21875 41.609375 39.140625 45 
Q 35.0625 48.390625 27.6875 48.390625 
Q 23 48.390625 18.546875 47.265625 
Q 14.109375 46.140625 10.015625 43.890625 
L 10.015625 52.203125 
Q 14.9375 54.109375 19.578125 55.046875 
Q 24.21875 56 28.609375 56 
Q 40.484375 56 46.34375 49.84375 
Q 52.203125 43.703125 52.203125 31.203125 
z
" id="DejaVuSans-97"/>
        <path d="M 54.890625 33.015625 
L 54.890625 0 
L 45.90625 0 
L 45.90625 32.71875 
Q 45.90625 40.484375 42.875 44.328125 
Q 39.84375 48.1875 33.796875 48.1875 
Q 26.515625 48.1875 22.3125 43.546875 
Q 18.109375 38.921875 18.109375 30.90625 
L 18.109375 0 
L 9.078125 0 
L 9.078125 54.6875 
L 18.109375 54.6875 
L 18.109375 46.1875 
Q 21.34375 51.125 25.703125 53.5625 
Q 30.078125 56 35.796875 56 
Q 45.21875 56 50.046875 50.171875 
Q 54.890625 44.34375 54.890625 33.015625 
z
" id="DejaVuSans-110"/>
        <path d="M 9.078125 75.984375 
L 18.109375 75.984375 
L 18.109375 31.109375 
L 44.921875 54.6875 
L 56.390625 54.6875 
L 27.390625 29.109375 
L 57.625 0 
L 45.90625 0 
L 18.109375 26.703125 
L 18.109375 0 
L 9.078125 0 
z
" id="DejaVuSans-107"/>
        <path d="M 53.515625 70.515625 
L 53.515625 60.890625 
Q 47.90625 63.578125 42.921875 64.890625 
Q 37.9375 66.21875 33.296875 66.21875 
Q 25.25 66.21875 20.875 63.09375 
Q 16.5 59.96875 16.5 54.203125 
Q 16.5 49.359375 19.40625 46.890625 
Q 22.3125 44.4375 30.421875 42.921875 
L 36.375 41.703125 
Q 47.40625 39.59375 52.65625 34.296875 
Q 57.90625 29 57.90625 20.125 
Q 57.90625 9.515625 50.796875 4.046875 
Q 43.703125 -1.421875 29.984375 -1.421875 
Q 24.8125 -1.421875 18.96875 -0.25 
Q 13.140625 0.921875 6.890625 3.21875 
L 6.890625 13.375 
Q 12.890625 10.015625 18.65625 8.296875 
Q 24.421875 6.59375 29.984375 6.59375 
Q 38.421875 6.59375 43.015625 9.90625 
Q 47.609375 13.234375 47.609375 19.390625 
Q 47.609375 24.75 44.3125 27.78125 
Q 41.015625 30.8125 33.5 32.328125 
L 27.484375 33.5 
Q 16.453125 35.6875 11.515625 40.375 
Q 6.59375 45.0625 6.59375 53.421875 
Q 6.59375 63.09375 13.40625 68.65625 
Q 20.21875 74.21875 32.171875 74.21875 
Q 37.3125 74.21875 42.625 73.28125 
Q 47.953125 72.359375 53.515625 70.515625 
z
" id="DejaVuSans-83"/>
        <path d="M 8.5 21.578125 
L 8.5 54.6875 
L 17.484375 54.6875 
L 17.484375 21.921875 
Q 17.484375 14.15625 20.5 10.265625 
Q 23.53125 6.390625 29.59375 6.390625 
Q 36.859375 6.390625 41.078125 11.03125 
Q 45.3125 15.671875 45.3125 23.6875 
L 45.3125 54.6875 
L 54.296875 54.6875 
L 54.296875 0 
L 45.3125 0 
L 45.3125 8.40625 
Q 42.046875 3.421875 37.71875 1 
Q 33.40625 -1.421875 27.6875 -1.421875 
Q 18.265625 -1.421875 13.375 4.4375 
Q 8.5 10.296875 8.5 21.578125 
z
M 31.109375 56 
z
" id="DejaVuSans-117"/>
        <path d="M 52 44.1875 
Q 55.375 50.25 60.0625 53.125 
Q 64.75 56 71.09375 56 
Q 79.640625 56 84.28125 50.015625 
Q 88.921875 44.046875 88.921875 33.015625 
L 88.921875 0 
L 79.890625 0 
L 79.890625 32.71875 
Q 79.890625 40.578125 77.09375 44.375 
Q 74.3125 48.1875 68.609375 48.1875 
Q 61.625 48.1875 57.5625 43.546875 
Q 53.515625 38.921875 53.515625 30.90625 
L 53.515625 0 
L 44.484375 0 
L 44.484375 32.71875 
Q 44.484375 40.625 41.703125 44.40625 
Q 38.921875 48.1875 33.109375 48.1875 
Q 26.21875 48.1875 22.15625 43.53125 
Q 18.109375 38.875 18.109375 30.90625 
L 18.109375 0 
L 9.078125 0 
L 9.078125 54.6875 
L 18.109375 54.6875 
L 18.109375 46.1875 
Q 21.1875 51.21875 25.484375 53.609375 
Q 29.78125 56 35.6875 56 
Q 41.65625 56 45.828125 52.96875 
Q 50 49.953125 52 44.1875 
z
" id="DejaVuSans-109"/>
       </defs>
       <use xlink:href="#DejaVuSans-77"/>
       <use x="86.279297" xlink:href="#DejaVuSans-81"/>
       <use x="164.990234" xlink:href="#DejaVuSans-82"/>
       <use x="232.222656" xlink:href="#DejaVuSans-97"/>
       <use x="293.501953" xlink:href="#DejaVuSans-110"/>
       <use x="356.880859" xlink:href="#DejaVuSans-107"/>
       <use x="414.791016" xlink:href="#DejaVuSans-83"/>
       <use x="478.267578" xlink:href="#DejaVuSans-117"/>
       <use x="541.646484" xlink:href="#DejaVuSans-109"/>
      </g>
     </g>
    </g>
    <g id="xtick_4">
     <g id="line2d_4">
      <g>
       <use style="stroke:#000000;stroke-width:0.8;" x="373.884559" xlink:href="#m9fb56d7457" y="446.2375"/>
      </g>
     </g>
     <g id="text_4">
      <!-- ECNT -->
      <g transform="translate(332.91435 502.0124)rotate(-45)scale(0.2 -0.2)">
       <defs>
        <path d="M 9.8125 72.90625 
L 55.90625 72.90625 
L 55.90625 64.59375 
L 19.671875 64.59375 
L 19.671875 43.015625 
L 54.390625 43.015625 
L 54.390625 34.71875 
L 19.671875 34.71875 
L 19.671875 8.296875 
L 56.78125 8.296875 
L 56.78125 0 
L 9.8125 0 
z
" id="DejaVuSans-69"/>
        <path d="M 64.40625 67.28125 
L 64.40625 56.890625 
Q 59.421875 61.53125 53.78125 63.8125 
Q 48.140625 66.109375 41.796875 66.109375 
Q 29.296875 66.109375 22.65625 58.46875 
Q 16.015625 50.828125 16.015625 36.375 
Q 16.015625 21.96875 22.65625 14.328125 
Q 29.296875 6.6875 41.796875 6.6875 
Q 48.140625 6.6875 53.78125 8.984375 
Q 59.421875 11.28125 64.40625 15.921875 
L 64.40625 5.609375 
Q 59.234375 2.09375 53.4375 0.328125 
Q 47.65625 -1.421875 41.21875 -1.421875 
Q 24.65625 -1.421875 15.125 8.703125 
Q 5.609375 18.84375 5.609375 36.375 
Q 5.609375 53.953125 15.125 64.078125 
Q 24.65625 74.21875 41.21875 74.21875 
Q 47.75 74.21875 53.53125 72.484375 
Q 59.328125 70.75 64.40625 67.28125 
z
" id="DejaVuSans-67"/>
       </defs>
       <use xlink:href="#DejaVuSans-69"/>
       <use x="63.183594" xlink:href="#DejaVuSans-67"/>
       <use x="133.007812" xlink:href="#DejaVuSans-78"/>
       <use x="207.8125" xlink:href="#DejaVuSans-84"/>
      </g>
     </g>
    </g>
    <g id="xtick_5">
     <g id="line2d_5">
      <g>
       <use style="stroke:#000000;stroke-width:0.8;" x="457.255147" xlink:href="#m9fb56d7457" y="446.2375"/>
      </g>
     </g>
     <g id="text_5">
      <!-- NLOD -->
      <g transform="translate(414.344814 503.952524)rotate(-45)scale(0.2 -0.2)">
       <use xlink:href="#DejaVuSans-78"/>
       <use x="74.804688" xlink:href="#DejaVuSans-76"/>
       <use x="126.892578" xlink:href="#DejaVuSans-79"/>
       <use x="205.603516" xlink:href="#DejaVuSans-68"/>
      </g>
     </g>
    </g>
    <g id="xtick_6">
     <g id="line2d_6">
      <g>
       <use style="stroke:#000000;stroke-width:0.8;" x="540.625735" xlink:href="#m9fb56d7457" y="446.2375"/>
      </g>
     </g>
     <g id="text_6">
      <!-- ClippingRankSum -->
      <g transform="translate(413.083559 588.584367)rotate(-45)scale(0.2 -0.2)">
       <defs>
        <path d="M 9.421875 75.984375 
L 18.40625 75.984375 
L 18.40625 0 
L 9.421875 0 
z
" id="DejaVuSans-108"/>
        <path d="M 9.421875 54.6875 
L 18.40625 54.6875 
L 18.40625 0 
L 9.421875 0 
z
M 9.421875 75.984375 
L 18.40625 75.984375 
L 18.40625 64.59375 
L 9.421875 64.59375 
z
" id="DejaVuSans-105"/>
        <path d="M 18.109375 8.203125 
L 18.109375 -20.796875 
L 9.078125 -20.796875 
L 9.078125 54.6875 
L 18.109375 54.6875 
L 18.109375 46.390625 
Q 20.953125 51.265625 25.265625 53.625 
Q 29.59375 56 35.59375 56 
Q 45.5625 56 51.78125 48.09375 
Q 58.015625 40.1875 58.015625 27.296875 
Q 58.015625 14.40625 51.78125 6.484375 
Q 45.5625 -1.421875 35.59375 -1.421875 
Q 29.59375 -1.421875 25.265625 0.953125 
Q 20.953125 3.328125 18.109375 8.203125 
z
M 48.6875 27.296875 
Q 48.6875 37.203125 44.609375 42.84375 
Q 40.53125 48.484375 33.40625 48.484375 
Q 26.265625 48.484375 22.1875 42.84375 
Q 18.109375 37.203125 18.109375 27.296875 
Q 18.109375 17.390625 22.1875 11.75 
Q 26.265625 6.109375 33.40625 6.109375 
Q 40.53125 6.109375 44.609375 11.75 
Q 48.6875 17.390625 48.6875 27.296875 
z
" id="DejaVuSans-112"/>
        <path d="M 45.40625 27.984375 
Q 45.40625 37.75 41.375 43.109375 
Q 37.359375 48.484375 30.078125 48.484375 
Q 22.859375 48.484375 18.828125 43.109375 
Q 14.796875 37.75 14.796875 27.984375 
Q 14.796875 18.265625 18.828125 12.890625 
Q 22.859375 7.515625 30.078125 7.515625 
Q 37.359375 7.515625 41.375 12.890625 
Q 45.40625 18.265625 45.40625 27.984375 
z
M 54.390625 6.78125 
Q 54.390625 -7.171875 48.1875 -13.984375 
Q 42 -20.796875 29.203125 -20.796875 
Q 24.46875 -20.796875 20.265625 -20.09375 
Q 16.0625 -19.390625 12.109375 -17.921875 
L 12.109375 -9.1875 
Q 16.0625 -11.328125 19.921875 -12.34375 
Q 23.78125 -13.375 27.78125 -13.375 
Q 36.625 -13.375 41.015625 -8.765625 
Q 45.40625 -4.15625 45.40625 5.171875 
L 45.40625 9.625 
Q 42.625 4.78125 38.28125 2.390625 
Q 33.9375 0 27.875 0 
Q 17.828125 0 11.671875 7.65625 
Q 5.515625 15.328125 5.515625 27.984375 
Q 5.515625 40.671875 11.671875 48.328125 
Q 17.828125 56 27.875 56 
Q 33.9375 56 38.28125 53.609375 
Q 42.625 51.21875 45.40625 46.390625 
L 45.40625 54.6875 
L 54.390625 54.6875 
z
" id="DejaVuSans-103"/>
       </defs>
       <use xlink:href="#DejaVuSans-67"/>
       <use x="69.824219" xlink:href="#DejaVuSans-108"/>
       <use x="97.607422" xlink:href="#DejaVuSans-105"/>
       <use x="125.390625" xlink:href="#DejaVuSans-112"/>
       <use x="188.867188" xlink:href="#DejaVuSans-112"/>
       <use x="252.34375" xlink:href="#DejaVuSans-105"/>
       <use x="280.126953" xlink:href="#DejaVuSans-110"/>
       <use x="343.505859" xlink:href="#DejaVuSans-103"/>
       <use x="406.982422" xlink:href="#DejaVuSans-82"/>
       <use x="474.214844" xlink:href="#DejaVuSans-97"/>
       <use x="535.494141" xlink:href="#DejaVuSans-110"/>
       <use x="598.873047" xlink:href="#DejaVuSans-107"/>
       <use x="656.783203" xlink:href="#DejaVuSans-83"/>
       <use x="720.259766" xlink:href="#DejaVuSans-117"/>
       <use x="783.638672" xlink:href="#DejaVuSans-109"/>
      </g>
     </g>
    </g>
    <g id="xtick_7">
     <g id="line2d_7">
      <g>
       <use style="stroke:#000000;stroke-width:0.8;" x="623.996324" xlink:href="#m9fb56d7457" y="446.2375"/>
      </g>
     </g>
     <g id="text_7">
      <!-- FS -->
      <g transform="translate(604.190705 480.84781)rotate(-45)scale(0.2 -0.2)">
       <defs>
        <path d="M 9.8125 72.90625 
L 51.703125 72.90625 
L 51.703125 64.59375 
L 19.671875 64.59375 
L 19.671875 43.109375 
L 48.578125 43.109375 
L 48.578125 34.8125 
L 19.671875 34.8125 
L 19.671875 0 
L 9.8125 0 
z
" id="DejaVuSans-70"/>
       </defs>
       <use xlink:href="#DejaVuSans-70"/>
       <use x="55.769531" xlink:href="#DejaVuSans-83"/>
      </g>
     </g>
    </g>
    <g id="xtick_8">
     <g id="line2d_8">
      <g>
       <use style="stroke:#000000;stroke-width:0.8;" x="707.366912" xlink:href="#m9fb56d7457" y="446.2375"/>
      </g>
     </g>
     <g id="text_8">
      <!-- DP -->
      <g transform="translate(685.009079 483.400024)rotate(-45)scale(0.2 -0.2)">
       <defs>
        <path d="M 19.671875 64.796875 
L 19.671875 37.40625 
L 32.078125 37.40625 
Q 38.96875 37.40625 42.71875 40.96875 
Q 46.484375 44.53125 46.484375 51.125 
Q 46.484375 57.671875 42.71875 61.234375 
Q 38.96875 64.796875 32.078125 64.796875 
z
M 9.8125 72.90625 
L 32.078125 72.90625 
Q 44.34375 72.90625 50.609375 67.359375 
Q 56.890625 61.8125 56.890625 51.125 
Q 56.890625 40.328125 50.609375 34.8125 
Q 44.34375 29.296875 32.078125 29.296875 
L 19.671875 29.296875 
L 19.671875 0 
L 9.8125 0 
z
" id="DejaVuSans-80"/>
       </defs>
       <use xlink:href="#DejaVuSans-68"/>
       <use x="77.001953" xlink:href="#DejaVuSans-80"/>
      </g>
     </g>
    </g>
    <g id="xtick_9">
     <g id="line2d_9">
      <g>
       <use style="stroke:#000000;stroke-width:0.8;" x="790.7375" xlink:href="#m9fb56d7457" y="446.2375"/>
      </g>
     </g>
     <g id="text_9">
      <!-- MPOS -->
      <g transform="translate(746.956542 504.823149)rotate(-45)scale(0.2 -0.2)">
       <use xlink:href="#DejaVuSans-77"/>
       <use x="86.279297" xlink:href="#DejaVuSans-80"/>
       <use x="146.582031" xlink:href="#DejaVuSans-79"/>
       <use x="225.292969" xlink:href="#DejaVuSans-83"/>
      </g>
     </g>
    </g>
    <g id="xtick_10">
     <g id="line2d_10">
      <g>
       <use style="stroke:#000000;stroke-width:0.8;" x="874.108088" xlink:href="#m9fb56d7457" y="446.2375"/>
      </g>
     </g>
     <g id="text_10">
      <!-- ReadPosRankSum -->
      <g transform="translate(744.552868 590.597412)rotate(-45)scale(0.2 -0.2)">
       <defs>
        <path d="M 56.203125 29.59375 
L 56.203125 25.203125 
L 14.890625 25.203125 
Q 15.484375 15.921875 20.484375 11.0625 
Q 25.484375 6.203125 34.421875 6.203125 
Q 39.59375 6.203125 44.453125 7.46875 
Q 49.3125 8.734375 54.109375 11.28125 
L 54.109375 2.78125 
Q 49.265625 0.734375 44.1875 -0.34375 
Q 39.109375 -1.421875 33.890625 -1.421875 
Q 20.796875 -1.421875 13.15625 6.1875 
Q 5.515625 13.8125 5.515625 26.8125 
Q 5.515625 40.234375 12.765625 48.109375 
Q 20.015625 56 32.328125 56 
Q 43.359375 56 49.78125 48.890625 
Q 56.203125 41.796875 56.203125 29.59375 
z
M 47.21875 32.234375 
Q 47.125 39.59375 43.09375 43.984375 
Q 39.0625 48.390625 32.421875 48.390625 
Q 24.90625 48.390625 20.390625 44.140625 
Q 15.875 39.890625 15.1875 32.171875 
z
" id="DejaVuSans-101"/>
        <path d="M 45.40625 46.390625 
L 45.40625 75.984375 
L 54.390625 75.984375 
L 54.390625 0 
L 45.40625 0 
L 45.40625 8.203125 
Q 42.578125 3.328125 38.25 0.953125 
Q 33.9375 -1.421875 27.875 -1.421875 
Q 17.96875 -1.421875 11.734375 6.484375 
Q 5.515625 14.40625 5.515625 27.296875 
Q 5.515625 40.1875 11.734375 48.09375 
Q 17.96875 56 27.875 56 
Q 33.9375 56 38.25 53.625 
Q 42.578125 51.265625 45.40625 46.390625 
z
M 14.796875 27.296875 
Q 14.796875 17.390625 18.875 11.75 
Q 22.953125 6.109375 30.078125 6.109375 
Q 37.203125 6.109375 41.296875 11.75 
Q 45.40625 17.390625 45.40625 27.296875 
Q 45.40625 37.203125 41.296875 42.84375 
Q 37.203125 48.484375 30.078125 48.484375 
Q 22.953125 48.484375 18.875 42.84375 
Q 14.796875 37.203125 14.796875 27.296875 
z
" id="DejaVuSans-100"/>
        <path d="M 30.609375 48.390625 
Q 23.390625 48.390625 19.1875 42.75 
Q 14.984375 37.109375 14.984375 27.296875 
Q 14.984375 17.484375 19.15625 11.84375 
Q 23.34375 6.203125 30.609375 6.203125 
Q 37.796875 6.203125 41.984375 11.859375 
Q 46.1875 17.53125 46.1875 27.296875 
Q 46.1875 37.015625 41.984375 42.703125 
Q 37.796875 48.390625 30.609375 48.390625 
z
M 30.609375 56 
Q 42.328125 56 49.015625 48.375 
Q 55.71875 40.765625 55.71875 27.296875 
Q 55.71875 13.875 49.015625 6.21875 
Q 42.328125 -1.421875 30.609375 -1.421875 
Q 18.84375 -1.421875 12.171875 6.21875 
Q 5.515625 13.875 5.515625 27.296875 
Q 5.515625 40.765625 12.171875 48.375 
Q 18.84375 56 30.609375 56 
z
" id="DejaVuSans-111"/>
        <path d="M 44.28125 53.078125 
L 44.28125 44.578125 
Q 40.484375 46.53125 36.375 47.5 
Q 32.28125 48.484375 27.875 48.484375 
Q 21.1875 48.484375 17.84375 46.4375 
Q 14.5 44.390625 14.5 40.28125 
Q 14.5 37.15625 16.890625 35.375 
Q 19.28125 33.59375 26.515625 31.984375 
L 29.59375 31.296875 
Q 39.15625 29.25 43.1875 25.515625 
Q 47.21875 21.78125 47.21875 15.09375 
Q 47.21875 7.46875 41.1875 3.015625 
Q 35.15625 -1.421875 24.609375 -1.421875 
Q 20.21875 -1.421875 15.453125 -0.5625 
Q 10.6875 0.296875 5.421875 2 
L 5.421875 11.28125 
Q 10.40625 8.6875 15.234375 7.390625 
Q 20.0625 6.109375 24.8125 6.109375 
Q 31.15625 6.109375 34.5625 8.28125 
Q 37.984375 10.453125 37.984375 14.40625 
Q 37.984375 18.0625 35.515625 20.015625 
Q 33.0625 21.96875 24.703125 23.78125 
L 21.578125 24.515625 
Q 13.234375 26.265625 9.515625 29.90625 
Q 5.8125 33.546875 5.8125 39.890625 
Q 5.8125 47.609375 11.28125 51.796875 
Q 16.75 56 26.8125 56 
Q 31.78125 56 36.171875 55.265625 
Q 40.578125 54.546875 44.28125 53.078125 
z
" id="DejaVuSans-115"/>
       </defs>
       <use xlink:href="#DejaVuSans-82"/>
       <use x="64.982422" xlink:href="#DejaVuSans-101"/>
       <use x="126.505859" xlink:href="#DejaVuSans-97"/>
       <use x="187.785156" xlink:href="#DejaVuSans-100"/>
       <use x="251.261719" xlink:href="#DejaVuSans-80"/>
       <use x="307.939453" xlink:href="#DejaVuSans-111"/>
       <use x="369.121094" xlink:href="#DejaVuSans-115"/>
       <use x="421.220703" xlink:href="#DejaVuSans-82"/>
       <use x="488.453125" xlink:href="#DejaVuSans-97"/>
       <use x="549.732422" xlink:href="#DejaVuSans-110"/>
       <use x="613.111328" xlink:href="#DejaVuSans-107"/>
       <use x="671.021484" xlink:href="#DejaVuSans-83"/>
       <use x="734.498047" xlink:href="#DejaVuSans-117"/>
       <use x="797.876953" xlink:href="#DejaVuSans-109"/>
      </g>
     </g>
    </g>
    <g id="xtick_11">
     <g id="line2d_11">
      <g>
       <use style="stroke:#000000;stroke-width:0.8;" x="957.478676" xlink:href="#m9fb56d7457" y="446.2375"/>
      </g>
     </g>
     <g id="text_11">
      <!-- AS_SB_TABLE -->
      <g transform="translate(858.934508 558.943335)rotate(-45)scale(0.2 -0.2)">
       <defs>
        <path d="M 50.984375 -16.609375 
L 50.984375 -23.578125 
L -0.984375 -23.578125 
L -0.984375 -16.609375 
z
" id="DejaVuSans-95"/>
        <path d="M 19.671875 34.8125 
L 19.671875 8.109375 
L 35.5 8.109375 
Q 43.453125 8.109375 47.28125 11.40625 
Q 51.125 14.703125 51.125 21.484375 
Q 51.125 28.328125 47.28125 31.5625 
Q 43.453125 34.8125 35.5 34.8125 
z
M 19.671875 64.796875 
L 19.671875 42.828125 
L 34.28125 42.828125 
Q 41.5 42.828125 45.03125 45.53125 
Q 48.578125 48.25 48.578125 53.8125 
Q 48.578125 59.328125 45.03125 62.0625 
Q 41.5 64.796875 34.28125 64.796875 
z
M 9.8125 72.90625 
L 35.015625 72.90625 
Q 46.296875 72.90625 52.390625 68.21875 
Q 58.5 63.53125 58.5 54.890625 
Q 58.5 48.1875 55.375 44.234375 
Q 52.25 40.28125 46.1875 39.3125 
Q 53.46875 37.75 57.5 32.78125 
Q 61.53125 27.828125 61.53125 20.40625 
Q 61.53125 10.640625 54.890625 5.3125 
Q 48.25 0 35.984375 0 
L 9.8125 0 
z
" id="DejaVuSans-66"/>
       </defs>
       <use xlink:href="#DejaVuSans-65"/>
       <use x="68.408203" xlink:href="#DejaVuSans-83"/>
       <use x="131.884766" xlink:href="#DejaVuSans-95"/>
       <use x="181.884766" xlink:href="#DejaVuSans-83"/>
       <use x="245.361328" xlink:href="#DejaVuSans-66"/>
       <use x="313.964844" xlink:href="#DejaVuSans-95"/>
       <use x="363.964844" xlink:href="#DejaVuSans-84"/>
       <use x="417.298828" xlink:href="#DejaVuSans-65"/>
       <use x="485.707031" xlink:href="#DejaVuSans-66"/>
       <use x="554.310547" xlink:href="#DejaVuSans-76"/>
       <use x="610.023438" xlink:href="#DejaVuSans-69"/>
      </g>
     </g>
    </g>
    <g id="xtick_12">
     <g id="line2d_12">
      <g>
       <use style="stroke:#000000;stroke-width:0.8;" x="1040.849265" xlink:href="#m9fb56d7457" y="446.2375"/>
      </g>
     </g>
     <g id="text_12">
      <!-- MFRL -->
      <g transform="translate(999.865798 502.025658)rotate(-45)scale(0.2 -0.2)">
       <use xlink:href="#DejaVuSans-77"/>
       <use x="86.279297" xlink:href="#DejaVuSans-70"/>
       <use x="143.798828" xlink:href="#DejaVuSans-82"/>
       <use x="213.28125" xlink:href="#DejaVuSans-76"/>
      </g>
     </g>
    </g>
    <g id="xtick_13">
     <g id="line2d_13">
      <g>
       <use style="stroke:#000000;stroke-width:0.8;" x="1124.219853" xlink:href="#m9fb56d7457" y="446.2375"/>
      </g>
     </g>
     <g id="text_13">
      <!-- MMQ -->
      <g transform="translate(1085.742196 499.519849)rotate(-45)scale(0.2 -0.2)">
       <use xlink:href="#DejaVuSans-77"/>
       <use x="86.279297" xlink:href="#DejaVuSans-77"/>
       <use x="172.558594" xlink:href="#DejaVuSans-81"/>
      </g>
     </g>
    </g>
    <g id="xtick_14">
     <g id="line2d_14">
      <g>
       <use style="stroke:#000000;stroke-width:0.8;" x="1207.590441" xlink:href="#m9fb56d7457" y="446.2375"/>
      </g>
     </g>
     <g id="text_14">
      <!-- MBQ -->
      <g transform="translate(1171.611964 497.020668)rotate(-45)scale(0.2 -0.2)">
       <use xlink:href="#DejaVuSans-77"/>
       <use x="86.279297" xlink:href="#DejaVuSans-66"/>
       <use x="154.882812" xlink:href="#DejaVuSans-81"/>
      </g>
     </g>
    </g>
    <g id="xtick_15">
     <g id="line2d_15">
      <g>
       <use style="stroke:#000000;stroke-width:0.8;" x="1290.961029" xlink:href="#m9fb56d7457" y="446.2375"/>
      </g>
     </g>
     <g id="text_15">
      <!-- MQ -->
      <g transform="translate(1264.685383 487.317837)rotate(-45)scale(0.2 -0.2)">
       <use xlink:href="#DejaVuSans-77"/>
       <use x="86.279297" xlink:href="#DejaVuSans-81"/>
      </g>
     </g>
    </g>
    <g id="xtick_16">
     <g id="line2d_16">
      <g>
       <use style="stroke:#000000;stroke-width:0.8;" x="1374.331618" xlink:href="#m9fb56d7457" y="446.2375"/>
      </g>
     </g>
     <g id="text_16">
      <!-- GERMQ -->
      <g transform="translate(1318.33539 517.038419)rotate(-45)scale(0.2 -0.2)">
       <defs>
        <path d="M 59.515625 10.40625 
L 59.515625 29.984375 
L 43.40625 29.984375 
L 43.40625 38.09375 
L 69.28125 38.09375 
L 69.28125 6.78125 
Q 63.578125 2.734375 56.6875 0.65625 
Q 49.8125 -1.421875 42 -1.421875 
Q 24.90625 -1.421875 15.25 8.5625 
Q 5.609375 18.5625 5.609375 36.375 
Q 5.609375 54.25 15.25 64.234375 
Q 24.90625 74.21875 42 74.21875 
Q 49.125 74.21875 55.546875 72.453125 
Q 61.96875 70.703125 67.390625 67.28125 
L 67.390625 56.78125 
Q 61.921875 61.421875 55.765625 63.765625 
Q 49.609375 66.109375 42.828125 66.109375 
Q 29.4375 66.109375 22.71875 58.640625 
Q 16.015625 51.171875 16.015625 36.375 
Q 16.015625 21.625 22.71875 14.15625 
Q 29.4375 6.6875 42.828125 6.6875 
Q 48.046875 6.6875 52.140625 7.59375 
Q 56.25 8.5 59.515625 10.40625 
z
" id="DejaVuSans-71"/>
       </defs>
       <use xlink:href="#DejaVuSans-71"/>
       <use x="77.490234" xlink:href="#DejaVuSans-69"/>
       <use x="140.673828" xlink:href="#DejaVuSans-82"/>
       <use x="210.15625" xlink:href="#DejaVuSans-77"/>
       <use x="296.435547" xlink:href="#DejaVuSans-81"/>
      </g>
     </g>
    </g>
    <g id="xtick_17">
     <g id="line2d_17">
      <g>
       <use style="stroke:#000000;stroke-width:0.8;" x="1457.702206" xlink:href="#m9fb56d7457" y="446.2375"/>
      </g>
     </g>
     <g id="text_17">
      <!-- POPAF -->
      <g transform="translate(1409.667558 509.076839)rotate(-45)scale(0.2 -0.2)">
       <use xlink:href="#DejaVuSans-80"/>
       <use x="60.302734" xlink:href="#DejaVuSans-79"/>
       <use x="139.013672" xlink:href="#DejaVuSans-80"/>
       <use x="192.941406" xlink:href="#DejaVuSans-65"/>
       <use x="261.349609" xlink:href="#DejaVuSans-70"/>
      </g>
     </g>
    </g>
    <g id="text_18">
     <!-- Features -->
     <g transform="translate(747.748437 612.735409)scale(0.2 -0.2)">
      <defs>
       <path d="M 18.3125 70.21875 
L 18.3125 54.6875 
L 36.8125 54.6875 
L 36.8125 47.703125 
L 18.3125 47.703125 
L 18.3125 18.015625 
Q 18.3125 11.328125 20.140625 9.421875 
Q 21.96875 7.515625 27.59375 7.515625 
L 36.8125 7.515625 
L 36.8125 0 
L 27.59375 0 
Q 17.1875 0 13.234375 3.875 
Q 9.28125 7.765625 9.28125 18.015625 
L 9.28125 47.703125 
L 2.6875 47.703125 
L 2.6875 54.6875 
L 9.28125 54.6875 
L 9.28125 70.21875 
z
" id="DejaVuSans-116"/>
       <path d="M 41.109375 46.296875 
Q 39.59375 47.171875 37.8125 47.578125 
Q 36.03125 48 33.890625 48 
Q 26.265625 48 22.1875 43.046875 
Q 18.109375 38.09375 18.109375 28.8125 
L 18.109375 0 
L 9.078125 0 
L 9.078125 54.6875 
L 18.109375 54.6875 
L 18.109375 46.1875 
Q 20.953125 51.171875 25.484375 53.578125 
Q 30.03125 56 36.53125 56 
Q 37.453125 56 38.578125 55.875 
Q 39.703125 55.765625 41.0625 55.515625 
z
" id="DejaVuSans-114"/>
      </defs>
      <use xlink:href="#DejaVuSans-70"/>
      <use x="52.019531" xlink:href="#DejaVuSans-101"/>
      <use x="113.542969" xlink:href="#DejaVuSans-97"/>
      <use x="174.822266" xlink:href="#DejaVuSans-116"/>
      <use x="214.03125" xlink:href="#DejaVuSans-117"/>
      <use x="277.410156" xlink:href="#DejaVuSans-114"/>
      <use x="316.273438" xlink:href="#DejaVuSans-101"/>
      <use x="377.796875" xlink:href="#DejaVuSans-115"/>
     </g>
    </g>
   </g>
   <g id="matplotlib.axis_2">
    <g id="ytick_1">
     <g id="line2d_18">
      <defs>
       <path d="M 0 0 
L -3.5 0 
" id="m647a1d017d" style="stroke:#000000;stroke-width:0.8;"/>
      </defs>
      <g>
       <use style="stroke:#000000;stroke-width:0.8;" x="82.0875" xlink:href="#m647a1d017d" y="430.177652"/>
      </g>
     </g>
     <g id="text_19">
      <!-- 0.00 -->
      <g transform="translate(30.55625 437.77609)scale(0.2 -0.2)">
       <defs>
        <path d="M 31.78125 66.40625 
Q 24.171875 66.40625 20.328125 58.90625 
Q 16.5 51.421875 16.5 36.375 
Q 16.5 21.390625 20.328125 13.890625 
Q 24.171875 6.390625 31.78125 6.390625 
Q 39.453125 6.390625 43.28125 13.890625 
Q 47.125 21.390625 47.125 36.375 
Q 47.125 51.421875 43.28125 58.90625 
Q 39.453125 66.40625 31.78125 66.40625 
z
M 31.78125 74.21875 
Q 44.046875 74.21875 50.515625 64.515625 
Q 56.984375 54.828125 56.984375 36.375 
Q 56.984375 17.96875 50.515625 8.265625 
Q 44.046875 -1.421875 31.78125 -1.421875 
Q 19.53125 -1.421875 13.0625 8.265625 
Q 6.59375 17.96875 6.59375 36.375 
Q 6.59375 54.828125 13.0625 64.515625 
Q 19.53125 74.21875 31.78125 74.21875 
z
" id="DejaVuSans-48"/>
        <path d="M 10.6875 12.40625 
L 21 12.40625 
L 21 0 
L 10.6875 0 
z
" id="DejaVuSans-46"/>
       </defs>
       <use xlink:href="#DejaVuSans-48"/>
       <use x="63.623047" xlink:href="#DejaVuSans-46"/>
       <use x="95.410156" xlink:href="#DejaVuSans-48"/>
       <use x="159.033203" xlink:href="#DejaVuSans-48"/>
      </g>
     </g>
    </g>
    <g id="ytick_2">
     <g id="line2d_19">
      <g>
       <use style="stroke:#000000;stroke-width:0.8;" x="82.0875" xlink:href="#m647a1d017d" y="366.360421"/>
      </g>
     </g>
     <g id="text_20">
      <!-- 0.05 -->
      <g transform="translate(30.55625 373.958858)scale(0.2 -0.2)">
       <defs>
        <path d="M 10.796875 72.90625 
L 49.515625 72.90625 
L 49.515625 64.59375 
L 19.828125 64.59375 
L 19.828125 46.734375 
Q 21.96875 47.46875 24.109375 47.828125 
Q 26.265625 48.1875 28.421875 48.1875 
Q 40.625 48.1875 47.75 41.5 
Q 54.890625 34.8125 54.890625 23.390625 
Q 54.890625 11.625 47.5625 5.09375 
Q 40.234375 -1.421875 26.90625 -1.421875 
Q 22.3125 -1.421875 17.546875 -0.640625 
Q 12.796875 0.140625 7.71875 1.703125 
L 7.71875 11.625 
Q 12.109375 9.234375 16.796875 8.0625 
Q 21.484375 6.890625 26.703125 6.890625 
Q 35.15625 6.890625 40.078125 11.328125 
Q 45.015625 15.765625 45.015625 23.390625 
Q 45.015625 31 40.078125 35.4375 
Q 35.15625 39.890625 26.703125 39.890625 
Q 22.75 39.890625 18.8125 39.015625 
Q 14.890625 38.140625 10.796875 36.28125 
z
" id="DejaVuSans-53"/>
       </defs>
       <use xlink:href="#DejaVuSans-48"/>
       <use x="63.623047" xlink:href="#DejaVuSans-46"/>
       <use x="95.410156" xlink:href="#DejaVuSans-48"/>
       <use x="159.033203" xlink:href="#DejaVuSans-53"/>
      </g>
     </g>
    </g>
    <g id="ytick_3">
     <g id="line2d_20">
      <g>
       <use style="stroke:#000000;stroke-width:0.8;" x="82.0875" xlink:href="#m647a1d017d" y="302.543189"/>
      </g>
     </g>
     <g id="text_21">
      <!-- 0.10 -->
      <g transform="translate(30.55625 310.141626)scale(0.2 -0.2)">
       <defs>
        <path d="M 12.40625 8.296875 
L 28.515625 8.296875 
L 28.515625 63.921875 
L 10.984375 60.40625 
L 10.984375 69.390625 
L 28.421875 72.90625 
L 38.28125 72.90625 
L 38.28125 8.296875 
L 54.390625 8.296875 
L 54.390625 0 
L 12.40625 0 
z
" id="DejaVuSans-49"/>
       </defs>
       <use xlink:href="#DejaVuSans-48"/>
       <use x="63.623047" xlink:href="#DejaVuSans-46"/>
       <use x="95.410156" xlink:href="#DejaVuSans-49"/>
       <use x="159.033203" xlink:href="#DejaVuSans-48"/>
      </g>
     </g>
    </g>
    <g id="ytick_4">
     <g id="line2d_21">
      <g>
       <use style="stroke:#000000;stroke-width:0.8;" x="82.0875" xlink:href="#m647a1d017d" y="238.725957"/>
      </g>
     </g>
     <g id="text_22">
      <!-- 0.15 -->
      <g transform="translate(30.55625 246.324395)scale(0.2 -0.2)">
       <use xlink:href="#DejaVuSans-48"/>
       <use x="63.623047" xlink:href="#DejaVuSans-46"/>
       <use x="95.410156" xlink:href="#DejaVuSans-49"/>
       <use x="159.033203" xlink:href="#DejaVuSans-53"/>
      </g>
     </g>
    </g>
    <g id="ytick_5">
     <g id="line2d_22">
      <g>
       <use style="stroke:#000000;stroke-width:0.8;" x="82.0875" xlink:href="#m647a1d017d" y="174.908726"/>
      </g>
     </g>
     <g id="text_23">
      <!-- 0.20 -->
      <g transform="translate(30.55625 182.507163)scale(0.2 -0.2)">
       <defs>
        <path d="M 19.1875 8.296875 
L 53.609375 8.296875 
L 53.609375 0 
L 7.328125 0 
L 7.328125 8.296875 
Q 12.9375 14.109375 22.625 23.890625 
Q 32.328125 33.6875 34.8125 36.53125 
Q 39.546875 41.84375 41.421875 45.53125 
Q 43.3125 49.21875 43.3125 52.78125 
Q 43.3125 58.59375 39.234375 62.25 
Q 35.15625 65.921875 28.609375 65.921875 
Q 23.96875 65.921875 18.8125 64.3125 
Q 13.671875 62.703125 7.8125 59.421875 
L 7.8125 69.390625 
Q 13.765625 71.78125 18.9375 73 
Q 24.125 74.21875 28.421875 74.21875 
Q 39.75 74.21875 46.484375 68.546875 
Q 53.21875 62.890625 53.21875 53.421875 
Q 53.21875 48.921875 51.53125 44.890625 
Q 49.859375 40.875 45.40625 35.40625 
Q 44.1875 33.984375 37.640625 27.21875 
Q 31.109375 20.453125 19.1875 8.296875 
z
" id="DejaVuSans-50"/>
       </defs>
       <use xlink:href="#DejaVuSans-48"/>
       <use x="63.623047" xlink:href="#DejaVuSans-46"/>
       <use x="95.410156" xlink:href="#DejaVuSans-50"/>
       <use x="159.033203" xlink:href="#DejaVuSans-48"/>
      </g>
     </g>
    </g>
    <g id="ytick_6">
     <g id="line2d_23">
      <g>
       <use style="stroke:#000000;stroke-width:0.8;" x="82.0875" xlink:href="#m647a1d017d" y="111.091494"/>
      </g>
     </g>
     <g id="text_24">
      <!-- 0.25 -->
      <g transform="translate(30.55625 118.689932)scale(0.2 -0.2)">
       <use xlink:href="#DejaVuSans-48"/>
       <use x="63.623047" xlink:href="#DejaVuSans-46"/>
       <use x="95.410156" xlink:href="#DejaVuSans-50"/>
       <use x="159.033203" xlink:href="#DejaVuSans-53"/>
      </g>
     </g>
    </g>
    <g id="text_25">
     <!-- Feature importance in Random Forest models in CV -->
     <g transform="translate(22.396875 522.475)rotate(-90)scale(0.2 -0.2)">
      <defs>
       <path id="DejaVuSans-32"/>
       <path d="M 48.78125 52.59375 
L 48.78125 44.1875 
Q 44.96875 46.296875 41.140625 47.34375 
Q 37.3125 48.390625 33.40625 48.390625 
Q 24.65625 48.390625 19.8125 42.84375 
Q 14.984375 37.3125 14.984375 27.296875 
Q 14.984375 17.28125 19.8125 11.734375 
Q 24.65625 6.203125 33.40625 6.203125 
Q 37.3125 6.203125 41.140625 7.25 
Q 44.96875 8.296875 48.78125 10.40625 
L 48.78125 2.09375 
Q 45.015625 0.34375 40.984375 -0.53125 
Q 36.96875 -1.421875 32.421875 -1.421875 
Q 20.0625 -1.421875 12.78125 6.34375 
Q 5.515625 14.109375 5.515625 27.296875 
Q 5.515625 40.671875 12.859375 48.328125 
Q 20.21875 56 33.015625 56 
Q 37.15625 56 41.109375 55.140625 
Q 45.0625 54.296875 48.78125 52.59375 
z
" id="DejaVuSans-99"/>
       <path d="M 28.609375 0 
L 0.78125 72.90625 
L 11.078125 72.90625 
L 34.1875 11.53125 
L 57.328125 72.90625 
L 67.578125 72.90625 
L 39.796875 0 
z
" id="DejaVuSans-86"/>
      </defs>
      <use xlink:href="#DejaVuSans-70"/>
      <use x="52.019531" xlink:href="#DejaVuSans-101"/>
      <use x="113.542969" xlink:href="#DejaVuSans-97"/>
      <use x="174.822266" xlink:href="#DejaVuSans-116"/>
      <use x="214.03125" xlink:href="#DejaVuSans-117"/>
      <use x="277.410156" xlink:href="#DejaVuSans-114"/>
      <use x="316.273438" xlink:href="#DejaVuSans-101"/>
      <use x="377.796875" xlink:href="#DejaVuSans-32"/>
      <use x="409.583984" xlink:href="#DejaVuSans-105"/>
      <use x="437.367188" xlink:href="#DejaVuSans-109"/>
      <use x="534.779297" xlink:href="#DejaVuSans-112"/>
      <use x="598.255859" xlink:href="#DejaVuSans-111"/>
      <use x="659.4375" xlink:href="#DejaVuSans-114"/>
      <use x="700.550781" xlink:href="#DejaVuSans-116"/>
      <use x="739.759766" xlink:href="#DejaVuSans-97"/>
      <use x="801.039062" xlink:href="#DejaVuSans-110"/>
      <use x="864.417969" xlink:href="#DejaVuSans-99"/>
      <use x="919.398438" xlink:href="#DejaVuSans-101"/>
      <use x="980.921875" xlink:href="#DejaVuSans-32"/>
      <use x="1012.708984" xlink:href="#DejaVuSans-105"/>
      <use x="1040.492188" xlink:href="#DejaVuSans-110"/>
      <use x="1103.871094" xlink:href="#DejaVuSans-32"/>
      <use x="1135.658203" xlink:href="#DejaVuSans-82"/>
      <use x="1202.890625" xlink:href="#DejaVuSans-97"/>
      <use x="1264.169922" xlink:href="#DejaVuSans-110"/>
      <use x="1327.548828" xlink:href="#DejaVuSans-100"/>
      <use x="1391.025391" xlink:href="#DejaVuSans-111"/>
      <use x="1452.207031" xlink:href="#DejaVuSans-109"/>
      <use x="1549.619141" xlink:href="#DejaVuSans-32"/>
      <use x="1581.40625" xlink:href="#DejaVuSans-70"/>
      <use x="1635.300781" xlink:href="#DejaVuSans-111"/>
      <use x="1696.482422" xlink:href="#DejaVuSans-114"/>
      <use x="1735.345703" xlink:href="#DejaVuSans-101"/>
      <use x="1796.869141" xlink:href="#DejaVuSans-115"/>
      <use x="1848.96875" xlink:href="#DejaVuSans-116"/>
      <use x="1888.177734" xlink:href="#DejaVuSans-32"/>
      <use x="1919.964844" xlink:href="#DejaVuSans-109"/>
      <use x="2017.376953" xlink:href="#DejaVuSans-111"/>
      <use x="2078.558594" xlink:href="#DejaVuSans-100"/>
      <use x="2142.035156" xlink:href="#DejaVuSans-101"/>
      <use x="2203.558594" xlink:href="#DejaVuSans-108"/>
      <use x="2231.341797" xlink:href="#DejaVuSans-115"/>
      <use x="2283.441406" xlink:href="#DejaVuSans-32"/>
      <use x="2315.228516" xlink:href="#DejaVuSans-105"/>
      <use x="2343.011719" xlink:href="#DejaVuSans-110"/>
      <use x="2406.390625" xlink:href="#DejaVuSans-32"/>
      <use x="2438.177734" xlink:href="#DejaVuSans-67"/>
      <use x="2508.001953" xlink:href="#DejaVuSans-86"/>
     </g>
    </g>
   </g>
   <g id="line2d_24">
    <path clip-path="url(#peccf510067)" d="M 123.772794 121.672765 
L 123.772794 127.440882 
" style="fill:none;stroke:#515151;stroke-linecap:square;stroke-width:1.5;"/>
   </g>
   <g id="line2d_25">
    <path clip-path="url(#peccf510067)" d="M 123.772794 111.109151 
L 123.772794 99.928409 
" style="fill:none;stroke:#515151;stroke-linecap:square;stroke-width:1.5;"/>
   </g>
   <g id="line2d_26">
    <path clip-path="url(#peccf510067)" d="M 107.098676 127.440882 
L 140.446912 127.440882 
" style="fill:none;stroke:#515151;stroke-linecap:square;stroke-width:1.5;"/>
   </g>
   <g id="line2d_27">
    <path clip-path="url(#peccf510067)" d="M 107.098676 99.928409 
L 140.446912 99.928409 
" style="fill:none;stroke:#515151;stroke-linecap:square;stroke-width:1.5;"/>
   </g>
   <g id="line2d_28"/>
   <g id="line2d_29">
    <path clip-path="url(#peccf510067)" d="M 207.143382 197.937396 
L 207.143382 201.299339 
" style="fill:none;stroke:#515151;stroke-linecap:square;stroke-width:1.5;"/>
   </g>
   <g id="line2d_30">
    <path clip-path="url(#peccf510067)" d="M 207.143382 186.930676 
L 207.143382 180.904081 
" style="fill:none;stroke:#515151;stroke-linecap:square;stroke-width:1.5;"/>
   </g>
   <g id="line2d_31">
    <path clip-path="url(#peccf510067)" d="M 190.469265 201.299339 
L 223.8175 201.299339 
" style="fill:none;stroke:#515151;stroke-linecap:square;stroke-width:1.5;"/>
   </g>
   <g id="line2d_32">
    <path clip-path="url(#peccf510067)" d="M 190.469265 180.904081 
L 223.8175 180.904081 
" style="fill:none;stroke:#515151;stroke-linecap:square;stroke-width:1.5;"/>
   </g>
   <g id="line2d_33"/>
   <g id="line2d_34">
    <path clip-path="url(#peccf510067)" d="M 290.513971 291.653692 
L 290.513971 295.434727 
" style="fill:none;stroke:#515151;stroke-linecap:square;stroke-width:1.5;"/>
   </g>
   <g id="line2d_35">
    <path clip-path="url(#peccf510067)" d="M 290.513971 283.221014 
L 290.513971 278.778176 
" style="fill:none;stroke:#515151;stroke-linecap:square;stroke-width:1.5;"/>
   </g>
   <g id="line2d_36">
    <path clip-path="url(#peccf510067)" d="M 273.839853 295.434727 
L 307.188088 295.434727 
" style="fill:none;stroke:#515151;stroke-linecap:square;stroke-width:1.5;"/>
   </g>
   <g id="line2d_37">
    <path clip-path="url(#peccf510067)" d="M 273.839853 278.778176 
L 307.188088 278.778176 
" style="fill:none;stroke:#515151;stroke-linecap:square;stroke-width:1.5;"/>
   </g>
   <g id="line2d_38"/>
   <g id="line2d_39">
    <path clip-path="url(#peccf510067)" d="M 373.884559 309.965596 
L 373.884559 310.552238 
" style="fill:none;stroke:#515151;stroke-linecap:square;stroke-width:1.5;"/>
   </g>
   <g id="line2d_40">
    <path clip-path="url(#peccf510067)" d="M 373.884559 306.29839 
L 373.884559 302.252198 
" style="fill:none;stroke:#515151;stroke-linecap:square;stroke-width:1.5;"/>
   </g>
   <g id="line2d_41">
    <path clip-path="url(#peccf510067)" d="M 357.210441 310.552238 
L 390.558676 310.552238 
" style="fill:none;stroke:#515151;stroke-linecap:square;stroke-width:1.5;"/>
   </g>
   <g id="line2d_42">
    <path clip-path="url(#peccf510067)" d="M 357.210441 302.252198 
L 390.558676 302.252198 
" style="fill:none;stroke:#515151;stroke-linecap:square;stroke-width:1.5;"/>
   </g>
   <g id="line2d_43"/>
   <g id="line2d_44">
    <path clip-path="url(#peccf510067)" d="M 457.255147 331.859096 
L 457.255147 336.575668 
" style="fill:none;stroke:#515151;stroke-linecap:square;stroke-width:1.5;"/>
   </g>
   <g id="line2d_45">
    <path clip-path="url(#peccf510067)" d="M 457.255147 326.832517 
L 457.255147 324.96402 
" style="fill:none;stroke:#515151;stroke-linecap:square;stroke-width:1.5;"/>
   </g>
   <g id="line2d_46">
    <path clip-path="url(#peccf510067)" d="M 440.581029 336.575668 
L 473.929265 336.575668 
" style="fill:none;stroke:#515151;stroke-linecap:square;stroke-width:1.5;"/>
   </g>
   <g id="line2d_47">
    <path clip-path="url(#peccf510067)" d="M 440.581029 324.96402 
L 473.929265 324.96402 
" style="fill:none;stroke:#515151;stroke-linecap:square;stroke-width:1.5;"/>
   </g>
   <g id="line2d_48"/>
   <g id="line2d_49">
    <path clip-path="url(#peccf510067)" d="M 540.625735 360.557397 
L 540.625735 364.141605 
" style="fill:none;stroke:#515151;stroke-linecap:square;stroke-width:1.5;"/>
   </g>
   <g id="line2d_50">
    <path clip-path="url(#peccf510067)" d="M 540.625735 357.134413 
L 540.625735 354.055765 
" style="fill:none;stroke:#515151;stroke-linecap:square;stroke-width:1.5;"/>
   </g>
   <g id="line2d_51">
    <path clip-path="url(#peccf510067)" d="M 523.951618 364.141605 
L 557.299853 364.141605 
" style="fill:none;stroke:#515151;stroke-linecap:square;stroke-width:1.5;"/>
   </g>
   <g id="line2d_52">
    <path clip-path="url(#peccf510067)" d="M 523.951618 354.055765 
L 557.299853 354.055765 
" style="fill:none;stroke:#515151;stroke-linecap:square;stroke-width:1.5;"/>
   </g>
   <g id="line2d_53"/>
   <g id="line2d_54">
    <path clip-path="url(#peccf510067)" d="M 623.996324 359.512402 
L 623.996324 360.79698 
" style="fill:none;stroke:#515151;stroke-linecap:square;stroke-width:1.5;"/>
   </g>
   <g id="line2d_55">
    <path clip-path="url(#peccf510067)" d="M 623.996324 358.351145 
L 623.996324 357.314862 
" style="fill:none;stroke:#515151;stroke-linecap:square;stroke-width:1.5;"/>
   </g>
   <g id="line2d_56">
    <path clip-path="url(#peccf510067)" d="M 607.322206 360.79698 
L 640.670441 360.79698 
" style="fill:none;stroke:#515151;stroke-linecap:square;stroke-width:1.5;"/>
   </g>
   <g id="line2d_57">
    <path clip-path="url(#peccf510067)" d="M 607.322206 357.314862 
L 640.670441 357.314862 
" style="fill:none;stroke:#515151;stroke-linecap:square;stroke-width:1.5;"/>
   </g>
   <g id="line2d_58">
    <defs>
     <path d="M -0 3.535534 
L 2.12132 0 
L -0 -3.535534 
L -2.12132 -0 
z
" id="m6502613f77" style="stroke:#515151;stroke-linejoin:miter;"/>
    </defs>
    <g clip-path="url(#peccf510067)">
     <use style="fill:#515151;stroke:#515151;stroke-linejoin:miter;" x="623.996324" xlink:href="#m6502613f77" y="363.216489"/>
     <use style="fill:#515151;stroke:#515151;stroke-linejoin:miter;" x="623.996324" xlink:href="#m6502613f77" y="353.830197"/>
    </g>
   </g>
   <g id="line2d_59">
    <path clip-path="url(#peccf510067)" d="M 707.366912 381.229795 
L 707.366912 382.554336 
" style="fill:none;stroke:#515151;stroke-linecap:square;stroke-width:1.5;"/>
   </g>
   <g id="line2d_60">
    <path clip-path="url(#peccf510067)" d="M 707.366912 378.015035 
L 707.366912 377.150413 
" style="fill:none;stroke:#515151;stroke-linecap:square;stroke-width:1.5;"/>
   </g>
   <g id="line2d_61">
    <path clip-path="url(#peccf510067)" d="M 690.692794 382.554336 
L 724.041029 382.554336 
" style="fill:none;stroke:#515151;stroke-linecap:square;stroke-width:1.5;"/>
   </g>
   <g id="line2d_62">
    <path clip-path="url(#peccf510067)" d="M 690.692794 377.150413 
L 724.041029 377.150413 
" style="fill:none;stroke:#515151;stroke-linecap:square;stroke-width:1.5;"/>
   </g>
   <g id="line2d_63"/>
   <g id="line2d_64">
    <path clip-path="url(#peccf510067)" d="M 790.7375 384.715528 
L 790.7375 386.251834 
" style="fill:none;stroke:#515151;stroke-linecap:square;stroke-width:1.5;"/>
   </g>
   <g id="line2d_65">
    <path clip-path="url(#peccf510067)" d="M 790.7375 382.475058 
L 790.7375 381.864345 
" style="fill:none;stroke:#515151;stroke-linecap:square;stroke-width:1.5;"/>
   </g>
   <g id="line2d_66">
    <path clip-path="url(#peccf510067)" d="M 774.063382 386.251834 
L 807.411618 386.251834 
" style="fill:none;stroke:#515151;stroke-linecap:square;stroke-width:1.5;"/>
   </g>
   <g id="line2d_67">
    <path clip-path="url(#peccf510067)" d="M 774.063382 381.864345 
L 807.411618 381.864345 
" style="fill:none;stroke:#515151;stroke-linecap:square;stroke-width:1.5;"/>
   </g>
   <g id="line2d_68"/>
   <g id="line2d_69">
    <path clip-path="url(#peccf510067)" d="M 874.108088 390.068905 
L 874.108088 392.571684 
" style="fill:none;stroke:#515151;stroke-linecap:square;stroke-width:1.5;"/>
   </g>
   <g id="line2d_70">
    <path clip-path="url(#peccf510067)" d="M 874.108088 387.481012 
L 874.108088 383.814826 
" style="fill:none;stroke:#515151;stroke-linecap:square;stroke-width:1.5;"/>
   </g>
   <g id="line2d_71">
    <path clip-path="url(#peccf510067)" d="M 857.433971 392.571684 
L 890.782206 392.571684 
" style="fill:none;stroke:#515151;stroke-linecap:square;stroke-width:1.5;"/>
   </g>
   <g id="line2d_72">
    <path clip-path="url(#peccf510067)" d="M 857.433971 383.814826 
L 890.782206 383.814826 
" style="fill:none;stroke:#515151;stroke-linecap:square;stroke-width:1.5;"/>
   </g>
   <g id="line2d_73"/>
   <g id="line2d_74">
    <path clip-path="url(#peccf510067)" d="M 957.478676 394.013388 
L 957.478676 395.513013 
" style="fill:none;stroke:#515151;stroke-linecap:square;stroke-width:1.5;"/>
   </g>
   <g id="line2d_75">
    <path clip-path="url(#peccf510067)" d="M 957.478676 392.816931 
L 957.478676 391.873778 
" style="fill:none;stroke:#515151;stroke-linecap:square;stroke-width:1.5;"/>
   </g>
   <g id="line2d_76">
    <path clip-path="url(#peccf510067)" d="M 940.804559 395.513013 
L 974.152794 395.513013 
" style="fill:none;stroke:#515151;stroke-linecap:square;stroke-width:1.5;"/>
   </g>
   <g id="line2d_77">
    <path clip-path="url(#peccf510067)" d="M 940.804559 391.873778 
L 974.152794 391.873778 
" style="fill:none;stroke:#515151;stroke-linecap:square;stroke-width:1.5;"/>
   </g>
   <g id="line2d_78">
    <g clip-path="url(#peccf510067)">
     <use style="fill:#515151;stroke:#515151;stroke-linejoin:miter;" x="957.478676" xlink:href="#m6502613f77" y="396.011839"/>
    </g>
   </g>
   <g id="line2d_79">
    <path clip-path="url(#peccf510067)" d="M 1040.849265 405.287097 
L 1040.849265 405.908076 
" style="fill:none;stroke:#515151;stroke-linecap:square;stroke-width:1.5;"/>
   </g>
   <g id="line2d_80">
    <path clip-path="url(#peccf510067)" d="M 1040.849265 403.984111 
L 1040.849265 402.551569 
" style="fill:none;stroke:#515151;stroke-linecap:square;stroke-width:1.5;"/>
   </g>
   <g id="line2d_81">
    <path clip-path="url(#peccf510067)" d="M 1024.175147 405.908076 
L 1057.523382 405.908076 
" style="fill:none;stroke:#515151;stroke-linecap:square;stroke-width:1.5;"/>
   </g>
   <g id="line2d_82">
    <path clip-path="url(#peccf510067)" d="M 1024.175147 402.551569 
L 1057.523382 402.551569 
" style="fill:none;stroke:#515151;stroke-linecap:square;stroke-width:1.5;"/>
   </g>
   <g id="line2d_83">
    <g clip-path="url(#peccf510067)">
     <use style="fill:#515151;stroke:#515151;stroke-linejoin:miter;" x="1040.849265" xlink:href="#m6502613f77" y="408.491688"/>
    </g>
   </g>
   <g id="line2d_84">
    <path clip-path="url(#peccf510067)" d="M 1124.219853 423.422073 
L 1124.219853 424.520854 
" style="fill:none;stroke:#515151;stroke-linecap:square;stroke-width:1.5;"/>
   </g>
   <g id="line2d_85">
    <path clip-path="url(#peccf510067)" d="M 1124.219853 422.601414 
L 1124.219853 421.922578 
" style="fill:none;stroke:#515151;stroke-linecap:square;stroke-width:1.5;"/>
   </g>
   <g id="line2d_86">
    <path clip-path="url(#peccf510067)" d="M 1107.545735 424.520854 
L 1140.893971 424.520854 
" style="fill:none;stroke:#515151;stroke-linecap:square;stroke-width:1.5;"/>
   </g>
   <g id="line2d_87">
    <path clip-path="url(#peccf510067)" d="M 1107.545735 421.922578 
L 1140.893971 421.922578 
" style="fill:none;stroke:#515151;stroke-linecap:square;stroke-width:1.5;"/>
   </g>
   <g id="line2d_88"/>
   <g id="line2d_89">
    <path clip-path="url(#peccf510067)" d="M 1207.590441 425.42054 
L 1207.590441 425.948043 
" style="fill:none;stroke:#515151;stroke-linecap:square;stroke-width:1.5;"/>
   </g>
   <g id="line2d_90">
    <path clip-path="url(#peccf510067)" d="M 1207.590441 424.570149 
L 1207.590441 423.684372 
" style="fill:none;stroke:#515151;stroke-linecap:square;stroke-width:1.5;"/>
   </g>
   <g id="line2d_91">
    <path clip-path="url(#peccf510067)" d="M 1190.916324 425.948043 
L 1224.264559 425.948043 
" style="fill:none;stroke:#515151;stroke-linecap:square;stroke-width:1.5;"/>
   </g>
   <g id="line2d_92">
    <path clip-path="url(#peccf510067)" d="M 1190.916324 423.684372 
L 1224.264559 423.684372 
" style="fill:none;stroke:#515151;stroke-linecap:square;stroke-width:1.5;"/>
   </g>
   <g id="line2d_93"/>
   <g id="line2d_94">
    <path clip-path="url(#peccf510067)" d="M 1290.961029 428.921065 
L 1290.961029 429.150888 
" style="fill:none;stroke:#515151;stroke-linecap:square;stroke-width:1.5;"/>
   </g>
   <g id="line2d_95">
    <path clip-path="url(#peccf510067)" d="M 1290.961029 428.755048 
L 1290.961029 428.649374 
" style="fill:none;stroke:#515151;stroke-linecap:square;stroke-width:1.5;"/>
   </g>
   <g id="line2d_96">
    <path clip-path="url(#peccf510067)" d="M 1274.286912 429.150888 
L 1307.635147 429.150888 
" style="fill:none;stroke:#515151;stroke-linecap:square;stroke-width:1.5;"/>
   </g>
   <g id="line2d_97">
    <path clip-path="url(#peccf510067)" d="M 1274.286912 428.649374 
L 1307.635147 428.649374 
" style="fill:none;stroke:#515151;stroke-linecap:square;stroke-width:1.5;"/>
   </g>
   <g id="line2d_98"/>
   <g id="line2d_99">
    <path clip-path="url(#peccf510067)" d="M 1374.331618 428.879791 
L 1374.331618 428.892245 
" style="fill:none;stroke:#515151;stroke-linecap:square;stroke-width:1.5;"/>
   </g>
   <g id="line2d_100">
    <path clip-path="url(#peccf510067)" d="M 1374.331618 428.729481 
L 1374.331618 428.621267 
" style="fill:none;stroke:#515151;stroke-linecap:square;stroke-width:1.5;"/>
   </g>
   <g id="line2d_101">
    <path clip-path="url(#peccf510067)" d="M 1357.6575 428.892245 
L 1391.005735 428.892245 
" style="fill:none;stroke:#515151;stroke-linecap:square;stroke-width:1.5;"/>
   </g>
   <g id="line2d_102">
    <path clip-path="url(#peccf510067)" d="M 1357.6575 428.621267 
L 1391.005735 428.621267 
" style="fill:none;stroke:#515151;stroke-linecap:square;stroke-width:1.5;"/>
   </g>
   <g id="line2d_103">
    <g clip-path="url(#peccf510067)">
     <use style="fill:#515151;stroke:#515151;stroke-linejoin:miter;" x="1374.331618" xlink:href="#m6502613f77" y="429.159556"/>
     <use style="fill:#515151;stroke:#515151;stroke-linejoin:miter;" x="1374.331618" xlink:href="#m6502613f77" y="429.155793"/>
    </g>
   </g>
   <g id="line2d_104">
    <path clip-path="url(#peccf510067)" d="M 1457.702206 429.737807 
L 1457.702206 429.746591 
" style="fill:none;stroke:#515151;stroke-linecap:square;stroke-width:1.5;"/>
   </g>
   <g id="line2d_105">
    <path clip-path="url(#peccf510067)" d="M 1457.702206 429.724238 
L 1457.702206 429.714888 
" style="fill:none;stroke:#515151;stroke-linecap:square;stroke-width:1.5;"/>
   </g>
   <g id="line2d_106">
    <path clip-path="url(#peccf510067)" d="M 1441.028088 429.746591 
L 1474.376324 429.746591 
" style="fill:none;stroke:#515151;stroke-linecap:square;stroke-width:1.5;"/>
   </g>
   <g id="line2d_107">
    <path clip-path="url(#peccf510067)" d="M 1441.028088 429.714888 
L 1474.376324 429.714888 
" style="fill:none;stroke:#515151;stroke-linecap:square;stroke-width:1.5;"/>
   </g>
   <g id="line2d_108">
    <g clip-path="url(#peccf510067)">
     <use style="fill:#515151;stroke:#515151;stroke-linejoin:miter;" x="1457.702206" xlink:href="#m6502613f77" y="429.69977"/>
    </g>
   </g>
   <g id="line2d_109">
    <path clip-path="url(#peccf510067)" d="M 90.424559 117.874307 
L 157.121029 117.874307 
" style="fill:none;stroke:#515151;stroke-linecap:square;stroke-width:1.5;"/>
   </g>
   <g id="line2d_110">
    <path clip-path="url(#peccf510067)" d="M 173.795147 190.247683 
L 240.491618 190.247683 
" style="fill:none;stroke:#515151;stroke-linecap:square;stroke-width:1.5;"/>
   </g>
   <g id="line2d_111">
    <path clip-path="url(#peccf510067)" d="M 257.165735 289.424113 
L 323.862206 289.424113 
" style="fill:none;stroke:#515151;stroke-linecap:square;stroke-width:1.5;"/>
   </g>
   <g id="line2d_112">
    <path clip-path="url(#peccf510067)" d="M 340.536324 308.54946 
L 407.232794 308.54946 
" style="fill:none;stroke:#515151;stroke-linecap:square;stroke-width:1.5;"/>
   </g>
   <g id="line2d_113">
    <path clip-path="url(#peccf510067)" d="M 423.906912 330.199527 
L 490.603382 330.199527 
" style="fill:none;stroke:#515151;stroke-linecap:square;stroke-width:1.5;"/>
   </g>
   <g id="line2d_114">
    <path clip-path="url(#peccf510067)" d="M 507.2775 358.17977 
L 573.973971 358.17977 
" style="fill:none;stroke:#515151;stroke-linecap:square;stroke-width:1.5;"/>
   </g>
   <g id="line2d_115">
    <path clip-path="url(#peccf510067)" d="M 590.648088 358.938034 
L 657.344559 358.938034 
" style="fill:none;stroke:#515151;stroke-linecap:square;stroke-width:1.5;"/>
   </g>
   <g id="line2d_116">
    <path clip-path="url(#peccf510067)" d="M 674.018676 379.068188 
L 740.715147 379.068188 
" style="fill:none;stroke:#515151;stroke-linecap:square;stroke-width:1.5;"/>
   </g>
   <g id="line2d_117">
    <path clip-path="url(#peccf510067)" d="M 757.389265 383.557056 
L 824.085735 383.557056 
" style="fill:none;stroke:#515151;stroke-linecap:square;stroke-width:1.5;"/>
   </g>
   <g id="line2d_118">
    <path clip-path="url(#peccf510067)" d="M 840.759853 389.205997 
L 907.456324 389.205997 
" style="fill:none;stroke:#515151;stroke-linecap:square;stroke-width:1.5;"/>
   </g>
   <g id="line2d_119">
    <path clip-path="url(#peccf510067)" d="M 924.130441 393.146063 
L 990.826912 393.146063 
" style="fill:none;stroke:#515151;stroke-linecap:square;stroke-width:1.5;"/>
   </g>
   <g id="line2d_120">
    <path clip-path="url(#peccf510067)" d="M 1007.501029 404.597367 
L 1074.1975 404.597367 
" style="fill:none;stroke:#515151;stroke-linecap:square;stroke-width:1.5;"/>
   </g>
   <g id="line2d_121">
    <path clip-path="url(#peccf510067)" d="M 1090.871618 423.148256 
L 1157.568088 423.148256 
" style="fill:none;stroke:#515151;stroke-linecap:square;stroke-width:1.5;"/>
   </g>
   <g id="line2d_122">
    <path clip-path="url(#peccf510067)" d="M 1174.242206 425.308742 
L 1240.938676 425.308742 
" style="fill:none;stroke:#515151;stroke-linecap:square;stroke-width:1.5;"/>
   </g>
   <g id="line2d_123">
    <path clip-path="url(#peccf510067)" d="M 1257.612794 428.80334 
L 1324.309265 428.80334 
" style="fill:none;stroke:#515151;stroke-linecap:square;stroke-width:1.5;"/>
   </g>
   <g id="line2d_124">
    <path clip-path="url(#peccf510067)" d="M 1340.983382 428.835219 
L 1407.679853 428.835219 
" style="fill:none;stroke:#515151;stroke-linecap:square;stroke-width:1.5;"/>
   </g>
   <g id="line2d_125">
    <path clip-path="url(#peccf510067)" d="M 1424.353971 429.73008 
L 1491.050441 429.73008 
" style="fill:none;stroke:#515151;stroke-linecap:square;stroke-width:1.5;"/>
   </g>
   <g id="patch_20">
    <path d="M 82.0875 446.2375 
L 82.0875 83.4375 
" style="fill:none;stroke:#000000;stroke-linecap:square;stroke-linejoin:miter;stroke-width:0.8;"/>
   </g>
   <g id="patch_21">
    <path d="M 82.0875 446.2375 
L 1499.3875 446.2375 
" style="fill:none;stroke:#000000;stroke-linecap:square;stroke-linejoin:miter;stroke-width:0.8;"/>
   </g>
   <g id="PathCollection_1">
    <defs>
     <path d="M 0 2.5 
C 0.663008 2.5 1.29895 2.236584 1.767767 1.767767 
C 2.236584 1.29895 2.5 0.663008 2.5 -0 
C 2.5 -0.663008 2.236584 -1.29895 1.767767 -1.767767 
C 1.29895 -2.236584 0.663008 -2.5 0 -2.5 
C -0.663008 -2.5 -1.29895 -2.236584 -1.767767 -1.767767 
C -2.236584 -1.29895 -2.5 -0.663008 -2.5 0 
C -2.5 0.663008 -2.236584 1.29895 -1.767767 1.767767 
C -1.29895 2.236584 -0.663008 2.5 0 2.5 
z
" id="C0_0_4ced16dd5c"/>
    </defs>
    <g clip-path="url(#peccf510067)">
     <use x="130.281563" xlink:href="#C0_0_4ced16dd5c" y="111.542458"/>
    </g>
    <g clip-path="url(#peccf510067)">
     <use x="122.849124" xlink:href="#C0_0_4ced16dd5c" y="118.822497"/>
    </g>
    <g clip-path="url(#peccf510067)">
     <use x="126.95443" xlink:href="#C0_0_4ced16dd5c" y="121.282383"/>
    </g>
    <g clip-path="url(#peccf510067)">
     <use x="121.294828" xlink:href="#C0_0_4ced16dd5c" y="116.926117"/>
    </g>
    <g clip-path="url(#peccf510067)">
     <use x="122.24171" xlink:href="#C0_0_4ced16dd5c" y="99.928409"/>
    </g>
    <g clip-path="url(#peccf510067)">
     <use x="115.813436" xlink:href="#C0_0_4ced16dd5c" y="109.265232"/>
    </g>
    <g clip-path="url(#peccf510067)">
     <use x="127.459512" xlink:href="#C0_0_4ced16dd5c" y="110.964716"/>
    </g>
    <g clip-path="url(#peccf510067)">
     <use x="122.197726" xlink:href="#C0_0_4ced16dd5c" y="121.802892"/>
    </g>
    <g clip-path="url(#peccf510067)">
     <use x="126.380426" xlink:href="#C0_0_4ced16dd5c" y="127.440882"/>
    </g>
    <g clip-path="url(#peccf510067)">
     <use x="119.391854" xlink:href="#C0_0_4ced16dd5c" y="123.059446"/>
    </g>
   </g>
   <g id="PathCollection_2">
    <defs>
     <path d="M 0 2.5 
C 0.663008 2.5 1.29895 2.236584 1.767767 1.767767 
C 2.236584 1.29895 2.5 0.663008 2.5 -0 
C 2.5 -0.663008 2.236584 -1.29895 1.767767 -1.767767 
C 1.29895 -2.236584 0.663008 -2.5 0 -2.5 
C -0.663008 -2.5 -1.29895 -2.236584 -1.767767 -1.767767 
C -2.236584 -1.29895 -2.5 -0.663008 -2.5 0 
C -2.5 0.663008 -2.236584 1.29895 -1.767767 1.767767 
C -1.29895 2.236584 -0.663008 2.5 0 2.5 
z
" id="C1_0_3c4b1ada24"/>
    </defs>
    <g clip-path="url(#peccf510067)">
     <use x="200.224979" xlink:href="#C1_0_3c4b1ada24" y="180.904081"/>
    </g>
    <g clip-path="url(#peccf510067)">
     <use x="205.4946" xlink:href="#C1_0_3c4b1ada24" y="200.555173"/>
    </g>
    <g clip-path="url(#peccf510067)">
     <use x="203.831664" xlink:href="#C1_0_3c4b1ada24" y="190.365991"/>
    </g>
    <g clip-path="url(#peccf510067)">
     <use x="202.320025" xlink:href="#C1_0_3c4b1ada24" y="190.129376"/>
    </g>
    <g clip-path="url(#peccf510067)">
     <use x="205.827359" xlink:href="#C1_0_3c4b1ada24" y="201.299339"/>
    </g>
    <g clip-path="url(#peccf510067)">
     <use x="208.975493" xlink:href="#C1_0_3c4b1ada24" y="187.979023"/>
    </g>
    <g clip-path="url(#peccf510067)">
     <use x="212.627638" xlink:href="#C1_0_3c4b1ada24" y="198.22724"/>
    </g>
    <g clip-path="url(#peccf510067)">
     <use x="203.201257" xlink:href="#C1_0_3c4b1ada24" y="186.581227"/>
    </g>
    <g clip-path="url(#peccf510067)">
     <use x="212.818421" xlink:href="#C1_0_3c4b1ada24" y="185.221219"/>
    </g>
    <g clip-path="url(#peccf510067)">
     <use x="205.401322" xlink:href="#C1_0_3c4b1ada24" y="197.067862"/>
    </g>
   </g>
   <g id="PathCollection_3">
    <defs>
     <path d="M 0 2.5 
C 0.663008 2.5 1.29895 2.236584 1.767767 1.767767 
C 2.236584 1.29895 2.5 0.663008 2.5 -0 
C 2.5 -0.663008 2.236584 -1.29895 1.767767 -1.767767 
C 1.29895 -2.236584 0.663008 -2.5 0 -2.5 
C -0.663008 -2.5 -1.29895 -2.236584 -1.767767 -1.767767 
C -2.236584 -1.29895 -2.5 -0.663008 -2.5 0 
C -2.5 0.663008 -2.236584 1.29895 -1.767767 1.767767 
C -1.29895 2.236584 -0.663008 2.5 0 2.5 
z
" id="C2_0_8db6d0d326"/>
    </defs>
    <g clip-path="url(#peccf510067)">
     <use x="293.689139" xlink:href="#C2_0_8db6d0d326" y="289.633433"/>
    </g>
    <g clip-path="url(#peccf510067)">
     <use x="296.206134" xlink:href="#C2_0_8db6d0d326" y="278.778176"/>
    </g>
    <g clip-path="url(#peccf510067)">
     <use x="289.714228" xlink:href="#C2_0_8db6d0d326" y="284.089642"/>
    </g>
    <g clip-path="url(#peccf510067)">
     <use x="298.078139" xlink:href="#C2_0_8db6d0d326" y="290.302151"/>
    </g>
    <g clip-path="url(#peccf510067)">
     <use x="282.982275" xlink:href="#C2_0_8db6d0d326" y="280.849315"/>
    </g>
    <g clip-path="url(#peccf510067)">
     <use x="297.2952" xlink:href="#C2_0_8db6d0d326" y="295.434727"/>
    </g>
    <g clip-path="url(#peccf510067)">
     <use x="298.484874" xlink:href="#C2_0_8db6d0d326" y="293.470739"/>
    </g>
    <g clip-path="url(#peccf510067)">
     <use x="294.829262" xlink:href="#C2_0_8db6d0d326" y="289.214793"/>
    </g>
    <g clip-path="url(#peccf510067)">
     <use x="285.138799" xlink:href="#C2_0_8db6d0d326" y="292.104206"/>
    </g>
    <g clip-path="url(#peccf510067)">
     <use x="282.300181" xlink:href="#C2_0_8db6d0d326" y="282.931471"/>
    </g>
   </g>
   <g id="PathCollection_4">
    <defs>
     <path d="M 0 2.5 
C 0.663008 2.5 1.29895 2.236584 1.767767 1.767767 
C 2.236584 1.29895 2.5 0.663008 2.5 -0 
C 2.5 -0.663008 2.236584 -1.29895 1.767767 -1.767767 
C 1.29895 -2.236584 0.663008 -2.5 0 -2.5 
C -0.663008 -2.5 -1.29895 -2.236584 -1.767767 -1.767767 
C -2.236584 -1.29895 -2.5 -0.663008 -2.5 0 
C -2.5 0.663008 -2.236584 1.29895 -1.767767 1.767767 
C -1.29895 2.236584 -0.663008 2.5 0 2.5 
z
" id="C3_0_fa6d76687d"/>
    </defs>
    <g clip-path="url(#peccf510067)">
     <use x="382.063736" xlink:href="#C3_0_fa6d76687d" y="310.506143"/>
    </g>
    <g clip-path="url(#peccf510067)">
     <use x="373.633206" xlink:href="#C3_0_fa6d76687d" y="308.855566"/>
    </g>
    <g clip-path="url(#peccf510067)">
     <use x="380.724841" xlink:href="#C3_0_fa6d76687d" y="310.335606"/>
    </g>
    <g clip-path="url(#peccf510067)">
     <use x="379.451034" xlink:href="#C3_0_fa6d76687d" y="307.229959"/>
    </g>
    <g clip-path="url(#peccf510067)">
     <use x="378.830017" xlink:href="#C3_0_fa6d76687d" y="308.584753"/>
    </g>
    <g clip-path="url(#peccf510067)">
     <use x="375.487883" xlink:href="#C3_0_fa6d76687d" y="308.514167"/>
    </g>
    <g clip-path="url(#peccf510067)">
     <use x="367.79667" xlink:href="#C3_0_fa6d76687d" y="305.987867"/>
    </g>
    <g clip-path="url(#peccf510067)">
     <use x="376.074225" xlink:href="#C3_0_fa6d76687d" y="305.010114"/>
    </g>
    <g clip-path="url(#peccf510067)">
     <use x="379.427435" xlink:href="#C3_0_fa6d76687d" y="310.552238"/>
    </g>
    <g clip-path="url(#peccf510067)">
     <use x="380.167424" xlink:href="#C3_0_fa6d76687d" y="302.252198"/>
    </g>
   </g>
   <g id="PathCollection_5">
    <defs>
     <path d="M 0 2.5 
C 0.663008 2.5 1.29895 2.236584 1.767767 1.767767 
C 2.236584 1.29895 2.5 0.663008 2.5 -0 
C 2.5 -0.663008 2.236584 -1.29895 1.767767 -1.767767 
C 1.29895 -2.236584 0.663008 -2.5 0 -2.5 
C -0.663008 -2.5 -1.29895 -2.236584 -1.767767 -1.767767 
C -2.236584 -1.29895 -2.5 -0.663008 -2.5 0 
C -2.5 0.663008 -2.236584 1.29895 -1.767767 1.767767 
C -1.29895 2.236584 -0.663008 2.5 0 2.5 
z
" id="C4_0_a4f8e71b5a"/>
    </defs>
    <g clip-path="url(#peccf510067)">
     <use x="455.017045" xlink:href="#C4_0_a4f8e71b5a" y="336.575668"/>
    </g>
    <g clip-path="url(#peccf510067)">
     <use x="454.669078" xlink:href="#C4_0_a4f8e71b5a" y="330.939499"/>
    </g>
    <g clip-path="url(#peccf510067)">
     <use x="451.541617" xlink:href="#C4_0_a4f8e71b5a" y="329.959553"/>
    </g>
    <g clip-path="url(#peccf510067)">
     <use x="462.182398" xlink:href="#C4_0_a4f8e71b5a" y="327.282298"/>
    </g>
    <g clip-path="url(#peccf510067)">
     <use x="449.194055" xlink:href="#C4_0_a4f8e71b5a" y="334.581663"/>
    </g>
    <g clip-path="url(#peccf510067)">
     <use x="461.020905" xlink:href="#C4_0_a4f8e71b5a" y="326.68259"/>
    </g>
    <g clip-path="url(#peccf510067)">
     <use x="455.831704" xlink:href="#C4_0_a4f8e71b5a" y="330.4395"/>
    </g>
    <g clip-path="url(#peccf510067)">
     <use x="450.362702" xlink:href="#C4_0_a4f8e71b5a" y="332.165628"/>
    </g>
    <g clip-path="url(#peccf510067)">
     <use x="451.965354" xlink:href="#C4_0_a4f8e71b5a" y="326.031339"/>
    </g>
    <g clip-path="url(#peccf510067)">
     <use x="451.653736" xlink:href="#C4_0_a4f8e71b5a" y="324.96402"/>
    </g>
   </g>
   <g id="PathCollection_6">
    <defs>
     <path d="M 0 2.5 
C 0.663008 2.5 1.29895 2.236584 1.767767 1.767767 
C 2.236584 1.29895 2.5 0.663008 2.5 -0 
C 2.5 -0.663008 2.236584 -1.29895 1.767767 -1.767767 
C 1.29895 -2.236584 0.663008 -2.5 0 -2.5 
C -0.663008 -2.5 -1.29895 -2.236584 -1.767767 -1.767767 
C -2.236584 -1.29895 -2.5 -0.663008 -2.5 0 
C -2.5 0.663008 -2.236584 1.29895 -1.767767 1.767767 
C -1.29895 2.236584 -0.663008 2.5 0 2.5 
z
" id="C5_0_2b605a05bc"/>
    </defs>
    <g clip-path="url(#peccf510067)">
     <use x="535.368189" xlink:href="#C5_0_2b605a05bc" y="355.077102"/>
    </g>
    <g clip-path="url(#peccf510067)">
     <use x="542.591686" xlink:href="#C5_0_2b605a05bc" y="354.055765"/>
    </g>
    <g clip-path="url(#peccf510067)">
     <use x="537.828214" xlink:href="#C5_0_2b605a05bc" y="356.998982"/>
    </g>
    <g clip-path="url(#peccf510067)">
     <use x="539.973511" xlink:href="#C5_0_2b605a05bc" y="358.37764"/>
    </g>
    <g clip-path="url(#peccf510067)">
     <use x="539.648078" xlink:href="#C5_0_2b605a05bc" y="360.540026"/>
    </g>
    <g clip-path="url(#peccf510067)">
     <use x="534.500908" xlink:href="#C5_0_2b605a05bc" y="364.141605"/>
    </g>
    <g clip-path="url(#peccf510067)">
     <use x="544.841453" xlink:href="#C5_0_2b605a05bc" y="357.540705"/>
    </g>
    <g clip-path="url(#peccf510067)">
     <use x="548.400143" xlink:href="#C5_0_2b605a05bc" y="361.572879"/>
    </g>
    <g clip-path="url(#peccf510067)">
     <use x="545.540236" xlink:href="#C5_0_2b605a05bc" y="357.981899"/>
    </g>
    <g clip-path="url(#peccf510067)">
     <use x="537.156513" xlink:href="#C5_0_2b605a05bc" y="360.563187"/>
    </g>
   </g>
   <g id="PathCollection_7">
    <defs>
     <path d="M 0 2.5 
C 0.663008 2.5 1.29895 2.236584 1.767767 1.767767 
C 2.236584 1.29895 2.5 0.663008 2.5 -0 
C 2.5 -0.663008 2.236584 -1.29895 1.767767 -1.767767 
C 1.29895 -2.236584 0.663008 -2.5 0 -2.5 
C -0.663008 -2.5 -1.29895 -2.236584 -1.767767 -1.767767 
C -2.236584 -1.29895 -2.5 -0.663008 -2.5 0 
C -2.5 0.663008 -2.236584 1.29895 -1.767767 1.767767 
C -1.29895 2.236584 -0.663008 2.5 0 2.5 
z
" id="C6_0_d349893cca"/>
    </defs>
    <g clip-path="url(#peccf510067)">
     <use x="618.731607" xlink:href="#C6_0_d349893cca" y="363.216489"/>
    </g>
    <g clip-path="url(#peccf510067)">
     <use x="618.84052" xlink:href="#C6_0_d349893cca" y="357.314862"/>
    </g>
    <g clip-path="url(#peccf510067)">
     <use x="618.874252" xlink:href="#C6_0_d349893cca" y="360.79698"/>
    </g>
    <g clip-path="url(#peccf510067)">
     <use x="625.99164" xlink:href="#C6_0_d349893cca" y="353.830197"/>
    </g>
    <g clip-path="url(#peccf510067)">
     <use x="627.551335" xlink:href="#C6_0_d349893cca" y="358.172107"/>
    </g>
    <g clip-path="url(#peccf510067)">
     <use x="625.792484" xlink:href="#C6_0_d349893cca" y="359.280784"/>
    </g>
    <g clip-path="url(#peccf510067)">
     <use x="622.528396" xlink:href="#C6_0_d349893cca" y="358.940601"/>
    </g>
    <g clip-path="url(#peccf510067)">
     <use x="630.686689" xlink:href="#C6_0_d349893cca" y="359.589608"/>
    </g>
    <g clip-path="url(#peccf510067)">
     <use x="621.117402" xlink:href="#C6_0_d349893cca" y="358.935468"/>
    </g>
    <g clip-path="url(#peccf510067)">
     <use x="630.070401" xlink:href="#C6_0_d349893cca" y="358.888259"/>
    </g>
   </g>
   <g id="PathCollection_8">
    <defs>
     <path d="M 0 2.5 
C 0.663008 2.5 1.29895 2.236584 1.767767 1.767767 
C 2.236584 1.29895 2.5 0.663008 2.5 -0 
C 2.5 -0.663008 2.236584 -1.29895 1.767767 -1.767767 
C 1.29895 -2.236584 0.663008 -2.5 0 -2.5 
C -0.663008 -2.5 -1.29895 -2.236584 -1.767767 -1.767767 
C -2.236584 -1.29895 -2.5 -0.663008 -2.5 0 
C -2.5 0.663008 -2.236584 1.29895 -1.767767 1.767767 
C -1.29895 2.236584 -0.663008 2.5 0 2.5 
z
" id="C7_0_9710a3af7a"/>
    </defs>
    <g clip-path="url(#peccf510067)">
     <use x="702.811325" xlink:href="#C7_0_9710a3af7a" y="381.993254"/>
    </g>
    <g clip-path="url(#peccf510067)">
     <use x="700.854331" xlink:href="#C7_0_9710a3af7a" y="379.47434"/>
    </g>
    <g clip-path="url(#peccf510067)">
     <use x="712.636631" xlink:href="#C7_0_9710a3af7a" y="378.000107"/>
    </g>
    <g clip-path="url(#peccf510067)">
     <use x="706.730967" xlink:href="#C7_0_9710a3af7a" y="379.091466"/>
    </g>
    <g clip-path="url(#peccf510067)">
     <use x="708.421532" xlink:href="#C7_0_9710a3af7a" y="382.554336"/>
    </g>
    <g clip-path="url(#peccf510067)">
     <use x="701.647501" xlink:href="#C7_0_9710a3af7a" y="379.044911"/>
    </g>
    <g clip-path="url(#peccf510067)">
     <use x="707.202851" xlink:href="#C7_0_9710a3af7a" y="377.150413"/>
    </g>
    <g clip-path="url(#peccf510067)">
     <use x="714.845468" xlink:href="#C7_0_9710a3af7a" y="381.814946"/>
    </g>
    <g clip-path="url(#peccf510067)">
     <use x="710.821525" xlink:href="#C7_0_9710a3af7a" y="378.059819"/>
    </g>
    <g clip-path="url(#peccf510067)">
     <use x="715.388115" xlink:href="#C7_0_9710a3af7a" y="377.371312"/>
    </g>
   </g>
   <g id="PathCollection_9">
    <defs>
     <path d="M 0 2.5 
C 0.663008 2.5 1.29895 2.236584 1.767767 1.767767 
C 2.236584 1.29895 2.5 0.663008 2.5 -0 
C 2.5 -0.663008 2.236584 -1.29895 1.767767 -1.767767 
C 1.29895 -2.236584 0.663008 -2.5 0 -2.5 
C -0.663008 -2.5 -1.29895 -2.236584 -1.767767 -1.767767 
C -2.236584 -1.29895 -2.5 -0.663008 -2.5 0 
C -2.5 0.663008 -2.236584 1.29895 -1.767767 1.767767 
C -1.29895 2.236584 -0.663008 2.5 0 2.5 
z
" id="C8_0_6a65bc377b"/>
    </defs>
    <g clip-path="url(#peccf510067)">
     <use x="788.872385" xlink:href="#C8_0_6a65bc377b" y="386.251834"/>
    </g>
    <g clip-path="url(#peccf510067)">
     <use x="791.742513" xlink:href="#C8_0_6a65bc377b" y="384.989373"/>
    </g>
    <g clip-path="url(#peccf510067)">
     <use x="784.872024" xlink:href="#C8_0_6a65bc377b" y="381.940503"/>
    </g>
    <g clip-path="url(#peccf510067)">
     <use x="797.798202" xlink:href="#C8_0_6a65bc377b" y="383.609494"/>
    </g>
    <g clip-path="url(#peccf510067)">
     <use x="782.986956" xlink:href="#C8_0_6a65bc377b" y="381.864345"/>
    </g>
    <g clip-path="url(#peccf510067)">
     <use x="792.383433" xlink:href="#C8_0_6a65bc377b" y="383.504618"/>
    </g>
    <g clip-path="url(#peccf510067)">
     <use x="787.174897" xlink:href="#C8_0_6a65bc377b" y="383.292935"/>
    </g>
    <g clip-path="url(#peccf510067)">
     <use x="791.731451" xlink:href="#C8_0_6a65bc377b" y="382.202432"/>
    </g>
    <g clip-path="url(#peccf510067)">
     <use x="795.002453" xlink:href="#C8_0_6a65bc377b" y="383.893994"/>
    </g>
    <g clip-path="url(#peccf510067)">
     <use x="790.530894" xlink:href="#C8_0_6a65bc377b" y="386.088225"/>
    </g>
   </g>
   <g id="PathCollection_10">
    <defs>
     <path d="M 0 2.5 
C 0.663008 2.5 1.29895 2.236584 1.767767 1.767767 
C 2.236584 1.29895 2.5 0.663008 2.5 -0 
C 2.5 -0.663008 2.236584 -1.29895 1.767767 -1.767767 
C 1.29895 -2.236584 0.663008 -2.5 0 -2.5 
C -0.663008 -2.5 -1.29895 -2.236584 -1.767767 -1.767767 
C -2.236584 -1.29895 -2.5 -0.663008 -2.5 0 
C -2.5 0.663008 -2.236584 1.29895 -1.767767 1.767767 
C -1.29895 2.236584 -0.663008 2.5 0 2.5 
z
" id="C9_0_0489d82526"/>
    </defs>
    <g clip-path="url(#peccf510067)">
     <use x="871.624544" xlink:href="#C9_0_0489d82526" y="389.91393"/>
    </g>
    <g clip-path="url(#peccf510067)">
     <use x="869.856743" xlink:href="#C9_0_0489d82526" y="390.120563"/>
    </g>
    <g clip-path="url(#peccf510067)">
     <use x="876.517701" xlink:href="#C9_0_0489d82526" y="387.10697"/>
    </g>
    <g clip-path="url(#peccf510067)">
     <use x="873.28452" xlink:href="#C9_0_0489d82526" y="392.571684"/>
    </g>
    <g clip-path="url(#peccf510067)">
     <use x="872.788941" xlink:href="#C9_0_0489d82526" y="390.972487"/>
    </g>
    <g clip-path="url(#peccf510067)">
     <use x="869.638784" xlink:href="#C9_0_0489d82526" y="388.603136"/>
    </g>
    <g clip-path="url(#peccf510067)">
     <use x="870.855838" xlink:href="#C9_0_0489d82526" y="389.558967"/>
    </g>
    <g clip-path="url(#peccf510067)">
     <use x="871.74642" xlink:href="#C9_0_0489d82526" y="383.814826"/>
    </g>
    <g clip-path="url(#peccf510067)">
     <use x="873.47822" xlink:href="#C9_0_0489d82526" y="384.451785"/>
    </g>
    <g clip-path="url(#peccf510067)">
     <use x="877.331091" xlink:href="#C9_0_0489d82526" y="388.853026"/>
    </g>
   </g>
   <g id="PathCollection_11">
    <defs>
     <path d="M 0 2.5 
C 0.663008 2.5 1.29895 2.236584 1.767767 1.767767 
C 2.236584 1.29895 2.5 0.663008 2.5 -0 
C 2.5 -0.663008 2.236584 -1.29895 1.767767 -1.767767 
C 1.29895 -2.236584 0.663008 -2.5 0 -2.5 
C -0.663008 -2.5 -1.29895 -2.236584 -1.767767 -1.767767 
C -2.236584 -1.29895 -2.5 -0.663008 -2.5 0 
C -2.5 0.663008 -2.236584 1.29895 -1.767767 1.767767 
C -1.29895 2.236584 -0.663008 2.5 0 2.5 
z
" id="Ca_0_c6d38bce83"/>
    </defs>
    <g clip-path="url(#peccf510067)">
     <use x="961.912718" xlink:href="#Ca_0_c6d38bce83" y="392.015611"/>
    </g>
    <g clip-path="url(#peccf510067)">
     <use x="959.239443" xlink:href="#Ca_0_c6d38bce83" y="393.250439"/>
    </g>
    <g clip-path="url(#peccf510067)">
     <use x="955.305431" xlink:href="#Ca_0_c6d38bce83" y="394.175895"/>
    </g>
    <g clip-path="url(#peccf510067)">
     <use x="955.437859" xlink:href="#Ca_0_c6d38bce83" y="396.011839"/>
    </g>
    <g clip-path="url(#peccf510067)">
     <use x="958.687785" xlink:href="#Ca_0_c6d38bce83" y="393.525867"/>
    </g>
    <g clip-path="url(#peccf510067)">
     <use x="958.441659" xlink:href="#Ca_0_c6d38bce83" y="393.00709"/>
    </g>
    <g clip-path="url(#peccf510067)">
     <use x="959.874478" xlink:href="#Ca_0_c6d38bce83" y="391.873778"/>
    </g>
    <g clip-path="url(#peccf510067)">
     <use x="964.921705" xlink:href="#Ca_0_c6d38bce83" y="392.753545"/>
    </g>
    <g clip-path="url(#peccf510067)">
     <use x="956.05651" xlink:href="#Ca_0_c6d38bce83" y="393.041687"/>
    </g>
    <g clip-path="url(#peccf510067)">
     <use x="957.416579" xlink:href="#Ca_0_c6d38bce83" y="395.513013"/>
    </g>
   </g>
   <g id="PathCollection_12">
    <defs>
     <path d="M 0 2.5 
C 0.663008 2.5 1.29895 2.236584 1.767767 1.767767 
C 2.236584 1.29895 2.5 0.663008 2.5 -0 
C 2.5 -0.663008 2.236584 -1.29895 1.767767 -1.767767 
C 1.29895 -2.236584 0.663008 -2.5 0 -2.5 
C -0.663008 -2.5 -1.29895 -2.236584 -1.767767 -1.767767 
C -2.236584 -1.29895 -2.5 -0.663008 -2.5 0 
C -2.5 0.663008 -2.236584 1.29895 -1.767767 1.767767 
C -1.29895 2.236584 -0.663008 2.5 0 2.5 
z
" id="Cb_0_fa25a49d52"/>
    </defs>
    <g clip-path="url(#peccf510067)">
     <use x="1042.974888" xlink:href="#Cb_0_fa25a49d52" y="402.551569"/>
    </g>
    <g clip-path="url(#peccf510067)">
     <use x="1033.852929" xlink:href="#Cb_0_fa25a49d52" y="403.623595"/>
    </g>
    <g clip-path="url(#peccf510067)">
     <use x="1038.031149" xlink:href="#Cb_0_fa25a49d52" y="404.520996"/>
    </g>
    <g clip-path="url(#peccf510067)">
     <use x="1034.599765" xlink:href="#Cb_0_fa25a49d52" y="405.908076"/>
    </g>
    <g clip-path="url(#peccf510067)">
     <use x="1034.236232" xlink:href="#Cb_0_fa25a49d52" y="408.491688"/>
    </g>
    <g clip-path="url(#peccf510067)">
     <use x="1042.71012" xlink:href="#Cb_0_fa25a49d52" y="403.955455"/>
    </g>
    <g clip-path="url(#peccf510067)">
     <use x="1041.756783" xlink:href="#Cb_0_fa25a49d52" y="405.32514"/>
    </g>
    <g clip-path="url(#peccf510067)">
     <use x="1033.452718" xlink:href="#Cb_0_fa25a49d52" y="404.673738"/>
    </g>
    <g clip-path="url(#peccf510067)">
     <use x="1038.170544" xlink:href="#Cb_0_fa25a49d52" y="405.17297"/>
    </g>
    <g clip-path="url(#peccf510067)">
     <use x="1042.887279" xlink:href="#Cb_0_fa25a49d52" y="404.070078"/>
    </g>
   </g>
   <g id="PathCollection_13">
    <defs>
     <path d="M 0 2.5 
C 0.663008 2.5 1.29895 2.236584 1.767767 1.767767 
C 2.236584 1.29895 2.5 0.663008 2.5 -0 
C 2.5 -0.663008 2.236584 -1.29895 1.767767 -1.767767 
C 1.29895 -2.236584 0.663008 -2.5 0 -2.5 
C -0.663008 -2.5 -1.29895 -2.236584 -1.767767 -1.767767 
C -2.236584 -1.29895 -2.5 -0.663008 -2.5 0 
C -2.5 0.663008 -2.236584 1.29895 -1.767767 1.767767 
C -1.29895 2.236584 -0.663008 2.5 0 2.5 
z
" id="Cc_0_85f8b4f513"/>
    </defs>
    <g clip-path="url(#peccf510067)">
     <use x="1123.493364" xlink:href="#Cc_0_85f8b4f513" y="422.824315"/>
    </g>
    <g clip-path="url(#peccf510067)">
     <use x="1126.486235" xlink:href="#Cc_0_85f8b4f513" y="423.25185"/>
    </g>
    <g clip-path="url(#peccf510067)">
     <use x="1125.281731" xlink:href="#Cc_0_85f8b4f513" y="424.520854"/>
    </g>
    <g clip-path="url(#peccf510067)">
     <use x="1129.089723" xlink:href="#Cc_0_85f8b4f513" y="423.905671"/>
    </g>
    <g clip-path="url(#peccf510067)">
     <use x="1118.381652" xlink:href="#Cc_0_85f8b4f513" y="423.21661"/>
    </g>
    <g clip-path="url(#peccf510067)">
     <use x="1128.878741" xlink:href="#Cc_0_85f8b4f513" y="423.478814"/>
    </g>
    <g clip-path="url(#peccf510067)">
     <use x="1122.632823" xlink:href="#Cc_0_85f8b4f513" y="423.079903"/>
    </g>
    <g clip-path="url(#peccf510067)">
     <use x="1129.772208" xlink:href="#Cc_0_85f8b4f513" y="422.527114"/>
    </g>
    <g clip-path="url(#peccf510067)">
     <use x="1129.400204" xlink:href="#Cc_0_85f8b4f513" y="421.922578"/>
    </g>
    <g clip-path="url(#peccf510067)">
     <use x="1130.6914" xlink:href="#Cc_0_85f8b4f513" y="422.338225"/>
    </g>
   </g>
   <g id="PathCollection_14">
    <defs>
     <path d="M 0 2.5 
C 0.663008 2.5 1.29895 2.236584 1.767767 1.767767 
C 2.236584 1.29895 2.5 0.663008 2.5 -0 
C 2.5 -0.663008 2.236584 -1.29895 1.767767 -1.767767 
C 1.29895 -2.236584 0.663008 -2.5 0 -2.5 
C -0.663008 -2.5 -1.29895 -2.236584 -1.767767 -1.767767 
C -2.236584 -1.29895 -2.5 -0.663008 -2.5 0 
C -2.5 0.663008 -2.236584 1.29895 -1.767767 1.767767 
C -1.29895 2.236584 -0.663008 2.5 0 2.5 
z
" id="Cd_0_46b1e6a6c7"/>
    </defs>
    <g clip-path="url(#peccf510067)">
     <use x="1215.642602" xlink:href="#Cd_0_46b1e6a6c7" y="425.632808"/>
    </g>
    <g clip-path="url(#peccf510067)">
     <use x="1213.949723" xlink:href="#Cd_0_46b1e6a6c7" y="425.289409"/>
    </g>
    <g clip-path="url(#peccf510067)">
     <use x="1215.557308" xlink:href="#Cd_0_46b1e6a6c7" y="425.37758"/>
    </g>
    <g clip-path="url(#peccf510067)">
     <use x="1209.56116" xlink:href="#Cd_0_46b1e6a6c7" y="424.380785"/>
    </g>
    <g clip-path="url(#peccf510067)">
     <use x="1209.413581" xlink:href="#Cd_0_46b1e6a6c7" y="424.873207"/>
    </g>
    <g clip-path="url(#peccf510067)">
     <use x="1205.462792" xlink:href="#Cd_0_46b1e6a6c7" y="425.948043"/>
    </g>
    <g clip-path="url(#peccf510067)">
     <use x="1201.850631" xlink:href="#Cd_0_46b1e6a6c7" y="423.684372"/>
    </g>
    <g clip-path="url(#peccf510067)">
     <use x="1211.6431" xlink:href="#Cd_0_46b1e6a6c7" y="425.434861"/>
    </g>
    <g clip-path="url(#peccf510067)">
     <use x="1212.533016" xlink:href="#Cd_0_46b1e6a6c7" y="424.46913"/>
    </g>
    <g clip-path="url(#peccf510067)">
     <use x="1203.996036" xlink:href="#Cd_0_46b1e6a6c7" y="425.328075"/>
    </g>
   </g>
   <g id="PathCollection_15">
    <defs>
     <path d="M 0 2.5 
C 0.663008 2.5 1.29895 2.236584 1.767767 1.767767 
C 2.236584 1.29895 2.5 0.663008 2.5 -0 
C 2.5 -0.663008 2.236584 -1.29895 1.767767 -1.767767 
C 1.29895 -2.236584 0.663008 -2.5 0 -2.5 
C -0.663008 -2.5 -1.29895 -2.236584 -1.767767 -1.767767 
C -2.236584 -1.29895 -2.5 -0.663008 -2.5 0 
C -2.5 0.663008 -2.236584 1.29895 -1.767767 1.767767 
C -1.29895 2.236584 -0.663008 2.5 0 2.5 
z
" id="Ce_0_190bd63069"/>
    </defs>
    <g clip-path="url(#peccf510067)">
     <use x="1295.307687" xlink:href="#Ce_0_190bd63069" y="429.150888"/>
    </g>
    <g clip-path="url(#peccf510067)">
     <use x="1293.233981" xlink:href="#Ce_0_190bd63069" y="428.726177"/>
    </g>
    <g clip-path="url(#peccf510067)">
     <use x="1291.415692" xlink:href="#Ce_0_190bd63069" y="428.75451"/>
    </g>
    <g clip-path="url(#peccf510067)">
     <use x="1284.315008" xlink:href="#Ce_0_190bd63069" y="428.782549"/>
    </g>
    <g clip-path="url(#peccf510067)">
     <use x="1283.628733" xlink:href="#Ce_0_190bd63069" y="428.649374"/>
    </g>
    <g clip-path="url(#peccf510067)">
     <use x="1292.217557" xlink:href="#Ce_0_190bd63069" y="428.950291"/>
    </g>
    <g clip-path="url(#peccf510067)">
     <use x="1297.307748" xlink:href="#Ce_0_190bd63069" y="428.756663"/>
    </g>
    <g clip-path="url(#peccf510067)">
     <use x="1292.814271" xlink:href="#Ce_0_190bd63069" y="428.935987"/>
    </g>
    <g clip-path="url(#peccf510067)">
     <use x="1283.903055" xlink:href="#Ce_0_190bd63069" y="428.824131"/>
    </g>
    <g clip-path="url(#peccf510067)">
     <use x="1295.703086" xlink:href="#Ce_0_190bd63069" y="428.8763"/>
    </g>
   </g>
   <g id="PathCollection_16">
    <defs>
     <path d="M 0 2.5 
C 0.663008 2.5 1.29895 2.236584 1.767767 1.767767 
C 2.236584 1.29895 2.5 0.663008 2.5 -0 
C 2.5 -0.663008 2.236584 -1.29895 1.767767 -1.767767 
C 1.29895 -2.236584 0.663008 -2.5 0 -2.5 
C -0.663008 -2.5 -1.29895 -2.236584 -1.767767 -1.767767 
C -2.236584 -1.29895 -2.5 -0.663008 -2.5 0 
C -2.5 0.663008 -2.236584 1.29895 -1.767767 1.767767 
C -1.29895 2.236584 -0.663008 2.5 0 2.5 
z
" id="Cf_0_dbe1c04d6d"/>
    </defs>
    <g clip-path="url(#peccf510067)">
     <use x="1366.654575" xlink:href="#Cf_0_dbe1c04d6d" y="429.159556"/>
    </g>
    <g clip-path="url(#peccf510067)">
     <use x="1375.631324" xlink:href="#Cf_0_dbe1c04d6d" y="428.892245"/>
    </g>
    <g clip-path="url(#peccf510067)">
     <use x="1366.790686" xlink:href="#Cf_0_dbe1c04d6d" y="428.702312"/>
    </g>
    <g clip-path="url(#peccf510067)">
     <use x="1368.051744" xlink:href="#Cf_0_dbe1c04d6d" y="428.621267"/>
    </g>
    <g clip-path="url(#peccf510067)">
     <use x="1371.437558" xlink:href="#Cf_0_dbe1c04d6d" y="428.829314"/>
    </g>
    <g clip-path="url(#peccf510067)">
     <use x="1367.348784" xlink:href="#Cf_0_dbe1c04d6d" y="429.155793"/>
    </g>
    <g clip-path="url(#peccf510067)">
     <use x="1370.282936" xlink:href="#Cf_0_dbe1c04d6d" y="428.658371"/>
    </g>
    <g clip-path="url(#peccf510067)">
     <use x="1369.564749" xlink:href="#Cf_0_dbe1c04d6d" y="428.84243"/>
    </g>
    <g clip-path="url(#peccf510067)">
     <use x="1379.634204" xlink:href="#Cf_0_dbe1c04d6d" y="428.841124"/>
    </g>
    <g clip-path="url(#peccf510067)">
     <use x="1366.546545" xlink:href="#Cf_0_dbe1c04d6d" y="428.810987"/>
    </g>
   </g>
   <g id="PathCollection_17">
    <defs>
     <path d="M 0 2.5 
C 0.663008 2.5 1.29895 2.236584 1.767767 1.767767 
C 2.236584 1.29895 2.5 0.663008 2.5 -0 
C 2.5 -0.663008 2.236584 -1.29895 1.767767 -1.767767 
C 1.29895 -2.236584 0.663008 -2.5 0 -2.5 
C -0.663008 -2.5 -1.29895 -2.236584 -1.767767 -1.767767 
C -2.236584 -1.29895 -2.5 -0.663008 -2.5 0 
C -2.5 0.663008 -2.236584 1.29895 -1.767767 1.767767 
C -1.29895 2.236584 -0.663008 2.5 0 2.5 
z
" id="C10_0_13e87f7bfd"/>
    </defs>
    <g clip-path="url(#peccf510067)">
     <use x="1453.804061" xlink:href="#C10_0_13e87f7bfd" y="429.726316"/>
    </g>
    <g clip-path="url(#peccf510067)">
     <use x="1456.172067" xlink:href="#C10_0_13e87f7bfd" y="429.735927"/>
    </g>
    <g clip-path="url(#peccf510067)">
     <use x="1459.671879" xlink:href="#C10_0_13e87f7bfd" y="429.746591"/>
    </g>
    <g clip-path="url(#peccf510067)">
     <use x="1455.983359" xlink:href="#C10_0_13e87f7bfd" y="429.714888"/>
    </g>
    <g clip-path="url(#peccf510067)">
     <use x="1463.032151" xlink:href="#C10_0_13e87f7bfd" y="429.742614"/>
    </g>
    <g clip-path="url(#peccf510067)">
     <use x="1458.523739" xlink:href="#C10_0_13e87f7bfd" y="429.729176"/>
    </g>
    <g clip-path="url(#peccf510067)">
     <use x="1458.280106" xlink:href="#C10_0_13e87f7bfd" y="429.723545"/>
    </g>
    <g clip-path="url(#peccf510067)">
     <use x="1454.712113" xlink:href="#C10_0_13e87f7bfd" y="429.738434"/>
    </g>
    <g clip-path="url(#peccf510067)">
     <use x="1450.014769" xlink:href="#C10_0_13e87f7bfd" y="429.730984"/>
    </g>
    <g clip-path="url(#peccf510067)">
     <use x="1463.095121" xlink:href="#C10_0_13e87f7bfd" y="429.69977"/>
    </g>
   </g>
   <g id="text_26">
    <!-- mutect2 feature importance analysis -->
    <g transform="translate(568.5125 33.4375)scale(0.24 -0.24)">
     <defs>
      <path d="M 37.109375 75.984375 
L 37.109375 68.5 
L 28.515625 68.5 
Q 23.6875 68.5 21.796875 66.546875 
Q 19.921875 64.59375 19.921875 59.515625 
L 19.921875 54.6875 
L 34.71875 54.6875 
L 34.71875 47.703125 
L 19.921875 47.703125 
L 19.921875 0 
L 10.890625 0 
L 10.890625 47.703125 
L 2.296875 47.703125 
L 2.296875 54.6875 
L 10.890625 54.6875 
L 10.890625 58.5 
Q 10.890625 67.625 15.140625 71.796875 
Q 19.390625 75.984375 28.609375 75.984375 
z
" id="DejaVuSans-102"/>
      <path d="M 32.171875 -5.078125 
Q 28.375 -14.84375 24.75 -17.8125 
Q 21.140625 -20.796875 15.09375 -20.796875 
L 7.90625 -20.796875 
L 7.90625 -13.28125 
L 13.1875 -13.28125 
Q 16.890625 -13.28125 18.9375 -11.515625 
Q 21 -9.765625 23.484375 -3.21875 
L 25.09375 0.875 
L 2.984375 54.6875 
L 12.5 54.6875 
L 29.59375 11.921875 
L 46.6875 54.6875 
L 56.203125 54.6875 
z
" id="DejaVuSans-121"/>
     </defs>
     <use xlink:href="#DejaVuSans-109"/>
     <use x="97.412109" xlink:href="#DejaVuSans-117"/>
     <use x="160.791016" xlink:href="#DejaVuSans-116"/>
     <use x="200" xlink:href="#DejaVuSans-101"/>
     <use x="261.523438" xlink:href="#DejaVuSans-99"/>
     <use x="316.503906" xlink:href="#DejaVuSans-116"/>
     <use x="355.712891" xlink:href="#DejaVuSans-50"/>
     <use x="419.335938" xlink:href="#DejaVuSans-32"/>
     <use x="451.123047" xlink:href="#DejaVuSans-102"/>
     <use x="486.328125" xlink:href="#DejaVuSans-101"/>
     <use x="547.851562" xlink:href="#DejaVuSans-97"/>
     <use x="609.130859" xlink:href="#DejaVuSans-116"/>
     <use x="648.339844" xlink:href="#DejaVuSans-117"/>
     <use x="711.71875" xlink:href="#DejaVuSans-114"/>
     <use x="750.582031" xlink:href="#DejaVuSans-101"/>
     <use x="812.105469" xlink:href="#DejaVuSans-32"/>
     <use x="843.892578" xlink:href="#DejaVuSans-105"/>
     <use x="871.675781" xlink:href="#DejaVuSans-109"/>
     <use x="969.087891" xlink:href="#DejaVuSans-112"/>
     <use x="1032.564453" xlink:href="#DejaVuSans-111"/>
     <use x="1093.746094" xlink:href="#DejaVuSans-114"/>
     <use x="1134.859375" xlink:href="#DejaVuSans-116"/>
     <use x="1174.068359" xlink:href="#DejaVuSans-97"/>
     <use x="1235.347656" xlink:href="#DejaVuSans-110"/>
     <use x="1298.726562" xlink:href="#DejaVuSans-99"/>
     <use x="1353.707031" xlink:href="#DejaVuSans-101"/>
     <use x="1415.230469" xlink:href="#DejaVuSans-32"/>
     <use x="1447.017578" xlink:href="#DejaVuSans-97"/>
     <use x="1508.296875" xlink:href="#DejaVuSans-110"/>
     <use x="1571.675781" xlink:href="#DejaVuSans-97"/>
     <use x="1632.955078" xlink:href="#DejaVuSans-108"/>
     <use x="1660.738281" xlink:href="#DejaVuSans-121"/>
     <use x="1719.917969" xlink:href="#DejaVuSans-115"/>
     <use x="1772.017578" xlink:href="#DejaVuSans-105"/>
     <use x="1799.800781" xlink:href="#DejaVuSans-115"/>
    </g>
   </g>
  </g>
 </g>
 <defs>
  <clipPath id="peccf510067">
   <rect height="362.8" width="1417.3" x="82.0875" y="83.4375"/>
  </clipPath>
 </defs>
</svg>
