<?xml version="1.0" encoding="utf-8" standalone="no"?>
<!DOCTYPE svg PUBLIC "-//W3C//DTD SVG 1.1//EN"
  "http://www.w3.org/Graphics/SVG/1.1/DTD/svg11.dtd">
<!-- Created with matplotlib (https://matplotlib.org/) -->
<svg height="686.74875pt" version="1.1" viewBox="0 0 1101.055625 686.74875" width="1101.055625pt" xmlns="http://www.w3.org/2000/svg" xmlns:xlink="http://www.w3.org/1999/xlink">
 <metadata>
  <rdf:RDF xmlns:cc="http://creativecommons.org/ns#" xmlns:dc="http://purl.org/dc/elements/1.1/" xmlns:rdf="http://www.w3.org/1999/02/22-rdf-syntax-ns#">
   <cc:Work>
    <dc:type rdf:resource="http://purl.org/dc/dcmitype/StillImage"/>
    <dc:date>2023-01-20T11:37:04.318714</dc:date>
    <dc:format>image/svg+xml</dc:format>
    <dc:creator>
     <cc:Agent>
      <dc:title>Matplotlib v3.3.4, https://matplotlib.org/</dc:title>
     </cc:Agent>
    </dc:creator>
   </cc:Work>
  </rdf:RDF>
 </metadata>
 <defs>
  <style type="text/css">*{stroke-linecap:butt;stroke-linejoin:round;}</style>
 </defs>
 <g id="figure_1">
  <g id="patch_1">
   <path d="M 0 686.74875 
L 1101.055625 686.74875 
L 1101.055625 0 
L 0 0 
z
" style="fill:#ffffff;"/>
  </g>
  <g id="axes_1">
   <g id="patch_2">
    <path d="M 75.915 629.83625 
L 912.915 629.83625 
L 912.915 75.43625 
L 75.915 75.43625 
z
" style="fill:#ffffff;"/>
   </g>
   <g id="matplotlib.axis_1">
    <g id="xtick_1">
     <g id="line2d_1">
      <path clip-path="url(#p8dfe976d0c)" d="M 137.915 629.83625 
L 137.915 75.43625 
" style="fill:none;stroke:#b0b0b0;stroke-linecap:square;"/>
     </g>
     <g id="line2d_2">
      <defs>
       <path d="M 0 0 
L 0 3.5 
" id="m5d8bc8d54e" style="stroke:#000000;stroke-width:0.8;"/>
      </defs>
      <g>
       <use style="stroke:#000000;stroke-width:0.8;" x="137.915" xlink:href="#m5d8bc8d54e" y="629.83625"/>
      </g>
     </g>
     <g id="text_1">
      <!-- 25 -->
      <g transform="translate(125.19 652.033125)scale(0.2 -0.2)">
       <defs>
        <path d="M 19.1875 8.296875 
L 53.609375 8.296875 
L 53.609375 0 
L 7.328125 0 
L 7.328125 8.296875 
Q 12.9375 14.109375 22.625 23.890625 
Q 32.328125 33.6875 34.8125 36.53125 
Q 39.546875 41.84375 41.421875 45.53125 
Q 43.3125 49.21875 43.3125 52.78125 
Q 43.3125 58.59375 39.234375 62.25 
Q 35.15625 65.921875 28.609375 65.921875 
Q 23.96875 65.921875 18.8125 64.3125 
Q 13.671875 62.703125 7.8125 59.421875 
L 7.8125 69.390625 
Q 13.765625 71.78125 18.9375 73 
Q 24.125 74.21875 28.421875 74.21875 
Q 39.75 74.21875 46.484375 68.546875 
Q 53.21875 62.890625 53.21875 53.421875 
Q 53.21875 48.921875 51.53125 44.890625 
Q 49.859375 40.875 45.40625 35.40625 
Q 44.1875 33.984375 37.640625 27.21875 
Q 31.109375 20.453125 19.1875 8.296875 
z
" id="DejaVuSans-50"/>
        <path d="M 10.796875 72.90625 
L 49.515625 72.90625 
L 49.515625 64.59375 
L 19.828125 64.59375 
L 19.828125 46.734375 
Q 21.96875 47.46875 24.109375 47.828125 
Q 26.265625 48.1875 28.421875 48.1875 
Q 40.625 48.1875 47.75 41.5 
Q 54.890625 34.8125 54.890625 23.390625 
Q 54.890625 11.625 47.5625 5.09375 
Q 40.234375 -1.421875 26.90625 -1.421875 
Q 22.3125 -1.421875 17.546875 -0.640625 
Q 12.796875 0.140625 7.71875 1.703125 
L 7.71875 11.625 
Q 12.109375 9.234375 16.796875 8.0625 
Q 21.484375 6.890625 26.703125 6.890625 
Q 35.15625 6.890625 40.078125 11.328125 
Q 45.015625 15.765625 45.015625 23.390625 
Q 45.015625 31 40.078125 35.4375 
Q 35.15625 39.890625 26.703125 39.890625 
Q 22.75 39.890625 18.8125 39.015625 
Q 14.890625 38.140625 10.796875 36.28125 
z
" id="DejaVuSans-53"/>
       </defs>
       <use xlink:href="#DejaVuSans-50"/>
       <use x="63.623047" xlink:href="#DejaVuSans-53"/>
      </g>
     </g>
    </g>
    <g id="xtick_2">
     <g id="line2d_3">
      <path clip-path="url(#p8dfe976d0c)" d="M 292.915 629.83625 
L 292.915 75.43625 
" style="fill:none;stroke:#b0b0b0;stroke-linecap:square;"/>
     </g>
     <g id="line2d_4">
      <g>
       <use style="stroke:#000000;stroke-width:0.8;" x="292.915" xlink:href="#m5d8bc8d54e" y="629.83625"/>
      </g>
     </g>
     <g id="text_2">
      <!-- 20 -->
      <g transform="translate(280.19 652.033125)scale(0.2 -0.2)">
       <defs>
        <path d="M 31.78125 66.40625 
Q 24.171875 66.40625 20.328125 58.90625 
Q 16.5 51.421875 16.5 36.375 
Q 16.5 21.390625 20.328125 13.890625 
Q 24.171875 6.390625 31.78125 6.390625 
Q 39.453125 6.390625 43.28125 13.890625 
Q 47.125 21.390625 47.125 36.375 
Q 47.125 51.421875 43.28125 58.90625 
Q 39.453125 66.40625 31.78125 66.40625 
z
M 31.78125 74.21875 
Q 44.046875 74.21875 50.515625 64.515625 
Q 56.984375 54.828125 56.984375 36.375 
Q 56.984375 17.96875 50.515625 8.265625 
Q 44.046875 -1.421875 31.78125 -1.421875 
Q 19.53125 -1.421875 13.0625 8.265625 
Q 6.59375 17.96875 6.59375 36.375 
Q 6.59375 54.828125 13.0625 64.515625 
Q 19.53125 74.21875 31.78125 74.21875 
z
" id="DejaVuSans-48"/>
       </defs>
       <use xlink:href="#DejaVuSans-50"/>
       <use x="63.623047" xlink:href="#DejaVuSans-48"/>
      </g>
     </g>
    </g>
    <g id="xtick_3">
     <g id="line2d_5">
      <path clip-path="url(#p8dfe976d0c)" d="M 447.915 629.83625 
L 447.915 75.43625 
" style="fill:none;stroke:#b0b0b0;stroke-linecap:square;"/>
     </g>
     <g id="line2d_6">
      <g>
       <use style="stroke:#000000;stroke-width:0.8;" x="447.915" xlink:href="#m5d8bc8d54e" y="629.83625"/>
      </g>
     </g>
     <g id="text_3">
      <!-- 15 -->
      <g transform="translate(435.19 652.033125)scale(0.2 -0.2)">
       <defs>
        <path d="M 12.40625 8.296875 
L 28.515625 8.296875 
L 28.515625 63.921875 
L 10.984375 60.40625 
L 10.984375 69.390625 
L 28.421875 72.90625 
L 38.28125 72.90625 
L 38.28125 8.296875 
L 54.390625 8.296875 
L 54.390625 0 
L 12.40625 0 
z
" id="DejaVuSans-49"/>
       </defs>
       <use xlink:href="#DejaVuSans-49"/>
       <use x="63.623047" xlink:href="#DejaVuSans-53"/>
      </g>
     </g>
    </g>
    <g id="xtick_4">
     <g id="line2d_7">
      <path clip-path="url(#p8dfe976d0c)" d="M 602.915 629.83625 
L 602.915 75.43625 
" style="fill:none;stroke:#b0b0b0;stroke-linecap:square;"/>
     </g>
     <g id="line2d_8">
      <g>
       <use style="stroke:#000000;stroke-width:0.8;" x="602.915" xlink:href="#m5d8bc8d54e" y="629.83625"/>
      </g>
     </g>
     <g id="text_4">
      <!-- 10 -->
      <g transform="translate(590.19 652.033125)scale(0.2 -0.2)">
       <use xlink:href="#DejaVuSans-49"/>
       <use x="63.623047" xlink:href="#DejaVuSans-48"/>
      </g>
     </g>
    </g>
    <g id="xtick_5">
     <g id="line2d_9">
      <path clip-path="url(#p8dfe976d0c)" d="M 757.915 629.83625 
L 757.915 75.43625 
" style="fill:none;stroke:#b0b0b0;stroke-linecap:square;"/>
     </g>
     <g id="line2d_10">
      <g>
       <use style="stroke:#000000;stroke-width:0.8;" x="757.915" xlink:href="#m5d8bc8d54e" y="629.83625"/>
      </g>
     </g>
     <g id="text_5">
      <!-- 5 -->
      <g transform="translate(751.5525 652.033125)scale(0.2 -0.2)">
       <use xlink:href="#DejaVuSans-53"/>
      </g>
     </g>
    </g>
    <g id="xtick_6">
     <g id="line2d_11">
      <path clip-path="url(#p8dfe976d0c)" d="M 912.915 629.83625 
L 912.915 75.43625 
" style="fill:none;stroke:#b0b0b0;stroke-linecap:square;"/>
     </g>
     <g id="line2d_12">
      <g>
       <use style="stroke:#000000;stroke-width:0.8;" x="912.915" xlink:href="#m5d8bc8d54e" y="629.83625"/>
      </g>
     </g>
     <g id="text_6">
      <!-- 0 -->
      <g transform="translate(906.5525 652.033125)scale(0.2 -0.2)">
       <use xlink:href="#DejaVuSans-48"/>
      </g>
     </g>
    </g>
    <g id="xtick_7">
     <g id="line2d_13">
      <path clip-path="url(#p8dfe976d0c)" d="M 75.915 629.83625 
L 75.915 75.43625 
" style="fill:none;stroke:#b0b0b0;stroke-linecap:square;stroke-opacity:0.2;stroke-width:2;"/>
     </g>
     <g id="line2d_14">
      <defs>
       <path d="M 0 0 
L 0 2 
" id="ma1beed1ad1" style="stroke:#000000;stroke-width:0.6;"/>
      </defs>
      <g>
       <use style="stroke:#000000;stroke-width:0.6;" x="75.915" xlink:href="#ma1beed1ad1" y="629.83625"/>
      </g>
     </g>
    </g>
    <g id="xtick_8">
     <g id="line2d_15">
      <path clip-path="url(#p8dfe976d0c)" d="M 106.915 629.83625 
L 106.915 75.43625 
" style="fill:none;stroke:#b0b0b0;stroke-linecap:square;stroke-opacity:0.2;stroke-width:2;"/>
     </g>
     <g id="line2d_16">
      <g>
       <use style="stroke:#000000;stroke-width:0.6;" x="106.915" xlink:href="#ma1beed1ad1" y="629.83625"/>
      </g>
     </g>
    </g>
    <g id="xtick_9">
     <g id="line2d_17">
      <path clip-path="url(#p8dfe976d0c)" d="M 168.915 629.83625 
L 168.915 75.43625 
" style="fill:none;stroke:#b0b0b0;stroke-linecap:square;stroke-opacity:0.2;stroke-width:2;"/>
     </g>
     <g id="line2d_18">
      <g>
       <use style="stroke:#000000;stroke-width:0.6;" x="168.915" xlink:href="#ma1beed1ad1" y="629.83625"/>
      </g>
     </g>
    </g>
    <g id="xtick_10">
     <g id="line2d_19">
      <path clip-path="url(#p8dfe976d0c)" d="M 199.915 629.83625 
L 199.915 75.43625 
" style="fill:none;stroke:#b0b0b0;stroke-linecap:square;stroke-opacity:0.2;stroke-width:2;"/>
     </g>
     <g id="line2d_20">
      <g>
       <use style="stroke:#000000;stroke-width:0.6;" x="199.915" xlink:href="#ma1beed1ad1" y="629.83625"/>
      </g>
     </g>
    </g>
    <g id="xtick_11">
     <g id="line2d_21">
      <path clip-path="url(#p8dfe976d0c)" d="M 230.915 629.83625 
L 230.915 75.43625 
" style="fill:none;stroke:#b0b0b0;stroke-linecap:square;stroke-opacity:0.2;stroke-width:2;"/>
     </g>
     <g id="line2d_22">
      <g>
       <use style="stroke:#000000;stroke-width:0.6;" x="230.915" xlink:href="#ma1beed1ad1" y="629.83625"/>
      </g>
     </g>
    </g>
    <g id="xtick_12">
     <g id="line2d_23">
      <path clip-path="url(#p8dfe976d0c)" d="M 261.915 629.83625 
L 261.915 75.43625 
" style="fill:none;stroke:#b0b0b0;stroke-linecap:square;stroke-opacity:0.2;stroke-width:2;"/>
     </g>
     <g id="line2d_24">
      <g>
       <use style="stroke:#000000;stroke-width:0.6;" x="261.915" xlink:href="#ma1beed1ad1" y="629.83625"/>
      </g>
     </g>
    </g>
    <g id="xtick_13">
     <g id="line2d_25">
      <path clip-path="url(#p8dfe976d0c)" d="M 323.915 629.83625 
L 323.915 75.43625 
" style="fill:none;stroke:#b0b0b0;stroke-linecap:square;stroke-opacity:0.2;stroke-width:2;"/>
     </g>
     <g id="line2d_26">
      <g>
       <use style="stroke:#000000;stroke-width:0.6;" x="323.915" xlink:href="#ma1beed1ad1" y="629.83625"/>
      </g>
     </g>
    </g>
    <g id="xtick_14">
     <g id="line2d_27">
      <path clip-path="url(#p8dfe976d0c)" d="M 354.915 629.83625 
L 354.915 75.43625 
" style="fill:none;stroke:#b0b0b0;stroke-linecap:square;stroke-opacity:0.2;stroke-width:2;"/>
     </g>
     <g id="line2d_28">
      <g>
       <use style="stroke:#000000;stroke-width:0.6;" x="354.915" xlink:href="#ma1beed1ad1" y="629.83625"/>
      </g>
     </g>
    </g>
    <g id="xtick_15">
     <g id="line2d_29">
      <path clip-path="url(#p8dfe976d0c)" d="M 385.915 629.83625 
L 385.915 75.43625 
" style="fill:none;stroke:#b0b0b0;stroke-linecap:square;stroke-opacity:0.2;stroke-width:2;"/>
     </g>
     <g id="line2d_30">
      <g>
       <use style="stroke:#000000;stroke-width:0.6;" x="385.915" xlink:href="#ma1beed1ad1" y="629.83625"/>
      </g>
     </g>
    </g>
    <g id="xtick_16">
     <g id="line2d_31">
      <path clip-path="url(#p8dfe976d0c)" d="M 416.915 629.83625 
L 416.915 75.43625 
" style="fill:none;stroke:#b0b0b0;stroke-linecap:square;stroke-opacity:0.2;stroke-width:2;"/>
     </g>
     <g id="line2d_32">
      <g>
       <use style="stroke:#000000;stroke-width:0.6;" x="416.915" xlink:href="#ma1beed1ad1" y="629.83625"/>
      </g>
     </g>
    </g>
    <g id="xtick_17">
     <g id="line2d_33">
      <path clip-path="url(#p8dfe976d0c)" d="M 478.915 629.83625 
L 478.915 75.43625 
" style="fill:none;stroke:#b0b0b0;stroke-linecap:square;stroke-opacity:0.2;stroke-width:2;"/>
     </g>
     <g id="line2d_34">
      <g>
       <use style="stroke:#000000;stroke-width:0.6;" x="478.915" xlink:href="#ma1beed1ad1" y="629.83625"/>
      </g>
     </g>
    </g>
    <g id="xtick_18">
     <g id="line2d_35">
      <path clip-path="url(#p8dfe976d0c)" d="M 509.915 629.83625 
L 509.915 75.43625 
" style="fill:none;stroke:#b0b0b0;stroke-linecap:square;stroke-opacity:0.2;stroke-width:2;"/>
     </g>
     <g id="line2d_36">
      <g>
       <use style="stroke:#000000;stroke-width:0.6;" x="509.915" xlink:href="#ma1beed1ad1" y="629.83625"/>
      </g>
     </g>
    </g>
    <g id="xtick_19">
     <g id="line2d_37">
      <path clip-path="url(#p8dfe976d0c)" d="M 540.915 629.83625 
L 540.915 75.43625 
" style="fill:none;stroke:#b0b0b0;stroke-linecap:square;stroke-opacity:0.2;stroke-width:2;"/>
     </g>
     <g id="line2d_38">
      <g>
       <use style="stroke:#000000;stroke-width:0.6;" x="540.915" xlink:href="#ma1beed1ad1" y="629.83625"/>
      </g>
     </g>
    </g>
    <g id="xtick_20">
     <g id="line2d_39">
      <path clip-path="url(#p8dfe976d0c)" d="M 571.915 629.83625 
L 571.915 75.43625 
" style="fill:none;stroke:#b0b0b0;stroke-linecap:square;stroke-opacity:0.2;stroke-width:2;"/>
     </g>
     <g id="line2d_40">
      <g>
       <use style="stroke:#000000;stroke-width:0.6;" x="571.915" xlink:href="#ma1beed1ad1" y="629.83625"/>
      </g>
     </g>
    </g>
    <g id="xtick_21">
     <g id="line2d_41">
      <path clip-path="url(#p8dfe976d0c)" d="M 633.915 629.83625 
L 633.915 75.43625 
" style="fill:none;stroke:#b0b0b0;stroke-linecap:square;stroke-opacity:0.2;stroke-width:2;"/>
     </g>
     <g id="line2d_42">
      <g>
       <use style="stroke:#000000;stroke-width:0.6;" x="633.915" xlink:href="#ma1beed1ad1" y="629.83625"/>
      </g>
     </g>
    </g>
    <g id="xtick_22">
     <g id="line2d_43">
      <path clip-path="url(#p8dfe976d0c)" d="M 664.915 629.83625 
L 664.915 75.43625 
" style="fill:none;stroke:#b0b0b0;stroke-linecap:square;stroke-opacity:0.2;stroke-width:2;"/>
     </g>
     <g id="line2d_44">
      <g>
       <use style="stroke:#000000;stroke-width:0.6;" x="664.915" xlink:href="#ma1beed1ad1" y="629.83625"/>
      </g>
     </g>
    </g>
    <g id="xtick_23">
     <g id="line2d_45">
      <path clip-path="url(#p8dfe976d0c)" d="M 695.915 629.83625 
L 695.915 75.43625 
" style="fill:none;stroke:#b0b0b0;stroke-linecap:square;stroke-opacity:0.2;stroke-width:2;"/>
     </g>
     <g id="line2d_46">
      <g>
       <use style="stroke:#000000;stroke-width:0.6;" x="695.915" xlink:href="#ma1beed1ad1" y="629.83625"/>
      </g>
     </g>
    </g>
    <g id="xtick_24">
     <g id="line2d_47">
      <path clip-path="url(#p8dfe976d0c)" d="M 726.915 629.83625 
L 726.915 75.43625 
" style="fill:none;stroke:#b0b0b0;stroke-linecap:square;stroke-opacity:0.2;stroke-width:2;"/>
     </g>
     <g id="line2d_48">
      <g>
       <use style="stroke:#000000;stroke-width:0.6;" x="726.915" xlink:href="#ma1beed1ad1" y="629.83625"/>
      </g>
     </g>
    </g>
    <g id="xtick_25">
     <g id="line2d_49">
      <path clip-path="url(#p8dfe976d0c)" d="M 788.915 629.83625 
L 788.915 75.43625 
" style="fill:none;stroke:#b0b0b0;stroke-linecap:square;stroke-opacity:0.2;stroke-width:2;"/>
     </g>
     <g id="line2d_50">
      <g>
       <use style="stroke:#000000;stroke-width:0.6;" x="788.915" xlink:href="#ma1beed1ad1" y="629.83625"/>
      </g>
     </g>
    </g>
    <g id="xtick_26">
     <g id="line2d_51">
      <path clip-path="url(#p8dfe976d0c)" d="M 819.915 629.83625 
L 819.915 75.43625 
" style="fill:none;stroke:#b0b0b0;stroke-linecap:square;stroke-opacity:0.2;stroke-width:2;"/>
     </g>
     <g id="line2d_52">
      <g>
       <use style="stroke:#000000;stroke-width:0.6;" x="819.915" xlink:href="#ma1beed1ad1" y="629.83625"/>
      </g>
     </g>
    </g>
    <g id="xtick_27">
     <g id="line2d_53">
      <path clip-path="url(#p8dfe976d0c)" d="M 850.915 629.83625 
L 850.915 75.43625 
" style="fill:none;stroke:#b0b0b0;stroke-linecap:square;stroke-opacity:0.2;stroke-width:2;"/>
     </g>
     <g id="line2d_54">
      <g>
       <use style="stroke:#000000;stroke-width:0.6;" x="850.915" xlink:href="#ma1beed1ad1" y="629.83625"/>
      </g>
     </g>
    </g>
    <g id="xtick_28">
     <g id="line2d_55">
      <path clip-path="url(#p8dfe976d0c)" d="M 881.915 629.83625 
L 881.915 75.43625 
" style="fill:none;stroke:#b0b0b0;stroke-linecap:square;stroke-opacity:0.2;stroke-width:2;"/>
     </g>
     <g id="line2d_56">
      <g>
       <use style="stroke:#000000;stroke-width:0.6;" x="881.915" xlink:href="#ma1beed1ad1" y="629.83625"/>
      </g>
     </g>
    </g>
    <g id="text_7">
     <!-- tumor burden (%) -->
     <g transform="translate(405.065 675.389375)scale(0.2 -0.2)">
      <defs>
       <path d="M 18.3125 70.21875 
L 18.3125 54.6875 
L 36.8125 54.6875 
L 36.8125 47.703125 
L 18.3125 47.703125 
L 18.3125 18.015625 
Q 18.3125 11.328125 20.140625 9.421875 
Q 21.96875 7.515625 27.59375 7.515625 
L 36.8125 7.515625 
L 36.8125 0 
L 27.59375 0 
Q 17.1875 0 13.234375 3.875 
Q 9.28125 7.765625 9.28125 18.015625 
L 9.28125 47.703125 
L 2.6875 47.703125 
L 2.6875 54.6875 
L 9.28125 54.6875 
L 9.28125 70.21875 
z
" id="DejaVuSans-116"/>
       <path d="M 8.5 21.578125 
L 8.5 54.6875 
L 17.484375 54.6875 
L 17.484375 21.921875 
Q 17.484375 14.15625 20.5 10.265625 
Q 23.53125 6.390625 29.59375 6.390625 
Q 36.859375 6.390625 41.078125 11.03125 
Q 45.3125 15.671875 45.3125 23.6875 
L 45.3125 54.6875 
L 54.296875 54.6875 
L 54.296875 0 
L 45.3125 0 
L 45.3125 8.40625 
Q 42.046875 3.421875 37.71875 1 
Q 33.40625 -1.421875 27.6875 -1.421875 
Q 18.265625 -1.421875 13.375 4.4375 
Q 8.5 10.296875 8.5 21.578125 
z
M 31.109375 56 
z
" id="DejaVuSans-117"/>
       <path d="M 52 44.1875 
Q 55.375 50.25 60.0625 53.125 
Q 64.75 56 71.09375 56 
Q 79.640625 56 84.28125 50.015625 
Q 88.921875 44.046875 88.921875 33.015625 
L 88.921875 0 
L 79.890625 0 
L 79.890625 32.71875 
Q 79.890625 40.578125 77.09375 44.375 
Q 74.3125 48.1875 68.609375 48.1875 
Q 61.625 48.1875 57.5625 43.546875 
Q 53.515625 38.921875 53.515625 30.90625 
L 53.515625 0 
L 44.484375 0 
L 44.484375 32.71875 
Q 44.484375 40.625 41.703125 44.40625 
Q 38.921875 48.1875 33.109375 48.1875 
Q 26.21875 48.1875 22.15625 43.53125 
Q 18.109375 38.875 18.109375 30.90625 
L 18.109375 0 
L 9.078125 0 
L 9.078125 54.6875 
L 18.109375 54.6875 
L 18.109375 46.1875 
Q 21.1875 51.21875 25.484375 53.609375 
Q 29.78125 56 35.6875 56 
Q 41.65625 56 45.828125 52.96875 
Q 50 49.953125 52 44.1875 
z
" id="DejaVuSans-109"/>
       <path d="M 30.609375 48.390625 
Q 23.390625 48.390625 19.1875 42.75 
Q 14.984375 37.109375 14.984375 27.296875 
Q 14.984375 17.484375 19.15625 11.84375 
Q 23.34375 6.203125 30.609375 6.203125 
Q 37.796875 6.203125 41.984375 11.859375 
Q 46.1875 17.53125 46.1875 27.296875 
Q 46.1875 37.015625 41.984375 42.703125 
Q 37.796875 48.390625 30.609375 48.390625 
z
M 30.609375 56 
Q 42.328125 56 49.015625 48.375 
Q 55.71875 40.765625 55.71875 27.296875 
Q 55.71875 13.875 49.015625 6.21875 
Q 42.328125 -1.421875 30.609375 -1.421875 
Q 18.84375 -1.421875 12.171875 6.21875 
Q 5.515625 13.875 5.515625 27.296875 
Q 5.515625 40.765625 12.171875 48.375 
Q 18.84375 56 30.609375 56 
z
" id="DejaVuSans-111"/>
       <path d="M 41.109375 46.296875 
Q 39.59375 47.171875 37.8125 47.578125 
Q 36.03125 48 33.890625 48 
Q 26.265625 48 22.1875 43.046875 
Q 18.109375 38.09375 18.109375 28.8125 
L 18.109375 0 
L 9.078125 0 
L 9.078125 54.6875 
L 18.109375 54.6875 
L 18.109375 46.1875 
Q 20.953125 51.171875 25.484375 53.578125 
Q 30.03125 56 36.53125 56 
Q 37.453125 56 38.578125 55.875 
Q 39.703125 55.765625 41.0625 55.515625 
z
" id="DejaVuSans-114"/>
       <path id="DejaVuSans-32"/>
       <path d="M 48.6875 27.296875 
Q 48.6875 37.203125 44.609375 42.84375 
Q 40.53125 48.484375 33.40625 48.484375 
Q 26.265625 48.484375 22.1875 42.84375 
Q 18.109375 37.203125 18.109375 27.296875 
Q 18.109375 17.390625 22.1875 11.75 
Q 26.265625 6.109375 33.40625 6.109375 
Q 40.53125 6.109375 44.609375 11.75 
Q 48.6875 17.390625 48.6875 27.296875 
z
M 18.109375 46.390625 
Q 20.953125 51.265625 25.265625 53.625 
Q 29.59375 56 35.59375 56 
Q 45.5625 56 51.78125 48.09375 
Q 58.015625 40.1875 58.015625 27.296875 
Q 58.015625 14.40625 51.78125 6.484375 
Q 45.5625 -1.421875 35.59375 -1.421875 
Q 29.59375 -1.421875 25.265625 0.953125 
Q 20.953125 3.328125 18.109375 8.203125 
L 18.109375 0 
L 9.078125 0 
L 9.078125 75.984375 
L 18.109375 75.984375 
z
" id="DejaVuSans-98"/>
       <path d="M 45.40625 46.390625 
L 45.40625 75.984375 
L 54.390625 75.984375 
L 54.390625 0 
L 45.40625 0 
L 45.40625 8.203125 
Q 42.578125 3.328125 38.25 0.953125 
Q 33.9375 -1.421875 27.875 -1.421875 
Q 17.96875 -1.421875 11.734375 6.484375 
Q 5.515625 14.40625 5.515625 27.296875 
Q 5.515625 40.1875 11.734375 48.09375 
Q 17.96875 56 27.875 56 
Q 33.9375 56 38.25 53.625 
Q 42.578125 51.265625 45.40625 46.390625 
z
M 14.796875 27.296875 
Q 14.796875 17.390625 18.875 11.75 
Q 22.953125 6.109375 30.078125 6.109375 
Q 37.203125 6.109375 41.296875 11.75 
Q 45.40625 17.390625 45.40625 27.296875 
Q 45.40625 37.203125 41.296875 42.84375 
Q 37.203125 48.484375 30.078125 48.484375 
Q 22.953125 48.484375 18.875 42.84375 
Q 14.796875 37.203125 14.796875 27.296875 
z
" id="DejaVuSans-100"/>
       <path d="M 56.203125 29.59375 
L 56.203125 25.203125 
L 14.890625 25.203125 
Q 15.484375 15.921875 20.484375 11.0625 
Q 25.484375 6.203125 34.421875 6.203125 
Q 39.59375 6.203125 44.453125 7.46875 
Q 49.3125 8.734375 54.109375 11.28125 
L 54.109375 2.78125 
Q 49.265625 0.734375 44.1875 -0.34375 
Q 39.109375 -1.421875 33.890625 -1.421875 
Q 20.796875 -1.421875 13.15625 6.1875 
Q 5.515625 13.8125 5.515625 26.8125 
Q 5.515625 40.234375 12.765625 48.109375 
Q 20.015625 56 32.328125 56 
Q 43.359375 56 49.78125 48.890625 
Q 56.203125 41.796875 56.203125 29.59375 
z
M 47.21875 32.234375 
Q 47.125 39.59375 43.09375 43.984375 
Q 39.0625 48.390625 32.421875 48.390625 
Q 24.90625 48.390625 20.390625 44.140625 
Q 15.875 39.890625 15.1875 32.171875 
z
" id="DejaVuSans-101"/>
       <path d="M 54.890625 33.015625 
L 54.890625 0 
L 45.90625 0 
L 45.90625 32.71875 
Q 45.90625 40.484375 42.875 44.328125 
Q 39.84375 48.1875 33.796875 48.1875 
Q 26.515625 48.1875 22.3125 43.546875 
Q 18.109375 38.921875 18.109375 30.90625 
L 18.109375 0 
L 9.078125 0 
L 9.078125 54.6875 
L 18.109375 54.6875 
L 18.109375 46.1875 
Q 21.34375 51.125 25.703125 53.5625 
Q 30.078125 56 35.796875 56 
Q 45.21875 56 50.046875 50.171875 
Q 54.890625 44.34375 54.890625 33.015625 
z
" id="DejaVuSans-110"/>
       <path d="M 31 75.875 
Q 24.46875 64.65625 21.28125 53.65625 
Q 18.109375 42.671875 18.109375 31.390625 
Q 18.109375 20.125 21.3125 9.0625 
Q 24.515625 -2 31 -13.1875 
L 23.1875 -13.1875 
Q 15.875 -1.703125 12.234375 9.375 
Q 8.59375 20.453125 8.59375 31.390625 
Q 8.59375 42.28125 12.203125 53.3125 
Q 15.828125 64.359375 23.1875 75.875 
z
" id="DejaVuSans-40"/>
       <path d="M 72.703125 32.078125 
Q 68.453125 32.078125 66.03125 28.46875 
Q 63.625 24.859375 63.625 18.40625 
Q 63.625 12.0625 66.03125 8.421875 
Q 68.453125 4.78125 72.703125 4.78125 
Q 76.859375 4.78125 79.265625 8.421875 
Q 81.6875 12.0625 81.6875 18.40625 
Q 81.6875 24.8125 79.265625 28.4375 
Q 76.859375 32.078125 72.703125 32.078125 
z
M 72.703125 38.28125 
Q 80.421875 38.28125 84.953125 32.90625 
Q 89.5 27.546875 89.5 18.40625 
Q 89.5 9.28125 84.9375 3.921875 
Q 80.375 -1.421875 72.703125 -1.421875 
Q 64.890625 -1.421875 60.34375 3.921875 
Q 55.8125 9.28125 55.8125 18.40625 
Q 55.8125 27.59375 60.375 32.9375 
Q 64.9375 38.28125 72.703125 38.28125 
z
M 22.3125 68.015625 
Q 18.109375 68.015625 15.6875 64.375 
Q 13.28125 60.75 13.28125 54.390625 
Q 13.28125 47.953125 15.671875 44.328125 
Q 18.0625 40.71875 22.3125 40.71875 
Q 26.5625 40.71875 28.96875 44.328125 
Q 31.390625 47.953125 31.390625 54.390625 
Q 31.390625 60.6875 28.953125 64.34375 
Q 26.515625 68.015625 22.3125 68.015625 
z
M 66.40625 74.21875 
L 74.21875 74.21875 
L 28.609375 -1.421875 
L 20.796875 -1.421875 
z
M 22.3125 74.21875 
Q 30.03125 74.21875 34.609375 68.875 
Q 39.203125 63.53125 39.203125 54.390625 
Q 39.203125 45.171875 34.640625 39.84375 
Q 30.078125 34.515625 22.3125 34.515625 
Q 14.546875 34.515625 10.03125 39.859375 
Q 5.515625 45.21875 5.515625 54.390625 
Q 5.515625 63.484375 10.046875 68.84375 
Q 14.59375 74.21875 22.3125 74.21875 
z
" id="DejaVuSans-37"/>
       <path d="M 8.015625 75.875 
L 15.828125 75.875 
Q 23.140625 64.359375 26.78125 53.3125 
Q 30.421875 42.28125 30.421875 31.390625 
Q 30.421875 20.453125 26.78125 9.375 
Q 23.140625 -1.703125 15.828125 -13.1875 
L 8.015625 -13.1875 
Q 14.5 -2 17.703125 9.0625 
Q 20.90625 20.125 20.90625 31.390625 
Q 20.90625 42.671875 17.703125 53.65625 
Q 14.5 64.65625 8.015625 75.875 
z
" id="DejaVuSans-41"/>
      </defs>
      <use xlink:href="#DejaVuSans-116"/>
      <use x="39.208984" xlink:href="#DejaVuSans-117"/>
      <use x="102.587891" xlink:href="#DejaVuSans-109"/>
      <use x="200" xlink:href="#DejaVuSans-111"/>
      <use x="261.181641" xlink:href="#DejaVuSans-114"/>
      <use x="302.294922" xlink:href="#DejaVuSans-32"/>
      <use x="334.082031" xlink:href="#DejaVuSans-98"/>
      <use x="397.558594" xlink:href="#DejaVuSans-117"/>
      <use x="460.9375" xlink:href="#DejaVuSans-114"/>
      <use x="500.300781" xlink:href="#DejaVuSans-100"/>
      <use x="563.777344" xlink:href="#DejaVuSans-101"/>
      <use x="625.300781" xlink:href="#DejaVuSans-110"/>
      <use x="688.679688" xlink:href="#DejaVuSans-32"/>
      <use x="720.466797" xlink:href="#DejaVuSans-40"/>
      <use x="759.480469" xlink:href="#DejaVuSans-37"/>
      <use x="854.5" xlink:href="#DejaVuSans-41"/>
     </g>
    </g>
   </g>
   <g id="matplotlib.axis_2">
    <g id="ytick_1">
     <g id="line2d_57">
      <path clip-path="url(#p8dfe976d0c)" d="M 75.915 629.83625 
L 912.915 629.83625 
" style="fill:none;stroke:#b0b0b0;stroke-linecap:square;"/>
     </g>
     <g id="line2d_58">
      <defs>
       <path d="M 0 0 
L -3.5 0 
" id="m9079f1d7a0" style="stroke:#000000;stroke-width:0.8;"/>
      </defs>
      <g>
       <use style="stroke:#000000;stroke-width:0.8;" x="75.915" xlink:href="#m9079f1d7a0" y="629.83625"/>
      </g>
     </g>
     <g id="text_8">
      <!-- 0.0 -->
      <g transform="translate(37.10875 637.434688)scale(0.2 -0.2)">
       <defs>
        <path d="M 10.6875 12.40625 
L 21 12.40625 
L 21 0 
L 10.6875 0 
z
" id="DejaVuSans-46"/>
       </defs>
       <use xlink:href="#DejaVuSans-48"/>
       <use x="63.623047" xlink:href="#DejaVuSans-46"/>
       <use x="95.410156" xlink:href="#DejaVuSans-48"/>
      </g>
     </g>
    </g>
    <g id="ytick_2">
     <g id="line2d_59">
      <path clip-path="url(#p8dfe976d0c)" d="M 75.915 568.23625 
L 912.915 568.23625 
" style="fill:none;stroke:#b0b0b0;stroke-linecap:square;"/>
     </g>
     <g id="line2d_60">
      <g>
       <use style="stroke:#000000;stroke-width:0.8;" x="75.915" xlink:href="#m9079f1d7a0" y="568.23625"/>
      </g>
     </g>
     <g id="text_9">
      <!-- 0.1 -->
      <g transform="translate(37.10875 575.834688)scale(0.2 -0.2)">
       <use xlink:href="#DejaVuSans-48"/>
       <use x="63.623047" xlink:href="#DejaVuSans-46"/>
       <use x="95.410156" xlink:href="#DejaVuSans-49"/>
      </g>
     </g>
    </g>
    <g id="ytick_3">
     <g id="line2d_61">
      <path clip-path="url(#p8dfe976d0c)" d="M 75.915 506.63625 
L 912.915 506.63625 
" style="fill:none;stroke:#b0b0b0;stroke-linecap:square;"/>
     </g>
     <g id="line2d_62">
      <g>
       <use style="stroke:#000000;stroke-width:0.8;" x="75.915" xlink:href="#m9079f1d7a0" y="506.63625"/>
      </g>
     </g>
     <g id="text_10">
      <!-- 0.2 -->
      <g transform="translate(37.10875 514.234688)scale(0.2 -0.2)">
       <use xlink:href="#DejaVuSans-48"/>
       <use x="63.623047" xlink:href="#DejaVuSans-46"/>
       <use x="95.410156" xlink:href="#DejaVuSans-50"/>
      </g>
     </g>
    </g>
    <g id="ytick_4">
     <g id="line2d_63">
      <path clip-path="url(#p8dfe976d0c)" d="M 75.915 445.03625 
L 912.915 445.03625 
" style="fill:none;stroke:#b0b0b0;stroke-linecap:square;"/>
     </g>
     <g id="line2d_64">
      <g>
       <use style="stroke:#000000;stroke-width:0.8;" x="75.915" xlink:href="#m9079f1d7a0" y="445.03625"/>
      </g>
     </g>
     <g id="text_11">
      <!-- 0.3 -->
      <g transform="translate(37.10875 452.634688)scale(0.2 -0.2)">
       <defs>
        <path d="M 40.578125 39.3125 
Q 47.65625 37.796875 51.625 33 
Q 55.609375 28.21875 55.609375 21.1875 
Q 55.609375 10.40625 48.1875 4.484375 
Q 40.765625 -1.421875 27.09375 -1.421875 
Q 22.515625 -1.421875 17.65625 -0.515625 
Q 12.796875 0.390625 7.625 2.203125 
L 7.625 11.71875 
Q 11.71875 9.328125 16.59375 8.109375 
Q 21.484375 6.890625 26.8125 6.890625 
Q 36.078125 6.890625 40.9375 10.546875 
Q 45.796875 14.203125 45.796875 21.1875 
Q 45.796875 27.640625 41.28125 31.265625 
Q 36.765625 34.90625 28.71875 34.90625 
L 20.21875 34.90625 
L 20.21875 43.015625 
L 29.109375 43.015625 
Q 36.375 43.015625 40.234375 45.921875 
Q 44.09375 48.828125 44.09375 54.296875 
Q 44.09375 59.90625 40.109375 62.90625 
Q 36.140625 65.921875 28.71875 65.921875 
Q 24.65625 65.921875 20.015625 65.03125 
Q 15.375 64.15625 9.8125 62.3125 
L 9.8125 71.09375 
Q 15.4375 72.65625 20.34375 73.4375 
Q 25.25 74.21875 29.59375 74.21875 
Q 40.828125 74.21875 47.359375 69.109375 
Q 53.90625 64.015625 53.90625 55.328125 
Q 53.90625 49.265625 50.4375 45.09375 
Q 46.96875 40.921875 40.578125 39.3125 
z
" id="DejaVuSans-51"/>
       </defs>
       <use xlink:href="#DejaVuSans-48"/>
       <use x="63.623047" xlink:href="#DejaVuSans-46"/>
       <use x="95.410156" xlink:href="#DejaVuSans-51"/>
      </g>
     </g>
    </g>
    <g id="ytick_5">
     <g id="line2d_65">
      <path clip-path="url(#p8dfe976d0c)" d="M 75.915 383.43625 
L 912.915 383.43625 
" style="fill:none;stroke:#b0b0b0;stroke-linecap:square;"/>
     </g>
     <g id="line2d_66">
      <g>
       <use style="stroke:#000000;stroke-width:0.8;" x="75.915" xlink:href="#m9079f1d7a0" y="383.43625"/>
      </g>
     </g>
     <g id="text_12">
      <!-- 0.4 -->
      <g transform="translate(37.10875 391.034688)scale(0.2 -0.2)">
       <defs>
        <path d="M 37.796875 64.3125 
L 12.890625 25.390625 
L 37.796875 25.390625 
z
M 35.203125 72.90625 
L 47.609375 72.90625 
L 47.609375 25.390625 
L 58.015625 25.390625 
L 58.015625 17.1875 
L 47.609375 17.1875 
L 47.609375 0 
L 37.796875 0 
L 37.796875 17.1875 
L 4.890625 17.1875 
L 4.890625 26.703125 
z
" id="DejaVuSans-52"/>
       </defs>
       <use xlink:href="#DejaVuSans-48"/>
       <use x="63.623047" xlink:href="#DejaVuSans-46"/>
       <use x="95.410156" xlink:href="#DejaVuSans-52"/>
      </g>
     </g>
    </g>
    <g id="ytick_6">
     <g id="line2d_67">
      <path clip-path="url(#p8dfe976d0c)" d="M 75.915 321.83625 
L 912.915 321.83625 
" style="fill:none;stroke:#b0b0b0;stroke-linecap:square;"/>
     </g>
     <g id="line2d_68">
      <g>
       <use style="stroke:#000000;stroke-width:0.8;" x="75.915" xlink:href="#m9079f1d7a0" y="321.83625"/>
      </g>
     </g>
     <g id="text_13">
      <!-- 0.5 -->
      <g transform="translate(37.10875 329.434688)scale(0.2 -0.2)">
       <use xlink:href="#DejaVuSans-48"/>
       <use x="63.623047" xlink:href="#DejaVuSans-46"/>
       <use x="95.410156" xlink:href="#DejaVuSans-53"/>
      </g>
     </g>
    </g>
    <g id="ytick_7">
     <g id="line2d_69">
      <path clip-path="url(#p8dfe976d0c)" d="M 75.915 260.23625 
L 912.915 260.23625 
" style="fill:none;stroke:#b0b0b0;stroke-linecap:square;"/>
     </g>
     <g id="line2d_70">
      <g>
       <use style="stroke:#000000;stroke-width:0.8;" x="75.915" xlink:href="#m9079f1d7a0" y="260.23625"/>
      </g>
     </g>
     <g id="text_14">
      <!-- 0.6 -->
      <g transform="translate(37.10875 267.834687)scale(0.2 -0.2)">
       <defs>
        <path d="M 33.015625 40.375 
Q 26.375 40.375 22.484375 35.828125 
Q 18.609375 31.296875 18.609375 23.390625 
Q 18.609375 15.53125 22.484375 10.953125 
Q 26.375 6.390625 33.015625 6.390625 
Q 39.65625 6.390625 43.53125 10.953125 
Q 47.40625 15.53125 47.40625 23.390625 
Q 47.40625 31.296875 43.53125 35.828125 
Q 39.65625 40.375 33.015625 40.375 
z
M 52.59375 71.296875 
L 52.59375 62.3125 
Q 48.875 64.0625 45.09375 64.984375 
Q 41.3125 65.921875 37.59375 65.921875 
Q 27.828125 65.921875 22.671875 59.328125 
Q 17.53125 52.734375 16.796875 39.40625 
Q 19.671875 43.65625 24.015625 45.921875 
Q 28.375 48.1875 33.59375 48.1875 
Q 44.578125 48.1875 50.953125 41.515625 
Q 57.328125 34.859375 57.328125 23.390625 
Q 57.328125 12.15625 50.6875 5.359375 
Q 44.046875 -1.421875 33.015625 -1.421875 
Q 20.359375 -1.421875 13.671875 8.265625 
Q 6.984375 17.96875 6.984375 36.375 
Q 6.984375 53.65625 15.1875 63.9375 
Q 23.390625 74.21875 37.203125 74.21875 
Q 40.921875 74.21875 44.703125 73.484375 
Q 48.484375 72.75 52.59375 71.296875 
z
" id="DejaVuSans-54"/>
       </defs>
       <use xlink:href="#DejaVuSans-48"/>
       <use x="63.623047" xlink:href="#DejaVuSans-46"/>
       <use x="95.410156" xlink:href="#DejaVuSans-54"/>
      </g>
     </g>
    </g>
    <g id="ytick_8">
     <g id="line2d_71">
      <path clip-path="url(#p8dfe976d0c)" d="M 75.915 198.63625 
L 912.915 198.63625 
" style="fill:none;stroke:#b0b0b0;stroke-linecap:square;"/>
     </g>
     <g id="line2d_72">
      <g>
       <use style="stroke:#000000;stroke-width:0.8;" x="75.915" xlink:href="#m9079f1d7a0" y="198.63625"/>
      </g>
     </g>
     <g id="text_15">
      <!-- 0.7 -->
      <g transform="translate(37.10875 206.234688)scale(0.2 -0.2)">
       <defs>
        <path d="M 8.203125 72.90625 
L 55.078125 72.90625 
L 55.078125 68.703125 
L 28.609375 0 
L 18.3125 0 
L 43.21875 64.59375 
L 8.203125 64.59375 
z
" id="DejaVuSans-55"/>
       </defs>
       <use xlink:href="#DejaVuSans-48"/>
       <use x="63.623047" xlink:href="#DejaVuSans-46"/>
       <use x="95.410156" xlink:href="#DejaVuSans-55"/>
      </g>
     </g>
    </g>
    <g id="ytick_9">
     <g id="line2d_73">
      <path clip-path="url(#p8dfe976d0c)" d="M 75.915 137.03625 
L 912.915 137.03625 
" style="fill:none;stroke:#b0b0b0;stroke-linecap:square;"/>
     </g>
     <g id="line2d_74">
      <g>
       <use style="stroke:#000000;stroke-width:0.8;" x="75.915" xlink:href="#m9079f1d7a0" y="137.03625"/>
      </g>
     </g>
     <g id="text_16">
      <!-- 0.8 -->
      <g transform="translate(37.10875 144.634688)scale(0.2 -0.2)">
       <defs>
        <path d="M 31.78125 34.625 
Q 24.75 34.625 20.71875 30.859375 
Q 16.703125 27.09375 16.703125 20.515625 
Q 16.703125 13.921875 20.71875 10.15625 
Q 24.75 6.390625 31.78125 6.390625 
Q 38.8125 6.390625 42.859375 10.171875 
Q 46.921875 13.96875 46.921875 20.515625 
Q 46.921875 27.09375 42.890625 30.859375 
Q 38.875 34.625 31.78125 34.625 
z
M 21.921875 38.8125 
Q 15.578125 40.375 12.03125 44.71875 
Q 8.5 49.078125 8.5 55.328125 
Q 8.5 64.0625 14.71875 69.140625 
Q 20.953125 74.21875 31.78125 74.21875 
Q 42.671875 74.21875 48.875 69.140625 
Q 55.078125 64.0625 55.078125 55.328125 
Q 55.078125 49.078125 51.53125 44.71875 
Q 48 40.375 41.703125 38.8125 
Q 48.828125 37.15625 52.796875 32.3125 
Q 56.78125 27.484375 56.78125 20.515625 
Q 56.78125 9.90625 50.3125 4.234375 
Q 43.84375 -1.421875 31.78125 -1.421875 
Q 19.734375 -1.421875 13.25 4.234375 
Q 6.78125 9.90625 6.78125 20.515625 
Q 6.78125 27.484375 10.78125 32.3125 
Q 14.796875 37.15625 21.921875 38.8125 
z
M 18.3125 54.390625 
Q 18.3125 48.734375 21.84375 45.5625 
Q 25.390625 42.390625 31.78125 42.390625 
Q 38.140625 42.390625 41.71875 45.5625 
Q 45.3125 48.734375 45.3125 54.390625 
Q 45.3125 60.0625 41.71875 63.234375 
Q 38.140625 66.40625 31.78125 66.40625 
Q 25.390625 66.40625 21.84375 63.234375 
Q 18.3125 60.0625 18.3125 54.390625 
z
" id="DejaVuSans-56"/>
       </defs>
       <use xlink:href="#DejaVuSans-48"/>
       <use x="63.623047" xlink:href="#DejaVuSans-46"/>
       <use x="95.410156" xlink:href="#DejaVuSans-56"/>
      </g>
     </g>
    </g>
    <g id="ytick_10">
     <g id="line2d_75">
      <path clip-path="url(#p8dfe976d0c)" d="M 75.915 75.43625 
L 912.915 75.43625 
" style="fill:none;stroke:#b0b0b0;stroke-linecap:square;"/>
     </g>
     <g id="line2d_76">
      <g>
       <use style="stroke:#000000;stroke-width:0.8;" x="75.915" xlink:href="#m9079f1d7a0" y="75.43625"/>
      </g>
     </g>
     <g id="text_17">
      <!-- 0.9 -->
      <g transform="translate(37.10875 83.034688)scale(0.2 -0.2)">
       <defs>
        <path d="M 10.984375 1.515625 
L 10.984375 10.5 
Q 14.703125 8.734375 18.5 7.8125 
Q 22.3125 6.890625 25.984375 6.890625 
Q 35.75 6.890625 40.890625 13.453125 
Q 46.046875 20.015625 46.78125 33.40625 
Q 43.953125 29.203125 39.59375 26.953125 
Q 35.25 24.703125 29.984375 24.703125 
Q 19.046875 24.703125 12.671875 31.3125 
Q 6.296875 37.9375 6.296875 49.421875 
Q 6.296875 60.640625 12.9375 67.421875 
Q 19.578125 74.21875 30.609375 74.21875 
Q 43.265625 74.21875 49.921875 64.515625 
Q 56.59375 54.828125 56.59375 36.375 
Q 56.59375 19.140625 48.40625 8.859375 
Q 40.234375 -1.421875 26.421875 -1.421875 
Q 22.703125 -1.421875 18.890625 -0.6875 
Q 15.09375 0.046875 10.984375 1.515625 
z
M 30.609375 32.421875 
Q 37.25 32.421875 41.125 36.953125 
Q 45.015625 41.5 45.015625 49.421875 
Q 45.015625 57.28125 41.125 61.84375 
Q 37.25 66.40625 30.609375 66.40625 
Q 23.96875 66.40625 20.09375 61.84375 
Q 16.21875 57.28125 16.21875 49.421875 
Q 16.21875 41.5 20.09375 36.953125 
Q 23.96875 32.421875 30.609375 32.421875 
z
" id="DejaVuSans-57"/>
       </defs>
       <use xlink:href="#DejaVuSans-48"/>
       <use x="63.623047" xlink:href="#DejaVuSans-46"/>
       <use x="95.410156" xlink:href="#DejaVuSans-57"/>
      </g>
     </g>
    </g>
    <g id="text_18">
     <!-- AUPRC score -->
     <g transform="translate(28.949375 416.300313)rotate(-90)scale(0.2 -0.2)">
      <defs>
       <path d="M 34.1875 63.1875 
L 20.796875 26.90625 
L 47.609375 26.90625 
z
M 28.609375 72.90625 
L 39.796875 72.90625 
L 67.578125 0 
L 57.328125 0 
L 50.6875 18.703125 
L 17.828125 18.703125 
L 11.1875 0 
L 0.78125 0 
z
" id="DejaVuSans-65"/>
       <path d="M 8.6875 72.90625 
L 18.609375 72.90625 
L 18.609375 28.609375 
Q 18.609375 16.890625 22.84375 11.734375 
Q 27.09375 6.59375 36.625 6.59375 
Q 46.09375 6.59375 50.34375 11.734375 
Q 54.59375 16.890625 54.59375 28.609375 
L 54.59375 72.90625 
L 64.5 72.90625 
L 64.5 27.390625 
Q 64.5 13.140625 57.4375 5.859375 
Q 50.390625 -1.421875 36.625 -1.421875 
Q 22.796875 -1.421875 15.734375 5.859375 
Q 8.6875 13.140625 8.6875 27.390625 
z
" id="DejaVuSans-85"/>
       <path d="M 19.671875 64.796875 
L 19.671875 37.40625 
L 32.078125 37.40625 
Q 38.96875 37.40625 42.71875 40.96875 
Q 46.484375 44.53125 46.484375 51.125 
Q 46.484375 57.671875 42.71875 61.234375 
Q 38.96875 64.796875 32.078125 64.796875 
z
M 9.8125 72.90625 
L 32.078125 72.90625 
Q 44.34375 72.90625 50.609375 67.359375 
Q 56.890625 61.8125 56.890625 51.125 
Q 56.890625 40.328125 50.609375 34.8125 
Q 44.34375 29.296875 32.078125 29.296875 
L 19.671875 29.296875 
L 19.671875 0 
L 9.8125 0 
z
" id="DejaVuSans-80"/>
       <path d="M 44.390625 34.1875 
Q 47.5625 33.109375 50.5625 29.59375 
Q 53.5625 26.078125 56.59375 19.921875 
L 66.609375 0 
L 56 0 
L 46.6875 18.703125 
Q 43.0625 26.03125 39.671875 28.421875 
Q 36.28125 30.8125 30.421875 30.8125 
L 19.671875 30.8125 
L 19.671875 0 
L 9.8125 0 
L 9.8125 72.90625 
L 32.078125 72.90625 
Q 44.578125 72.90625 50.734375 67.671875 
Q 56.890625 62.453125 56.890625 51.90625 
Q 56.890625 45.015625 53.6875 40.46875 
Q 50.484375 35.9375 44.390625 34.1875 
z
M 19.671875 64.796875 
L 19.671875 38.921875 
L 32.078125 38.921875 
Q 39.203125 38.921875 42.84375 42.21875 
Q 46.484375 45.515625 46.484375 51.90625 
Q 46.484375 58.296875 42.84375 61.546875 
Q 39.203125 64.796875 32.078125 64.796875 
z
" id="DejaVuSans-82"/>
       <path d="M 64.40625 67.28125 
L 64.40625 56.890625 
Q 59.421875 61.53125 53.78125 63.8125 
Q 48.140625 66.109375 41.796875 66.109375 
Q 29.296875 66.109375 22.65625 58.46875 
Q 16.015625 50.828125 16.015625 36.375 
Q 16.015625 21.96875 22.65625 14.328125 
Q 29.296875 6.6875 41.796875 6.6875 
Q 48.140625 6.6875 53.78125 8.984375 
Q 59.421875 11.28125 64.40625 15.921875 
L 64.40625 5.609375 
Q 59.234375 2.09375 53.4375 0.328125 
Q 47.65625 -1.421875 41.21875 -1.421875 
Q 24.65625 -1.421875 15.125 8.703125 
Q 5.609375 18.84375 5.609375 36.375 
Q 5.609375 53.953125 15.125 64.078125 
Q 24.65625 74.21875 41.21875 74.21875 
Q 47.75 74.21875 53.53125 72.484375 
Q 59.328125 70.75 64.40625 67.28125 
z
" id="DejaVuSans-67"/>
       <path d="M 44.28125 53.078125 
L 44.28125 44.578125 
Q 40.484375 46.53125 36.375 47.5 
Q 32.28125 48.484375 27.875 48.484375 
Q 21.1875 48.484375 17.84375 46.4375 
Q 14.5 44.390625 14.5 40.28125 
Q 14.5 37.15625 16.890625 35.375 
Q 19.28125 33.59375 26.515625 31.984375 
L 29.59375 31.296875 
Q 39.15625 29.25 43.1875 25.515625 
Q 47.21875 21.78125 47.21875 15.09375 
Q 47.21875 7.46875 41.1875 3.015625 
Q 35.15625 -1.421875 24.609375 -1.421875 
Q 20.21875 -1.421875 15.453125 -0.5625 
Q 10.6875 0.296875 5.421875 2 
L 5.421875 11.28125 
Q 10.40625 8.6875 15.234375 7.390625 
Q 20.0625 6.109375 24.8125 6.109375 
Q 31.15625 6.109375 34.5625 8.28125 
Q 37.984375 10.453125 37.984375 14.40625 
Q 37.984375 18.0625 35.515625 20.015625 
Q 33.0625 21.96875 24.703125 23.78125 
L 21.578125 24.515625 
Q 13.234375 26.265625 9.515625 29.90625 
Q 5.8125 33.546875 5.8125 39.890625 
Q 5.8125 47.609375 11.28125 51.796875 
Q 16.75 56 26.8125 56 
Q 31.78125 56 36.171875 55.265625 
Q 40.578125 54.546875 44.28125 53.078125 
z
" id="DejaVuSans-115"/>
       <path d="M 48.78125 52.59375 
L 48.78125 44.1875 
Q 44.96875 46.296875 41.140625 47.34375 
Q 37.3125 48.390625 33.40625 48.390625 
Q 24.65625 48.390625 19.8125 42.84375 
Q 14.984375 37.3125 14.984375 27.296875 
Q 14.984375 17.28125 19.8125 11.734375 
Q 24.65625 6.203125 33.40625 6.203125 
Q 37.3125 6.203125 41.140625 7.25 
Q 44.96875 8.296875 48.78125 10.40625 
L 48.78125 2.09375 
Q 45.015625 0.34375 40.984375 -0.53125 
Q 36.96875 -1.421875 32.421875 -1.421875 
Q 20.0625 -1.421875 12.78125 6.34375 
Q 5.515625 14.109375 5.515625 27.296875 
Q 5.515625 40.671875 12.859375 48.328125 
Q 20.21875 56 33.015625 56 
Q 37.15625 56 41.109375 55.140625 
Q 45.0625 54.296875 48.78125 52.59375 
z
" id="DejaVuSans-99"/>
      </defs>
      <use xlink:href="#DejaVuSans-65"/>
      <use x="68.408203" xlink:href="#DejaVuSans-85"/>
      <use x="141.601562" xlink:href="#DejaVuSans-80"/>
      <use x="201.904297" xlink:href="#DejaVuSans-82"/>
      <use x="266.386719" xlink:href="#DejaVuSans-67"/>
      <use x="336.210938" xlink:href="#DejaVuSans-32"/>
      <use x="367.998047" xlink:href="#DejaVuSans-115"/>
      <use x="420.097656" xlink:href="#DejaVuSans-99"/>
      <use x="475.078125" xlink:href="#DejaVuSans-111"/>
      <use x="536.259766" xlink:href="#DejaVuSans-114"/>
      <use x="575.123047" xlink:href="#DejaVuSans-101"/>
     </g>
    </g>
   </g>
   <g id="LineCollection_1">
    <path clip-path="url(#p8dfe976d0c)" d="M 308.872152 493.09184 
L 131.671182 493.09184 
" style="fill:none;stroke:#1f77b4;stroke-width:2;"/>
    <path clip-path="url(#p8dfe976d0c)" d="M 481.361193 561.790523 
L 354.742141 561.790523 
" style="fill:none;stroke:#1f77b4;stroke-width:2;"/>
    <path clip-path="url(#p8dfe976d0c)" d="M 654.015829 611.285529 
L 578.060838 611.285529 
" style="fill:none;stroke:#1f77b4;stroke-width:2;"/>
    <path clip-path="url(#p8dfe976d0c)" d="M 740.26039 618.818858 
L 689.596277 618.818858 
" style="fill:none;stroke:#1f77b4;stroke-width:2;"/>
    <path clip-path="url(#p8dfe976d0c)" d="M 826.385978 622.953561 
L 801.250689 622.953561 
" style="fill:none;stroke:#1f77b4;stroke-width:2;"/>
    <path clip-path="url(#p8dfe976d0c)" d="M 868.958595 625.090995 
L 856.638072 625.090995 
" style="fill:none;stroke:#1f77b4;stroke-width:2;"/>
   </g>
   <g id="LineCollection_2">
    <path clip-path="url(#p8dfe976d0c)" d="M 220.271667 552.423873 
L 220.271667 433.759807 
" style="fill:none;stroke:#1f77b4;stroke-width:2;"/>
    <path clip-path="url(#p8dfe976d0c)" d="M 418.051667 606.730033 
L 418.051667 516.851012 
" style="fill:none;stroke:#1f77b4;stroke-width:2;"/>
    <path clip-path="url(#p8dfe976d0c)" d="M 616.038333 625.168078 
L 616.038333 597.40298 
" style="fill:none;stroke:#1f77b4;stroke-width:2;"/>
    <path clip-path="url(#p8dfe976d0c)" d="M 714.928333 630.541998 
L 714.928333 607.095718 
" style="fill:none;stroke:#1f77b4;stroke-width:2;"/>
    <path clip-path="url(#p8dfe976d0c)" d="M 813.818333 630.679482 
L 813.818333 615.227641 
" style="fill:none;stroke:#1f77b4;stroke-width:2;"/>
    <path clip-path="url(#p8dfe976d0c)" d="M 862.798333 630.180845 
L 862.798333 620.001144 
" style="fill:none;stroke:#1f77b4;stroke-width:2;"/>
   </g>
   <g id="LineCollection_3">
    <path clip-path="url(#p8dfe976d0c)" d="M 308.872152 276.096145 
L 131.671182 276.096145 
" style="fill:none;stroke:#ff7f0e;stroke-width:2;"/>
    <path clip-path="url(#p8dfe976d0c)" d="M 481.361193 301.589417 
L 354.742141 301.589417 
" style="fill:none;stroke:#ff7f0e;stroke-width:2;"/>
    <path clip-path="url(#p8dfe976d0c)" d="M 654.015829 410.280329 
L 578.060838 410.280329 
" style="fill:none;stroke:#ff7f0e;stroke-width:2;"/>
    <path clip-path="url(#p8dfe976d0c)" d="M 740.26039 496.215092 
L 689.596277 496.215092 
" style="fill:none;stroke:#ff7f0e;stroke-width:2;"/>
    <path clip-path="url(#p8dfe976d0c)" d="M 826.385978 568.426973 
L 801.250689 568.426973 
" style="fill:none;stroke:#ff7f0e;stroke-width:2;"/>
    <path clip-path="url(#p8dfe976d0c)" d="M 868.958595 610.484718 
L 856.638072 610.484718 
" style="fill:none;stroke:#ff7f0e;stroke-width:2;"/>
   </g>
   <g id="LineCollection_4">
    <path clip-path="url(#p8dfe976d0c)" d="M 220.271667 317.186025 
L 220.271667 235.006266 
" style="fill:none;stroke:#ff7f0e;stroke-width:2;"/>
    <path clip-path="url(#p8dfe976d0c)" d="M 418.051667 343.574851 
L 418.051667 259.603982 
" style="fill:none;stroke:#ff7f0e;stroke-width:2;"/>
    <path clip-path="url(#p8dfe976d0c)" d="M 616.038333 465.626683 
L 616.038333 354.933975 
" style="fill:none;stroke:#ff7f0e;stroke-width:2;"/>
    <path clip-path="url(#p8dfe976d0c)" d="M 714.928333 548.016642 
L 714.928333 444.413542 
" style="fill:none;stroke:#ff7f0e;stroke-width:2;"/>
    <path clip-path="url(#p8dfe976d0c)" d="M 813.818333 598.761305 
L 813.818333 538.092641 
" style="fill:none;stroke:#ff7f0e;stroke-width:2;"/>
    <path clip-path="url(#p8dfe976d0c)" d="M 862.798333 624.21832 
L 862.798333 596.751116 
" style="fill:none;stroke:#ff7f0e;stroke-width:2;"/>
   </g>
   <g id="LineCollection_5">
    <path clip-path="url(#p8dfe976d0c)" d="M 308.872152 216.562653 
L 131.671182 216.562653 
" style="fill:none;stroke:#2ca02c;stroke-width:2;"/>
    <path clip-path="url(#p8dfe976d0c)" d="M 481.361193 275.455053 
L 354.742141 275.455053 
" style="fill:none;stroke:#2ca02c;stroke-width:2;"/>
    <path clip-path="url(#p8dfe976d0c)" d="M 654.015829 396.334663 
L 578.060838 396.334663 
" style="fill:none;stroke:#2ca02c;stroke-width:2;"/>
    <path clip-path="url(#p8dfe976d0c)" d="M 740.26039 476.630334 
L 689.596277 476.630334 
" style="fill:none;stroke:#2ca02c;stroke-width:2;"/>
    <path clip-path="url(#p8dfe976d0c)" d="M 826.385978 548.732706 
L 801.250689 548.732706 
" style="fill:none;stroke:#2ca02c;stroke-width:2;"/>
    <path clip-path="url(#p8dfe976d0c)" d="M 868.958595 593.178987 
L 856.638072 593.178987 
" style="fill:none;stroke:#2ca02c;stroke-width:2;"/>
   </g>
   <g id="LineCollection_6">
    <path clip-path="url(#p8dfe976d0c)" d="M 220.271667 264.153571 
L 220.271667 168.971734 
" style="fill:none;stroke:#2ca02c;stroke-width:2;"/>
    <path clip-path="url(#p8dfe976d0c)" d="M 418.051667 336.884317 
L 418.051667 214.025788 
" style="fill:none;stroke:#2ca02c;stroke-width:2;"/>
    <path clip-path="url(#p8dfe976d0c)" d="M 616.038333 472.633385 
L 616.038333 320.035941 
" style="fill:none;stroke:#2ca02c;stroke-width:2;"/>
    <path clip-path="url(#p8dfe976d0c)" d="M 714.928333 554.469133 
L 714.928333 398.791534 
" style="fill:none;stroke:#2ca02c;stroke-width:2;"/>
    <path clip-path="url(#p8dfe976d0c)" d="M 813.818333 593.764126 
L 813.818333 503.701287 
" style="fill:none;stroke:#2ca02c;stroke-width:2;"/>
    <path clip-path="url(#p8dfe976d0c)" d="M 862.798333 622.726641 
L 862.798333 563.631332 
" style="fill:none;stroke:#2ca02c;stroke-width:2;"/>
   </g>
   <g id="LineCollection_7">
    <path clip-path="url(#p8dfe976d0c)" d="M 308.872152 302.839283 
L 131.671182 302.839283 
" style="fill:none;stroke:#d62728;stroke-width:2;"/>
    <path clip-path="url(#p8dfe976d0c)" d="M 481.361193 374.395286 
L 354.742141 374.395286 
" style="fill:none;stroke:#d62728;stroke-width:2;"/>
    <path clip-path="url(#p8dfe976d0c)" d="M 654.015829 477.377034 
L 578.060838 477.377034 
" style="fill:none;stroke:#d62728;stroke-width:2;"/>
    <path clip-path="url(#p8dfe976d0c)" d="M 740.26039 542.340978 
L 689.596277 542.340978 
" style="fill:none;stroke:#d62728;stroke-width:2;"/>
    <path clip-path="url(#p8dfe976d0c)" d="M 826.385978 598.116165 
L 801.250689 598.116165 
" style="fill:none;stroke:#d62728;stroke-width:2;"/>
    <path clip-path="url(#p8dfe976d0c)" d="M 868.958595 616.427881 
L 856.638072 616.427881 
" style="fill:none;stroke:#d62728;stroke-width:2;"/>
   </g>
   <g id="LineCollection_8">
    <path clip-path="url(#p8dfe976d0c)" d="M 220.271667 357.662442 
L 220.271667 248.016124 
" style="fill:none;stroke:#d62728;stroke-width:2;"/>
    <path clip-path="url(#p8dfe976d0c)" d="M 418.051667 456.244257 
L 418.051667 292.546315 
" style="fill:none;stroke:#d62728;stroke-width:2;"/>
    <path clip-path="url(#p8dfe976d0c)" d="M 616.038333 553.799115 
L 616.038333 400.954953 
" style="fill:none;stroke:#d62728;stroke-width:2;"/>
    <path clip-path="url(#p8dfe976d0c)" d="M 714.928333 591.698871 
L 714.928333 492.983084 
" style="fill:none;stroke:#d62728;stroke-width:2;"/>
    <path clip-path="url(#p8dfe976d0c)" d="M 813.818333 617.846046 
L 813.818333 578.386284 
" style="fill:none;stroke:#d62728;stroke-width:2;"/>
    <path clip-path="url(#p8dfe976d0c)" d="M 862.798333 625.646019 
L 862.798333 607.209743 
" style="fill:none;stroke:#d62728;stroke-width:2;"/>
   </g>
   <g id="LineCollection_9">
    <path clip-path="url(#p8dfe976d0c)" d="M 308.872152 369.767617 
L 131.671182 369.767617 
" style="fill:none;stroke:#9467bd;stroke-width:2;"/>
    <path clip-path="url(#p8dfe976d0c)" d="M 481.361193 456.139465 
L 354.742141 456.139465 
" style="fill:none;stroke:#9467bd;stroke-width:2;"/>
    <path clip-path="url(#p8dfe976d0c)" d="M 654.015829 550.727135 
L 578.060838 550.727135 
" style="fill:none;stroke:#9467bd;stroke-width:2;"/>
    <path clip-path="url(#p8dfe976d0c)" d="M 740.26039 589.277741 
L 689.596277 589.277741 
" style="fill:none;stroke:#9467bd;stroke-width:2;"/>
    <path clip-path="url(#p8dfe976d0c)" d="M 826.385978 615.18048 
L 801.250689 615.18048 
" style="fill:none;stroke:#9467bd;stroke-width:2;"/>
    <path clip-path="url(#p8dfe976d0c)" d="M 868.958595 623.183865 
L 856.638072 623.183865 
" style="fill:none;stroke:#9467bd;stroke-width:2;"/>
   </g>
   <g id="LineCollection_10">
    <path clip-path="url(#p8dfe976d0c)" d="M 220.271667 404.095438 
L 220.271667 335.439796 
" style="fill:none;stroke:#9467bd;stroke-width:2;"/>
    <path clip-path="url(#p8dfe976d0c)" d="M 418.051667 498.317408 
L 418.051667 413.961521 
" style="fill:none;stroke:#9467bd;stroke-width:2;"/>
    <path clip-path="url(#p8dfe976d0c)" d="M 616.038333 583.804635 
L 616.038333 517.649635 
" style="fill:none;stroke:#9467bd;stroke-width:2;"/>
    <path clip-path="url(#p8dfe976d0c)" d="M 714.928333 610.186287 
L 714.928333 568.369195 
" style="fill:none;stroke:#9467bd;stroke-width:2;"/>
    <path clip-path="url(#p8dfe976d0c)" d="M 813.818333 625.153946 
L 813.818333 605.207014 
" style="fill:none;stroke:#9467bd;stroke-width:2;"/>
    <path clip-path="url(#p8dfe976d0c)" d="M 862.798333 628.963633 
L 862.798333 617.404098 
" style="fill:none;stroke:#9467bd;stroke-width:2;"/>
   </g>
   <g id="LineCollection_11">
    <path clip-path="url(#p8dfe976d0c)" d="M 308.872152 251.767734 
L 131.671182 251.767734 
" style="fill:none;stroke:#bcbd22;stroke-width:2;"/>
    <path clip-path="url(#p8dfe976d0c)" d="M 481.361193 284.807247 
L 354.742141 284.807247 
" style="fill:none;stroke:#bcbd22;stroke-width:2;"/>
    <path clip-path="url(#p8dfe976d0c)" d="M 654.015829 374.342169 
L 578.060838 374.342169 
" style="fill:none;stroke:#bcbd22;stroke-width:2;"/>
    <path clip-path="url(#p8dfe976d0c)" d="M 740.26039 444.419973 
L 689.596277 444.419973 
" style="fill:none;stroke:#bcbd22;stroke-width:2;"/>
    <path clip-path="url(#p8dfe976d0c)" d="M 826.385978 522.791974 
L 801.250689 522.791974 
" style="fill:none;stroke:#bcbd22;stroke-width:2;"/>
    <path clip-path="url(#p8dfe976d0c)" d="M 868.958595 578.856045 
L 856.638072 578.856045 
" style="fill:none;stroke:#bcbd22;stroke-width:2;"/>
   </g>
   <g id="LineCollection_12">
    <path clip-path="url(#p8dfe976d0c)" d="M 220.271667 301.591179 
L 220.271667 201.944288 
" style="fill:none;stroke:#bcbd22;stroke-width:2;"/>
    <path clip-path="url(#p8dfe976d0c)" d="M 418.051667 327.630631 
L 418.051667 241.983863 
" style="fill:none;stroke:#bcbd22;stroke-width:2;"/>
    <path clip-path="url(#p8dfe976d0c)" d="M 616.038333 386.878451 
L 616.038333 361.805888 
" style="fill:none;stroke:#bcbd22;stroke-width:2;"/>
    <path clip-path="url(#p8dfe976d0c)" d="M 714.928333 455.60311 
L 714.928333 433.236836 
" style="fill:none;stroke:#bcbd22;stroke-width:2;"/>
    <path clip-path="url(#p8dfe976d0c)" d="M 813.818333 545.134562 
L 813.818333 500.449386 
" style="fill:none;stroke:#bcbd22;stroke-width:2;"/>
    <path clip-path="url(#p8dfe976d0c)" d="M 862.798333 614.598149 
L 862.798333 543.113941 
" style="fill:none;stroke:#bcbd22;stroke-width:2;"/>
   </g>
   <g id="LineCollection_13">
    <path clip-path="url(#p8dfe976d0c)" d="M 308.872152 507.42412 
L 131.671182 507.42412 
" style="fill:none;stroke:#8c564b;stroke-width:2;"/>
    <path clip-path="url(#p8dfe976d0c)" d="M 481.361193 537.262132 
L 354.742141 537.262132 
" style="fill:none;stroke:#8c564b;stroke-width:2;"/>
    <path clip-path="url(#p8dfe976d0c)" d="M 654.015829 577.137179 
L 578.060838 577.137179 
" style="fill:none;stroke:#8c564b;stroke-width:2;"/>
    <path clip-path="url(#p8dfe976d0c)" d="M 740.26039 599.909973 
L 689.596277 599.909973 
" style="fill:none;stroke:#8c564b;stroke-width:2;"/>
    <path clip-path="url(#p8dfe976d0c)" d="M 826.385978 614.698588 
L 801.250689 614.698588 
" style="fill:none;stroke:#8c564b;stroke-width:2;"/>
    <path clip-path="url(#p8dfe976d0c)" d="M 868.958595 621.145346 
L 856.638072 621.145346 
" style="fill:none;stroke:#8c564b;stroke-width:2;"/>
   </g>
   <g id="LineCollection_14">
    <path clip-path="url(#p8dfe976d0c)" d="M 220.271667 552.917112 
L 220.271667 461.931128 
" style="fill:none;stroke:#8c564b;stroke-width:2;"/>
    <path clip-path="url(#p8dfe976d0c)" d="M 418.051667 558.130643 
L 418.051667 516.393621 
" style="fill:none;stroke:#8c564b;stroke-width:2;"/>
    <path clip-path="url(#p8dfe976d0c)" d="M 616.038333 577.607985 
L 616.038333 576.666374 
" style="fill:none;stroke:#8c564b;stroke-width:2;"/>
    <path clip-path="url(#p8dfe976d0c)" d="M 714.928333 605.004333 
L 714.928333 594.815613 
" style="fill:none;stroke:#8c564b;stroke-width:2;"/>
    <path clip-path="url(#p8dfe976d0c)" d="M 813.818333 623.093315 
L 813.818333 606.30386 
" style="fill:none;stroke:#8c564b;stroke-width:2;"/>
    <path clip-path="url(#p8dfe976d0c)" d="M 862.798333 628.007021 
L 862.798333 614.283672 
" style="fill:none;stroke:#8c564b;stroke-width:2;"/>
   </g>
   <g id="line2d_77">
    <path clip-path="url(#p8dfe976d0c)" d="M 220.271667 493.09184 
L 418.051667 561.790523 
L 616.038333 611.285529 
L 714.928333 618.818858 
L 813.818333 622.953561 
L 862.798333 625.090995 
" style="fill:none;stroke:#1f77b4;stroke-linecap:square;stroke-width:2;"/>
    <defs>
     <path d="M -7.5 7.5 
L 7.5 7.5 
L 7.5 -7.5 
L -7.5 -7.5 
z
" id="m37230d02bc" style="stroke:#1f77b4;stroke-linejoin:miter;"/>
    </defs>
    <g clip-path="url(#p8dfe976d0c)">
     <use style="fill:#1f77b4;stroke:#1f77b4;stroke-linejoin:miter;" x="220.271667" xlink:href="#m37230d02bc" y="493.09184"/>
     <use style="fill:#1f77b4;stroke:#1f77b4;stroke-linejoin:miter;" x="418.051667" xlink:href="#m37230d02bc" y="561.790523"/>
     <use style="fill:#1f77b4;stroke:#1f77b4;stroke-linejoin:miter;" x="616.038333" xlink:href="#m37230d02bc" y="611.285529"/>
     <use style="fill:#1f77b4;stroke:#1f77b4;stroke-linejoin:miter;" x="714.928333" xlink:href="#m37230d02bc" y="618.818858"/>
     <use style="fill:#1f77b4;stroke:#1f77b4;stroke-linejoin:miter;" x="813.818333" xlink:href="#m37230d02bc" y="622.953561"/>
     <use style="fill:#1f77b4;stroke:#1f77b4;stroke-linejoin:miter;" x="862.798333" xlink:href="#m37230d02bc" y="625.090995"/>
    </g>
   </g>
   <g id="line2d_78">
    <path clip-path="url(#p8dfe976d0c)" d="M 220.271667 276.096145 
L 418.051667 301.589417 
L 616.038333 410.280329 
L 714.928333 496.215092 
L 813.818333 568.426973 
L 862.798333 610.484718 
" style="fill:none;stroke:#ff7f0e;stroke-linecap:square;stroke-width:2;"/>
    <defs>
     <path d="M -7.5 7.5 
L 7.5 7.5 
L 7.5 -7.5 
L -7.5 -7.5 
z
" id="m966660559c" style="stroke:#ff7f0e;stroke-linejoin:miter;"/>
    </defs>
    <g clip-path="url(#p8dfe976d0c)">
     <use style="fill:#ff7f0e;stroke:#ff7f0e;stroke-linejoin:miter;" x="220.271667" xlink:href="#m966660559c" y="276.096145"/>
     <use style="fill:#ff7f0e;stroke:#ff7f0e;stroke-linejoin:miter;" x="418.051667" xlink:href="#m966660559c" y="301.589417"/>
     <use style="fill:#ff7f0e;stroke:#ff7f0e;stroke-linejoin:miter;" x="616.038333" xlink:href="#m966660559c" y="410.280329"/>
     <use style="fill:#ff7f0e;stroke:#ff7f0e;stroke-linejoin:miter;" x="714.928333" xlink:href="#m966660559c" y="496.215092"/>
     <use style="fill:#ff7f0e;stroke:#ff7f0e;stroke-linejoin:miter;" x="813.818333" xlink:href="#m966660559c" y="568.426973"/>
     <use style="fill:#ff7f0e;stroke:#ff7f0e;stroke-linejoin:miter;" x="862.798333" xlink:href="#m966660559c" y="610.484718"/>
    </g>
   </g>
   <g id="line2d_79">
    <path clip-path="url(#p8dfe976d0c)" d="M 220.271667 216.562653 
L 418.051667 275.455053 
L 616.038333 396.334663 
L 714.928333 476.630334 
L 813.818333 548.732706 
L 862.798333 593.178987 
" style="fill:none;stroke:#2ca02c;stroke-linecap:square;stroke-width:2;"/>
    <defs>
     <path d="M -7.5 7.5 
L 7.5 7.5 
L 7.5 -7.5 
L -7.5 -7.5 
z
" id="m1374b58958" style="stroke:#2ca02c;stroke-linejoin:miter;"/>
    </defs>
    <g clip-path="url(#p8dfe976d0c)">
     <use style="fill:#2ca02c;stroke:#2ca02c;stroke-linejoin:miter;" x="220.271667" xlink:href="#m1374b58958" y="216.562653"/>
     <use style="fill:#2ca02c;stroke:#2ca02c;stroke-linejoin:miter;" x="418.051667" xlink:href="#m1374b58958" y="275.455053"/>
     <use style="fill:#2ca02c;stroke:#2ca02c;stroke-linejoin:miter;" x="616.038333" xlink:href="#m1374b58958" y="396.334663"/>
     <use style="fill:#2ca02c;stroke:#2ca02c;stroke-linejoin:miter;" x="714.928333" xlink:href="#m1374b58958" y="476.630334"/>
     <use style="fill:#2ca02c;stroke:#2ca02c;stroke-linejoin:miter;" x="813.818333" xlink:href="#m1374b58958" y="548.732706"/>
     <use style="fill:#2ca02c;stroke:#2ca02c;stroke-linejoin:miter;" x="862.798333" xlink:href="#m1374b58958" y="593.178987"/>
    </g>
   </g>
   <g id="line2d_80">
    <path clip-path="url(#p8dfe976d0c)" d="M 220.271667 302.839283 
L 418.051667 374.395286 
L 616.038333 477.377034 
L 714.928333 542.340978 
L 813.818333 598.116165 
L 862.798333 616.427881 
" style="fill:none;stroke:#d62728;stroke-linecap:square;stroke-width:2;"/>
    <defs>
     <path d="M -7.5 7.5 
L 7.5 7.5 
L 7.5 -7.5 
L -7.5 -7.5 
z
" id="mf3d010c569" style="stroke:#d62728;stroke-linejoin:miter;"/>
    </defs>
    <g clip-path="url(#p8dfe976d0c)">
     <use style="fill:#d62728;stroke:#d62728;stroke-linejoin:miter;" x="220.271667" xlink:href="#mf3d010c569" y="302.839283"/>
     <use style="fill:#d62728;stroke:#d62728;stroke-linejoin:miter;" x="418.051667" xlink:href="#mf3d010c569" y="374.395286"/>
     <use style="fill:#d62728;stroke:#d62728;stroke-linejoin:miter;" x="616.038333" xlink:href="#mf3d010c569" y="477.377034"/>
     <use style="fill:#d62728;stroke:#d62728;stroke-linejoin:miter;" x="714.928333" xlink:href="#mf3d010c569" y="542.340978"/>
     <use style="fill:#d62728;stroke:#d62728;stroke-linejoin:miter;" x="813.818333" xlink:href="#mf3d010c569" y="598.116165"/>
     <use style="fill:#d62728;stroke:#d62728;stroke-linejoin:miter;" x="862.798333" xlink:href="#mf3d010c569" y="616.427881"/>
    </g>
   </g>
   <g id="line2d_81">
    <path clip-path="url(#p8dfe976d0c)" d="M 220.271667 369.767617 
L 418.051667 456.139465 
L 616.038333 550.727135 
L 714.928333 589.277741 
L 813.818333 615.18048 
L 862.798333 623.183865 
" style="fill:none;stroke:#9467bd;stroke-linecap:square;stroke-width:2;"/>
    <defs>
     <path d="M -7.5 7.5 
L 7.5 7.5 
L 7.5 -7.5 
L -7.5 -7.5 
z
" id="m74b4e222a1" style="stroke:#9467bd;stroke-linejoin:miter;"/>
    </defs>
    <g clip-path="url(#p8dfe976d0c)">
     <use style="fill:#9467bd;stroke:#9467bd;stroke-linejoin:miter;" x="220.271667" xlink:href="#m74b4e222a1" y="369.767617"/>
     <use style="fill:#9467bd;stroke:#9467bd;stroke-linejoin:miter;" x="418.051667" xlink:href="#m74b4e222a1" y="456.139465"/>
     <use style="fill:#9467bd;stroke:#9467bd;stroke-linejoin:miter;" x="616.038333" xlink:href="#m74b4e222a1" y="550.727135"/>
     <use style="fill:#9467bd;stroke:#9467bd;stroke-linejoin:miter;" x="714.928333" xlink:href="#m74b4e222a1" y="589.277741"/>
     <use style="fill:#9467bd;stroke:#9467bd;stroke-linejoin:miter;" x="813.818333" xlink:href="#m74b4e222a1" y="615.18048"/>
     <use style="fill:#9467bd;stroke:#9467bd;stroke-linejoin:miter;" x="862.798333" xlink:href="#m74b4e222a1" y="623.183865"/>
    </g>
   </g>
   <g id="line2d_82">
    <path clip-path="url(#p8dfe976d0c)" d="M 220.271667 251.767734 
L 418.051667 284.807247 
L 616.038333 374.342169 
L 714.928333 444.419973 
L 813.818333 522.791974 
L 862.798333 578.856045 
" style="fill:none;stroke:#bcbd22;stroke-linecap:square;stroke-width:2;"/>
    <defs>
     <path d="M -7.5 7.5 
L 7.5 7.5 
L 7.5 -7.5 
L -7.5 -7.5 
z
" id="m3ed26e0c0e" style="stroke:#bcbd22;stroke-linejoin:miter;"/>
    </defs>
    <g clip-path="url(#p8dfe976d0c)">
     <use style="fill:#bcbd22;stroke:#bcbd22;stroke-linejoin:miter;" x="220.271667" xlink:href="#m3ed26e0c0e" y="251.767734"/>
     <use style="fill:#bcbd22;stroke:#bcbd22;stroke-linejoin:miter;" x="418.051667" xlink:href="#m3ed26e0c0e" y="284.807247"/>
     <use style="fill:#bcbd22;stroke:#bcbd22;stroke-linejoin:miter;" x="616.038333" xlink:href="#m3ed26e0c0e" y="374.342169"/>
     <use style="fill:#bcbd22;stroke:#bcbd22;stroke-linejoin:miter;" x="714.928333" xlink:href="#m3ed26e0c0e" y="444.419973"/>
     <use style="fill:#bcbd22;stroke:#bcbd22;stroke-linejoin:miter;" x="813.818333" xlink:href="#m3ed26e0c0e" y="522.791974"/>
     <use style="fill:#bcbd22;stroke:#bcbd22;stroke-linejoin:miter;" x="862.798333" xlink:href="#m3ed26e0c0e" y="578.856045"/>
    </g>
   </g>
   <g id="line2d_83">
    <path clip-path="url(#p8dfe976d0c)" d="M 220.271667 507.42412 
L 418.051667 537.262132 
L 616.038333 577.137179 
L 714.928333 599.909973 
L 813.818333 614.698588 
L 862.798333 621.145346 
" style="fill:none;stroke:#8c564b;stroke-linecap:square;stroke-width:2;"/>
    <defs>
     <path d="M -7.5 7.5 
L 7.5 7.5 
L 7.5 -7.5 
L -7.5 -7.5 
z
" id="m092755d1dc" style="stroke:#8c564b;stroke-linejoin:miter;"/>
    </defs>
    <g clip-path="url(#p8dfe976d0c)">
     <use style="fill:#8c564b;stroke:#8c564b;stroke-linejoin:miter;" x="220.271667" xlink:href="#m092755d1dc" y="507.42412"/>
     <use style="fill:#8c564b;stroke:#8c564b;stroke-linejoin:miter;" x="418.051667" xlink:href="#m092755d1dc" y="537.262132"/>
     <use style="fill:#8c564b;stroke:#8c564b;stroke-linejoin:miter;" x="616.038333" xlink:href="#m092755d1dc" y="577.137179"/>
     <use style="fill:#8c564b;stroke:#8c564b;stroke-linejoin:miter;" x="714.928333" xlink:href="#m092755d1dc" y="599.909973"/>
     <use style="fill:#8c564b;stroke:#8c564b;stroke-linejoin:miter;" x="813.818333" xlink:href="#m092755d1dc" y="614.698588"/>
     <use style="fill:#8c564b;stroke:#8c564b;stroke-linejoin:miter;" x="862.798333" xlink:href="#m092755d1dc" y="621.145346"/>
    </g>
   </g>
   <g id="patch_3">
    <path d="M 75.915 629.83625 
L 75.915 75.43625 
" style="fill:none;stroke:#000000;stroke-linecap:square;stroke-linejoin:miter;stroke-width:0.8;"/>
   </g>
   <g id="patch_4">
    <path d="M 912.915 629.83625 
L 912.915 75.43625 
" style="fill:none;stroke:#000000;stroke-linecap:square;stroke-linejoin:miter;stroke-width:0.8;"/>
   </g>
   <g id="patch_5">
    <path d="M 75.915 629.83625 
L 912.915 629.83625 
" style="fill:none;stroke:#000000;stroke-linecap:square;stroke-linejoin:miter;stroke-width:0.8;"/>
   </g>
   <g id="patch_6">
    <path d="M 75.915 75.43625 
L 912.915 75.43625 
" style="fill:none;stroke:#000000;stroke-linecap:square;stroke-linejoin:miter;stroke-width:0.8;"/>
   </g>
   <g id="text_19">
    <!-- AUPRC score for SNV calling in chrall with ref inundilutedsamplebyatleast4callers -->
    <g transform="translate(7.2 25.43625)scale(0.24 -0.24)">
     <defs>
      <path d="M 37.109375 75.984375 
L 37.109375 68.5 
L 28.515625 68.5 
Q 23.6875 68.5 21.796875 66.546875 
Q 19.921875 64.59375 19.921875 59.515625 
L 19.921875 54.6875 
L 34.71875 54.6875 
L 34.71875 47.703125 
L 19.921875 47.703125 
L 19.921875 0 
L 10.890625 0 
L 10.890625 47.703125 
L 2.296875 47.703125 
L 2.296875 54.6875 
L 10.890625 54.6875 
L 10.890625 58.5 
Q 10.890625 67.625 15.140625 71.796875 
Q 19.390625 75.984375 28.609375 75.984375 
z
" id="DejaVuSans-102"/>
      <path d="M 53.515625 70.515625 
L 53.515625 60.890625 
Q 47.90625 63.578125 42.921875 64.890625 
Q 37.9375 66.21875 33.296875 66.21875 
Q 25.25 66.21875 20.875 63.09375 
Q 16.5 59.96875 16.5 54.203125 
Q 16.5 49.359375 19.40625 46.890625 
Q 22.3125 44.4375 30.421875 42.921875 
L 36.375 41.703125 
Q 47.40625 39.59375 52.65625 34.296875 
Q 57.90625 29 57.90625 20.125 
Q 57.90625 9.515625 50.796875 4.046875 
Q 43.703125 -1.421875 29.984375 -1.421875 
Q 24.8125 -1.421875 18.96875 -0.25 
Q 13.140625 0.921875 6.890625 3.21875 
L 6.890625 13.375 
Q 12.890625 10.015625 18.65625 8.296875 
Q 24.421875 6.59375 29.984375 6.59375 
Q 38.421875 6.59375 43.015625 9.90625 
Q 47.609375 13.234375 47.609375 19.390625 
Q 47.609375 24.75 44.3125 27.78125 
Q 41.015625 30.8125 33.5 32.328125 
L 27.484375 33.5 
Q 16.453125 35.6875 11.515625 40.375 
Q 6.59375 45.0625 6.59375 53.421875 
Q 6.59375 63.09375 13.40625 68.65625 
Q 20.21875 74.21875 32.171875 74.21875 
Q 37.3125 74.21875 42.625 73.28125 
Q 47.953125 72.359375 53.515625 70.515625 
z
" id="DejaVuSans-83"/>
      <path d="M 9.8125 72.90625 
L 23.09375 72.90625 
L 55.421875 11.921875 
L 55.421875 72.90625 
L 64.984375 72.90625 
L 64.984375 0 
L 51.703125 0 
L 19.390625 60.984375 
L 19.390625 0 
L 9.8125 0 
z
" id="DejaVuSans-78"/>
      <path d="M 28.609375 0 
L 0.78125 72.90625 
L 11.078125 72.90625 
L 34.1875 11.53125 
L 57.328125 72.90625 
L 67.578125 72.90625 
L 39.796875 0 
z
" id="DejaVuSans-86"/>
      <path d="M 34.28125 27.484375 
Q 23.390625 27.484375 19.1875 25 
Q 14.984375 22.515625 14.984375 16.5 
Q 14.984375 11.71875 18.140625 8.90625 
Q 21.296875 6.109375 26.703125 6.109375 
Q 34.1875 6.109375 38.703125 11.40625 
Q 43.21875 16.703125 43.21875 25.484375 
L 43.21875 27.484375 
z
M 52.203125 31.203125 
L 52.203125 0 
L 43.21875 0 
L 43.21875 8.296875 
Q 40.140625 3.328125 35.546875 0.953125 
Q 30.953125 -1.421875 24.3125 -1.421875 
Q 15.921875 -1.421875 10.953125 3.296875 
Q 6 8.015625 6 15.921875 
Q 6 25.140625 12.171875 29.828125 
Q 18.359375 34.515625 30.609375 34.515625 
L 43.21875 34.515625 
L 43.21875 35.40625 
Q 43.21875 41.609375 39.140625 45 
Q 35.0625 48.390625 27.6875 48.390625 
Q 23 48.390625 18.546875 47.265625 
Q 14.109375 46.140625 10.015625 43.890625 
L 10.015625 52.203125 
Q 14.9375 54.109375 19.578125 55.046875 
Q 24.21875 56 28.609375 56 
Q 40.484375 56 46.34375 49.84375 
Q 52.203125 43.703125 52.203125 31.203125 
z
" id="DejaVuSans-97"/>
      <path d="M 9.421875 75.984375 
L 18.40625 75.984375 
L 18.40625 0 
L 9.421875 0 
z
" id="DejaVuSans-108"/>
      <path d="M 9.421875 54.6875 
L 18.40625 54.6875 
L 18.40625 0 
L 9.421875 0 
z
M 9.421875 75.984375 
L 18.40625 75.984375 
L 18.40625 64.59375 
L 9.421875 64.59375 
z
" id="DejaVuSans-105"/>
      <path d="M 45.40625 27.984375 
Q 45.40625 37.75 41.375 43.109375 
Q 37.359375 48.484375 30.078125 48.484375 
Q 22.859375 48.484375 18.828125 43.109375 
Q 14.796875 37.75 14.796875 27.984375 
Q 14.796875 18.265625 18.828125 12.890625 
Q 22.859375 7.515625 30.078125 7.515625 
Q 37.359375 7.515625 41.375 12.890625 
Q 45.40625 18.265625 45.40625 27.984375 
z
M 54.390625 6.78125 
Q 54.390625 -7.171875 48.1875 -13.984375 
Q 42 -20.796875 29.203125 -20.796875 
Q 24.46875 -20.796875 20.265625 -20.09375 
Q 16.0625 -19.390625 12.109375 -17.921875 
L 12.109375 -9.1875 
Q 16.0625 -11.328125 19.921875 -12.34375 
Q 23.78125 -13.375 27.78125 -13.375 
Q 36.625 -13.375 41.015625 -8.765625 
Q 45.40625 -4.15625 45.40625 5.171875 
L 45.40625 9.625 
Q 42.625 4.78125 38.28125 2.390625 
Q 33.9375 0 27.875 0 
Q 17.828125 0 11.671875 7.65625 
Q 5.515625 15.328125 5.515625 27.984375 
Q 5.515625 40.671875 11.671875 48.328125 
Q 17.828125 56 27.875 56 
Q 33.9375 56 38.28125 53.609375 
Q 42.625 51.21875 45.40625 46.390625 
L 45.40625 54.6875 
L 54.390625 54.6875 
z
" id="DejaVuSans-103"/>
      <path d="M 54.890625 33.015625 
L 54.890625 0 
L 45.90625 0 
L 45.90625 32.71875 
Q 45.90625 40.484375 42.875 44.328125 
Q 39.84375 48.1875 33.796875 48.1875 
Q 26.515625 48.1875 22.3125 43.546875 
Q 18.109375 38.921875 18.109375 30.90625 
L 18.109375 0 
L 9.078125 0 
L 9.078125 75.984375 
L 18.109375 75.984375 
L 18.109375 46.1875 
Q 21.34375 51.125 25.703125 53.5625 
Q 30.078125 56 35.796875 56 
Q 45.21875 56 50.046875 50.171875 
Q 54.890625 44.34375 54.890625 33.015625 
z
" id="DejaVuSans-104"/>
      <path d="M 4.203125 54.6875 
L 13.1875 54.6875 
L 24.421875 12.015625 
L 35.59375 54.6875 
L 46.1875 54.6875 
L 57.421875 12.015625 
L 68.609375 54.6875 
L 77.59375 54.6875 
L 63.28125 0 
L 52.6875 0 
L 40.921875 44.828125 
L 29.109375 0 
L 18.5 0 
z
" id="DejaVuSans-119"/>
      <path d="M 18.109375 8.203125 
L 18.109375 -20.796875 
L 9.078125 -20.796875 
L 9.078125 54.6875 
L 18.109375 54.6875 
L 18.109375 46.390625 
Q 20.953125 51.265625 25.265625 53.625 
Q 29.59375 56 35.59375 56 
Q 45.5625 56 51.78125 48.09375 
Q 58.015625 40.1875 58.015625 27.296875 
Q 58.015625 14.40625 51.78125 6.484375 
Q 45.5625 -1.421875 35.59375 -1.421875 
Q 29.59375 -1.421875 25.265625 0.953125 
Q 20.953125 3.328125 18.109375 8.203125 
z
M 48.6875 27.296875 
Q 48.6875 37.203125 44.609375 42.84375 
Q 40.53125 48.484375 33.40625 48.484375 
Q 26.265625 48.484375 22.1875 42.84375 
Q 18.109375 37.203125 18.109375 27.296875 
Q 18.109375 17.390625 22.1875 11.75 
Q 26.265625 6.109375 33.40625 6.109375 
Q 40.53125 6.109375 44.609375 11.75 
Q 48.6875 17.390625 48.6875 27.296875 
z
" id="DejaVuSans-112"/>
      <path d="M 32.171875 -5.078125 
Q 28.375 -14.84375 24.75 -17.8125 
Q 21.140625 -20.796875 15.09375 -20.796875 
L 7.90625 -20.796875 
L 7.90625 -13.28125 
L 13.1875 -13.28125 
Q 16.890625 -13.28125 18.9375 -11.515625 
Q 21 -9.765625 23.484375 -3.21875 
L 25.09375 0.875 
L 2.984375 54.6875 
L 12.5 54.6875 
L 29.59375 11.921875 
L 46.6875 54.6875 
L 56.203125 54.6875 
z
" id="DejaVuSans-121"/>
     </defs>
     <use xlink:href="#DejaVuSans-65"/>
     <use x="68.408203" xlink:href="#DejaVuSans-85"/>
     <use x="141.601562" xlink:href="#DejaVuSans-80"/>
     <use x="201.904297" xlink:href="#DejaVuSans-82"/>
     <use x="266.386719" xlink:href="#DejaVuSans-67"/>
     <use x="336.210938" xlink:href="#DejaVuSans-32"/>
     <use x="367.998047" xlink:href="#DejaVuSans-115"/>
     <use x="420.097656" xlink:href="#DejaVuSans-99"/>
     <use x="475.078125" xlink:href="#DejaVuSans-111"/>
     <use x="536.259766" xlink:href="#DejaVuSans-114"/>
     <use x="575.123047" xlink:href="#DejaVuSans-101"/>
     <use x="636.646484" xlink:href="#DejaVuSans-32"/>
     <use x="668.433594" xlink:href="#DejaVuSans-102"/>
     <use x="703.638672" xlink:href="#DejaVuSans-111"/>
     <use x="764.820312" xlink:href="#DejaVuSans-114"/>
     <use x="805.933594" xlink:href="#DejaVuSans-32"/>
     <use x="837.720703" xlink:href="#DejaVuSans-83"/>
     <use x="901.197266" xlink:href="#DejaVuSans-78"/>
     <use x="976.001953" xlink:href="#DejaVuSans-86"/>
     <use x="1044.410156" xlink:href="#DejaVuSans-32"/>
     <use x="1076.197266" xlink:href="#DejaVuSans-99"/>
     <use x="1131.177734" xlink:href="#DejaVuSans-97"/>
     <use x="1192.457031" xlink:href="#DejaVuSans-108"/>
     <use x="1220.240234" xlink:href="#DejaVuSans-108"/>
     <use x="1248.023438" xlink:href="#DejaVuSans-105"/>
     <use x="1275.806641" xlink:href="#DejaVuSans-110"/>
     <use x="1339.185547" xlink:href="#DejaVuSans-103"/>
     <use x="1402.662109" xlink:href="#DejaVuSans-32"/>
     <use x="1434.449219" xlink:href="#DejaVuSans-105"/>
     <use x="1462.232422" xlink:href="#DejaVuSans-110"/>
     <use x="1525.611328" xlink:href="#DejaVuSans-32"/>
     <use x="1557.398438" xlink:href="#DejaVuSans-99"/>
     <use x="1612.378906" xlink:href="#DejaVuSans-104"/>
     <use x="1675.757812" xlink:href="#DejaVuSans-114"/>
     <use x="1716.871094" xlink:href="#DejaVuSans-97"/>
     <use x="1778.150391" xlink:href="#DejaVuSans-108"/>
     <use x="1805.933594" xlink:href="#DejaVuSans-108"/>
     <use x="1833.716797" xlink:href="#DejaVuSans-32"/>
     <use x="1865.503906" xlink:href="#DejaVuSans-119"/>
     <use x="1947.291016" xlink:href="#DejaVuSans-105"/>
     <use x="1975.074219" xlink:href="#DejaVuSans-116"/>
     <use x="2014.283203" xlink:href="#DejaVuSans-104"/>
     <use x="2077.662109" xlink:href="#DejaVuSans-32"/>
     <use x="2109.449219" xlink:href="#DejaVuSans-114"/>
     <use x="2148.3125" xlink:href="#DejaVuSans-101"/>
     <use x="2209.835938" xlink:href="#DejaVuSans-102"/>
     <use x="2245.041016" xlink:href="#DejaVuSans-32"/>
     <use x="2276.828125" xlink:href="#DejaVuSans-105"/>
     <use x="2304.611328" xlink:href="#DejaVuSans-110"/>
     <use x="2367.990234" xlink:href="#DejaVuSans-117"/>
     <use x="2431.369141" xlink:href="#DejaVuSans-110"/>
     <use x="2494.748047" xlink:href="#DejaVuSans-100"/>
     <use x="2558.224609" xlink:href="#DejaVuSans-105"/>
     <use x="2586.007812" xlink:href="#DejaVuSans-108"/>
     <use x="2613.791016" xlink:href="#DejaVuSans-117"/>
     <use x="2677.169922" xlink:href="#DejaVuSans-116"/>
     <use x="2716.378906" xlink:href="#DejaVuSans-101"/>
     <use x="2777.902344" xlink:href="#DejaVuSans-100"/>
     <use x="2841.378906" xlink:href="#DejaVuSans-115"/>
     <use x="2893.478516" xlink:href="#DejaVuSans-97"/>
     <use x="2954.757812" xlink:href="#DejaVuSans-109"/>
     <use x="3052.169922" xlink:href="#DejaVuSans-112"/>
     <use x="3115.646484" xlink:href="#DejaVuSans-108"/>
     <use x="3143.429688" xlink:href="#DejaVuSans-101"/>
     <use x="3204.953125" xlink:href="#DejaVuSans-98"/>
     <use x="3268.429688" xlink:href="#DejaVuSans-121"/>
     <use x="3327.609375" xlink:href="#DejaVuSans-97"/>
     <use x="3388.888672" xlink:href="#DejaVuSans-116"/>
     <use x="3428.097656" xlink:href="#DejaVuSans-108"/>
     <use x="3455.880859" xlink:href="#DejaVuSans-101"/>
     <use x="3517.404297" xlink:href="#DejaVuSans-97"/>
     <use x="3578.683594" xlink:href="#DejaVuSans-115"/>
     <use x="3630.783203" xlink:href="#DejaVuSans-116"/>
     <use x="3669.992188" xlink:href="#DejaVuSans-52"/>
     <use x="3733.615234" xlink:href="#DejaVuSans-99"/>
     <use x="3788.595703" xlink:href="#DejaVuSans-97"/>
     <use x="3849.875" xlink:href="#DejaVuSans-108"/>
     <use x="3877.658203" xlink:href="#DejaVuSans-108"/>
     <use x="3905.441406" xlink:href="#DejaVuSans-101"/>
     <use x="3966.964844" xlink:href="#DejaVuSans-114"/>
     <use x="4008.078125" xlink:href="#DejaVuSans-115"/>
    </g>
   </g>
   <g id="legend_1">
    <g id="patch_7">
     <path d="M 926.915 296.93 
L 1089.855625 296.93 
Q 1093.855625 296.93 1093.855625 292.93 
L 1093.855625 89.43625 
Q 1093.855625 85.43625 1089.855625 85.43625 
L 926.915 85.43625 
Q 922.915 85.43625 922.915 89.43625 
L 922.915 292.93 
Q 922.915 296.93 926.915 296.93 
z
" style="fill:#ffffff;opacity:0.8;stroke:#cccccc;stroke-linejoin:miter;"/>
    </g>
    <g id="LineCollection_15">
     <path d="M 940.915 101.633125 
L 960.915 101.633125 
" style="fill:none;stroke:#1f77b4;stroke-width:2;"/>
    </g>
    <g id="LineCollection_16">
     <path d="M 950.915 111.633125 
L 950.915 91.633125 
" style="fill:none;stroke:#1f77b4;stroke-width:2;"/>
    </g>
    <g id="line2d_84">
     <path d="M 930.915 101.633125 
L 970.915 101.633125 
" style="fill:none;stroke:#1f77b4;stroke-linecap:square;stroke-width:2;"/>
    </g>
    <g id="line2d_85">
     <g>
      <use style="fill:#1f77b4;stroke:#1f77b4;stroke-linejoin:miter;" x="950.915" xlink:href="#m37230d02bc" y="101.633125"/>
     </g>
    </g>
    <g id="text_20">
     <!-- freebayes -->
     <g transform="translate(986.915 108.633125)scale(0.2 -0.2)">
      <use xlink:href="#DejaVuSans-102"/>
      <use x="35.205078" xlink:href="#DejaVuSans-114"/>
      <use x="74.068359" xlink:href="#DejaVuSans-101"/>
      <use x="135.591797" xlink:href="#DejaVuSans-101"/>
      <use x="197.115234" xlink:href="#DejaVuSans-98"/>
      <use x="260.591797" xlink:href="#DejaVuSans-97"/>
      <use x="321.871094" xlink:href="#DejaVuSans-121"/>
      <use x="381.050781" xlink:href="#DejaVuSans-101"/>
      <use x="442.574219" xlink:href="#DejaVuSans-115"/>
     </g>
    </g>
    <g id="LineCollection_17">
     <path d="M 940.915 130.989375 
L 960.915 130.989375 
" style="fill:none;stroke:#ff7f0e;stroke-width:2;"/>
    </g>
    <g id="LineCollection_18">
     <path d="M 950.915 140.989375 
L 950.915 120.989375 
" style="fill:none;stroke:#ff7f0e;stroke-width:2;"/>
    </g>
    <g id="line2d_86">
     <path d="M 930.915 130.989375 
L 970.915 130.989375 
" style="fill:none;stroke:#ff7f0e;stroke-linecap:square;stroke-width:2;"/>
    </g>
    <g id="line2d_87">
     <g>
      <use style="fill:#ff7f0e;stroke:#ff7f0e;stroke-linejoin:miter;" x="950.915" xlink:href="#m966660559c" y="130.989375"/>
     </g>
    </g>
    <g id="text_21">
     <!-- mutect2 -->
     <g transform="translate(986.915 137.989375)scale(0.2 -0.2)">
      <use xlink:href="#DejaVuSans-109"/>
      <use x="97.412109" xlink:href="#DejaVuSans-117"/>
      <use x="160.791016" xlink:href="#DejaVuSans-116"/>
      <use x="200" xlink:href="#DejaVuSans-101"/>
      <use x="261.523438" xlink:href="#DejaVuSans-99"/>
      <use x="316.503906" xlink:href="#DejaVuSans-116"/>
      <use x="355.712891" xlink:href="#DejaVuSans-50"/>
     </g>
    </g>
    <g id="LineCollection_19">
     <path d="M 940.915 160.345625 
L 960.915 160.345625 
" style="fill:none;stroke:#2ca02c;stroke-width:2;"/>
    </g>
    <g id="LineCollection_20">
     <path d="M 950.915 170.345625 
L 950.915 150.345625 
" style="fill:none;stroke:#2ca02c;stroke-width:2;"/>
    </g>
    <g id="line2d_88">
     <path d="M 930.915 160.345625 
L 970.915 160.345625 
" style="fill:none;stroke:#2ca02c;stroke-linecap:square;stroke-width:2;"/>
    </g>
    <g id="line2d_89">
     <g>
      <use style="fill:#2ca02c;stroke:#2ca02c;stroke-linejoin:miter;" x="950.915" xlink:href="#m1374b58958" y="160.345625"/>
     </g>
    </g>
    <g id="text_22">
     <!-- strelka2 -->
     <g transform="translate(986.915 167.345625)scale(0.2 -0.2)">
      <defs>
       <path d="M 9.078125 75.984375 
L 18.109375 75.984375 
L 18.109375 31.109375 
L 44.921875 54.6875 
L 56.390625 54.6875 
L 27.390625 29.109375 
L 57.625 0 
L 45.90625 0 
L 18.109375 26.703125 
L 18.109375 0 
L 9.078125 0 
z
" id="DejaVuSans-107"/>
      </defs>
      <use xlink:href="#DejaVuSans-115"/>
      <use x="52.099609" xlink:href="#DejaVuSans-116"/>
      <use x="91.308594" xlink:href="#DejaVuSans-114"/>
      <use x="130.171875" xlink:href="#DejaVuSans-101"/>
      <use x="191.695312" xlink:href="#DejaVuSans-108"/>
      <use x="219.478516" xlink:href="#DejaVuSans-107"/>
      <use x="275.638672" xlink:href="#DejaVuSans-97"/>
      <use x="336.917969" xlink:href="#DejaVuSans-50"/>
     </g>
    </g>
    <g id="LineCollection_21">
     <path d="M 940.915 189.701875 
L 960.915 189.701875 
" style="fill:none;stroke:#d62728;stroke-width:2;"/>
    </g>
    <g id="LineCollection_22">
     <path d="M 950.915 199.701875 
L 950.915 179.701875 
" style="fill:none;stroke:#d62728;stroke-width:2;"/>
    </g>
    <g id="line2d_90">
     <path d="M 930.915 189.701875 
L 970.915 189.701875 
" style="fill:none;stroke:#d62728;stroke-linecap:square;stroke-width:2;"/>
    </g>
    <g id="line2d_91">
     <g>
      <use style="fill:#d62728;stroke:#d62728;stroke-linejoin:miter;" x="950.915" xlink:href="#mf3d010c569" y="189.701875"/>
     </g>
    </g>
    <g id="text_23">
     <!-- vardict -->
     <g transform="translate(986.915 196.701875)scale(0.2 -0.2)">
      <defs>
       <path d="M 2.984375 54.6875 
L 12.5 54.6875 
L 29.59375 8.796875 
L 46.6875 54.6875 
L 56.203125 54.6875 
L 35.6875 0 
L 23.484375 0 
z
" id="DejaVuSans-118"/>
      </defs>
      <use xlink:href="#DejaVuSans-118"/>
      <use x="59.179688" xlink:href="#DejaVuSans-97"/>
      <use x="120.458984" xlink:href="#DejaVuSans-114"/>
      <use x="159.822266" xlink:href="#DejaVuSans-100"/>
      <use x="223.298828" xlink:href="#DejaVuSans-105"/>
      <use x="251.082031" xlink:href="#DejaVuSans-99"/>
      <use x="306.0625" xlink:href="#DejaVuSans-116"/>
     </g>
    </g>
    <g id="LineCollection_23">
     <path d="M 940.915 219.058125 
L 960.915 219.058125 
" style="fill:none;stroke:#9467bd;stroke-width:2;"/>
    </g>
    <g id="LineCollection_24">
     <path d="M 950.915 229.058125 
L 950.915 209.058125 
" style="fill:none;stroke:#9467bd;stroke-width:2;"/>
    </g>
    <g id="line2d_92">
     <path d="M 930.915 219.058125 
L 970.915 219.058125 
" style="fill:none;stroke:#9467bd;stroke-linecap:square;stroke-width:2;"/>
    </g>
    <g id="line2d_93">
     <g>
      <use style="fill:#9467bd;stroke:#9467bd;stroke-linejoin:miter;" x="950.915" xlink:href="#m74b4e222a1" y="219.058125"/>
     </g>
    </g>
    <g id="text_24">
     <!-- varscan -->
     <g transform="translate(986.915 226.058125)scale(0.2 -0.2)">
      <use xlink:href="#DejaVuSans-118"/>
      <use x="59.179688" xlink:href="#DejaVuSans-97"/>
      <use x="120.458984" xlink:href="#DejaVuSans-114"/>
      <use x="161.572266" xlink:href="#DejaVuSans-115"/>
      <use x="213.671875" xlink:href="#DejaVuSans-99"/>
      <use x="268.652344" xlink:href="#DejaVuSans-97"/>
      <use x="329.931641" xlink:href="#DejaVuSans-110"/>
     </g>
    </g>
    <g id="LineCollection_25">
     <path d="M 940.915 248.414375 
L 960.915 248.414375 
" style="fill:none;stroke:#bcbd22;stroke-width:2;"/>
    </g>
    <g id="LineCollection_26">
     <path d="M 950.915 258.414375 
L 950.915 238.414375 
" style="fill:none;stroke:#bcbd22;stroke-width:2;"/>
    </g>
    <g id="line2d_94">
     <path d="M 930.915 248.414375 
L 970.915 248.414375 
" style="fill:none;stroke:#bcbd22;stroke-linecap:square;stroke-width:2;"/>
    </g>
    <g id="line2d_95">
     <g>
      <use style="fill:#bcbd22;stroke:#bcbd22;stroke-linejoin:miter;" x="950.915" xlink:href="#m3ed26e0c0e" y="248.414375"/>
     </g>
    </g>
    <g id="text_25">
     <!-- smurf -->
     <g transform="translate(986.915 255.414375)scale(0.2 -0.2)">
      <use xlink:href="#DejaVuSans-115"/>
      <use x="52.099609" xlink:href="#DejaVuSans-109"/>
      <use x="149.511719" xlink:href="#DejaVuSans-117"/>
      <use x="212.890625" xlink:href="#DejaVuSans-114"/>
      <use x="254.003906" xlink:href="#DejaVuSans-102"/>
     </g>
    </g>
    <g id="LineCollection_27">
     <path d="M 940.915 277.770625 
L 960.915 277.770625 
" style="fill:none;stroke:#8c564b;stroke-width:2;"/>
    </g>
    <g id="LineCollection_28">
     <path d="M 950.915 287.770625 
L 950.915 267.770625 
" style="fill:none;stroke:#8c564b;stroke-width:2;"/>
    </g>
    <g id="line2d_96">
     <path d="M 930.915 277.770625 
L 970.915 277.770625 
" style="fill:none;stroke:#8c564b;stroke-linecap:square;stroke-width:2;"/>
    </g>
    <g id="line2d_97">
     <g>
      <use style="fill:#8c564b;stroke:#8c564b;stroke-linejoin:miter;" x="950.915" xlink:href="#m092755d1dc" y="277.770625"/>
     </g>
    </g>
    <g id="text_26">
     <!-- abemus -->
     <g transform="translate(986.915 284.770625)scale(0.2 -0.2)">
      <use xlink:href="#DejaVuSans-97"/>
      <use x="61.279297" xlink:href="#DejaVuSans-98"/>
      <use x="124.755859" xlink:href="#DejaVuSans-101"/>
      <use x="186.279297" xlink:href="#DejaVuSans-109"/>
      <use x="283.691406" xlink:href="#DejaVuSans-117"/>
      <use x="347.070312" xlink:href="#DejaVuSans-115"/>
     </g>
    </g>
   </g>
  </g>
 </g>
 <defs>
  <clipPath id="p8dfe976d0c">
   <rect height="554.4" width="837" x="75.915" y="75.43625"/>
  </clipPath>
 </defs>
</svg>
