<?xml version="1.0" encoding="utf-8" standalone="no"?>
<!DOCTYPE svg PUBLIC "-//W3C//DTD SVG 1.1//EN"
  "http://www.w3.org/Graphics/SVG/1.1/DTD/svg11.dtd">
<!-- Created with matplotlib (https://matplotlib.org/) -->
<svg height="686.74875pt" version="1.1" viewBox="0 0 1112.2775 686.74875" width="1112.2775pt" xmlns="http://www.w3.org/2000/svg" xmlns:xlink="http://www.w3.org/1999/xlink">
 <metadata>
  <rdf:RDF xmlns:cc="http://creativecommons.org/ns#" xmlns:dc="http://purl.org/dc/elements/1.1/" xmlns:rdf="http://www.w3.org/1999/02/22-rdf-syntax-ns#">
   <cc:Work>
    <dc:type rdf:resource="http://purl.org/dc/dcmitype/StillImage"/>
    <dc:date>2023-02-21T09:42:09.659888</dc:date>
    <dc:format>image/svg+xml</dc:format>
    <dc:creator>
     <cc:Agent>
      <dc:title>Matplotlib v3.3.4, https://matplotlib.org/</dc:title>
     </cc:Agent>
    </dc:creator>
   </cc:Work>
  </rdf:RDF>
 </metadata>
 <defs>
  <style type="text/css">*{stroke-linecap:butt;stroke-linejoin:round;}</style>
 </defs>
 <g id="figure_1">
  <g id="patch_1">
   <path d="M 0 686.74875 
L 1112.2775 686.74875 
L 1112.2775 0 
L 0 0 
z
" style="fill:#ffffff;"/>
  </g>
  <g id="axes_1">
   <g id="patch_2">
    <path d="M 87.136875 629.83625 
L 924.136875 629.83625 
L 924.136875 75.43625 
L 87.136875 75.43625 
z
" style="fill:#ffffff;"/>
   </g>
   <g id="matplotlib.axis_1">
    <g id="xtick_1">
     <g id="line2d_1">
      <path clip-path="url(#p185d4149bd)" d="M 149.136875 629.83625 
L 149.136875 75.43625 
" style="fill:none;stroke:#b0b0b0;stroke-linecap:square;"/>
     </g>
     <g id="line2d_2">
      <defs>
       <path d="M 0 0 
L 0 3.5 
" id="m87c69ec4fb" style="stroke:#000000;stroke-width:0.8;"/>
      </defs>
      <g>
       <use style="stroke:#000000;stroke-width:0.8;" x="149.136875" xlink:href="#m87c69ec4fb" y="629.83625"/>
      </g>
     </g>
     <g id="text_1">
      <!-- 25 -->
      <g transform="translate(136.411875 652.033125)scale(0.2 -0.2)">
       <defs>
        <path d="M 19.1875 8.296875 
L 53.609375 8.296875 
L 53.609375 0 
L 7.328125 0 
L 7.328125 8.296875 
Q 12.9375 14.109375 22.625 23.890625 
Q 32.328125 33.6875 34.8125 36.53125 
Q 39.546875 41.84375 41.421875 45.53125 
Q 43.3125 49.21875 43.3125 52.78125 
Q 43.3125 58.59375 39.234375 62.25 
Q 35.15625 65.921875 28.609375 65.921875 
Q 23.96875 65.921875 18.8125 64.3125 
Q 13.671875 62.703125 7.8125 59.421875 
L 7.8125 69.390625 
Q 13.765625 71.78125 18.9375 73 
Q 24.125 74.21875 28.421875 74.21875 
Q 39.75 74.21875 46.484375 68.546875 
Q 53.21875 62.890625 53.21875 53.421875 
Q 53.21875 48.921875 51.53125 44.890625 
Q 49.859375 40.875 45.40625 35.40625 
Q 44.1875 33.984375 37.640625 27.21875 
Q 31.109375 20.453125 19.1875 8.296875 
z
" id="DejaVuSans-50"/>
        <path d="M 10.796875 72.90625 
L 49.515625 72.90625 
L 49.515625 64.59375 
L 19.828125 64.59375 
L 19.828125 46.734375 
Q 21.96875 47.46875 24.109375 47.828125 
Q 26.265625 48.1875 28.421875 48.1875 
Q 40.625 48.1875 47.75 41.5 
Q 54.890625 34.8125 54.890625 23.390625 
Q 54.890625 11.625 47.5625 5.09375 
Q 40.234375 -1.421875 26.90625 -1.421875 
Q 22.3125 -1.421875 17.546875 -0.640625 
Q 12.796875 0.140625 7.71875 1.703125 
L 7.71875 11.625 
Q 12.109375 9.234375 16.796875 8.0625 
Q 21.484375 6.890625 26.703125 6.890625 
Q 35.15625 6.890625 40.078125 11.328125 
Q 45.015625 15.765625 45.015625 23.390625 
Q 45.015625 31 40.078125 35.4375 
Q 35.15625 39.890625 26.703125 39.890625 
Q 22.75 39.890625 18.8125 39.015625 
Q 14.890625 38.140625 10.796875 36.28125 
z
" id="DejaVuSans-53"/>
       </defs>
       <use xlink:href="#DejaVuSans-50"/>
       <use x="63.623047" xlink:href="#DejaVuSans-53"/>
      </g>
     </g>
    </g>
    <g id="xtick_2">
     <g id="line2d_3">
      <path clip-path="url(#p185d4149bd)" d="M 304.136875 629.83625 
L 304.136875 75.43625 
" style="fill:none;stroke:#b0b0b0;stroke-linecap:square;"/>
     </g>
     <g id="line2d_4">
      <g>
       <use style="stroke:#000000;stroke-width:0.8;" x="304.136875" xlink:href="#m87c69ec4fb" y="629.83625"/>
      </g>
     </g>
     <g id="text_2">
      <!-- 20 -->
      <g transform="translate(291.411875 652.033125)scale(0.2 -0.2)">
       <defs>
        <path d="M 31.78125 66.40625 
Q 24.171875 66.40625 20.328125 58.90625 
Q 16.5 51.421875 16.5 36.375 
Q 16.5 21.390625 20.328125 13.890625 
Q 24.171875 6.390625 31.78125 6.390625 
Q 39.453125 6.390625 43.28125 13.890625 
Q 47.125 21.390625 47.125 36.375 
Q 47.125 51.421875 43.28125 58.90625 
Q 39.453125 66.40625 31.78125 66.40625 
z
M 31.78125 74.21875 
Q 44.046875 74.21875 50.515625 64.515625 
Q 56.984375 54.828125 56.984375 36.375 
Q 56.984375 17.96875 50.515625 8.265625 
Q 44.046875 -1.421875 31.78125 -1.421875 
Q 19.53125 -1.421875 13.0625 8.265625 
Q 6.59375 17.96875 6.59375 36.375 
Q 6.59375 54.828125 13.0625 64.515625 
Q 19.53125 74.21875 31.78125 74.21875 
z
" id="DejaVuSans-48"/>
       </defs>
       <use xlink:href="#DejaVuSans-50"/>
       <use x="63.623047" xlink:href="#DejaVuSans-48"/>
      </g>
     </g>
    </g>
    <g id="xtick_3">
     <g id="line2d_5">
      <path clip-path="url(#p185d4149bd)" d="M 459.136875 629.83625 
L 459.136875 75.43625 
" style="fill:none;stroke:#b0b0b0;stroke-linecap:square;"/>
     </g>
     <g id="line2d_6">
      <g>
       <use style="stroke:#000000;stroke-width:0.8;" x="459.136875" xlink:href="#m87c69ec4fb" y="629.83625"/>
      </g>
     </g>
     <g id="text_3">
      <!-- 15 -->
      <g transform="translate(446.411875 652.033125)scale(0.2 -0.2)">
       <defs>
        <path d="M 12.40625 8.296875 
L 28.515625 8.296875 
L 28.515625 63.921875 
L 10.984375 60.40625 
L 10.984375 69.390625 
L 28.421875 72.90625 
L 38.28125 72.90625 
L 38.28125 8.296875 
L 54.390625 8.296875 
L 54.390625 0 
L 12.40625 0 
z
" id="DejaVuSans-49"/>
       </defs>
       <use xlink:href="#DejaVuSans-49"/>
       <use x="63.623047" xlink:href="#DejaVuSans-53"/>
      </g>
     </g>
    </g>
    <g id="xtick_4">
     <g id="line2d_7">
      <path clip-path="url(#p185d4149bd)" d="M 614.136875 629.83625 
L 614.136875 75.43625 
" style="fill:none;stroke:#b0b0b0;stroke-linecap:square;"/>
     </g>
     <g id="line2d_8">
      <g>
       <use style="stroke:#000000;stroke-width:0.8;" x="614.136875" xlink:href="#m87c69ec4fb" y="629.83625"/>
      </g>
     </g>
     <g id="text_4">
      <!-- 10 -->
      <g transform="translate(601.411875 652.033125)scale(0.2 -0.2)">
       <use xlink:href="#DejaVuSans-49"/>
       <use x="63.623047" xlink:href="#DejaVuSans-48"/>
      </g>
     </g>
    </g>
    <g id="xtick_5">
     <g id="line2d_9">
      <path clip-path="url(#p185d4149bd)" d="M 769.136875 629.83625 
L 769.136875 75.43625 
" style="fill:none;stroke:#b0b0b0;stroke-linecap:square;"/>
     </g>
     <g id="line2d_10">
      <g>
       <use style="stroke:#000000;stroke-width:0.8;" x="769.136875" xlink:href="#m87c69ec4fb" y="629.83625"/>
      </g>
     </g>
     <g id="text_5">
      <!-- 5 -->
      <g transform="translate(762.774375 652.033125)scale(0.2 -0.2)">
       <use xlink:href="#DejaVuSans-53"/>
      </g>
     </g>
    </g>
    <g id="xtick_6">
     <g id="line2d_11">
      <path clip-path="url(#p185d4149bd)" d="M 924.136875 629.83625 
L 924.136875 75.43625 
" style="fill:none;stroke:#b0b0b0;stroke-linecap:square;"/>
     </g>
     <g id="line2d_12">
      <g>
       <use style="stroke:#000000;stroke-width:0.8;" x="924.136875" xlink:href="#m87c69ec4fb" y="629.83625"/>
      </g>
     </g>
     <g id="text_6">
      <!-- 0 -->
      <g transform="translate(917.774375 652.033125)scale(0.2 -0.2)">
       <use xlink:href="#DejaVuSans-48"/>
      </g>
     </g>
    </g>
    <g id="xtick_7">
     <g id="line2d_13">
      <path clip-path="url(#p185d4149bd)" d="M 87.136875 629.83625 
L 87.136875 75.43625 
" style="fill:none;stroke:#b0b0b0;stroke-linecap:square;stroke-opacity:0.2;stroke-width:2;"/>
     </g>
     <g id="line2d_14">
      <defs>
       <path d="M 0 0 
L 0 2 
" id="m494fcddbbc" style="stroke:#000000;stroke-width:0.6;"/>
      </defs>
      <g>
       <use style="stroke:#000000;stroke-width:0.6;" x="87.136875" xlink:href="#m494fcddbbc" y="629.83625"/>
      </g>
     </g>
    </g>
    <g id="xtick_8">
     <g id="line2d_15">
      <path clip-path="url(#p185d4149bd)" d="M 118.136875 629.83625 
L 118.136875 75.43625 
" style="fill:none;stroke:#b0b0b0;stroke-linecap:square;stroke-opacity:0.2;stroke-width:2;"/>
     </g>
     <g id="line2d_16">
      <g>
       <use style="stroke:#000000;stroke-width:0.6;" x="118.136875" xlink:href="#m494fcddbbc" y="629.83625"/>
      </g>
     </g>
    </g>
    <g id="xtick_9">
     <g id="line2d_17">
      <path clip-path="url(#p185d4149bd)" d="M 180.136875 629.83625 
L 180.136875 75.43625 
" style="fill:none;stroke:#b0b0b0;stroke-linecap:square;stroke-opacity:0.2;stroke-width:2;"/>
     </g>
     <g id="line2d_18">
      <g>
       <use style="stroke:#000000;stroke-width:0.6;" x="180.136875" xlink:href="#m494fcddbbc" y="629.83625"/>
      </g>
     </g>
    </g>
    <g id="xtick_10">
     <g id="line2d_19">
      <path clip-path="url(#p185d4149bd)" d="M 211.136875 629.83625 
L 211.136875 75.43625 
" style="fill:none;stroke:#b0b0b0;stroke-linecap:square;stroke-opacity:0.2;stroke-width:2;"/>
     </g>
     <g id="line2d_20">
      <g>
       <use style="stroke:#000000;stroke-width:0.6;" x="211.136875" xlink:href="#m494fcddbbc" y="629.83625"/>
      </g>
     </g>
    </g>
    <g id="xtick_11">
     <g id="line2d_21">
      <path clip-path="url(#p185d4149bd)" d="M 242.136875 629.83625 
L 242.136875 75.43625 
" style="fill:none;stroke:#b0b0b0;stroke-linecap:square;stroke-opacity:0.2;stroke-width:2;"/>
     </g>
     <g id="line2d_22">
      <g>
       <use style="stroke:#000000;stroke-width:0.6;" x="242.136875" xlink:href="#m494fcddbbc" y="629.83625"/>
      </g>
     </g>
    </g>
    <g id="xtick_12">
     <g id="line2d_23">
      <path clip-path="url(#p185d4149bd)" d="M 273.136875 629.83625 
L 273.136875 75.43625 
" style="fill:none;stroke:#b0b0b0;stroke-linecap:square;stroke-opacity:0.2;stroke-width:2;"/>
     </g>
     <g id="line2d_24">
      <g>
       <use style="stroke:#000000;stroke-width:0.6;" x="273.136875" xlink:href="#m494fcddbbc" y="629.83625"/>
      </g>
     </g>
    </g>
    <g id="xtick_13">
     <g id="line2d_25">
      <path clip-path="url(#p185d4149bd)" d="M 335.136875 629.83625 
L 335.136875 75.43625 
" style="fill:none;stroke:#b0b0b0;stroke-linecap:square;stroke-opacity:0.2;stroke-width:2;"/>
     </g>
     <g id="line2d_26">
      <g>
       <use style="stroke:#000000;stroke-width:0.6;" x="335.136875" xlink:href="#m494fcddbbc" y="629.83625"/>
      </g>
     </g>
    </g>
    <g id="xtick_14">
     <g id="line2d_27">
      <path clip-path="url(#p185d4149bd)" d="M 366.136875 629.83625 
L 366.136875 75.43625 
" style="fill:none;stroke:#b0b0b0;stroke-linecap:square;stroke-opacity:0.2;stroke-width:2;"/>
     </g>
     <g id="line2d_28">
      <g>
       <use style="stroke:#000000;stroke-width:0.6;" x="366.136875" xlink:href="#m494fcddbbc" y="629.83625"/>
      </g>
     </g>
    </g>
    <g id="xtick_15">
     <g id="line2d_29">
      <path clip-path="url(#p185d4149bd)" d="M 397.136875 629.83625 
L 397.136875 75.43625 
" style="fill:none;stroke:#b0b0b0;stroke-linecap:square;stroke-opacity:0.2;stroke-width:2;"/>
     </g>
     <g id="line2d_30">
      <g>
       <use style="stroke:#000000;stroke-width:0.6;" x="397.136875" xlink:href="#m494fcddbbc" y="629.83625"/>
      </g>
     </g>
    </g>
    <g id="xtick_16">
     <g id="line2d_31">
      <path clip-path="url(#p185d4149bd)" d="M 428.136875 629.83625 
L 428.136875 75.43625 
" style="fill:none;stroke:#b0b0b0;stroke-linecap:square;stroke-opacity:0.2;stroke-width:2;"/>
     </g>
     <g id="line2d_32">
      <g>
       <use style="stroke:#000000;stroke-width:0.6;" x="428.136875" xlink:href="#m494fcddbbc" y="629.83625"/>
      </g>
     </g>
    </g>
    <g id="xtick_17">
     <g id="line2d_33">
      <path clip-path="url(#p185d4149bd)" d="M 490.136875 629.83625 
L 490.136875 75.43625 
" style="fill:none;stroke:#b0b0b0;stroke-linecap:square;stroke-opacity:0.2;stroke-width:2;"/>
     </g>
     <g id="line2d_34">
      <g>
       <use style="stroke:#000000;stroke-width:0.6;" x="490.136875" xlink:href="#m494fcddbbc" y="629.83625"/>
      </g>
     </g>
    </g>
    <g id="xtick_18">
     <g id="line2d_35">
      <path clip-path="url(#p185d4149bd)" d="M 521.136875 629.83625 
L 521.136875 75.43625 
" style="fill:none;stroke:#b0b0b0;stroke-linecap:square;stroke-opacity:0.2;stroke-width:2;"/>
     </g>
     <g id="line2d_36">
      <g>
       <use style="stroke:#000000;stroke-width:0.6;" x="521.136875" xlink:href="#m494fcddbbc" y="629.83625"/>
      </g>
     </g>
    </g>
    <g id="xtick_19">
     <g id="line2d_37">
      <path clip-path="url(#p185d4149bd)" d="M 552.136875 629.83625 
L 552.136875 75.43625 
" style="fill:none;stroke:#b0b0b0;stroke-linecap:square;stroke-opacity:0.2;stroke-width:2;"/>
     </g>
     <g id="line2d_38">
      <g>
       <use style="stroke:#000000;stroke-width:0.6;" x="552.136875" xlink:href="#m494fcddbbc" y="629.83625"/>
      </g>
     </g>
    </g>
    <g id="xtick_20">
     <g id="line2d_39">
      <path clip-path="url(#p185d4149bd)" d="M 583.136875 629.83625 
L 583.136875 75.43625 
" style="fill:none;stroke:#b0b0b0;stroke-linecap:square;stroke-opacity:0.2;stroke-width:2;"/>
     </g>
     <g id="line2d_40">
      <g>
       <use style="stroke:#000000;stroke-width:0.6;" x="583.136875" xlink:href="#m494fcddbbc" y="629.83625"/>
      </g>
     </g>
    </g>
    <g id="xtick_21">
     <g id="line2d_41">
      <path clip-path="url(#p185d4149bd)" d="M 645.136875 629.83625 
L 645.136875 75.43625 
" style="fill:none;stroke:#b0b0b0;stroke-linecap:square;stroke-opacity:0.2;stroke-width:2;"/>
     </g>
     <g id="line2d_42">
      <g>
       <use style="stroke:#000000;stroke-width:0.6;" x="645.136875" xlink:href="#m494fcddbbc" y="629.83625"/>
      </g>
     </g>
    </g>
    <g id="xtick_22">
     <g id="line2d_43">
      <path clip-path="url(#p185d4149bd)" d="M 676.136875 629.83625 
L 676.136875 75.43625 
" style="fill:none;stroke:#b0b0b0;stroke-linecap:square;stroke-opacity:0.2;stroke-width:2;"/>
     </g>
     <g id="line2d_44">
      <g>
       <use style="stroke:#000000;stroke-width:0.6;" x="676.136875" xlink:href="#m494fcddbbc" y="629.83625"/>
      </g>
     </g>
    </g>
    <g id="xtick_23">
     <g id="line2d_45">
      <path clip-path="url(#p185d4149bd)" d="M 707.136875 629.83625 
L 707.136875 75.43625 
" style="fill:none;stroke:#b0b0b0;stroke-linecap:square;stroke-opacity:0.2;stroke-width:2;"/>
     </g>
     <g id="line2d_46">
      <g>
       <use style="stroke:#000000;stroke-width:0.6;" x="707.136875" xlink:href="#m494fcddbbc" y="629.83625"/>
      </g>
     </g>
    </g>
    <g id="xtick_24">
     <g id="line2d_47">
      <path clip-path="url(#p185d4149bd)" d="M 738.136875 629.83625 
L 738.136875 75.43625 
" style="fill:none;stroke:#b0b0b0;stroke-linecap:square;stroke-opacity:0.2;stroke-width:2;"/>
     </g>
     <g id="line2d_48">
      <g>
       <use style="stroke:#000000;stroke-width:0.6;" x="738.136875" xlink:href="#m494fcddbbc" y="629.83625"/>
      </g>
     </g>
    </g>
    <g id="xtick_25">
     <g id="line2d_49">
      <path clip-path="url(#p185d4149bd)" d="M 800.136875 629.83625 
L 800.136875 75.43625 
" style="fill:none;stroke:#b0b0b0;stroke-linecap:square;stroke-opacity:0.2;stroke-width:2;"/>
     </g>
     <g id="line2d_50">
      <g>
       <use style="stroke:#000000;stroke-width:0.6;" x="800.136875" xlink:href="#m494fcddbbc" y="629.83625"/>
      </g>
     </g>
    </g>
    <g id="xtick_26">
     <g id="line2d_51">
      <path clip-path="url(#p185d4149bd)" d="M 831.136875 629.83625 
L 831.136875 75.43625 
" style="fill:none;stroke:#b0b0b0;stroke-linecap:square;stroke-opacity:0.2;stroke-width:2;"/>
     </g>
     <g id="line2d_52">
      <g>
       <use style="stroke:#000000;stroke-width:0.6;" x="831.136875" xlink:href="#m494fcddbbc" y="629.83625"/>
      </g>
     </g>
    </g>
    <g id="xtick_27">
     <g id="line2d_53">
      <path clip-path="url(#p185d4149bd)" d="M 862.136875 629.83625 
L 862.136875 75.43625 
" style="fill:none;stroke:#b0b0b0;stroke-linecap:square;stroke-opacity:0.2;stroke-width:2;"/>
     </g>
     <g id="line2d_54">
      <g>
       <use style="stroke:#000000;stroke-width:0.6;" x="862.136875" xlink:href="#m494fcddbbc" y="629.83625"/>
      </g>
     </g>
    </g>
    <g id="xtick_28">
     <g id="line2d_55">
      <path clip-path="url(#p185d4149bd)" d="M 893.136875 629.83625 
L 893.136875 75.43625 
" style="fill:none;stroke:#b0b0b0;stroke-linecap:square;stroke-opacity:0.2;stroke-width:2;"/>
     </g>
     <g id="line2d_56">
      <g>
       <use style="stroke:#000000;stroke-width:0.6;" x="893.136875" xlink:href="#m494fcddbbc" y="629.83625"/>
      </g>
     </g>
    </g>
    <g id="text_7">
     <!-- tumor burden (%) -->
     <g transform="translate(416.286875 675.389375)scale(0.2 -0.2)">
      <defs>
       <path d="M 18.3125 70.21875 
L 18.3125 54.6875 
L 36.8125 54.6875 
L 36.8125 47.703125 
L 18.3125 47.703125 
L 18.3125 18.015625 
Q 18.3125 11.328125 20.140625 9.421875 
Q 21.96875 7.515625 27.59375 7.515625 
L 36.8125 7.515625 
L 36.8125 0 
L 27.59375 0 
Q 17.1875 0 13.234375 3.875 
Q 9.28125 7.765625 9.28125 18.015625 
L 9.28125 47.703125 
L 2.6875 47.703125 
L 2.6875 54.6875 
L 9.28125 54.6875 
L 9.28125 70.21875 
z
" id="DejaVuSans-116"/>
       <path d="M 8.5 21.578125 
L 8.5 54.6875 
L 17.484375 54.6875 
L 17.484375 21.921875 
Q 17.484375 14.15625 20.5 10.265625 
Q 23.53125 6.390625 29.59375 6.390625 
Q 36.859375 6.390625 41.078125 11.03125 
Q 45.3125 15.671875 45.3125 23.6875 
L 45.3125 54.6875 
L 54.296875 54.6875 
L 54.296875 0 
L 45.3125 0 
L 45.3125 8.40625 
Q 42.046875 3.421875 37.71875 1 
Q 33.40625 -1.421875 27.6875 -1.421875 
Q 18.265625 -1.421875 13.375 4.4375 
Q 8.5 10.296875 8.5 21.578125 
z
M 31.109375 56 
z
" id="DejaVuSans-117"/>
       <path d="M 52 44.1875 
Q 55.375 50.25 60.0625 53.125 
Q 64.75 56 71.09375 56 
Q 79.640625 56 84.28125 50.015625 
Q 88.921875 44.046875 88.921875 33.015625 
L 88.921875 0 
L 79.890625 0 
L 79.890625 32.71875 
Q 79.890625 40.578125 77.09375 44.375 
Q 74.3125 48.1875 68.609375 48.1875 
Q 61.625 48.1875 57.5625 43.546875 
Q 53.515625 38.921875 53.515625 30.90625 
L 53.515625 0 
L 44.484375 0 
L 44.484375 32.71875 
Q 44.484375 40.625 41.703125 44.40625 
Q 38.921875 48.1875 33.109375 48.1875 
Q 26.21875 48.1875 22.15625 43.53125 
Q 18.109375 38.875 18.109375 30.90625 
L 18.109375 0 
L 9.078125 0 
L 9.078125 54.6875 
L 18.109375 54.6875 
L 18.109375 46.1875 
Q 21.1875 51.21875 25.484375 53.609375 
Q 29.78125 56 35.6875 56 
Q 41.65625 56 45.828125 52.96875 
Q 50 49.953125 52 44.1875 
z
" id="DejaVuSans-109"/>
       <path d="M 30.609375 48.390625 
Q 23.390625 48.390625 19.1875 42.75 
Q 14.984375 37.109375 14.984375 27.296875 
Q 14.984375 17.484375 19.15625 11.84375 
Q 23.34375 6.203125 30.609375 6.203125 
Q 37.796875 6.203125 41.984375 11.859375 
Q 46.1875 17.53125 46.1875 27.296875 
Q 46.1875 37.015625 41.984375 42.703125 
Q 37.796875 48.390625 30.609375 48.390625 
z
M 30.609375 56 
Q 42.328125 56 49.015625 48.375 
Q 55.71875 40.765625 55.71875 27.296875 
Q 55.71875 13.875 49.015625 6.21875 
Q 42.328125 -1.421875 30.609375 -1.421875 
Q 18.84375 -1.421875 12.171875 6.21875 
Q 5.515625 13.875 5.515625 27.296875 
Q 5.515625 40.765625 12.171875 48.375 
Q 18.84375 56 30.609375 56 
z
" id="DejaVuSans-111"/>
       <path d="M 41.109375 46.296875 
Q 39.59375 47.171875 37.8125 47.578125 
Q 36.03125 48 33.890625 48 
Q 26.265625 48 22.1875 43.046875 
Q 18.109375 38.09375 18.109375 28.8125 
L 18.109375 0 
L 9.078125 0 
L 9.078125 54.6875 
L 18.109375 54.6875 
L 18.109375 46.1875 
Q 20.953125 51.171875 25.484375 53.578125 
Q 30.03125 56 36.53125 56 
Q 37.453125 56 38.578125 55.875 
Q 39.703125 55.765625 41.0625 55.515625 
z
" id="DejaVuSans-114"/>
       <path id="DejaVuSans-32"/>
       <path d="M 48.6875 27.296875 
Q 48.6875 37.203125 44.609375 42.84375 
Q 40.53125 48.484375 33.40625 48.484375 
Q 26.265625 48.484375 22.1875 42.84375 
Q 18.109375 37.203125 18.109375 27.296875 
Q 18.109375 17.390625 22.1875 11.75 
Q 26.265625 6.109375 33.40625 6.109375 
Q 40.53125 6.109375 44.609375 11.75 
Q 48.6875 17.390625 48.6875 27.296875 
z
M 18.109375 46.390625 
Q 20.953125 51.265625 25.265625 53.625 
Q 29.59375 56 35.59375 56 
Q 45.5625 56 51.78125 48.09375 
Q 58.015625 40.1875 58.015625 27.296875 
Q 58.015625 14.40625 51.78125 6.484375 
Q 45.5625 -1.421875 35.59375 -1.421875 
Q 29.59375 -1.421875 25.265625 0.953125 
Q 20.953125 3.328125 18.109375 8.203125 
L 18.109375 0 
L 9.078125 0 
L 9.078125 75.984375 
L 18.109375 75.984375 
z
" id="DejaVuSans-98"/>
       <path d="M 45.40625 46.390625 
L 45.40625 75.984375 
L 54.390625 75.984375 
L 54.390625 0 
L 45.40625 0 
L 45.40625 8.203125 
Q 42.578125 3.328125 38.25 0.953125 
Q 33.9375 -1.421875 27.875 -1.421875 
Q 17.96875 -1.421875 11.734375 6.484375 
Q 5.515625 14.40625 5.515625 27.296875 
Q 5.515625 40.1875 11.734375 48.09375 
Q 17.96875 56 27.875 56 
Q 33.9375 56 38.25 53.625 
Q 42.578125 51.265625 45.40625 46.390625 
z
M 14.796875 27.296875 
Q 14.796875 17.390625 18.875 11.75 
Q 22.953125 6.109375 30.078125 6.109375 
Q 37.203125 6.109375 41.296875 11.75 
Q 45.40625 17.390625 45.40625 27.296875 
Q 45.40625 37.203125 41.296875 42.84375 
Q 37.203125 48.484375 30.078125 48.484375 
Q 22.953125 48.484375 18.875 42.84375 
Q 14.796875 37.203125 14.796875 27.296875 
z
" id="DejaVuSans-100"/>
       <path d="M 56.203125 29.59375 
L 56.203125 25.203125 
L 14.890625 25.203125 
Q 15.484375 15.921875 20.484375 11.0625 
Q 25.484375 6.203125 34.421875 6.203125 
Q 39.59375 6.203125 44.453125 7.46875 
Q 49.3125 8.734375 54.109375 11.28125 
L 54.109375 2.78125 
Q 49.265625 0.734375 44.1875 -0.34375 
Q 39.109375 -1.421875 33.890625 -1.421875 
Q 20.796875 -1.421875 13.15625 6.1875 
Q 5.515625 13.8125 5.515625 26.8125 
Q 5.515625 40.234375 12.765625 48.109375 
Q 20.015625 56 32.328125 56 
Q 43.359375 56 49.78125 48.890625 
Q 56.203125 41.796875 56.203125 29.59375 
z
M 47.21875 32.234375 
Q 47.125 39.59375 43.09375 43.984375 
Q 39.0625 48.390625 32.421875 48.390625 
Q 24.90625 48.390625 20.390625 44.140625 
Q 15.875 39.890625 15.1875 32.171875 
z
" id="DejaVuSans-101"/>
       <path d="M 54.890625 33.015625 
L 54.890625 0 
L 45.90625 0 
L 45.90625 32.71875 
Q 45.90625 40.484375 42.875 44.328125 
Q 39.84375 48.1875 33.796875 48.1875 
Q 26.515625 48.1875 22.3125 43.546875 
Q 18.109375 38.921875 18.109375 30.90625 
L 18.109375 0 
L 9.078125 0 
L 9.078125 54.6875 
L 18.109375 54.6875 
L 18.109375 46.1875 
Q 21.34375 51.125 25.703125 53.5625 
Q 30.078125 56 35.796875 56 
Q 45.21875 56 50.046875 50.171875 
Q 54.890625 44.34375 54.890625 33.015625 
z
" id="DejaVuSans-110"/>
       <path d="M 31 75.875 
Q 24.46875 64.65625 21.28125 53.65625 
Q 18.109375 42.671875 18.109375 31.390625 
Q 18.109375 20.125 21.3125 9.0625 
Q 24.515625 -2 31 -13.1875 
L 23.1875 -13.1875 
Q 15.875 -1.703125 12.234375 9.375 
Q 8.59375 20.453125 8.59375 31.390625 
Q 8.59375 42.28125 12.203125 53.3125 
Q 15.828125 64.359375 23.1875 75.875 
z
" id="DejaVuSans-40"/>
       <path d="M 72.703125 32.078125 
Q 68.453125 32.078125 66.03125 28.46875 
Q 63.625 24.859375 63.625 18.40625 
Q 63.625 12.0625 66.03125 8.421875 
Q 68.453125 4.78125 72.703125 4.78125 
Q 76.859375 4.78125 79.265625 8.421875 
Q 81.6875 12.0625 81.6875 18.40625 
Q 81.6875 24.8125 79.265625 28.4375 
Q 76.859375 32.078125 72.703125 32.078125 
z
M 72.703125 38.28125 
Q 80.421875 38.28125 84.953125 32.90625 
Q 89.5 27.546875 89.5 18.40625 
Q 89.5 9.28125 84.9375 3.921875 
Q 80.375 -1.421875 72.703125 -1.421875 
Q 64.890625 -1.421875 60.34375 3.921875 
Q 55.8125 9.28125 55.8125 18.40625 
Q 55.8125 27.59375 60.375 32.9375 
Q 64.9375 38.28125 72.703125 38.28125 
z
M 22.3125 68.015625 
Q 18.109375 68.015625 15.6875 64.375 
Q 13.28125 60.75 13.28125 54.390625 
Q 13.28125 47.953125 15.671875 44.328125 
Q 18.0625 40.71875 22.3125 40.71875 
Q 26.5625 40.71875 28.96875 44.328125 
Q 31.390625 47.953125 31.390625 54.390625 
Q 31.390625 60.6875 28.953125 64.34375 
Q 26.515625 68.015625 22.3125 68.015625 
z
M 66.40625 74.21875 
L 74.21875 74.21875 
L 28.609375 -1.421875 
L 20.796875 -1.421875 
z
M 22.3125 74.21875 
Q 30.03125 74.21875 34.609375 68.875 
Q 39.203125 63.53125 39.203125 54.390625 
Q 39.203125 45.171875 34.640625 39.84375 
Q 30.078125 34.515625 22.3125 34.515625 
Q 14.546875 34.515625 10.03125 39.859375 
Q 5.515625 45.21875 5.515625 54.390625 
Q 5.515625 63.484375 10.046875 68.84375 
Q 14.59375 74.21875 22.3125 74.21875 
z
" id="DejaVuSans-37"/>
       <path d="M 8.015625 75.875 
L 15.828125 75.875 
Q 23.140625 64.359375 26.78125 53.3125 
Q 30.421875 42.28125 30.421875 31.390625 
Q 30.421875 20.453125 26.78125 9.375 
Q 23.140625 -1.703125 15.828125 -13.1875 
L 8.015625 -13.1875 
Q 14.5 -2 17.703125 9.0625 
Q 20.90625 20.125 20.90625 31.390625 
Q 20.90625 42.671875 17.703125 53.65625 
Q 14.5 64.65625 8.015625 75.875 
z
" id="DejaVuSans-41"/>
      </defs>
      <use xlink:href="#DejaVuSans-116"/>
      <use x="39.208984" xlink:href="#DejaVuSans-117"/>
      <use x="102.587891" xlink:href="#DejaVuSans-109"/>
      <use x="200" xlink:href="#DejaVuSans-111"/>
      <use x="261.181641" xlink:href="#DejaVuSans-114"/>
      <use x="302.294922" xlink:href="#DejaVuSans-32"/>
      <use x="334.082031" xlink:href="#DejaVuSans-98"/>
      <use x="397.558594" xlink:href="#DejaVuSans-117"/>
      <use x="460.9375" xlink:href="#DejaVuSans-114"/>
      <use x="500.300781" xlink:href="#DejaVuSans-100"/>
      <use x="563.777344" xlink:href="#DejaVuSans-101"/>
      <use x="625.300781" xlink:href="#DejaVuSans-110"/>
      <use x="688.679688" xlink:href="#DejaVuSans-32"/>
      <use x="720.466797" xlink:href="#DejaVuSans-40"/>
      <use x="759.480469" xlink:href="#DejaVuSans-37"/>
      <use x="854.5" xlink:href="#DejaVuSans-41"/>
     </g>
    </g>
   </g>
   <g id="matplotlib.axis_2">
    <g id="ytick_1">
     <g id="line2d_57">
      <path clip-path="url(#p185d4149bd)" d="M 87.136875 628.791514 
L 924.136875 628.791514 
" style="fill:none;stroke:#b0b0b0;stroke-linecap:square;"/>
     </g>
     <g id="line2d_58">
      <defs>
       <path d="M 0 0 
L -3.5 0 
" id="m4897ab0745" style="stroke:#000000;stroke-width:0.8;"/>
      </defs>
      <g>
       <use style="stroke:#000000;stroke-width:0.8;" x="87.136875" xlink:href="#m4897ab0745" y="628.791514"/>
      </g>
     </g>
     <g id="text_8">
      <!-- 0.00 -->
      <g transform="translate(35.605625 636.389952)scale(0.2 -0.2)">
       <defs>
        <path d="M 10.6875 12.40625 
L 21 12.40625 
L 21 0 
L 10.6875 0 
z
" id="DejaVuSans-46"/>
       </defs>
       <use xlink:href="#DejaVuSans-48"/>
       <use x="63.623047" xlink:href="#DejaVuSans-46"/>
       <use x="95.410156" xlink:href="#DejaVuSans-48"/>
       <use x="159.033203" xlink:href="#DejaVuSans-48"/>
      </g>
     </g>
    </g>
    <g id="ytick_2">
     <g id="line2d_59">
      <path clip-path="url(#p185d4149bd)" d="M 87.136875 526.507886 
L 924.136875 526.507886 
" style="fill:none;stroke:#b0b0b0;stroke-linecap:square;"/>
     </g>
     <g id="line2d_60">
      <g>
       <use style="stroke:#000000;stroke-width:0.8;" x="87.136875" xlink:href="#m4897ab0745" y="526.507886"/>
      </g>
     </g>
     <g id="text_9">
      <!-- 0.05 -->
      <g transform="translate(35.605625 534.106323)scale(0.2 -0.2)">
       <use xlink:href="#DejaVuSans-48"/>
       <use x="63.623047" xlink:href="#DejaVuSans-46"/>
       <use x="95.410156" xlink:href="#DejaVuSans-48"/>
       <use x="159.033203" xlink:href="#DejaVuSans-53"/>
      </g>
     </g>
    </g>
    <g id="ytick_3">
     <g id="line2d_61">
      <path clip-path="url(#p185d4149bd)" d="M 87.136875 424.224257 
L 924.136875 424.224257 
" style="fill:none;stroke:#b0b0b0;stroke-linecap:square;"/>
     </g>
     <g id="line2d_62">
      <g>
       <use style="stroke:#000000;stroke-width:0.8;" x="87.136875" xlink:href="#m4897ab0745" y="424.224257"/>
      </g>
     </g>
     <g id="text_10">
      <!-- 0.10 -->
      <g transform="translate(35.605625 431.822695)scale(0.2 -0.2)">
       <use xlink:href="#DejaVuSans-48"/>
       <use x="63.623047" xlink:href="#DejaVuSans-46"/>
       <use x="95.410156" xlink:href="#DejaVuSans-49"/>
       <use x="159.033203" xlink:href="#DejaVuSans-48"/>
      </g>
     </g>
    </g>
    <g id="ytick_4">
     <g id="line2d_63">
      <path clip-path="url(#p185d4149bd)" d="M 87.136875 321.940629 
L 924.136875 321.940629 
" style="fill:none;stroke:#b0b0b0;stroke-linecap:square;"/>
     </g>
     <g id="line2d_64">
      <g>
       <use style="stroke:#000000;stroke-width:0.8;" x="87.136875" xlink:href="#m4897ab0745" y="321.940629"/>
      </g>
     </g>
     <g id="text_11">
      <!-- 0.15 -->
      <g transform="translate(35.605625 329.539066)scale(0.2 -0.2)">
       <use xlink:href="#DejaVuSans-48"/>
       <use x="63.623047" xlink:href="#DejaVuSans-46"/>
       <use x="95.410156" xlink:href="#DejaVuSans-49"/>
       <use x="159.033203" xlink:href="#DejaVuSans-53"/>
      </g>
     </g>
    </g>
    <g id="ytick_5">
     <g id="line2d_65">
      <path clip-path="url(#p185d4149bd)" d="M 87.136875 219.657 
L 924.136875 219.657 
" style="fill:none;stroke:#b0b0b0;stroke-linecap:square;"/>
     </g>
     <g id="line2d_66">
      <g>
       <use style="stroke:#000000;stroke-width:0.8;" x="87.136875" xlink:href="#m4897ab0745" y="219.657"/>
      </g>
     </g>
     <g id="text_12">
      <!-- 0.20 -->
      <g transform="translate(35.605625 227.255437)scale(0.2 -0.2)">
       <use xlink:href="#DejaVuSans-48"/>
       <use x="63.623047" xlink:href="#DejaVuSans-46"/>
       <use x="95.410156" xlink:href="#DejaVuSans-50"/>
       <use x="159.033203" xlink:href="#DejaVuSans-48"/>
      </g>
     </g>
    </g>
    <g id="ytick_6">
     <g id="line2d_67">
      <path clip-path="url(#p185d4149bd)" d="M 87.136875 117.373371 
L 924.136875 117.373371 
" style="fill:none;stroke:#b0b0b0;stroke-linecap:square;"/>
     </g>
     <g id="line2d_68">
      <g>
       <use style="stroke:#000000;stroke-width:0.8;" x="87.136875" xlink:href="#m4897ab0745" y="117.373371"/>
      </g>
     </g>
     <g id="text_13">
      <!-- 0.25 -->
      <g transform="translate(35.605625 124.971809)scale(0.2 -0.2)">
       <use xlink:href="#DejaVuSans-48"/>
       <use x="63.623047" xlink:href="#DejaVuSans-46"/>
       <use x="95.410156" xlink:href="#DejaVuSans-50"/>
       <use x="159.033203" xlink:href="#DejaVuSans-53"/>
      </g>
     </g>
    </g>
    <g id="text_14">
     <!-- AUPRC score -->
     <g transform="translate(27.44625 416.300313)rotate(-90)scale(0.2 -0.2)">
      <defs>
       <path d="M 34.1875 63.1875 
L 20.796875 26.90625 
L 47.609375 26.90625 
z
M 28.609375 72.90625 
L 39.796875 72.90625 
L 67.578125 0 
L 57.328125 0 
L 50.6875 18.703125 
L 17.828125 18.703125 
L 11.1875 0 
L 0.78125 0 
z
" id="DejaVuSans-65"/>
       <path d="M 8.6875 72.90625 
L 18.609375 72.90625 
L 18.609375 28.609375 
Q 18.609375 16.890625 22.84375 11.734375 
Q 27.09375 6.59375 36.625 6.59375 
Q 46.09375 6.59375 50.34375 11.734375 
Q 54.59375 16.890625 54.59375 28.609375 
L 54.59375 72.90625 
L 64.5 72.90625 
L 64.5 27.390625 
Q 64.5 13.140625 57.4375 5.859375 
Q 50.390625 -1.421875 36.625 -1.421875 
Q 22.796875 -1.421875 15.734375 5.859375 
Q 8.6875 13.140625 8.6875 27.390625 
z
" id="DejaVuSans-85"/>
       <path d="M 19.671875 64.796875 
L 19.671875 37.40625 
L 32.078125 37.40625 
Q 38.96875 37.40625 42.71875 40.96875 
Q 46.484375 44.53125 46.484375 51.125 
Q 46.484375 57.671875 42.71875 61.234375 
Q 38.96875 64.796875 32.078125 64.796875 
z
M 9.8125 72.90625 
L 32.078125 72.90625 
Q 44.34375 72.90625 50.609375 67.359375 
Q 56.890625 61.8125 56.890625 51.125 
Q 56.890625 40.328125 50.609375 34.8125 
Q 44.34375 29.296875 32.078125 29.296875 
L 19.671875 29.296875 
L 19.671875 0 
L 9.8125 0 
z
" id="DejaVuSans-80"/>
       <path d="M 44.390625 34.1875 
Q 47.5625 33.109375 50.5625 29.59375 
Q 53.5625 26.078125 56.59375 19.921875 
L 66.609375 0 
L 56 0 
L 46.6875 18.703125 
Q 43.0625 26.03125 39.671875 28.421875 
Q 36.28125 30.8125 30.421875 30.8125 
L 19.671875 30.8125 
L 19.671875 0 
L 9.8125 0 
L 9.8125 72.90625 
L 32.078125 72.90625 
Q 44.578125 72.90625 50.734375 67.671875 
Q 56.890625 62.453125 56.890625 51.90625 
Q 56.890625 45.015625 53.6875 40.46875 
Q 50.484375 35.9375 44.390625 34.1875 
z
M 19.671875 64.796875 
L 19.671875 38.921875 
L 32.078125 38.921875 
Q 39.203125 38.921875 42.84375 42.21875 
Q 46.484375 45.515625 46.484375 51.90625 
Q 46.484375 58.296875 42.84375 61.546875 
Q 39.203125 64.796875 32.078125 64.796875 
z
" id="DejaVuSans-82"/>
       <path d="M 64.40625 67.28125 
L 64.40625 56.890625 
Q 59.421875 61.53125 53.78125 63.8125 
Q 48.140625 66.109375 41.796875 66.109375 
Q 29.296875 66.109375 22.65625 58.46875 
Q 16.015625 50.828125 16.015625 36.375 
Q 16.015625 21.96875 22.65625 14.328125 
Q 29.296875 6.6875 41.796875 6.6875 
Q 48.140625 6.6875 53.78125 8.984375 
Q 59.421875 11.28125 64.40625 15.921875 
L 64.40625 5.609375 
Q 59.234375 2.09375 53.4375 0.328125 
Q 47.65625 -1.421875 41.21875 -1.421875 
Q 24.65625 -1.421875 15.125 8.703125 
Q 5.609375 18.84375 5.609375 36.375 
Q 5.609375 53.953125 15.125 64.078125 
Q 24.65625 74.21875 41.21875 74.21875 
Q 47.75 74.21875 53.53125 72.484375 
Q 59.328125 70.75 64.40625 67.28125 
z
" id="DejaVuSans-67"/>
       <path d="M 44.28125 53.078125 
L 44.28125 44.578125 
Q 40.484375 46.53125 36.375 47.5 
Q 32.28125 48.484375 27.875 48.484375 
Q 21.1875 48.484375 17.84375 46.4375 
Q 14.5 44.390625 14.5 40.28125 
Q 14.5 37.15625 16.890625 35.375 
Q 19.28125 33.59375 26.515625 31.984375 
L 29.59375 31.296875 
Q 39.15625 29.25 43.1875 25.515625 
Q 47.21875 21.78125 47.21875 15.09375 
Q 47.21875 7.46875 41.1875 3.015625 
Q 35.15625 -1.421875 24.609375 -1.421875 
Q 20.21875 -1.421875 15.453125 -0.5625 
Q 10.6875 0.296875 5.421875 2 
L 5.421875 11.28125 
Q 10.40625 8.6875 15.234375 7.390625 
Q 20.0625 6.109375 24.8125 6.109375 
Q 31.15625 6.109375 34.5625 8.28125 
Q 37.984375 10.453125 37.984375 14.40625 
Q 37.984375 18.0625 35.515625 20.015625 
Q 33.0625 21.96875 24.703125 23.78125 
L 21.578125 24.515625 
Q 13.234375 26.265625 9.515625 29.90625 
Q 5.8125 33.546875 5.8125 39.890625 
Q 5.8125 47.609375 11.28125 51.796875 
Q 16.75 56 26.8125 56 
Q 31.78125 56 36.171875 55.265625 
Q 40.578125 54.546875 44.28125 53.078125 
z
" id="DejaVuSans-115"/>
       <path d="M 48.78125 52.59375 
L 48.78125 44.1875 
Q 44.96875 46.296875 41.140625 47.34375 
Q 37.3125 48.390625 33.40625 48.390625 
Q 24.65625 48.390625 19.8125 42.84375 
Q 14.984375 37.3125 14.984375 27.296875 
Q 14.984375 17.28125 19.8125 11.734375 
Q 24.65625 6.203125 33.40625 6.203125 
Q 37.3125 6.203125 41.140625 7.25 
Q 44.96875 8.296875 48.78125 10.40625 
L 48.78125 2.09375 
Q 45.015625 0.34375 40.984375 -0.53125 
Q 36.96875 -1.421875 32.421875 -1.421875 
Q 20.0625 -1.421875 12.78125 6.34375 
Q 5.515625 14.109375 5.515625 27.296875 
Q 5.515625 40.671875 12.859375 48.328125 
Q 20.21875 56 33.015625 56 
Q 37.15625 56 41.109375 55.140625 
Q 45.0625 54.296875 48.78125 52.59375 
z
" id="DejaVuSans-99"/>
      </defs>
      <use xlink:href="#DejaVuSans-65"/>
      <use x="68.408203" xlink:href="#DejaVuSans-85"/>
      <use x="141.601562" xlink:href="#DejaVuSans-80"/>
      <use x="201.904297" xlink:href="#DejaVuSans-82"/>
      <use x="266.386719" xlink:href="#DejaVuSans-67"/>
      <use x="336.210938" xlink:href="#DejaVuSans-32"/>
      <use x="367.998047" xlink:href="#DejaVuSans-115"/>
      <use x="420.097656" xlink:href="#DejaVuSans-99"/>
      <use x="475.078125" xlink:href="#DejaVuSans-111"/>
      <use x="536.259766" xlink:href="#DejaVuSans-114"/>
      <use x="575.123047" xlink:href="#DejaVuSans-101"/>
     </g>
    </g>
   </g>
   <g id="LineCollection_1">
    <path clip-path="url(#p185d4149bd)" d="M 320.094027 599.346317 
L 142.893057 599.346317 
" style="fill:none;stroke:#1f77b4;stroke-width:2;"/>
    <path clip-path="url(#p185d4149bd)" d="M 492.583068 599.346317 
L 365.964016 599.346317 
" style="fill:none;stroke:#1f77b4;stroke-width:2;"/>
    <path clip-path="url(#p185d4149bd)" d="M 665.237704 599.346317 
L 589.282713 599.346317 
" style="fill:none;stroke:#1f77b4;stroke-width:2;"/>
    <path clip-path="url(#p185d4149bd)" d="M 751.482265 599.346317 
L 700.818152 599.346317 
" style="fill:none;stroke:#1f77b4;stroke-width:2;"/>
    <path clip-path="url(#p185d4149bd)" d="M 837.892443 599.346317 
L 812.601307 599.346317 
" style="fill:none;stroke:#1f77b4;stroke-width:2;"/>
    <path clip-path="url(#p185d4149bd)" d="M 880.578244 599.346317 
L 868.082172 599.346317 
" style="fill:none;stroke:#1f77b4;stroke-width:2;"/>
   </g>
   <g id="LineCollection_2">
    <path clip-path="url(#p185d4149bd)" d="M 231.493542 604.63625 
L 231.493542 594.056385 
" style="fill:none;stroke:#1f77b4;stroke-width:2;"/>
    <path clip-path="url(#p185d4149bd)" d="M 429.273542 604.63625 
L 429.273542 594.056385 
" style="fill:none;stroke:#1f77b4;stroke-width:2;"/>
    <path clip-path="url(#p185d4149bd)" d="M 627.260208 604.63625 
L 627.260208 594.056385 
" style="fill:none;stroke:#1f77b4;stroke-width:2;"/>
    <path clip-path="url(#p185d4149bd)" d="M 726.150208 604.63625 
L 726.150208 594.056385 
" style="fill:none;stroke:#1f77b4;stroke-width:2;"/>
    <path clip-path="url(#p185d4149bd)" d="M 825.246875 604.63625 
L 825.246875 594.056385 
" style="fill:none;stroke:#1f77b4;stroke-width:2;"/>
    <path clip-path="url(#p185d4149bd)" d="M 874.330208 604.63625 
L 874.330208 594.056385 
" style="fill:none;stroke:#1f77b4;stroke-width:2;"/>
   </g>
   <g id="LineCollection_3">
    <path clip-path="url(#p185d4149bd)" d="M 320.094027 477.523653 
L 142.893057 477.523653 
" style="fill:none;stroke:#ff7f0e;stroke-width:2;"/>
    <path clip-path="url(#p185d4149bd)" d="M 492.583068 504.917585 
L 365.964016 504.917585 
" style="fill:none;stroke:#ff7f0e;stroke-width:2;"/>
    <path clip-path="url(#p185d4149bd)" d="M 665.237704 537.210571 
L 589.282713 537.210571 
" style="fill:none;stroke:#ff7f0e;stroke-width:2;"/>
    <path clip-path="url(#p185d4149bd)" d="M 751.482265 543.60967 
L 700.818152 543.60967 
" style="fill:none;stroke:#ff7f0e;stroke-width:2;"/>
    <path clip-path="url(#p185d4149bd)" d="M 837.892443 555.476538 
L 812.601307 555.476538 
" style="fill:none;stroke:#ff7f0e;stroke-width:2;"/>
    <path clip-path="url(#p185d4149bd)" d="M 880.578244 558.964843 
L 868.082172 558.964843 
" style="fill:none;stroke:#ff7f0e;stroke-width:2;"/>
   </g>
   <g id="LineCollection_4">
    <path clip-path="url(#p185d4149bd)" d="M 231.493542 546.232972 
L 231.493542 408.814334 
" style="fill:none;stroke:#ff7f0e;stroke-width:2;"/>
    <path clip-path="url(#p185d4149bd)" d="M 429.273542 569.176201 
L 429.273542 440.658969 
" style="fill:none;stroke:#ff7f0e;stroke-width:2;"/>
    <path clip-path="url(#p185d4149bd)" d="M 627.260208 584.367551 
L 627.260208 490.053592 
" style="fill:none;stroke:#ff7f0e;stroke-width:2;"/>
    <path clip-path="url(#p185d4149bd)" d="M 726.150208 586.889164 
L 726.150208 500.330176 
" style="fill:none;stroke:#ff7f0e;stroke-width:2;"/>
    <path clip-path="url(#p185d4149bd)" d="M 825.246875 588.361978 
L 825.246875 522.591098 
" style="fill:none;stroke:#ff7f0e;stroke-width:2;"/>
    <path clip-path="url(#p185d4149bd)" d="M 874.330208 589.792416 
L 874.330208 528.13727 
" style="fill:none;stroke:#ff7f0e;stroke-width:2;"/>
   </g>
   <g id="LineCollection_5">
    <path clip-path="url(#p185d4149bd)" d="M 320.094027 435.338868 
L 142.893057 435.338868 
" style="fill:none;stroke:#2ca02c;stroke-width:2;"/>
    <path clip-path="url(#p185d4149bd)" d="M 492.583068 483.254624 
L 365.964016 483.254624 
" style="fill:none;stroke:#2ca02c;stroke-width:2;"/>
    <path clip-path="url(#p185d4149bd)" d="M 665.237704 549.091335 
L 589.282713 549.091335 
" style="fill:none;stroke:#2ca02c;stroke-width:2;"/>
    <path clip-path="url(#p185d4149bd)" d="M 751.482265 559.42 
L 700.818152 559.42 
" style="fill:none;stroke:#2ca02c;stroke-width:2;"/>
    <path clip-path="url(#p185d4149bd)" d="M 837.892443 575.307687 
L 812.601307 575.307687 
" style="fill:none;stroke:#2ca02c;stroke-width:2;"/>
    <path clip-path="url(#p185d4149bd)" d="M 880.578244 579.542282 
L 868.082172 579.542282 
" style="fill:none;stroke:#2ca02c;stroke-width:2;"/>
   </g>
   <g id="LineCollection_6">
    <path clip-path="url(#p185d4149bd)" d="M 231.493542 463.697522 
L 231.493542 406.980213 
" style="fill:none;stroke:#2ca02c;stroke-width:2;"/>
    <path clip-path="url(#p185d4149bd)" d="M 429.273542 506.708916 
L 429.273542 459.800332 
" style="fill:none;stroke:#2ca02c;stroke-width:2;"/>
    <path clip-path="url(#p185d4149bd)" d="M 627.260208 552.718732 
L 627.260208 545.463938 
" style="fill:none;stroke:#2ca02c;stroke-width:2;"/>
    <path clip-path="url(#p185d4149bd)" d="M 726.150208 570.895646 
L 726.150208 547.944355 
" style="fill:none;stroke:#2ca02c;stroke-width:2;"/>
    <path clip-path="url(#p185d4149bd)" d="M 825.246875 577.848916 
L 825.246875 572.766457 
" style="fill:none;stroke:#2ca02c;stroke-width:2;"/>
    <path clip-path="url(#p185d4149bd)" d="M 874.330208 581.477242 
L 874.330208 577.607322 
" style="fill:none;stroke:#2ca02c;stroke-width:2;"/>
   </g>
   <g id="LineCollection_7">
    <path clip-path="url(#p185d4149bd)" d="M 320.094027 479.675154 
L 142.893057 479.675154 
" style="fill:none;stroke:#d62728;stroke-width:2;"/>
    <path clip-path="url(#p185d4149bd)" d="M 492.583068 502.830378 
L 365.964016 502.830378 
" style="fill:none;stroke:#d62728;stroke-width:2;"/>
    <path clip-path="url(#p185d4149bd)" d="M 665.237704 542.28317 
L 589.282713 542.28317 
" style="fill:none;stroke:#d62728;stroke-width:2;"/>
    <path clip-path="url(#p185d4149bd)" d="M 751.482265 550.305245 
L 700.818152 550.305245 
" style="fill:none;stroke:#d62728;stroke-width:2;"/>
    <path clip-path="url(#p185d4149bd)" d="M 837.892443 557.706399 
L 812.601307 557.706399 
" style="fill:none;stroke:#d62728;stroke-width:2;"/>
    <path clip-path="url(#p185d4149bd)" d="M 880.578244 562.350269 
L 868.082172 562.350269 
" style="fill:none;stroke:#d62728;stroke-width:2;"/>
   </g>
   <g id="LineCollection_8">
    <path clip-path="url(#p185d4149bd)" d="M 231.493542 532.389308 
L 231.493542 426.961001 
" style="fill:none;stroke:#d62728;stroke-width:2;"/>
    <path clip-path="url(#p185d4149bd)" d="M 429.273542 544.004744 
L 429.273542 461.656011 
" style="fill:none;stroke:#d62728;stroke-width:2;"/>
    <path clip-path="url(#p185d4149bd)" d="M 627.260208 572.786877 
L 627.260208 511.779464 
" style="fill:none;stroke:#d62728;stroke-width:2;"/>
    <path clip-path="url(#p185d4149bd)" d="M 726.150208 578.518004 
L 726.150208 522.092487 
" style="fill:none;stroke:#d62728;stroke-width:2;"/>
    <path clip-path="url(#p185d4149bd)" d="M 825.246875 569.624537 
L 825.246875 545.788261 
" style="fill:none;stroke:#d62728;stroke-width:2;"/>
    <path clip-path="url(#p185d4149bd)" d="M 874.330208 571.809201 
L 874.330208 552.891338 
" style="fill:none;stroke:#d62728;stroke-width:2;"/>
   </g>
   <g id="LineCollection_9">
    <path clip-path="url(#p185d4149bd)" d="M 320.094027 226.071394 
L 142.893057 226.071394 
" style="fill:none;stroke:#9467bd;stroke-width:2;"/>
    <path clip-path="url(#p185d4149bd)" d="M 492.583068 322.207302 
L 365.964016 322.207302 
" style="fill:none;stroke:#9467bd;stroke-width:2;"/>
    <path clip-path="url(#p185d4149bd)" d="M 665.237704 409.308552 
L 589.282713 409.308552 
" style="fill:none;stroke:#9467bd;stroke-width:2;"/>
    <path clip-path="url(#p185d4149bd)" d="M 751.482265 439.871718 
L 700.818152 439.871718 
" style="fill:none;stroke:#9467bd;stroke-width:2;"/>
    <path clip-path="url(#p185d4149bd)" d="M 837.892443 474.41569 
L 812.601307 474.41569 
" style="fill:none;stroke:#9467bd;stroke-width:2;"/>
    <path clip-path="url(#p185d4149bd)" d="M 880.578244 488.565308 
L 868.082172 488.565308 
" style="fill:none;stroke:#9467bd;stroke-width:2;"/>
   </g>
   <g id="LineCollection_10">
    <path clip-path="url(#p185d4149bd)" d="M 231.493542 351.506537 
L 231.493542 100.63625 
" style="fill:none;stroke:#9467bd;stroke-width:2;"/>
    <path clip-path="url(#p185d4149bd)" d="M 429.273542 395.421476 
L 429.273542 248.993128 
" style="fill:none;stroke:#9467bd;stroke-width:2;"/>
    <path clip-path="url(#p185d4149bd)" d="M 627.260208 462.694366 
L 627.260208 355.922738 
" style="fill:none;stroke:#9467bd;stroke-width:2;"/>
    <path clip-path="url(#p185d4149bd)" d="M 726.150208 487.690573 
L 726.150208 392.052863 
" style="fill:none;stroke:#9467bd;stroke-width:2;"/>
    <path clip-path="url(#p185d4149bd)" d="M 825.246875 514.569626 
L 825.246875 434.261755 
" style="fill:none;stroke:#9467bd;stroke-width:2;"/>
    <path clip-path="url(#p185d4149bd)" d="M 874.330208 516.344058 
L 874.330208 460.786558 
" style="fill:none;stroke:#9467bd;stroke-width:2;"/>
   </g>
   <g id="LineCollection_11">
    <path clip-path="url(#p185d4149bd)" d="M 320.094027 447.007756 
L 142.893057 447.007756 
" style="fill:none;stroke:#bcbd22;stroke-width:2;"/>
    <path clip-path="url(#p185d4149bd)" d="M 492.583068 478.284388 
L 365.964016 478.284388 
" style="fill:none;stroke:#bcbd22;stroke-width:2;"/>
    <path clip-path="url(#p185d4149bd)" d="M 665.237704 534.827751 
L 589.282713 534.827751 
" style="fill:none;stroke:#bcbd22;stroke-width:2;"/>
    <path clip-path="url(#p185d4149bd)" d="M 751.482265 546.712447 
L 700.818152 546.712447 
" style="fill:none;stroke:#bcbd22;stroke-width:2;"/>
    <path clip-path="url(#p185d4149bd)" d="M 837.892443 567.759188 
L 812.601307 567.759188 
" style="fill:none;stroke:#bcbd22;stroke-width:2;"/>
    <path clip-path="url(#p185d4149bd)" d="M 880.578244 567.936291 
L 868.082172 567.936291 
" style="fill:none;stroke:#bcbd22;stroke-width:2;"/>
   </g>
   <g id="LineCollection_12">
    <path clip-path="url(#p185d4149bd)" d="M 231.493542 564.094021 
L 231.493542 329.921491 
" style="fill:none;stroke:#bcbd22;stroke-width:2;"/>
    <path clip-path="url(#p185d4149bd)" d="M 429.273542 581.899832 
L 429.273542 374.668944 
" style="fill:none;stroke:#bcbd22;stroke-width:2;"/>
    <path clip-path="url(#p185d4149bd)" d="M 627.260208 593.335711 
L 627.260208 476.319791 
" style="fill:none;stroke:#bcbd22;stroke-width:2;"/>
    <path clip-path="url(#p185d4149bd)" d="M 726.150208 598.283371 
L 726.150208 495.141523 
" style="fill:none;stroke:#bcbd22;stroke-width:2;"/>
    <path clip-path="url(#p185d4149bd)" d="M 825.246875 594.620082 
L 825.246875 540.898295 
" style="fill:none;stroke:#bcbd22;stroke-width:2;"/>
    <path clip-path="url(#p185d4149bd)" d="M 874.330208 597.169919 
L 874.330208 538.702664 
" style="fill:none;stroke:#bcbd22;stroke-width:2;"/>
   </g>
   <g id="LineCollection_13">
    <path clip-path="url(#p185d4149bd)" d="M 320.094027 592.235063 
L 142.893057 592.235063 
" style="fill:none;stroke:#e377c2;stroke-width:2;"/>
    <path clip-path="url(#p185d4149bd)" d="M 492.583068 593.001199 
L 365.964016 593.001199 
" style="fill:none;stroke:#e377c2;stroke-width:2;"/>
    <path clip-path="url(#p185d4149bd)" d="M 665.237704 593.639239 
L 589.282713 593.639239 
" style="fill:none;stroke:#e377c2;stroke-width:2;"/>
    <path clip-path="url(#p185d4149bd)" d="M 751.482265 593.564816 
L 700.818152 593.564816 
" style="fill:none;stroke:#e377c2;stroke-width:2;"/>
    <path clip-path="url(#p185d4149bd)" d="M 837.892443 594.417705 
L 812.601307 594.417705 
" style="fill:none;stroke:#e377c2;stroke-width:2;"/>
    <path clip-path="url(#p185d4149bd)" d="M 880.578244 595.271342 
L 868.082172 595.271342 
" style="fill:none;stroke:#e377c2;stroke-width:2;"/>
   </g>
   <g id="LineCollection_14">
    <path clip-path="url(#p185d4149bd)" d="M 231.493542 597.347152 
L 231.493542 587.122973 
" style="fill:none;stroke:#e377c2;stroke-width:2;"/>
    <path clip-path="url(#p185d4149bd)" d="M 429.273542 598.16648 
L 429.273542 587.835919 
" style="fill:none;stroke:#e377c2;stroke-width:2;"/>
    <path clip-path="url(#p185d4149bd)" d="M 627.260208 599.136347 
L 627.260208 588.14213 
" style="fill:none;stroke:#e377c2;stroke-width:2;"/>
    <path clip-path="url(#p185d4149bd)" d="M 726.150208 599.09521 
L 726.150208 588.034422 
" style="fill:none;stroke:#e377c2;stroke-width:2;"/>
    <path clip-path="url(#p185d4149bd)" d="M 825.246875 599.689681 
L 825.246875 589.145728 
" style="fill:none;stroke:#e377c2;stroke-width:2;"/>
    <path clip-path="url(#p185d4149bd)" d="M 874.330208 600.180609 
L 874.330208 590.362074 
" style="fill:none;stroke:#e377c2;stroke-width:2;"/>
   </g>
   <g id="line2d_69">
    <path clip-path="url(#p185d4149bd)" d="M 231.493542 599.346317 
L 429.273542 599.346317 
L 627.260208 599.346317 
L 726.150208 599.346317 
L 825.246875 599.346317 
L 874.330208 599.346317 
" style="fill:none;stroke:#1f77b4;stroke-linecap:square;stroke-width:2;"/>
    <defs>
     <path d="M -7.5 7.5 
L 7.5 7.5 
L 7.5 -7.5 
L -7.5 -7.5 
z
" id="m92ea749aff" style="stroke:#1f77b4;stroke-linejoin:miter;"/>
    </defs>
    <g clip-path="url(#p185d4149bd)">
     <use style="fill:#1f77b4;stroke:#1f77b4;stroke-linejoin:miter;" x="231.493542" xlink:href="#m92ea749aff" y="599.346317"/>
     <use style="fill:#1f77b4;stroke:#1f77b4;stroke-linejoin:miter;" x="429.273542" xlink:href="#m92ea749aff" y="599.346317"/>
     <use style="fill:#1f77b4;stroke:#1f77b4;stroke-linejoin:miter;" x="627.260208" xlink:href="#m92ea749aff" y="599.346317"/>
     <use style="fill:#1f77b4;stroke:#1f77b4;stroke-linejoin:miter;" x="726.150208" xlink:href="#m92ea749aff" y="599.346317"/>
     <use style="fill:#1f77b4;stroke:#1f77b4;stroke-linejoin:miter;" x="825.246875" xlink:href="#m92ea749aff" y="599.346317"/>
     <use style="fill:#1f77b4;stroke:#1f77b4;stroke-linejoin:miter;" x="874.330208" xlink:href="#m92ea749aff" y="599.346317"/>
    </g>
   </g>
   <g id="line2d_70">
    <path clip-path="url(#p185d4149bd)" d="M 231.493542 477.523653 
L 429.273542 504.917585 
L 627.260208 537.210571 
L 726.150208 543.60967 
L 825.246875 555.476538 
L 874.330208 558.964843 
" style="fill:none;stroke:#ff7f0e;stroke-linecap:square;stroke-width:2;"/>
    <defs>
     <path d="M -7.5 7.5 
L 7.5 7.5 
L 7.5 -7.5 
L -7.5 -7.5 
z
" id="m609ae5b90c" style="stroke:#ff7f0e;stroke-linejoin:miter;"/>
    </defs>
    <g clip-path="url(#p185d4149bd)">
     <use style="fill:#ff7f0e;stroke:#ff7f0e;stroke-linejoin:miter;" x="231.493542" xlink:href="#m609ae5b90c" y="477.523653"/>
     <use style="fill:#ff7f0e;stroke:#ff7f0e;stroke-linejoin:miter;" x="429.273542" xlink:href="#m609ae5b90c" y="504.917585"/>
     <use style="fill:#ff7f0e;stroke:#ff7f0e;stroke-linejoin:miter;" x="627.260208" xlink:href="#m609ae5b90c" y="537.210571"/>
     <use style="fill:#ff7f0e;stroke:#ff7f0e;stroke-linejoin:miter;" x="726.150208" xlink:href="#m609ae5b90c" y="543.60967"/>
     <use style="fill:#ff7f0e;stroke:#ff7f0e;stroke-linejoin:miter;" x="825.246875" xlink:href="#m609ae5b90c" y="555.476538"/>
     <use style="fill:#ff7f0e;stroke:#ff7f0e;stroke-linejoin:miter;" x="874.330208" xlink:href="#m609ae5b90c" y="558.964843"/>
    </g>
   </g>
   <g id="line2d_71">
    <path clip-path="url(#p185d4149bd)" d="M 231.493542 435.338868 
L 429.273542 483.254624 
L 627.260208 549.091335 
L 726.150208 559.42 
L 825.246875 575.307687 
L 874.330208 579.542282 
" style="fill:none;stroke:#2ca02c;stroke-linecap:square;stroke-width:2;"/>
    <defs>
     <path d="M -7.5 7.5 
L 7.5 7.5 
L 7.5 -7.5 
L -7.5 -7.5 
z
" id="m3e914d0679" style="stroke:#2ca02c;stroke-linejoin:miter;"/>
    </defs>
    <g clip-path="url(#p185d4149bd)">
     <use style="fill:#2ca02c;stroke:#2ca02c;stroke-linejoin:miter;" x="231.493542" xlink:href="#m3e914d0679" y="435.338868"/>
     <use style="fill:#2ca02c;stroke:#2ca02c;stroke-linejoin:miter;" x="429.273542" xlink:href="#m3e914d0679" y="483.254624"/>
     <use style="fill:#2ca02c;stroke:#2ca02c;stroke-linejoin:miter;" x="627.260208" xlink:href="#m3e914d0679" y="549.091335"/>
     <use style="fill:#2ca02c;stroke:#2ca02c;stroke-linejoin:miter;" x="726.150208" xlink:href="#m3e914d0679" y="559.42"/>
     <use style="fill:#2ca02c;stroke:#2ca02c;stroke-linejoin:miter;" x="825.246875" xlink:href="#m3e914d0679" y="575.307687"/>
     <use style="fill:#2ca02c;stroke:#2ca02c;stroke-linejoin:miter;" x="874.330208" xlink:href="#m3e914d0679" y="579.542282"/>
    </g>
   </g>
   <g id="line2d_72">
    <path clip-path="url(#p185d4149bd)" d="M 231.493542 479.675154 
L 429.273542 502.830378 
L 627.260208 542.28317 
L 726.150208 550.305245 
L 825.246875 557.706399 
L 874.330208 562.350269 
" style="fill:none;stroke:#d62728;stroke-linecap:square;stroke-width:2;"/>
    <defs>
     <path d="M -7.5 7.5 
L 7.5 7.5 
L 7.5 -7.5 
L -7.5 -7.5 
z
" id="mf44970b0af" style="stroke:#d62728;stroke-linejoin:miter;"/>
    </defs>
    <g clip-path="url(#p185d4149bd)">
     <use style="fill:#d62728;stroke:#d62728;stroke-linejoin:miter;" x="231.493542" xlink:href="#mf44970b0af" y="479.675154"/>
     <use style="fill:#d62728;stroke:#d62728;stroke-linejoin:miter;" x="429.273542" xlink:href="#mf44970b0af" y="502.830378"/>
     <use style="fill:#d62728;stroke:#d62728;stroke-linejoin:miter;" x="627.260208" xlink:href="#mf44970b0af" y="542.28317"/>
     <use style="fill:#d62728;stroke:#d62728;stroke-linejoin:miter;" x="726.150208" xlink:href="#mf44970b0af" y="550.305245"/>
     <use style="fill:#d62728;stroke:#d62728;stroke-linejoin:miter;" x="825.246875" xlink:href="#mf44970b0af" y="557.706399"/>
     <use style="fill:#d62728;stroke:#d62728;stroke-linejoin:miter;" x="874.330208" xlink:href="#mf44970b0af" y="562.350269"/>
    </g>
   </g>
   <g id="line2d_73">
    <path clip-path="url(#p185d4149bd)" d="M 231.493542 226.071394 
L 429.273542 322.207302 
L 627.260208 409.308552 
L 726.150208 439.871718 
L 825.246875 474.41569 
L 874.330208 488.565308 
" style="fill:none;stroke:#9467bd;stroke-linecap:square;stroke-width:2;"/>
    <defs>
     <path d="M -7.5 7.5 
L 7.5 7.5 
L 7.5 -7.5 
L -7.5 -7.5 
z
" id="m089fb899a9" style="stroke:#9467bd;stroke-linejoin:miter;"/>
    </defs>
    <g clip-path="url(#p185d4149bd)">
     <use style="fill:#9467bd;stroke:#9467bd;stroke-linejoin:miter;" x="231.493542" xlink:href="#m089fb899a9" y="226.071394"/>
     <use style="fill:#9467bd;stroke:#9467bd;stroke-linejoin:miter;" x="429.273542" xlink:href="#m089fb899a9" y="322.207302"/>
     <use style="fill:#9467bd;stroke:#9467bd;stroke-linejoin:miter;" x="627.260208" xlink:href="#m089fb899a9" y="409.308552"/>
     <use style="fill:#9467bd;stroke:#9467bd;stroke-linejoin:miter;" x="726.150208" xlink:href="#m089fb899a9" y="439.871718"/>
     <use style="fill:#9467bd;stroke:#9467bd;stroke-linejoin:miter;" x="825.246875" xlink:href="#m089fb899a9" y="474.41569"/>
     <use style="fill:#9467bd;stroke:#9467bd;stroke-linejoin:miter;" x="874.330208" xlink:href="#m089fb899a9" y="488.565308"/>
    </g>
   </g>
   <g id="line2d_74">
    <path clip-path="url(#p185d4149bd)" d="M 231.493542 447.007756 
L 429.273542 478.284388 
L 627.260208 534.827751 
L 726.150208 546.712447 
L 825.246875 567.759188 
L 874.330208 567.936291 
" style="fill:none;stroke:#bcbd22;stroke-linecap:square;stroke-width:2;"/>
    <defs>
     <path d="M -7.5 7.5 
L 7.5 7.5 
L 7.5 -7.5 
L -7.5 -7.5 
z
" id="md88135d146" style="stroke:#bcbd22;stroke-linejoin:miter;"/>
    </defs>
    <g clip-path="url(#p185d4149bd)">
     <use style="fill:#bcbd22;stroke:#bcbd22;stroke-linejoin:miter;" x="231.493542" xlink:href="#md88135d146" y="447.007756"/>
     <use style="fill:#bcbd22;stroke:#bcbd22;stroke-linejoin:miter;" x="429.273542" xlink:href="#md88135d146" y="478.284388"/>
     <use style="fill:#bcbd22;stroke:#bcbd22;stroke-linejoin:miter;" x="627.260208" xlink:href="#md88135d146" y="534.827751"/>
     <use style="fill:#bcbd22;stroke:#bcbd22;stroke-linejoin:miter;" x="726.150208" xlink:href="#md88135d146" y="546.712447"/>
     <use style="fill:#bcbd22;stroke:#bcbd22;stroke-linejoin:miter;" x="825.246875" xlink:href="#md88135d146" y="567.759188"/>
     <use style="fill:#bcbd22;stroke:#bcbd22;stroke-linejoin:miter;" x="874.330208" xlink:href="#md88135d146" y="567.936291"/>
    </g>
   </g>
   <g id="line2d_75">
    <path clip-path="url(#p185d4149bd)" d="M 231.493542 592.235063 
L 429.273542 593.001199 
L 627.260208 593.639239 
L 726.150208 593.564816 
L 825.246875 594.417705 
L 874.330208 595.271342 
" style="fill:none;stroke:#e377c2;stroke-linecap:square;stroke-width:2;"/>
    <defs>
     <path d="M -7.5 7.5 
L 7.5 7.5 
L 7.5 -7.5 
L -7.5 -7.5 
z
" id="mb09261f017" style="stroke:#e377c2;stroke-linejoin:miter;"/>
    </defs>
    <g clip-path="url(#p185d4149bd)">
     <use style="fill:#e377c2;stroke:#e377c2;stroke-linejoin:miter;" x="231.493542" xlink:href="#mb09261f017" y="592.235063"/>
     <use style="fill:#e377c2;stroke:#e377c2;stroke-linejoin:miter;" x="429.273542" xlink:href="#mb09261f017" y="593.001199"/>
     <use style="fill:#e377c2;stroke:#e377c2;stroke-linejoin:miter;" x="627.260208" xlink:href="#mb09261f017" y="593.639239"/>
     <use style="fill:#e377c2;stroke:#e377c2;stroke-linejoin:miter;" x="726.150208" xlink:href="#mb09261f017" y="593.564816"/>
     <use style="fill:#e377c2;stroke:#e377c2;stroke-linejoin:miter;" x="825.246875" xlink:href="#mb09261f017" y="594.417705"/>
     <use style="fill:#e377c2;stroke:#e377c2;stroke-linejoin:miter;" x="874.330208" xlink:href="#mb09261f017" y="595.271342"/>
    </g>
   </g>
   <g id="patch_3">
    <path d="M 87.136875 629.83625 
L 87.136875 75.43625 
" style="fill:none;stroke:#000000;stroke-linecap:square;stroke-linejoin:miter;stroke-width:0.8;"/>
   </g>
   <g id="patch_4">
    <path d="M 924.136875 629.83625 
L 924.136875 75.43625 
" style="fill:none;stroke:#000000;stroke-linecap:square;stroke-linejoin:miter;stroke-width:0.8;"/>
   </g>
   <g id="patch_5">
    <path d="M 87.136875 629.83625 
L 924.136875 629.83625 
" style="fill:none;stroke:#000000;stroke-linecap:square;stroke-linejoin:miter;stroke-width:0.8;"/>
   </g>
   <g id="patch_6">
    <path d="M 87.136875 75.43625 
L 924.136875 75.43625 
" style="fill:none;stroke:#000000;stroke-linecap:square;stroke-linejoin:miter;stroke-width:0.8;"/>
   </g>
   <g id="text_15">
    <!-- AUPRC score for INDEL calling in chrall with ref inundilutedsamplebyatleast3callers -->
    <g transform="translate(7.2 25.43625)scale(0.24 -0.24)">
     <defs>
      <path d="M 37.109375 75.984375 
L 37.109375 68.5 
L 28.515625 68.5 
Q 23.6875 68.5 21.796875 66.546875 
Q 19.921875 64.59375 19.921875 59.515625 
L 19.921875 54.6875 
L 34.71875 54.6875 
L 34.71875 47.703125 
L 19.921875 47.703125 
L 19.921875 0 
L 10.890625 0 
L 10.890625 47.703125 
L 2.296875 47.703125 
L 2.296875 54.6875 
L 10.890625 54.6875 
L 10.890625 58.5 
Q 10.890625 67.625 15.140625 71.796875 
Q 19.390625 75.984375 28.609375 75.984375 
z
" id="DejaVuSans-102"/>
      <path d="M 9.8125 72.90625 
L 19.671875 72.90625 
L 19.671875 0 
L 9.8125 0 
z
" id="DejaVuSans-73"/>
      <path d="M 9.8125 72.90625 
L 23.09375 72.90625 
L 55.421875 11.921875 
L 55.421875 72.90625 
L 64.984375 72.90625 
L 64.984375 0 
L 51.703125 0 
L 19.390625 60.984375 
L 19.390625 0 
L 9.8125 0 
z
" id="DejaVuSans-78"/>
      <path d="M 19.671875 64.796875 
L 19.671875 8.109375 
L 31.59375 8.109375 
Q 46.6875 8.109375 53.6875 14.9375 
Q 60.6875 21.78125 60.6875 36.53125 
Q 60.6875 51.171875 53.6875 57.984375 
Q 46.6875 64.796875 31.59375 64.796875 
z
M 9.8125 72.90625 
L 30.078125 72.90625 
Q 51.265625 72.90625 61.171875 64.09375 
Q 71.09375 55.28125 71.09375 36.53125 
Q 71.09375 17.671875 61.125 8.828125 
Q 51.171875 0 30.078125 0 
L 9.8125 0 
z
" id="DejaVuSans-68"/>
      <path d="M 9.8125 72.90625 
L 55.90625 72.90625 
L 55.90625 64.59375 
L 19.671875 64.59375 
L 19.671875 43.015625 
L 54.390625 43.015625 
L 54.390625 34.71875 
L 19.671875 34.71875 
L 19.671875 8.296875 
L 56.78125 8.296875 
L 56.78125 0 
L 9.8125 0 
z
" id="DejaVuSans-69"/>
      <path d="M 9.8125 72.90625 
L 19.671875 72.90625 
L 19.671875 8.296875 
L 55.171875 8.296875 
L 55.171875 0 
L 9.8125 0 
z
" id="DejaVuSans-76"/>
      <path d="M 34.28125 27.484375 
Q 23.390625 27.484375 19.1875 25 
Q 14.984375 22.515625 14.984375 16.5 
Q 14.984375 11.71875 18.140625 8.90625 
Q 21.296875 6.109375 26.703125 6.109375 
Q 34.1875 6.109375 38.703125 11.40625 
Q 43.21875 16.703125 43.21875 25.484375 
L 43.21875 27.484375 
z
M 52.203125 31.203125 
L 52.203125 0 
L 43.21875 0 
L 43.21875 8.296875 
Q 40.140625 3.328125 35.546875 0.953125 
Q 30.953125 -1.421875 24.3125 -1.421875 
Q 15.921875 -1.421875 10.953125 3.296875 
Q 6 8.015625 6 15.921875 
Q 6 25.140625 12.171875 29.828125 
Q 18.359375 34.515625 30.609375 34.515625 
L 43.21875 34.515625 
L 43.21875 35.40625 
Q 43.21875 41.609375 39.140625 45 
Q 35.0625 48.390625 27.6875 48.390625 
Q 23 48.390625 18.546875 47.265625 
Q 14.109375 46.140625 10.015625 43.890625 
L 10.015625 52.203125 
Q 14.9375 54.109375 19.578125 55.046875 
Q 24.21875 56 28.609375 56 
Q 40.484375 56 46.34375 49.84375 
Q 52.203125 43.703125 52.203125 31.203125 
z
" id="DejaVuSans-97"/>
      <path d="M 9.421875 75.984375 
L 18.40625 75.984375 
L 18.40625 0 
L 9.421875 0 
z
" id="DejaVuSans-108"/>
      <path d="M 9.421875 54.6875 
L 18.40625 54.6875 
L 18.40625 0 
L 9.421875 0 
z
M 9.421875 75.984375 
L 18.40625 75.984375 
L 18.40625 64.59375 
L 9.421875 64.59375 
z
" id="DejaVuSans-105"/>
      <path d="M 45.40625 27.984375 
Q 45.40625 37.75 41.375 43.109375 
Q 37.359375 48.484375 30.078125 48.484375 
Q 22.859375 48.484375 18.828125 43.109375 
Q 14.796875 37.75 14.796875 27.984375 
Q 14.796875 18.265625 18.828125 12.890625 
Q 22.859375 7.515625 30.078125 7.515625 
Q 37.359375 7.515625 41.375 12.890625 
Q 45.40625 18.265625 45.40625 27.984375 
z
M 54.390625 6.78125 
Q 54.390625 -7.171875 48.1875 -13.984375 
Q 42 -20.796875 29.203125 -20.796875 
Q 24.46875 -20.796875 20.265625 -20.09375 
Q 16.0625 -19.390625 12.109375 -17.921875 
L 12.109375 -9.1875 
Q 16.0625 -11.328125 19.921875 -12.34375 
Q 23.78125 -13.375 27.78125 -13.375 
Q 36.625 -13.375 41.015625 -8.765625 
Q 45.40625 -4.15625 45.40625 5.171875 
L 45.40625 9.625 
Q 42.625 4.78125 38.28125 2.390625 
Q 33.9375 0 27.875 0 
Q 17.828125 0 11.671875 7.65625 
Q 5.515625 15.328125 5.515625 27.984375 
Q 5.515625 40.671875 11.671875 48.328125 
Q 17.828125 56 27.875 56 
Q 33.9375 56 38.28125 53.609375 
Q 42.625 51.21875 45.40625 46.390625 
L 45.40625 54.6875 
L 54.390625 54.6875 
z
" id="DejaVuSans-103"/>
      <path d="M 54.890625 33.015625 
L 54.890625 0 
L 45.90625 0 
L 45.90625 32.71875 
Q 45.90625 40.484375 42.875 44.328125 
Q 39.84375 48.1875 33.796875 48.1875 
Q 26.515625 48.1875 22.3125 43.546875 
Q 18.109375 38.921875 18.109375 30.90625 
L 18.109375 0 
L 9.078125 0 
L 9.078125 75.984375 
L 18.109375 75.984375 
L 18.109375 46.1875 
Q 21.34375 51.125 25.703125 53.5625 
Q 30.078125 56 35.796875 56 
Q 45.21875 56 50.046875 50.171875 
Q 54.890625 44.34375 54.890625 33.015625 
z
" id="DejaVuSans-104"/>
      <path d="M 4.203125 54.6875 
L 13.1875 54.6875 
L 24.421875 12.015625 
L 35.59375 54.6875 
L 46.1875 54.6875 
L 57.421875 12.015625 
L 68.609375 54.6875 
L 77.59375 54.6875 
L 63.28125 0 
L 52.6875 0 
L 40.921875 44.828125 
L 29.109375 0 
L 18.5 0 
z
" id="DejaVuSans-119"/>
      <path d="M 18.109375 8.203125 
L 18.109375 -20.796875 
L 9.078125 -20.796875 
L 9.078125 54.6875 
L 18.109375 54.6875 
L 18.109375 46.390625 
Q 20.953125 51.265625 25.265625 53.625 
Q 29.59375 56 35.59375 56 
Q 45.5625 56 51.78125 48.09375 
Q 58.015625 40.1875 58.015625 27.296875 
Q 58.015625 14.40625 51.78125 6.484375 
Q 45.5625 -1.421875 35.59375 -1.421875 
Q 29.59375 -1.421875 25.265625 0.953125 
Q 20.953125 3.328125 18.109375 8.203125 
z
M 48.6875 27.296875 
Q 48.6875 37.203125 44.609375 42.84375 
Q 40.53125 48.484375 33.40625 48.484375 
Q 26.265625 48.484375 22.1875 42.84375 
Q 18.109375 37.203125 18.109375 27.296875 
Q 18.109375 17.390625 22.1875 11.75 
Q 26.265625 6.109375 33.40625 6.109375 
Q 40.53125 6.109375 44.609375 11.75 
Q 48.6875 17.390625 48.6875 27.296875 
z
" id="DejaVuSans-112"/>
      <path d="M 32.171875 -5.078125 
Q 28.375 -14.84375 24.75 -17.8125 
Q 21.140625 -20.796875 15.09375 -20.796875 
L 7.90625 -20.796875 
L 7.90625 -13.28125 
L 13.1875 -13.28125 
Q 16.890625 -13.28125 18.9375 -11.515625 
Q 21 -9.765625 23.484375 -3.21875 
L 25.09375 0.875 
L 2.984375 54.6875 
L 12.5 54.6875 
L 29.59375 11.921875 
L 46.6875 54.6875 
L 56.203125 54.6875 
z
" id="DejaVuSans-121"/>
      <path d="M 40.578125 39.3125 
Q 47.65625 37.796875 51.625 33 
Q 55.609375 28.21875 55.609375 21.1875 
Q 55.609375 10.40625 48.1875 4.484375 
Q 40.765625 -1.421875 27.09375 -1.421875 
Q 22.515625 -1.421875 17.65625 -0.515625 
Q 12.796875 0.390625 7.625 2.203125 
L 7.625 11.71875 
Q 11.71875 9.328125 16.59375 8.109375 
Q 21.484375 6.890625 26.8125 6.890625 
Q 36.078125 6.890625 40.9375 10.546875 
Q 45.796875 14.203125 45.796875 21.1875 
Q 45.796875 27.640625 41.28125 31.265625 
Q 36.765625 34.90625 28.71875 34.90625 
L 20.21875 34.90625 
L 20.21875 43.015625 
L 29.109375 43.015625 
Q 36.375 43.015625 40.234375 45.921875 
Q 44.09375 48.828125 44.09375 54.296875 
Q 44.09375 59.90625 40.109375 62.90625 
Q 36.140625 65.921875 28.71875 65.921875 
Q 24.65625 65.921875 20.015625 65.03125 
Q 15.375 64.15625 9.8125 62.3125 
L 9.8125 71.09375 
Q 15.4375 72.65625 20.34375 73.4375 
Q 25.25 74.21875 29.59375 74.21875 
Q 40.828125 74.21875 47.359375 69.109375 
Q 53.90625 64.015625 53.90625 55.328125 
Q 53.90625 49.265625 50.4375 45.09375 
Q 46.96875 40.921875 40.578125 39.3125 
z
" id="DejaVuSans-51"/>
     </defs>
     <use xlink:href="#DejaVuSans-65"/>
     <use x="68.408203" xlink:href="#DejaVuSans-85"/>
     <use x="141.601562" xlink:href="#DejaVuSans-80"/>
     <use x="201.904297" xlink:href="#DejaVuSans-82"/>
     <use x="266.386719" xlink:href="#DejaVuSans-67"/>
     <use x="336.210938" xlink:href="#DejaVuSans-32"/>
     <use x="367.998047" xlink:href="#DejaVuSans-115"/>
     <use x="420.097656" xlink:href="#DejaVuSans-99"/>
     <use x="475.078125" xlink:href="#DejaVuSans-111"/>
     <use x="536.259766" xlink:href="#DejaVuSans-114"/>
     <use x="575.123047" xlink:href="#DejaVuSans-101"/>
     <use x="636.646484" xlink:href="#DejaVuSans-32"/>
     <use x="668.433594" xlink:href="#DejaVuSans-102"/>
     <use x="703.638672" xlink:href="#DejaVuSans-111"/>
     <use x="764.820312" xlink:href="#DejaVuSans-114"/>
     <use x="805.933594" xlink:href="#DejaVuSans-32"/>
     <use x="837.720703" xlink:href="#DejaVuSans-73"/>
     <use x="867.212891" xlink:href="#DejaVuSans-78"/>
     <use x="942.017578" xlink:href="#DejaVuSans-68"/>
     <use x="1019.019531" xlink:href="#DejaVuSans-69"/>
     <use x="1082.203125" xlink:href="#DejaVuSans-76"/>
     <use x="1137.916016" xlink:href="#DejaVuSans-32"/>
     <use x="1169.703125" xlink:href="#DejaVuSans-99"/>
     <use x="1224.683594" xlink:href="#DejaVuSans-97"/>
     <use x="1285.962891" xlink:href="#DejaVuSans-108"/>
     <use x="1313.746094" xlink:href="#DejaVuSans-108"/>
     <use x="1341.529297" xlink:href="#DejaVuSans-105"/>
     <use x="1369.3125" xlink:href="#DejaVuSans-110"/>
     <use x="1432.691406" xlink:href="#DejaVuSans-103"/>
     <use x="1496.167969" xlink:href="#DejaVuSans-32"/>
     <use x="1527.955078" xlink:href="#DejaVuSans-105"/>
     <use x="1555.738281" xlink:href="#DejaVuSans-110"/>
     <use x="1619.117188" xlink:href="#DejaVuSans-32"/>
     <use x="1650.904297" xlink:href="#DejaVuSans-99"/>
     <use x="1705.884766" xlink:href="#DejaVuSans-104"/>
     <use x="1769.263672" xlink:href="#DejaVuSans-114"/>
     <use x="1810.376953" xlink:href="#DejaVuSans-97"/>
     <use x="1871.65625" xlink:href="#DejaVuSans-108"/>
     <use x="1899.439453" xlink:href="#DejaVuSans-108"/>
     <use x="1927.222656" xlink:href="#DejaVuSans-32"/>
     <use x="1959.009766" xlink:href="#DejaVuSans-119"/>
     <use x="2040.796875" xlink:href="#DejaVuSans-105"/>
     <use x="2068.580078" xlink:href="#DejaVuSans-116"/>
     <use x="2107.789062" xlink:href="#DejaVuSans-104"/>
     <use x="2171.167969" xlink:href="#DejaVuSans-32"/>
     <use x="2202.955078" xlink:href="#DejaVuSans-114"/>
     <use x="2241.818359" xlink:href="#DejaVuSans-101"/>
     <use x="2303.341797" xlink:href="#DejaVuSans-102"/>
     <use x="2338.546875" xlink:href="#DejaVuSans-32"/>
     <use x="2370.333984" xlink:href="#DejaVuSans-105"/>
     <use x="2398.117188" xlink:href="#DejaVuSans-110"/>
     <use x="2461.496094" xlink:href="#DejaVuSans-117"/>
     <use x="2524.875" xlink:href="#DejaVuSans-110"/>
     <use x="2588.253906" xlink:href="#DejaVuSans-100"/>
     <use x="2651.730469" xlink:href="#DejaVuSans-105"/>
     <use x="2679.513672" xlink:href="#DejaVuSans-108"/>
     <use x="2707.296875" xlink:href="#DejaVuSans-117"/>
     <use x="2770.675781" xlink:href="#DejaVuSans-116"/>
     <use x="2809.884766" xlink:href="#DejaVuSans-101"/>
     <use x="2871.408203" xlink:href="#DejaVuSans-100"/>
     <use x="2934.884766" xlink:href="#DejaVuSans-115"/>
     <use x="2986.984375" xlink:href="#DejaVuSans-97"/>
     <use x="3048.263672" xlink:href="#DejaVuSans-109"/>
     <use x="3145.675781" xlink:href="#DejaVuSans-112"/>
     <use x="3209.152344" xlink:href="#DejaVuSans-108"/>
     <use x="3236.935547" xlink:href="#DejaVuSans-101"/>
     <use x="3298.458984" xlink:href="#DejaVuSans-98"/>
     <use x="3361.935547" xlink:href="#DejaVuSans-121"/>
     <use x="3421.115234" xlink:href="#DejaVuSans-97"/>
     <use x="3482.394531" xlink:href="#DejaVuSans-116"/>
     <use x="3521.603516" xlink:href="#DejaVuSans-108"/>
     <use x="3549.386719" xlink:href="#DejaVuSans-101"/>
     <use x="3610.910156" xlink:href="#DejaVuSans-97"/>
     <use x="3672.189453" xlink:href="#DejaVuSans-115"/>
     <use x="3724.289062" xlink:href="#DejaVuSans-116"/>
     <use x="3763.498047" xlink:href="#DejaVuSans-51"/>
     <use x="3827.121094" xlink:href="#DejaVuSans-99"/>
     <use x="3882.101562" xlink:href="#DejaVuSans-97"/>
     <use x="3943.380859" xlink:href="#DejaVuSans-108"/>
     <use x="3971.164062" xlink:href="#DejaVuSans-108"/>
     <use x="3998.947266" xlink:href="#DejaVuSans-101"/>
     <use x="4060.470703" xlink:href="#DejaVuSans-114"/>
     <use x="4101.583984" xlink:href="#DejaVuSans-115"/>
    </g>
   </g>
   <g id="legend_1">
    <g id="patch_7">
     <path d="M 938.136875 296.93 
L 1101.0775 296.93 
Q 1105.0775 296.93 1105.0775 292.93 
L 1105.0775 89.43625 
Q 1105.0775 85.43625 1101.0775 85.43625 
L 938.136875 85.43625 
Q 934.136875 85.43625 934.136875 89.43625 
L 934.136875 292.93 
Q 934.136875 296.93 938.136875 296.93 
z
" style="fill:#ffffff;opacity:0.8;stroke:#cccccc;stroke-linejoin:miter;"/>
    </g>
    <g id="LineCollection_15">
     <path d="M 952.136875 101.633125 
L 972.136875 101.633125 
" style="fill:none;stroke:#1f77b4;stroke-width:2;"/>
    </g>
    <g id="LineCollection_16">
     <path d="M 962.136875 111.633125 
L 962.136875 91.633125 
" style="fill:none;stroke:#1f77b4;stroke-width:2;"/>
    </g>
    <g id="line2d_76">
     <path d="M 942.136875 101.633125 
L 982.136875 101.633125 
" style="fill:none;stroke:#1f77b4;stroke-linecap:square;stroke-width:2;"/>
    </g>
    <g id="line2d_77">
     <g>
      <use style="fill:#1f77b4;stroke:#1f77b4;stroke-linejoin:miter;" x="962.136875" xlink:href="#m92ea749aff" y="101.633125"/>
     </g>
    </g>
    <g id="text_16">
     <!-- freebayes -->
     <g transform="translate(998.136875 108.633125)scale(0.2 -0.2)">
      <use xlink:href="#DejaVuSans-102"/>
      <use x="35.205078" xlink:href="#DejaVuSans-114"/>
      <use x="74.068359" xlink:href="#DejaVuSans-101"/>
      <use x="135.591797" xlink:href="#DejaVuSans-101"/>
      <use x="197.115234" xlink:href="#DejaVuSans-98"/>
      <use x="260.591797" xlink:href="#DejaVuSans-97"/>
      <use x="321.871094" xlink:href="#DejaVuSans-121"/>
      <use x="381.050781" xlink:href="#DejaVuSans-101"/>
      <use x="442.574219" xlink:href="#DejaVuSans-115"/>
     </g>
    </g>
    <g id="LineCollection_17">
     <path d="M 952.136875 130.989375 
L 972.136875 130.989375 
" style="fill:none;stroke:#ff7f0e;stroke-width:2;"/>
    </g>
    <g id="LineCollection_18">
     <path d="M 962.136875 140.989375 
L 962.136875 120.989375 
" style="fill:none;stroke:#ff7f0e;stroke-width:2;"/>
    </g>
    <g id="line2d_78">
     <path d="M 942.136875 130.989375 
L 982.136875 130.989375 
" style="fill:none;stroke:#ff7f0e;stroke-linecap:square;stroke-width:2;"/>
    </g>
    <g id="line2d_79">
     <g>
      <use style="fill:#ff7f0e;stroke:#ff7f0e;stroke-linejoin:miter;" x="962.136875" xlink:href="#m609ae5b90c" y="130.989375"/>
     </g>
    </g>
    <g id="text_17">
     <!-- mutect2 -->
     <g transform="translate(998.136875 137.989375)scale(0.2 -0.2)">
      <use xlink:href="#DejaVuSans-109"/>
      <use x="97.412109" xlink:href="#DejaVuSans-117"/>
      <use x="160.791016" xlink:href="#DejaVuSans-116"/>
      <use x="200" xlink:href="#DejaVuSans-101"/>
      <use x="261.523438" xlink:href="#DejaVuSans-99"/>
      <use x="316.503906" xlink:href="#DejaVuSans-116"/>
      <use x="355.712891" xlink:href="#DejaVuSans-50"/>
     </g>
    </g>
    <g id="LineCollection_19">
     <path d="M 952.136875 160.345625 
L 972.136875 160.345625 
" style="fill:none;stroke:#2ca02c;stroke-width:2;"/>
    </g>
    <g id="LineCollection_20">
     <path d="M 962.136875 170.345625 
L 962.136875 150.345625 
" style="fill:none;stroke:#2ca02c;stroke-width:2;"/>
    </g>
    <g id="line2d_80">
     <path d="M 942.136875 160.345625 
L 982.136875 160.345625 
" style="fill:none;stroke:#2ca02c;stroke-linecap:square;stroke-width:2;"/>
    </g>
    <g id="line2d_81">
     <g>
      <use style="fill:#2ca02c;stroke:#2ca02c;stroke-linejoin:miter;" x="962.136875" xlink:href="#m3e914d0679" y="160.345625"/>
     </g>
    </g>
    <g id="text_18">
     <!-- strelka2 -->
     <g transform="translate(998.136875 167.345625)scale(0.2 -0.2)">
      <defs>
       <path d="M 9.078125 75.984375 
L 18.109375 75.984375 
L 18.109375 31.109375 
L 44.921875 54.6875 
L 56.390625 54.6875 
L 27.390625 29.109375 
L 57.625 0 
L 45.90625 0 
L 18.109375 26.703125 
L 18.109375 0 
L 9.078125 0 
z
" id="DejaVuSans-107"/>
      </defs>
      <use xlink:href="#DejaVuSans-115"/>
      <use x="52.099609" xlink:href="#DejaVuSans-116"/>
      <use x="91.308594" xlink:href="#DejaVuSans-114"/>
      <use x="130.171875" xlink:href="#DejaVuSans-101"/>
      <use x="191.695312" xlink:href="#DejaVuSans-108"/>
      <use x="219.478516" xlink:href="#DejaVuSans-107"/>
      <use x="275.638672" xlink:href="#DejaVuSans-97"/>
      <use x="336.917969" xlink:href="#DejaVuSans-50"/>
     </g>
    </g>
    <g id="LineCollection_21">
     <path d="M 952.136875 189.701875 
L 972.136875 189.701875 
" style="fill:none;stroke:#d62728;stroke-width:2;"/>
    </g>
    <g id="LineCollection_22">
     <path d="M 962.136875 199.701875 
L 962.136875 179.701875 
" style="fill:none;stroke:#d62728;stroke-width:2;"/>
    </g>
    <g id="line2d_82">
     <path d="M 942.136875 189.701875 
L 982.136875 189.701875 
" style="fill:none;stroke:#d62728;stroke-linecap:square;stroke-width:2;"/>
    </g>
    <g id="line2d_83">
     <g>
      <use style="fill:#d62728;stroke:#d62728;stroke-linejoin:miter;" x="962.136875" xlink:href="#mf44970b0af" y="189.701875"/>
     </g>
    </g>
    <g id="text_19">
     <!-- vardict -->
     <g transform="translate(998.136875 196.701875)scale(0.2 -0.2)">
      <defs>
       <path d="M 2.984375 54.6875 
L 12.5 54.6875 
L 29.59375 8.796875 
L 46.6875 54.6875 
L 56.203125 54.6875 
L 35.6875 0 
L 23.484375 0 
z
" id="DejaVuSans-118"/>
      </defs>
      <use xlink:href="#DejaVuSans-118"/>
      <use x="59.179688" xlink:href="#DejaVuSans-97"/>
      <use x="120.458984" xlink:href="#DejaVuSans-114"/>
      <use x="159.822266" xlink:href="#DejaVuSans-100"/>
      <use x="223.298828" xlink:href="#DejaVuSans-105"/>
      <use x="251.082031" xlink:href="#DejaVuSans-99"/>
      <use x="306.0625" xlink:href="#DejaVuSans-116"/>
     </g>
    </g>
    <g id="LineCollection_23">
     <path d="M 952.136875 219.058125 
L 972.136875 219.058125 
" style="fill:none;stroke:#9467bd;stroke-width:2;"/>
    </g>
    <g id="LineCollection_24">
     <path d="M 962.136875 229.058125 
L 962.136875 209.058125 
" style="fill:none;stroke:#9467bd;stroke-width:2;"/>
    </g>
    <g id="line2d_84">
     <path d="M 942.136875 219.058125 
L 982.136875 219.058125 
" style="fill:none;stroke:#9467bd;stroke-linecap:square;stroke-width:2;"/>
    </g>
    <g id="line2d_85">
     <g>
      <use style="fill:#9467bd;stroke:#9467bd;stroke-linejoin:miter;" x="962.136875" xlink:href="#m089fb899a9" y="219.058125"/>
     </g>
    </g>
    <g id="text_20">
     <!-- varscan -->
     <g transform="translate(998.136875 226.058125)scale(0.2 -0.2)">
      <use xlink:href="#DejaVuSans-118"/>
      <use x="59.179688" xlink:href="#DejaVuSans-97"/>
      <use x="120.458984" xlink:href="#DejaVuSans-114"/>
      <use x="161.572266" xlink:href="#DejaVuSans-115"/>
      <use x="213.671875" xlink:href="#DejaVuSans-99"/>
      <use x="268.652344" xlink:href="#DejaVuSans-97"/>
      <use x="329.931641" xlink:href="#DejaVuSans-110"/>
     </g>
    </g>
    <g id="LineCollection_25">
     <path d="M 952.136875 248.414375 
L 972.136875 248.414375 
" style="fill:none;stroke:#bcbd22;stroke-width:2;"/>
    </g>
    <g id="LineCollection_26">
     <path d="M 962.136875 258.414375 
L 962.136875 238.414375 
" style="fill:none;stroke:#bcbd22;stroke-width:2;"/>
    </g>
    <g id="line2d_86">
     <path d="M 942.136875 248.414375 
L 982.136875 248.414375 
" style="fill:none;stroke:#bcbd22;stroke-linecap:square;stroke-width:2;"/>
    </g>
    <g id="line2d_87">
     <g>
      <use style="fill:#bcbd22;stroke:#bcbd22;stroke-linejoin:miter;" x="962.136875" xlink:href="#md88135d146" y="248.414375"/>
     </g>
    </g>
    <g id="text_21">
     <!-- smurf -->
     <g transform="translate(998.136875 255.414375)scale(0.2 -0.2)">
      <use xlink:href="#DejaVuSans-115"/>
      <use x="52.099609" xlink:href="#DejaVuSans-109"/>
      <use x="149.511719" xlink:href="#DejaVuSans-117"/>
      <use x="212.890625" xlink:href="#DejaVuSans-114"/>
      <use x="254.003906" xlink:href="#DejaVuSans-102"/>
     </g>
    </g>
    <g id="LineCollection_27">
     <path d="M 952.136875 277.770625 
L 972.136875 277.770625 
" style="fill:none;stroke:#e377c2;stroke-width:2;"/>
    </g>
    <g id="LineCollection_28">
     <path d="M 962.136875 287.770625 
L 962.136875 267.770625 
" style="fill:none;stroke:#e377c2;stroke-width:2;"/>
    </g>
    <g id="line2d_88">
     <path d="M 942.136875 277.770625 
L 982.136875 277.770625 
" style="fill:none;stroke:#e377c2;stroke-linecap:square;stroke-width:2;"/>
    </g>
    <g id="line2d_89">
     <g>
      <use style="fill:#e377c2;stroke:#e377c2;stroke-linejoin:miter;" x="962.136875" xlink:href="#mb09261f017" y="277.770625"/>
     </g>
    </g>
    <g id="text_22">
     <!-- sinvict -->
     <g transform="translate(998.136875 284.770625)scale(0.2 -0.2)">
      <use xlink:href="#DejaVuSans-115"/>
      <use x="52.099609" xlink:href="#DejaVuSans-105"/>
      <use x="79.882812" xlink:href="#DejaVuSans-110"/>
      <use x="143.261719" xlink:href="#DejaVuSans-118"/>
      <use x="202.441406" xlink:href="#DejaVuSans-105"/>
      <use x="230.224609" xlink:href="#DejaVuSans-99"/>
      <use x="285.205078" xlink:href="#DejaVuSans-116"/>
     </g>
    </g>
   </g>
  </g>
 </g>
 <defs>
  <clipPath id="p185d4149bd">
   <rect height="554.4" width="837" x="87.136875" y="75.43625"/>
  </clipPath>
 </defs>
</svg>
